<?xml version="1.0" encoding="utf-8"?>
<!-- Generator: Adobe Illustrator 19.2.0, SVG Export Plug-In . SVG Version: 6.00 Build 0)  -->
<svg version="1.1" id="thumbnail" xmlns="http://www.w3.org/2000/svg" xmlns:xlink="http://www.w3.org/1999/xlink" x="0px" y="0px"
	 viewBox="0 0 224 168" enable-background="new 0 0 224 168" xml:space="preserve">
<g>
	<rect x="152" y="96" fill="none" width="40" height="32"/>
	<rect x="92" y="96" fill="none" width="40" height="32"/>
	<rect x="32" y="44" fill="none" width="40" height="32"/>
	<rect x="8" y="8" fill="none" width="208" height="12"/>
	<rect x="32" y="96" fill="none" width="40" height="32"/>
	<rect x="92" y="44" fill="none" width="40" height="32"/>
	<rect x="152" y="44" fill="none" width="40" height="32"/>
	<path fill="none" d="M8,28v132h208V28H8z M80,132c0,2.2108-1.7893,4-4,4H28c-2.2109,0-4-1.7892-4-4V92c0-2.2108,1.7891-4,4-4h48
		c2.2107,0,4,1.7892,4,4V132z M80,80c0,2.2108-1.7893,4-4,4H28c-2.2109,0-4-1.7892-4-4V40c0-2.2108,1.7891-4,4-4h48
		c2.2107,0,4,1.7892,4,4V80z M140,132c0,2.2108-1.7893,4-4,4H88c-2.2109,0-4-1.7892-4-4V92c0-2.2108,1.7891-4,4-4h48
		c2.2107,0,4,1.7892,4,4V132z M140,80c0,2.2108-1.7893,4-4,4H88c-2.2109,0-4-1.7892-4-4V40c0-2.2108,1.7891-4,4-4h48
		c2.2107,0,4,1.7892,4,4V80z M200,132c0,2.2108-1.7893,4-4,4h-48c-2.2109,0-4-1.7892-4-4V92c0-2.2108,1.7891-4,4-4h48
		c2.2107,0,4,1.7892,4,4V132z M200,80c0,2.2108-1.7893,4-4,4h-48c-2.2109,0-4-1.7892-4-4V40c0-2.2108,1.7891-4,4-4h48
		c2.2107,0,4,1.7892,4,4V80z"/>
	<path d="M220,0H4C1.7891,0,0,1.7892,0,4v20v140c0,2.2108,1.7891,4,4,4h216c2.2107,0,4-1.7892,4-4V24V4C224,1.7892,222.2107,0,220,0
		z M8,8h208v12H8V8z M8,160V28h208v132H8z"/>
	<path d="M76,36H28c-2.2109,0-4,1.7892-4,4v40c0,2.2108,1.7891,4,4,4h48c2.2107,0,4-1.7892,4-4V40C80,37.7892,78.2107,36,76,36z
		 M72,76H32V44h40V76z"/>
	<path d="M76,88H28c-2.2109,0-4,1.7892-4,4v40c0,2.2108,1.7891,4,4,4h48c2.2107,0,4-1.7892,4-4V92C80,89.7892,78.2107,88,76,88z
		 M72,128H32V96h40V128z"/>
	<path d="M196,36h-48c-2.2109,0-4,1.7892-4,4v40c0,2.2108,1.7891,4,4,4h48c2.2107,0,4-1.7892,4-4V40C200,37.7892,198.2107,36,196,36
		z M192,76h-40V44h40V76z"/>
	<path d="M196,88h-48c-2.2109,0-4,1.7892-4,4v40c0,2.2108,1.7891,4,4,4h48c2.2107,0,4-1.7892,4-4V92C200,89.7892,198.2107,88,196,88
		z M192,128h-40V96h40V128z"/>
	<path d="M136,36H88c-2.2109,0-4,1.7892-4,4v40c0,2.2108,1.7891,4,4,4h48c2.2107,0,4-1.7892,4-4V40C140,37.7892,138.2107,36,136,36z
		 M132,76H92V44h40V76z"/>
	<path d="M136,88H88c-2.2109,0-4,1.7892-4,4v40c0,2.2108,1.7891,4,4,4h48c2.2107,0,4-1.7892,4-4V92C140,89.7892,138.2107,88,136,88z
		 M132,128H92V96h40V128z"/>
</g>
</svg>
