<?xml version="1.0" encoding="utf-8"?>
<svg version="1.1" id="Laag_1" xmlns="http://www.w3.org/2000/svg" xmlns:xlink="http://www.w3.org/1999/xlink" x="0px" y="0px"
	 viewBox="0 0 70 70" width="70px" height="70px" style="enable-background:new 0 0 70 70;" xml:space="preserve">
<style type="text/css">
	.st0{fill:none;stroke:#ffffff;stroke-width:2;stroke-linejoin:round;stroke-miterlimit:10;}
	.st1{fill:none;stroke:#ffffff;stroke-width:2;stroke-linecap:round;stroke-linejoin:round;stroke-miterlimit:10;}
	.st2{fill:none;stroke:#ffffff;stroke-width:2;stroke-miterlimit:10;}
</style>
<g>
	<g>
		<line class="st0" x1="19" y1="58.5" x2="19" y2="64.5"/>
		<line class="st0" x1="51" y1="58.5" x2="51" y2="64.5"/>
	</g>
	<g>
		<g>
			<path class="st1" d="M48.5,44.9c4-0.7,3.5-5.9,3.5-5.9c-8.8-2.6-3.3-12.5-3-14.2"/>
		</g>
		<g>
			<path class="st1" d="M21.9,44.8c-4-0.7-3.8-5.8-3.8-5.8c8.8-2.6,3.3-12.7,2.9-14.4"/>
		</g>
		<path class="st1" d="M20.9,24.6c-0.4-1.2-0.7-2.6-0.7-4.4c0-8.1,6.6-14.7,14.7-14.7c8.1,0,14.7,6.6,14.7,14.7
			c0,1.9-0.4,3.7-1.1,5.4"/>
	</g>
	<line class="st0" x1="43.9" y1="27.5" x2="44" y2="19.5"/>
	<path class="st0" d="M26.1,26.7C26,32.4,29.8,38,35,38c5.2,0,9-5.3,8.9-11"/>
	<line class="st0" x1="26" y1="18.5" x2="26.1" y2="27.5"/>
	<g>
		<path class="st2" d="M61,64.5v-9c0-6.1-5-8-11-10c0,0-9-3-9-5s0-5,0-5"/>
		<path class="st2" d="M9,64.5v-9c0-6.1,5-8,11-10c0,0,9-3,9-5s0-5,0-5"/>
	</g>
	<g>
		<path class="st0" d="M51.5,45.5c0,0.5-1,1.3-2.6,2.3c-8.4,5-19.4,5-27.8,0c-1.5-0.9-2.6-1.7-2.6-2.3"/>
	</g>
	<path class="st0" d="M24,17.5c6.8,5,20-5.2,20,2"/>
</g>
</svg>
