<?xml version="1.0" encoding="utf-8"?>
<!-- Generator: Adobe Illustrator 21.1.0, SVG Export Plug-In . SVG Version: 6.00 Build 0)  -->
<svg version="1.1" id="Laag_1" xmlns="http://www.w3.org/2000/svg" xmlns:xlink="http://www.w3.org/1999/xlink" x="0px" y="0px"
	 viewBox="0 0 70 70" style="enable-background:new 0 0 70 70;" xml:space="preserve">
<style type="text/css">
	.st0{fill:none;stroke:#444444;stroke-width:2;stroke-linejoin:round;stroke-miterlimit:10;}
	.st1{fill:none;stroke:#444444;stroke-width:2;stroke-linecap:round;stroke-linejoin:round;stroke-miterlimit:10;}
</style>
<g>
	<g>
		<line class="st0" x1="19" y1="45.5" x2="19" y2="65.5"/>
		<line class="st0" x1="23" y1="43.5" x2="23" y2="65.5"/>
	</g>
	<g>
		<line class="st0" x1="51" y1="45.5" x2="51" y2="65.5"/>
		<line class="st0" x1="47" y1="43.5" x2="47" y2="65.5"/>
	</g>
	<polyline class="st0" points="43,41.5 35,49.5 27,41.5 	"/>
	<polygon class="st0" points="40,52.5 35,49.5 30,52.5 27,52.5 27,46.5 30,46.5 35,49.5 40,46.5 43,46.5 43,52.5 	"/>
	<g>
		<line class="st0" x1="35" y1="53.5" x2="35" y2="55.5"/>
		<line class="st0" x1="35" y1="57.5" x2="35" y2="59.5"/>
		<line class="st0" x1="35" y1="61.5" x2="35" y2="63.5"/>
	</g>
	<g>
		<g>
			<circle class="st0" cx="30.4" cy="22" r="2.7"/>
			<circle class="st0" cx="39.6" cy="22" r="2.7"/>
			<line class="st0" x1="27.7" y1="22" x2="25" y2="22"/>
			<line class="st0" x1="42.3" y1="22" x2="45" y2="22"/>
			<line class="st0" x1="33.2" y1="22" x2="36.8" y2="22"/>
		</g>
		<g>
			<path class="st1" d="M20.3,26.3c-0.7,0.1-1.6,0-2.4-1.1c-0.1-0.1-0.3-0.6-0.3-1.2c0-0.6,0.3-1.3,1.2-2c0.1-0.1,0.2-0.2,0.2-0.4
				c0,0,0-0.1,0-0.1c0-0.2-0.2-0.3-0.3-0.4c-0.1,0-2.3-0.6-2.3-2.6c0-0.1,0-0.1,0-0.2c0.1-2.3,2.3-2.5,2.4-2.5
				c0.2,0,0.3-0.1,0.4-0.3c0,0,0-0.1,0-0.2c0-0.1-0.1-0.3-0.2-0.3c-0.1-0.1-1.4-1.2-1.4-2.7c0-0.5,0.1-1,0.5-1.6
				c0.1-0.1,1.3-1.9,3.8-0.7c0.1,0.1,0.3,0.1,0.5,0c0.1-0.1,0.2-0.3,0.2-0.4c0,0-0.1-1.4,0.6-2.3c0.4-0.5,1-0.8,1.8-0.8c0,0,0,0,0,0
				c0.2,0,2.3-0.2,2.8,2.4c0,0.2,0.2,0.3,0.3,0.3c0.2,0.1,0.3,0,0.5-0.1c0,0,0.8-0.8,2.3-0.3c0.3,0.1,0.7,0.4,1.1,0.8"/>
			<path class="st1" d="M38.1,9.6c0.3-0.4,0.8-0.7,1.1-0.8c1.4-0.4,2.2,0.3,2.3,0.3c0.1,0.1,0.3,0.2,0.5,0.1
				c0.2-0.1,0.3-0.2,0.3-0.3c0.5-2.6,2.5-2.4,2.8-2.4c0,0,0,0,0,0c0.8,0.1,1.4,0.3,1.8,0.8c0.8,0.9,0.6,2.3,0.6,2.3
				c0,0.2,0.1,0.3,0.2,0.4c0.1,0.1,0.3,0.1,0.5,0c2.5-1.2,3.7,0.6,3.8,0.7c0.4,0.6,0.5,1.2,0.5,1.7c0,1.6-1.2,2.6-1.3,2.6
				c-0.1,0.1-0.2,0.2-0.2,0.4c0,0,0,0.1,0,0.1c0.1,0.2,0.2,0.3,0.4,0.3c0.1,0,2.2,0.1,2.4,2.5c0,0.1,0,0.1,0,0.2
				c0,2-2.2,2.6-2.3,2.6c-0.2,0-0.3,0.2-0.3,0.4c0,0,0,0.1,0,0.1c0,0.1,0.1,0.3,0.2,0.4c0.9,0.6,1.2,1.4,1.2,2
				c0,0.6-0.3,1.1-0.3,1.2c-0.8,1.1-1.7,1.2-2.4,1.1"/>
			<path class="st1" d="M45.9,30.6c-1,0.3-1.7-0.1-1.8-0.1l-0.5-0.2l-0.2,0.5c-2.8,7.1-8.1,6.8-8.4,6.8l0,0l0,0
				c-0.2,0-5.7,0.5-8.5-6.8l-0.2-0.5l-0.5,0.2c0,0-0.8,0.4-1.8,0.1c-0.9-0.3-1.7-1.2-2.4-2.6c-1-2.2-0.5-3.7,0.3-4.3
				c0.5-0.4,1.7-0.5,2.4,0l0.8,0.5l-0.1-1c0-0.1-0.6-6.6,2.9-10.4c1.7-1.8,4-2.8,7-2.8c3,0,5.3,0.9,7,2.8c3.5,3.8,2.9,10.3,2.9,10.4
				l-0.1,1l0.8-0.5c0.7-0.5,1.9-0.4,2.4,0c0.7,0.6,1.3,2.1,0.3,4.3C47.6,29.4,46.8,30.3,45.9,30.6z"/>
			<path class="st0" d="M30.3,30.3c2.2,0,2.9-2.4,4.8-2.4c1.8,0,1.8,2.4,4.7,2.4"/>
		</g>
	</g>
	<g>
		<path class="st0" d="M41,34.5v4c0,1.7,3,3,3,3l6,3c6,2,11,5.9,11,12v9"/>
		<path class="st0" d="M29,34.5v4c0,1.7-3,3-3,3l-6,3c-6,2-11,5.9-11,12v9"/>
	</g>
</g>
</svg>
