<?xml version="1.0" encoding="utf-8"?>
<svg version="1.1" id="Laag_1" xmlns="http://www.w3.org/2000/svg" xmlns:xlink="http://www.w3.org/1999/xlink" x="0px" y="0px"
	 viewBox="0 0 70 70" width="70px" height="70px" style="enable-background:new 0 0 70 70;" xml:space="preserve">
<style type="text/css">
	.st0{fill:none;stroke:#ffffff;stroke-width:2;stroke-linejoin:round;stroke-miterlimit:10;}
	.st1{fill:none;stroke:#ffffff;stroke-width:2;stroke-miterlimit:10;}
	.st2{fill:none;stroke:#ffffff;stroke-width:2;stroke-linejoin:round;}
	.st3{fill:#726658;stroke:#ffffff;stroke-miterlimit:10;}
</style>
<g>
	<g>
		<line class="st0" x1="19" y1="58.5" x2="19" y2="64.5"/>
		<line class="st0" x1="51" y1="58.5" x2="51" y2="64.5"/>
	</g>
	<g>
		<path class="st1" d="M61,64.5v-9c0-6.1-5-8-11-10c0,0-9-3-9-5s0-4,0-4"/>
		<path class="st1" d="M9,64.5v-9c0-6.1,5-8,11-10c0,0,9-3,9-5s0-4,0-4"/>
	</g>
	<g>
		<path class="st2" d="M27.6,12.8c0-0.3-0.1-0.5-0.1-0.8c0-3.3,3.4-6.5,7.5-6.5s7.5,3.2,7.5,6.5c0,0.3,0,0.6-0.1,0.8"/>
		<path class="st2" d="M44.5,25.2c1.3-1.5,2-3.3,2-5.3c0-5.2-5.1-9.3-11.5-9.3S23.5,14.8,23.5,20c0,1.9,0.7,3.7,2,5.2"/>
		<path class="st0" d="M38.2,14.7c0,3.2-3.2,9.6-12.7,9.6v1C25.5,32.8,30,40,35,40s9.5-7.2,9.5-14.8v-2.1c0-2.3-1.9-4.2-4.2-4.2
			h-3.2"/>
	</g>
	<g>
		<g>
			<path class="st0" d="M47,44.5c-1.6,5.2-7,16-7,16h-5"/>
		</g>
		<g>
			<path class="st0" d="M23,44.5c1.6,5.2,7,16,7,16h5"/>
		</g>
	</g>
	<g>
		<path class="st0" d="M37.5,43.7c1.7-0.3,3.6-0.8,5.5-1.7"/>
		<path class="st0" d="M27,42c0,0,2.1,1.3,5.5,1.8"/>
		<circle class="st3" cx="35" cy="44" r="1"/>
	</g>
</g>
</svg>
