<?xml version="1.0" encoding="utf-8"?>
<svg version="1.1" id="Laag_1" xmlns="http://www.w3.org/2000/svg" xmlns:xlink="http://www.w3.org/1999/xlink" x="0px" y="0px"
	 viewBox="0 0 70 70" width="70px" height="70px" style="enable-background:new 0 0 70 70;" xml:space="preserve">
<style type="text/css">
	.st0{fill:none;stroke:#ffffff;stroke-width:2;stroke-linejoin:round;stroke-miterlimit:10;}
	.st1{fill:none;stroke:#ffffff;stroke-width:2.0645;stroke-linejoin:round;stroke-miterlimit:10;}
	.st2{fill:none;stroke:#ffffff;stroke-width:2;stroke-miterlimit:10;}
</style>
<g>
	<g>
		<line class="st0" x1="19" y1="58.5" x2="19" y2="64.5"/>
		<line class="st0" x1="51" y1="58.5" x2="51" y2="64.5"/>
	</g>
	<g>
		<path class="st1" d="M28.8,39.5c-3.1,0-10.6-0.1-10.6-0.1S16,5.5,33.9,5.5h2.2c18.5,0,15.7,33.9,15.7,33.9s-7.5,0.1-10.6,0.1"/>
	</g>
	<path class="st0" d="M44,19c0,0-3.1,2-7,2c-3.9,0-7-1.8-7-4c0,2.2-1.8,4-4,4v3c0,7.2,1,14,9,14s9-6.8,9-14l0,0V19z"/>
	<line class="st0" x1="35" y1="52" x2="35" y2="54"/>
	<line class="st0" x1="35" y1="56" x2="35" y2="58"/>
	<line class="st0" x1="35" y1="60" x2="35" y2="62"/>
	<line class="st0" x1="39" y1="48.5" x2="39" y2="64.5"/>
	<line class="st0" x1="31" y1="64.5" x2="31" y2="48.5"/>
	<path class="st0" d="M45.5,43.6c-0.8,2.7-5.2,4.8-10.5,4.8c-5.3,0-9.7-2.1-10.5-4.7"/>
	<g>
		<path class="st2" d="M61,64.5v-9c0-6.1-5-8-11-10c0,0-9-3-9-5s0-5,0-5"/>
		<path class="st2" d="M9,64.5v-9c0-6.1,5-8,11-10c0,0,9-3,9-5s0-5,0-5"/>
	</g>
</g>
</svg>
