<?xml version="1.0" encoding="utf-8"?>
<svg version="1.1" id="Laag_1" xmlns="http://www.w3.org/2000/svg" xmlns:xlink="http://www.w3.org/1999/xlink" x="0px" y="0px"
	 viewBox="0 0 70 70" width="70px" height="70px" style="enable-background:new 0 0 70 70;" xml:space="preserve">
<style type="text/css">
	.st0{fill:none;stroke:#444444;stroke-width:2;stroke-linejoin:round;stroke-miterlimit:10;}
	.st1{fill:none;stroke:#444444;stroke-width:2;stroke-miterlimit:10;}
</style>
<g>
	<line class="st0" x1="19" y1="58.5" x2="19" y2="64.5"/>
	<line class="st0" x1="51" y1="58.5" x2="51" y2="64.5"/>
	<path class="st1" d="M61,64.5v-9c0-6.1-5-8-11-10c0,0-9-3-9-5"/>
	<path class="st1" d="M9,64.5v-9c0-6.1,5-8,11-10c0,0,9-3,9-5"/>
	<polyline class="st0" points="35.3,64 26.3,52 20.3,52 26.3,43 29.3,41 	"/>
	<polyline class="st0" points="34.8,64 43.8,52 49.8,52 43.8,43 40.8,41 	"/>
	<polyline class="st0" points="29,37.5 29,45.5 35,64.5 41,45.5 41,37.5 	"/>
	<path class="st0" d="M41,42.5c0,2.2-2.7,4-6,4c-3.3,0-6-1.8-6-4"/>
	<path class="st0" d="M31.8,13.8c0,3.2,3.2,10.6,12.7,10.6l0,0c0,7.6-1.1,14.8-9.5,14.8c-8.4,0-9.5-7.2-9.5-14.8v-2.1
		c0-2.3,1.9-4.2,4.2-4.2h3.2"/>
	<path class="st0" d="M19,25.7C18.3,27,18,28.4,18,30c0,4.7,5.3,6.5,10,6.5"/>
	<path class="st0" d="M47.8,26.9c2.9,0,5.3-2.4,5.3-5.4c0-2.9-2.4-6.4-5.3-6.4c0-5.9-4.8-9.6-10.6-9.6h-4.3
		c-5.9,0-10.6,3.7-10.6,9.6c-2.9,0-5.3,3.4-5.3,6.4c0,2.9,2.4,5.4,5.3,5.4"/>
	<path class="st0" d="M51,25.7C51.7,27,52,28.4,52,30c0,4.7-5.3,6.5-10,6.5"/>
</g>
</svg>
