<?xml version="1.0" encoding="utf-8"?>
<svg version="1.1" id="Laag_1" xmlns="http://www.w3.org/2000/svg" xmlns:xlink="http://www.w3.org/1999/xlink" x="0px" y="0px"
	 viewBox="0 0 70 70" width="70px" height="70px" style="enable-background:new 0 0 70 70;" xml:space="preserve">
<style type="text/css">
	.st0{fill:none;stroke:#ffffff;stroke-width:2;stroke-linejoin:round;stroke-miterlimit:10;}
	.st1{fill:none;stroke:#ffffff;stroke-width:2;stroke-linecap:round;stroke-linejoin:round;stroke-miterlimit:10;}
</style>
<g>
	<g>
		<line class="st0" x1="51" y1="44.5" x2="51" y2="64.5"/>
		<line class="st0" x1="47" y1="41.9" x2="47" y2="64.5"/>
		<line class="st0" x1="19" y1="44.5" x2="19" y2="64.5"/>
		<line class="st0" x1="23" y1="41.9" x2="23" y2="64.5"/>
		<g>
			<path class="st0" d="M29,37.5c0,1.7-3,3-3,3l-6,3c-6,2-11,5.9-11,12v9"/>
		</g>
		<g>
			<path class="st0" d="M41,37.5c0,1.7,3,3,3,3l6,3c6,2,11,5.9,11,12v9"/>
		</g>
		<path class="st0" d="M26,40.8c0,2.2,4,8,9,8s9-5.8,9-8"/>
		<path class="st0" d="M25.5,28.5c0,4.4,3,12,9,12c7.2,0,10-7.2,10-12.1"/>
		<path class="st0" d="M45,22.5c0-2.3-2.6-6.7-2.6-6.7c-0.9-1.2-2.1-1.8-3.4-1.8h-7.9c-1.2,0-2.4,0.7-3.4,1.8c0,0-2.5,3.9-2.5,6.1"
			/>
	</g>
	<path class="st1" d="M28.1,37.9c-2.1,2.6-7.4,1.8-7.6,1.4c-0.4-0.8-1.4-2.4-1.8-3.3c-0.3-0.9-1.9-1.2-2.1-2.1
		c-0.2-0.9,1.1-2.2,1-3.1C17.5,29.8,16,28.9,16,28c0-1,1.5-1.8,1.6-2.7c0.1-0.9-1.2-2.2-1-3.1c0.2-0.9,1.8-1.3,2.1-2.1
		c0.3-0.9-0.6-2.5-0.2-3.3c0.4-0.8,2.1-0.6,2.5-1.4c0.5-0.7-0.1-2.6,0.5-3.3c0.6-0.7,2.1,0,2.8-0.6c0.6-0.6,0.5-2.5,1.2-3
		c0.7-0.5,2,0.7,2.8,0.3c0.7-0.4,1-2.3,1.8-2.5c0.8-0.2,1.8,1.3,2.6,1.1c0.8-0.1,1.5-1.9,2.3-1.9c0.8,0,1.5,1.8,2.3,1.9
		c0.8,0.1,1.9-1.4,2.6-1.1c0.8,0.2,1.1,2.2,1.8,2.5c0.7,0.4,2.1-0.8,2.8-0.3c0.7,0.5,0.5,2.4,1.2,3c0.6,0.6,2.2-0.1,2.8,0.6
		c0.6,0.7,0,2.5,0.5,3.3c0.5,0.7,2.1,0.6,2.5,1.4c0.4,0.8-0.6,2.4-0.2,3.3c0.3,0.9,1.9,1.2,2.1,2.1c0.2,0.9-1.1,2.2-1,3.1
		C52.5,26.2,54,27,54,28c0,1-1.5,1.8-1.6,2.7c-0.1,0.9,1.2,2.2,1,3.1c-0.2,0.9-1.8,1.3-2.1,2.1c-0.3,0.9-1.4,2.5-1.8,3.3
		c-0.2,0.5-5.5,1.3-7.6-1.4"/>
	<g>
		<g>
			<path class="st0" d="M28.4,21.4c4.5,0,7.8,0.5,5.6,6c-0.9,2.2-2.2,2.7-5.6,2.7c-2.2,0-3.6-0.2-4.8-3.8
				C22.5,22.7,25,21.4,28.4,21.4z"/>
			<line class="st0" x1="32.8" y1="21.8" x2="25.3" y2="30.3"/>
		</g>
	</g>
	<g>
		<g>
			<path class="st0" d="M40.9,21.3c-4.5,0-7.8,0.5-5.6,6c0.9,2.2,2.2,2.7,5.6,2.7c2.2,0,3.6-0.2,4.8-3.8
				C46.8,22.5,44.3,21.3,40.9,21.3z"/>
			<line class="st0" x1="43.9" y1="21.7" x2="37.1" y2="29.4"/>
		</g>
	</g>
</g>
</svg>
