<?xml version="1.0" encoding="utf-8"?>
<svg version="1.1" id="Laag_1" xmlns="http://www.w3.org/2000/svg" xmlns:xlink="http://www.w3.org/1999/xlink" x="0px" y="0px"
	 viewBox="0 0 70 70" width="70px" height="70px" style="enable-background:new 0 0 70 70;" xml:space="preserve">
<style type="text/css">
	.st0{fill:none;stroke:#ffffff;stroke-width:2;stroke-linejoin:round;stroke-miterlimit:10;}
	.st1{fill:none;stroke:#ffffff;stroke-width:2;stroke-miterlimit:10;}
</style>
<g>
	<path class="st0" d="M46.3,43.7c4.2-7.9,3.2-20.4,3.2-25.2c0-7.2-6.5-13-14.5-13c-8,0-14.5,5.8-14.5,13c0,4.8-1,17.3,3.2,25.1"/>
	<path class="st0" d="M38.2,13.8c0,3.2-3.2,10.6-12.7,10.6l0,0c0,7.6,4.5,14.8,9.5,14.8s9.5-7.2,9.5-14.8v-2.1
		c0-2.3-1.9-4.2-4.2-4.2h-3.2"/>
	<g>
		<line class="st0" x1="19" y1="58.5" x2="19" y2="64.5"/>
		<line class="st0" x1="51" y1="58.5" x2="51" y2="64.5"/>
	</g>
	<g>
		<path class="st1" d="M61,64.5v-9c0-6.1-5-8-11-10c0,0-9-3-9-5s0-5,0-5"/>
		<path class="st1" d="M9,64.5v-9c0-6.1,5-8,11-10c0,0,9-3,9-5s0-5,0-5"/>
	</g>
	<path class="st0" d="M50.2,45.8l-2.2,1.4c-7.1,4.4-18.7,4.4-25.8,0l-2.2-1.4"/>
</g>
</svg>
