<?xml version="1.0" encoding="utf-8"?>
<!-- Generator: Adobe Illustrator 21.1.0, SVG Export Plug-In . SVG Version: 6.00 Build 0)  -->
<svg version="1.1" id="Laag_1" xmlns="http://www.w3.org/2000/svg" xmlns:xlink="http://www.w3.org/1999/xlink" x="0px" y="0px"
	 viewBox="0 0 70 70" style="enable-background:new 0 0 70 70;" xml:space="preserve">
<style type="text/css">
	.st0{fill:none;stroke:#444444;stroke-width:2;stroke-linejoin:round;stroke-miterlimit:10;}
	.st1{fill:none;stroke:#444444;stroke-width:2;}
	.st2{fill:none;stroke:#444444;stroke-width:2;stroke-linejoin:round;}
</style>
<g>
	<path class="st0" d="M43,40.5l-0.9,0.9c-3.9,3.9-10.2,3.9-14.1,0L27,40.5"/>
	<g>
		<path class="st0" d="M41,33.5v4c0,1.7,3,3,3,3l6,3c6,2,11,5.9,11,12v9"/>
		<path class="st0" d="M29,33.5v4c0,1.7-3,3-3,3l-6,3c-6,2-11,5.9-11,12v9"/>
	</g>
	<g>
		<line class="st0" x1="51" y1="58.5" x2="51" y2="64.5"/>
		<line class="st0" x1="19" y1="58.5" x2="19" y2="64.5"/>
	</g>
	<line class="st0" x1="39" y1="54.5" x2="47" y2="54.5"/>
	<g>
		<path class="st1" d="M48.3,20.1c0-2-0.2-3.8-2.1-4.3c-0.7-5.8-3-10.3-11.3-10.3c-8.2,0-10.6,4.5-11.3,10.2
			c-2.1,0.4-2.3,2.3-2.3,4.3c0,1.8,1.1,3.4,2.3,4c1.2,6.8,6.4,11.9,11.3,11.9c4.9,0,10.2-5.2,11.3-12C47.4,23.3,48.3,21.8,48.3,20.1
			z"/>
		<polyline class="st2" points="31,35.5 33,30.5 37,30.5 39,35.5 		"/>
	</g>
</g>
</svg>
