<?xml version="1.0" encoding="utf-8"?>
<!-- Generator: Adobe Illustrator 21.1.0, SVG Export Plug-In . SVG Version: 6.00 Build 0)  -->
<svg version="1.1" id="Laag_1" xmlns="http://www.w3.org/2000/svg" xmlns:xlink="http://www.w3.org/1999/xlink" x="0px" y="0px"
	 viewBox="0 0 70 70" style="enable-background:new 0 0 70 70;" xml:space="preserve">
<style type="text/css">
	.st0{fill:none;stroke:#444444;stroke-width:2;stroke-linejoin:round;stroke-miterlimit:10;}
	.st1{fill:none;stroke:#444444;stroke-width:2;stroke-miterlimit:10;}
</style>
<g>
	<g>
		<path class="st0" d="M38.2,13.8c0,3.2-3.2,10.6-12.7,10.6l0,0c0,7.6,4.5,14.8,9.5,14.8s9.5-7.2,9.5-14.8v-2.1
			c0-2.3-1.9-4.2-4.2-4.2h-3.2"/>
		<g>
			<line class="st0" x1="19" y1="58.5" x2="19" y2="64.5"/>
			<line class="st0" x1="51" y1="58.5" x2="51" y2="64.5"/>
		</g>
		<g>
			<path class="st0" d="M50.7,25.7c0.7,1.3,1.1,2.7,1.1,4.3c0,2.9-0.9,11.8-9.5,11.8"/>
			<path class="st0" d="M19.3,25.7c-0.7,1.3-1.1,2.7-1.1,4.3c0,2.9,0.9,11.8,9.5,11.8"/>
			<path class="st0" d="M22.2,27.9c-2.9,0-5.3-3.4-5.3-6.4c0-2.9,2.4-6.4,5.3-6.4c0-5.9,4.8-9.6,10.6-9.6h4.3
				c5.9,0,10.6,3.7,10.6,9.6c2.9,0,5.3,3.4,5.3,6.4c0,2.9-2.4,6.4-5.3,6.4"/>
		</g>
	</g>
	<g>
		<path class="st1" d="M61,64.5v-9c0-6.1-5-8-11-10c0,0-9-3-9-5s0-5,0-5"/>
		<path class="st1" d="M9,64.5v-9c0-6.1,5-8,11-10c0,0,9-3,9-5s0-5,0-5"/>
		<path class="st0" d="M23,44.5v3c0,6.6,12,12,12,12s12-5.4,12-12v-3"/>
	</g>
</g>
</svg>
