<?xml version="1.0" encoding="utf-8"?>
<!-- Generator: Adobe Illustrator 21.1.0, SVG Export Plug-In . SVG Version: 6.00 Build 0)  -->
<svg version="1.1" id="Laag_1" xmlns="http://www.w3.org/2000/svg" xmlns:xlink="http://www.w3.org/1999/xlink" x="0px" y="0px"
	 viewBox="0 0 70 70" style="enable-background:new 0 0 70 70;" xml:space="preserve">
<style type="text/css">
	.st0{fill:none;stroke:#444444;stroke-width:2;stroke-linejoin:round;stroke-miterlimit:10;}
</style>
<g>
	<line class="st0" x1="51" y1="58.5" x2="51" y2="64.5"/>
	<line class="st0" x1="19" y1="58.5" x2="19" y2="64.5"/>
	<g>
		<path class="st0" d="M29,35.5v2c0,1.7-3,3-3,3l-6,3c-6,2-11,5.9-11,12v9"/>
		<path class="st0" d="M41,35.5v2c0,1.7,3,3,3,3l6,3c6,2,11,5.9,11,12v9"/>
	</g>
	<path class="st0" d="M24,11.5c0-1.7,1.3-3,3-3h1c0-1.7,1.3-3,3-3h11c2.2,0,4,1.8,4,4v10h-2c-2.4,0-4-7-4-7l-3,2.9h-8
		c-1.1,0-2,0.9-2,2v2.1c0,1.1-1.9,1-3,1V11.5z"/>
	<path class="st0" d="M26,40.8c0,2.2,4,4,9,4c5,0,9-1.8,9-4"/>
	<path class="st0" d="M24,20.5v4l1,1c0,5,3,12,10,12s10-7,10-12l1-1v-5"/>
</g>
</svg>
