<?xml version="1.0" encoding="utf-8"?>
<svg version="1.1" id="Laag_1" xmlns="http://www.w3.org/2000/svg" xmlns:xlink="http://www.w3.org/1999/xlink" x="0px" y="0px"
	 viewBox="0 0 70 70" width="70px" height="70px" style="enable-background:new 0 0 70 70;" xml:space="preserve">
<style type="text/css">
	.st0{fill:none;stroke:#ffffff;stroke-width:2;stroke-linejoin:round;stroke-miterlimit:10;}
</style>
<g>
	<g>
		<path class="st0" d="M43,40.5c0,0-5.4,11.9-8,11.9c-2.6,0-8-11.9-8-11.9"/>
		<g>
			<path class="st0" d="M41,33.5v4c0,1.7,3,3,3,3l6,3c6,2,11,5.9,11,12v9"/>
			<path class="st0" d="M29,33.5v4c0,1.7-3,3-3,3l-6,3c-6,2-11,5.9-11,12v9"/>
		</g>
		<g>
			<line class="st0" x1="51" y1="58.5" x2="51" y2="64.5"/>
			<line class="st0" x1="19" y1="58.5" x2="19" y2="64.5"/>
		</g>
		<path class="st0" d="M25,23.9c0,5,3,12,10,12s10-7,10-12"/>
	</g>
	<g>
		<path class="st0" d="M45,16.3c-0.4-4.3-2.4-6.7-6.1-6.7h-0.3l-2.1-2.1l-1.9,1l-2.9-3l-1.9,2.8L23,5.5l1.9,5.8L23,14.1l2.1,0.8
			c-0.1,0.4-0.2,1.2-0.2,1.2V25l2.8-6c0.5-1.1,1.6-1.7,2.7-1.7h8.7c1.1,0,2.2,0.6,2.7,1.6L45,25C45,25,45,16.4,45,16.3z"/>
	</g>
</g>
</svg>
