<?xml version="1.0" encoding="utf-8"?>
<svg version="1.1" id="Laag_1" xmlns="http://www.w3.org/2000/svg" xmlns:xlink="http://www.w3.org/1999/xlink" x="0px" y="0px"
	 viewBox="0 0 70 70" width="70px" height="70px" style="enable-background:new 0 0 70 70;" xml:space="preserve">
<style type="text/css">
	.st0{fill:none;stroke:#444444;stroke-width:2;stroke-linejoin:round;stroke-miterlimit:10;}
	.st1{fill:none;stroke:#444444;stroke-width:2;stroke-linecap:round;stroke-linejoin:round;stroke-miterlimit:10;}
</style>
<g>
	<path class="st0" d="M41,33.5v4c0,1.7,3,3,3,3l6,3c6,2,11,5.9,11,12v9"/>
	<path class="st0" d="M29,33.5v4c0,1.7-3,3-3,3l-6,3c-6,2-11,5.9-11,12v9"/>
	<line class="st0" x1="19" y1="58.5" x2="19" y2="64.5"/>
	<line class="st0" x1="51" y1="58.5" x2="51" y2="64.5"/>
	<path class="st0" d="M23,50.5"/>
	<g>
		<path class="st0" d="M29,49.5c3.3,0,6,2.7,6,6"/>
		<path class="st0" d="M35,55.5c0-3.3,2.7-6,6-6"/>
	</g>
	<path class="st0" d="M24,41.5v4c0,6.6,0,16,11,16s11-6.7,11-16v-4"/>
	<path class="st1" d="M42.3,36.5c1.7,0,3-1.4,3-3c0-0.3-0.1-0.7-0.2-1c0.4,0.2,0.9,0.3,1.4,0.3c1.7,0,3-1.4,3-3
		c0-0.7-0.3-1.4-0.7-1.9c1.4-0.3,2.5-1.5,2.5-3c0-0.9-0.4-1.7-1-2.2c0.9-0.5,1.6-1.5,1.6-2.6c0-1-0.5-1.9-1.2-2.4
		c0.4-0.5,0.6-1.1,0.6-1.8c0-1.7-1.4-3-3-3c-0.2,0-0.5,0-0.7,0.1c0.1-0.2,0.1-0.5,0.1-0.7c0-1.7-1.4-3-3-3c-0.7,0-1.4,0.3-1.9,0.7
		c0.1-0.2,0.1-0.5,0.1-0.7c0-1.7-1.4-3-3-3c-1,0-1.9,0.5-2.5,1.3c-0.2-1.1-1.2-1.9-2.4-1.9c-1.2,0-2.1,0.8-2.4,1.9
		c-0.5-0.8-1.5-1.3-2.5-1.3c-1.7,0-3,1.4-3,3c0,0.2,0,0.5,0.1,0.7c-0.5-0.4-1.2-0.7-1.9-0.7c-1.7,0-3,1.4-3,3c0,0.2,0,0.5,0.1,0.7
		c-0.2-0.1-0.5-0.1-0.7-0.1c-1.7,0-3,1.4-3,3c0,0.7,0.2,1.3,0.6,1.8c-0.7,0.6-1.2,1.4-1.2,2.4c0,1.1,0.6,2.1,1.6,2.6
		c-0.6,0.6-1,1.3-1,2.2c0,1.5,1.1,2.7,2.5,3c-0.4,0.5-0.7,1.2-0.7,1.9c0,1.7,1.4,3,3,3c0.5,0,1-0.1,1.4-0.3c-0.1,0.3-0.2,0.6-0.2,1
		c0,1.7,1.4,3,3,3"/>
	<path class="st0" d="M44,16.7c0,0-3.1,2-7,2c-3.9,0-7-1.8-7-4c0,2.2-1.8,4-4,4v3c0,7.2,1,14,9,14s9-6.8,9-14l0,0V16.7z"/>
</g>
</svg>
