<?xml version="1.0" encoding="utf-8"?>
<!-- Generator: Adobe Illustrator 21.1.0, SVG Export Plug-In . SVG Version: 6.00 Build 0)  -->
<svg version="1.1" id="Laag_1" xmlns="http://www.w3.org/2000/svg" xmlns:xlink="http://www.w3.org/1999/xlink" x="0px" y="0px"
	 viewBox="0 0 70 70" style="enable-background:new 0 0 70 70;" xml:space="preserve">
<style type="text/css">
	.st0{fill:none;stroke:#444444;stroke-width:2;stroke-linejoin:round;stroke-miterlimit:10;}
</style>
<g>
	<polyline class="st0" points="43,40.5 35,48.5 27,40.5 	"/>
	<g>
		<path class="st0" d="M41,33.5v4c0,1.7,3,3,3,3l6,3c6,2,11,5.9,11,12v9"/>
		<path class="st0" d="M29,32.5v5c0,1.7-3,3-3,3l-6,3c-6,2-11,5.9-11,12v9"/>
	</g>
	<g>
		<line class="st0" x1="51" y1="58.5" x2="51" y2="64.5"/>
		<line class="st0" x1="19" y1="58.5" x2="19" y2="64.5"/>
	</g>
	<path class="st0" d="M25,22.5v1c0.9,5.8,4,12,10,12s10-6,10-11v-2v-2"/>
	<line class="st0" x1="39" y1="54.5" x2="47" y2="54.5"/>
	<path class="st0" d="M43,7.8c-2.6-2.6-5.4,0-5.4,0c-1.2,0-1.1-2.3-1.1-2.3s-3.5-0.3-8.1,4.6l-0.6,0.6c-0.4,0.4-0.9,0.6-1.5,0.5
		C25.8,11.1,25,9.5,25,9.5s-6,7.9,0,13.4c0,0,1.3-5.8,1.5-6.2c0.6-1.5,2.3-2.2,3.8-1.6c0.8,0.3,2.3,0.7,5.1,0.7
		c2.8,0,4.3-0.3,5.1-0.7c1.5-0.6,3.2,0.1,3.8,1.6c0.2,0.4,0.3,0.9,0.3,1.3l0.4,3.4C50.7,13.5,43,7.8,43,7.8z"/>
</g>
</svg>
