<?xml version="1.0" encoding="utf-8"?>
<svg version="1.1" id="chatsocial" xmlns="http://www.w3.org/2000/svg" xmlns:xlink="http://www.w3.org/1999/xlink" x="0px" y="0px"
	 viewBox="0 0 212.0001 184" width="150px" height="150px" enable-background="new 0 0 212.0001 184" xml:space="preserve">
<g>
	<path fill="none" d="M96,68c0-24.2616-19.7384-44-44-44S8,43.7384,8,68s19.7384,44,44,44S96,92.2616,96,68z M28,76
		c-4.412,0-8-3.588-8-8s3.588-8,8-8s8,3.588,8,8S32.412,76,28,76z M52,76c-4.412,0-8-3.588-8-8s3.588-8,8-8s8,3.588,8,8
		S56.412,76,52,76z M76,76c-4.412,0-8-3.588-8-8s3.588-8,8-8s8,3.588,8,8S80.412,76,76,76z"/>
	<path fill="none" d="M200,68c0-33.084-26.916-60-60-60c-19.5988,0-37.8772,9.554-49.1256,25.5816
		C99.0124,42.7624,104,54.7956,104,68c0,13.2032-4.9872,25.236-13.1244,34.4164c11.038,15.7292,28.844,25.2008,48.0296,25.55
		l-2.8856-29.5796c-0.1504-1.5432,0.6036-3.0312,1.9356-3.8244c1.33-0.7888,3.0036-0.742,4.2868,0.1252l32.656,22.0908
		C190.6364,105.4992,200,87.4072,200,68z"/>
	<path fill="none" d="M151.0352,169.922l19.8612-24.4456c0.6564-0.8084,1.6016-1.328,2.6368-1.4492l23.3144-2.742l-52.0408-35.2032
		L151.0352,169.922z"/>
	<path d="M210.242,140.6876l-28.3244-19.1612C198.3268,108.666,208,89.0096,208,68c0-37.496-30.504-68-68-68
		c-21.7736,0-42.0996,10.4064-54.9024,27.9248C76.0992,20.4804,64.564,16,52,16C23.326,16,0,39.326,0,68c0,28.672,23.326,52,52,52
		c12.5628,0,24.098-4.48,33.0956-11.924c12.7416,17.4348,32.9328,27.8156,54.5928,27.9144l4.3312,44.3964
		c0.156,1.6172,1.2732,2.9764,2.826,3.4452C147.2264,183.9452,147.6152,184,148,184c1.1836,0,2.332-0.5272,3.1036-1.4764
		l24.9764-30.7424l32.3868-3.8084c1.66-0.1956,3.0236-1.4024,3.42-3.0276C212.2812,143.3204,211.6252,141.6248,210.242,140.6876z
		 M8,68c0-24.2616,19.7384-44,44-44s44,19.7384,44,44s-19.7384,44-44,44S8,92.2616,8,68z M142.242,94.6876
		c-1.2832-0.8672-2.9568-0.914-4.2868-0.1252c-1.332,0.7932-2.086,2.2812-1.9356,3.8244l2.8856,29.5796
		c-19.1856-0.3492-36.9916-9.8208-48.0296-25.55C99.0128,93.236,104,81.2032,104,68c0-13.2044-4.9876-25.2376-13.1256-34.4184
		C102.1228,17.554,120.4012,8,140,8c33.084,0,60,26.916,60,60c0,19.4072-9.3636,37.4992-25.102,48.7784L142.242,94.6876z
		 M173.5332,144.0272c-1.0352,0.1212-1.9804,0.6408-2.6368,1.4492l-19.8612,24.4456l-6.2284-63.84l52.0408,35.2032
		L173.5332,144.0272z"/>
	<circle cx="28" cy="68" r="8"/>
	<circle cx="52" cy="68" r="8"/>
	<circle cx="76" cy="68" r="8"/>
</g>
</svg>
