<?xml version="1.0" encoding="utf-8"?>
<svg version="1.1" id="graph" xmlns="http://www.w3.org/2000/svg" xmlns:xlink="http://www.w3.org/1999/xlink" x="0px" y="0px"
	 viewBox="0 0 240 200" width="150px" height="150px" enable-background="new 0 0 240 200" xml:space="preserve">
<g>
	<path fill="none" d="M28,124.004C28,130.6173,33.4023,136,40.0391,136h75.0024c0.0076,0,0.0148,0,0.022,0h8.3685
		c0.0023,0.0005,0.0047-0.0003,0.0071,0h80.5216C210.5975,136,216,130.6173,216,124.004V24H28V124.004z M73.4255,102.1093
		c0.5236-2.1444,2.6996-3.4764,4.836-2.9296c15.7812,3.8632,32.3516,0.6172,45.4804-8.9237
		c14.9301-10.8459,23.3988-28.344,22.6488-46.8107c-0.09-2.2068,1.6248-4.0684,3.832-4.158c2.324-0.1308,4.07,1.6247,4.16,3.834
		c0.8592,21.1464-8.84,41.1856-25.9376,53.6052c-10.8828,7.9104-23.836,12.0472-37.0116,12.0472
		c-5.0272,0-10.09-0.6017-15.078-1.8284C74.2107,106.4221,72.8983,104.2541,73.4255,102.1093z M44,116h8V32h8v84h136v8H60v8.0861h-8
		V124h-8V116z"/>
	<path fill="none" d="M228.0155,8H11.9843C9.7891,8,8,9.7949,8,12c0,2.2421,1.7499,4,3.9843,4H24h196h8.0155
		C230.2107,16,232,14.2053,232,12C232,9.7581,230.2499,8,228.0155,8z"/>
	<path d="M228.0155,0H11.9843C5.3751,0,0,5.3829,0,12c0,6.6173,5.3751,12,11.9843,12H20v100.004
		C20,135.0313,28.9883,144,40.0391,144h69.0188L88.992,192H77.9099c-2.2108,0-4,1.7893-4,4c0,2.2109,1.7892,4,4,4h13.7464
		c1.6132,0,3.0664-0.9687,3.6912-2.4571L117.7307,144h3.0268l22.3832,53.5429c0.6248,1.4884,2.078,2.4571,3.6913,2.4571h13.7459
		c2.2112,0,4-1.7891,4-4c0-2.2107-1.7888-4-4-4H149.496l-20.0657-48h74.5304C215.0115,144,224,135.0313,224,124.004V24h4.0155
		C234.6251,24,240,18.6173,240,12C240,5.3829,234.6251,0,228.0155,0z M216,124.004c0,6.6133-5.4025,11.996-12.0393,11.996h-80.5216
		c-0.0024-0.0003-0.0048,0.0005-0.0071,0h-8.3685c-0.0072,0-0.0144,0-0.022,0H40.0391C33.4023,136,28,130.6173,28,124.004V24h188
		V124.004z M228.0155,16H220H24H11.9843C9.7499,16,8,14.2421,8,12c0-2.2051,1.7891-4,3.9843-4h216.0312
		C230.2499,8,232,9.7581,232,12C232,14.2053,230.2107,16,228.0155,16z"/>
	<path d="M76.3555,106.9453c4.988,1.2267,10.0508,1.8284,15.078,1.8284c13.1756,0,26.1288-4.1368,37.0116-12.0472
		c17.0976-12.4196,26.7968-32.4588,25.9376-53.6052c-0.09-2.2093-1.836-3.9648-4.16-3.834c-2.2072,0.0896-3.922,1.9512-3.832,4.158
		c0.75,18.4667-7.7187,35.9648-22.6488,46.8107c-13.1288,9.5409-29.6992,12.7869-45.4804,8.9237
		c-2.1364-0.5468-4.3124,0.7852-4.836,2.9296C72.8983,104.2541,74.2107,106.4221,76.3555,106.9453z"/>
	<polygon points="52,132.0861 60,132.0861 60,124 196,124 196,116 60,116 60,32 52,32 52,116 44,116 44,124 52,124 	"/>
</g>
</svg>
