<?xml version="1.0" encoding="utf-8"?>
<svg version="1.1" id="handshake" xmlns="http://www.w3.org/2000/svg" xmlns:xlink="http://www.w3.org/1999/xlink" x="0px" y="0px"
	 viewBox="0 0 238.9787 208.336" width="150px" height="150px" enable-background="new 0 0 238.9787 208.336" xml:space="preserve">
<g>
	<path fill="none" d="M63.4519,147.2285l-6.1952,6.196l8.4864,8.4864l5.7092-5.7088
		C68.9171,153.5132,66.2235,150.4821,63.4519,147.2285z"/>
	<path fill="none" d="M48.2851,128.4552l-7.9996,7.9981l11.3148,11.3148l6.7112-6.7116
		C54.9107,136.9012,51.5163,132.6221,48.2851,128.4552z"/>
	<path fill="none" d="M99.6899,20.4921L88.3655,9.1681c-0.7948-0.7932-1.8144-1.1916-2.83-1.1916
		c-1.008,0-2.0156,0.3907-2.7968,1.176c-0.002,0-0.002,0-0.002,0l-73.586,73.586c-1.5468,1.5468-1.5392,4.07,0.0176,5.6287
		l11.324,11.324c1.586,1.5825,4.0608,1.5941,5.6272,0.016l73.588-73.5859C101.2543,24.5741,101.2463,22.0509,99.6899,20.4921z"/>
	<path fill="none" d="M77.1083,161.858l-5.7092,5.7088l11.314,11.3136l6.4384-6.4408
		C84.7519,168.772,80.6259,165.1749,77.1083,161.858z"/>
	<path fill="none" d="M156.2287,9.1525c-0.7712-0.7696-1.7852-1.1564-2.8008-1.1564c-1.0211,0-2.0468,0.3908-2.828,1.172
		l-11.3244,11.324c-0.7616,0.762-1.1816,1.7656-1.1816,2.8284c0,1.0544,0.4124,2.0507,1.164,2.8008l7.8572,7.8572
		c0.0832,0.0872,0.1757,0.1556,0.2512,0.2508l65.4776,65.4779c1.5472,1.5429,4.0704,1.5429,5.6292-0.016l11.324-11.324
		c0.7616-0.7615,1.1816-1.7655,1.1816-2.828c0-1.0547-0.412-2.0507-1.164-2.8007L156.2287,9.1525z"/>
	<path fill="none" d="M100.0099,68.1173c-13.0976,13.0976-17.8144,19.1564-19.5,21.8828c2.592,0.5116,6.7308,1.0704,10.4748,1.4532
		c4.9628-2.2696,23.6796-10.4804,32.8064-9.4296c6.6644,0.742,19.7776-6.6408,25.3772-9.8088
		c0.996-0.5624,1.8436-1.0392,2.502-1.3944c1.9452-1.0468,4.3708-0.3164,5.418,1.6288c0.1408,0.2624,0.1704,0.5452,0.248,0.8204
		c0.6348,0.1804,1.2444,0.4612,1.744,0.9608c8.6444,8.6436,19.9892,22.8087,29.2216,34.8767l7.522-15.108l-52.6928-52.6923
		C136.4767,43.6973,116.2475,51.8801,100.0099,68.1173z"/>
	<path fill="none" d="M88.3703,184.5381l14.1416,14.1416l8.7436-8.742c-5.0344-3.826-10.5088-8.0712-15.8856-12.4025
		L88.3703,184.5381z"/>
	<path fill="none" d="M152.9963,79.2429c-7.3548,4.1492-20.9408,11.7568-30.1172,10.726c-5.7792-0.6368-21.1796,5.2852-29.5,9.1912
		c-0.5332,0.25-1.1152,0.3791-1.7012,0.3791c-0.1248,0-0.25-0.004-0.3748-0.0155c-15.6096-1.4688-17.246-3.1056-18.1252-3.9845
		c-3.7636-3.7579,0.176-9.3127,1.8596-11.6835c3.4236-4.8245,9.742-11.8245,19.3164-21.3948
		c6.202-6.2024,12.8664-11.2592,19.2252-15.3548c-5.9588-4.516-10.7064-8.0248-13.4852-10.0592l-63.0564,63.0588
		c2.736,3.7664,8.0636,11.0268,14.342,19.2324c0.0684,0.0596,0.1552,0.0811,0.2204,0.1464c0.318,0.318,0.5268,0.6952,0.7152,1.0768
		c8.924,11.6196,19.5808,24.8732,27.57,32.8644c13.9824,13.9808,44.088,36.1408,53.3204,42.844l14.5624-14.5625l-36.7696-36.7695
		c-1.5624-1.5628-1.5624-4.094,0-5.6564c1.5624-1.5624,4.0936-1.5624,5.6564,0l36.7696,36.7696l11.3132-11.3136l-36.7684-36.7684
		c-1.5624-1.5624-1.5624-4.094,0-5.6564c1.5624-1.5624,4.0936-1.5624,5.656,0l36.7688,36.7688l11.3136-11.3141l-36.7676-36.7711
		c-1.5628-1.5624-1.5628-4.0936,0-5.656c1.5624-1.5628,4.0936-1.5628,5.656,0l36.768,36.7711l8.908-8.908
		c-6.7052-9.2303-28.8712-39.34-42.8476-53.3163C153.2339,79.6965,153.1403,79.4581,152.9963,79.2429z"/>
	
		<line fill="none" stroke="#000000" stroke-width="0" stroke-linecap="round" stroke-linejoin="round" x1="77.0783" y1="3.4961" x2="77.0803" y2="3.4961"/>
	<path d="M235.4711,77.0821l-73.586-73.586c-4.664-4.668-12.2656-4.66-16.9416,0.0156l-11.326,11.3244
		c-2.2716,2.2732-3.5236,5.2852-3.5236,8.4844c-0.002,3.1912,1.2444,6.1952,3.508,8.4568l3.314,3.3139
		c-3.9988,1.5781-9.6064,4.0577-15.946,7.584c-6.5564-4.9955-11.8904-8.9539-15.2056-11.3891
		c4.2172-4.6912,4.1044-11.9272-0.4184-16.45L94.0199,3.5077c-4.6796-4.6676-12.2792-4.6716-16.9396-0.0116l-73.586,73.586
		c-4.666,4.664-4.658,12.2656,0.0176,16.9416l11.3264,11.328c2.3416,2.336,5.414,3.5075,8.486,3.5075
		c2.8548,0,5.6848-1.0547,7.9448-3.0803c2.634,3.6243,6.958,9.506,12.1036,16.276l-11.5716,11.57
		c-0.75,0.75-1.172,1.766-1.172,2.8284c0,1.0624,0.422,2.0779,1.172,2.828l14.1436,14.1436l-0.0012,0.0008l5.6564,5.6564
		l0.0008-0.0008l8.4856,8.4852l5.656,5.6564l11.3156,11.3152l-0.0008,0.0011l5.658,5.656l16.9688,16.9689
		c0.7812,0.7812,1.8048,1.172,2.828,1.172c1.0236,0,2.0468-0.3908,2.8284-1.172l12.366-12.3644
		c7.52,5.614,13.0028,9.5404,13.5948,9.962c0.6992,0.5,1.5136,0.746,2.3224,0.746c1.0312,0,2.0564-0.3984,2.83-1.1716
		l53.7344-53.7344c0.0016-0.0016,0.004-0.0025,0.0056-0.004c0.002-0.0016,0.0024-0.004,0.004-0.006l14.1388-14.1384
		c1.3828-1.3828,1.5624-3.5624,0.4276-5.1524c-0.4504-0.6304-4.8668-6.7964-11.0724-15.0748l8.0968-16.2624l5.3996,5.3995
		c2.33,2.332,5.3924,3.496,8.4568,3.496c3.0704,0,6.1448-1.1715,8.4844-3.5115l11.3264-11.324
		c2.2712-2.2736,3.5232-5.2852,3.5232-8.4845C238.9807,82.3477,237.7348,79.3437,235.4711,77.0821z M20.4923,99.6912l-11.324-11.324
		c-1.5568-1.5587-1.5644-4.0819-0.0176-5.6287l73.586-73.586c0,0,0,0,0.002,0c0.7812-0.7853,1.7888-1.176,2.7968-1.176
		c1.0156,0,2.0352,0.3984,2.83,1.1916l11.3244,11.324c1.5564,1.5588,1.5644,4.082,0.0176,5.6292l-73.588,73.5859
		C24.5531,101.2853,22.0783,101.2737,20.4923,99.6912z M40.2855,136.4532l7.9996-7.9981
		c3.2312,4.1669,6.6256,8.4461,10.0264,12.6013l-6.7112,6.7116L40.2855,136.4532z M57.2567,153.4245l6.1952-6.196
		c2.7716,3.2536,5.4652,6.2848,8.0004,8.9736l-5.7092,5.7088L57.2567,153.4245z M71.3991,167.5668l5.7092-5.7088
		c3.5176,3.3168,7.6436,6.914,12.0432,10.5816l-6.4384,6.4408L71.3991,167.5668z M102.5119,198.6797l-14.1416-14.1416l6.9996-7.0029
		c5.3768,4.3313,10.8512,8.5765,15.8856,12.4025L102.5119,198.6797z M187.3639,142.1112l-36.768-36.7711
		c-1.5624-1.5628-4.0936-1.5628-5.656,0c-1.5628,1.5624-1.5628,4.0936,0,5.656l36.7676,36.7711l-11.3136,11.3141l-36.7688-36.7688
		c-1.5624-1.5624-4.0936-1.5624-5.656,0c-1.5624,1.5624-1.5624,4.094,0,5.6564l36.7684,36.7684l-11.3132,11.3136l-36.7696-36.7696
		c-1.5628-1.5624-4.094-1.5624-5.6564,0c-1.5624,1.5624-1.5624,4.0936,0,5.6564l36.7696,36.7695l-14.5624,14.5625
		c-9.2324-6.7032-39.338-28.8632-53.3204-42.844c-7.9892-7.9912-18.646-21.2448-27.57-32.8644
		c-0.1884-0.3816-0.3972-0.7588-0.7152-1.0768c-0.0652-0.0653-0.152-0.0868-0.2204-0.1464
		c-6.2784-8.2056-11.606-15.466-14.342-19.2324l63.0564-63.0588c2.7788,2.0344,7.5264,5.5432,13.4852,10.0592
		c-6.3588,4.0956-13.0232,9.1524-19.2252,15.3548c-9.5744,9.5703-15.8928,16.5703-19.3164,21.3948
		c-1.6836,2.3708-5.6232,7.9256-1.8596,11.6835c0.8792,0.8789,2.5156,2.5157,18.1252,3.9845
		c0.1248,0.0115,0.25,0.0155,0.3748,0.0155c0.586,0,1.168-0.1291,1.7012-0.3791c8.3204-3.906,23.7208-9.828,29.5-9.1912
		c9.1764,1.0308,22.7624-6.5768,30.1172-10.726c0.144,0.2152,0.2376,0.4536,0.428,0.644
		c13.9764,13.9763,36.1424,44.086,42.8476,53.3163L187.3639,142.1112z M188.3019,109.1072
		c-9.2324-12.068-20.5772-26.2331-29.2216-34.8767c-0.4996-0.4996-1.1092-0.7804-1.744-0.9608
		c-0.0776-0.2752-0.1072-0.558-0.248-0.8204c-1.0472-1.9452-3.4728-2.6756-5.418-1.6288c-0.6584,0.3552-1.506,0.832-2.502,1.3944
		c-5.5996,3.168-18.7128,10.5508-25.3772,9.8088c-9.1268-1.0508-27.8436,7.16-32.8064,9.4296
		c-3.744-0.3828-7.8828-0.9416-10.4748-1.4532c1.6856-2.7264,6.4024-8.7852,19.5-21.8828
		c16.2376-16.2372,36.4668-24.42,43.1212-26.8104l52.6928,52.6923L188.3019,109.1072z M229.7971,88.3672l-11.324,11.324
		c-1.5588,1.5589-4.082,1.5589-5.6292,0.016l-65.4776-65.4779c-0.0755-0.0952-0.168-0.1636-0.2512-0.2508l-7.8572-7.8572
		c-0.7516-0.7501-1.164-1.7464-1.164-2.8008c0-1.0628,0.42-2.0664,1.1816-2.8284l11.3244-11.324
		c0.7812-0.7812,1.8069-1.172,2.828-1.172c1.0156,0,2.0296,0.3868,2.8008,1.1564l73.586,73.586c0.752,0.75,1.164,1.746,1.164,2.8007
		C230.9787,86.6017,230.5587,87.6057,229.7971,88.3672z"/>
</g>
</svg>
