<?xml version="1.0" encoding="utf-8"?>
<svg version="1.1" id="people" xmlns="http://www.w3.org/2000/svg" xmlns:xlink="http://www.w3.org/1999/xlink" x="0px" y="0px"
	 viewBox="0 0 228 200" width="150px" height="150px" enable-background="new 0 0 228 200" xml:space="preserve">
<g>
	<path fill="none" d="M72.1991,192h79.6016c-2.0116-20.1835-19.0936-36-39.8007-36C91.2927,156,74.2107,171.8165,72.1991,192z"/>
	<path fill="none" d="M149.4491,115.8713C153.2459,115.1797,156,111.8673,156,108c0-3.6091-2.4297-6.7851-5.9101-7.7227
		c-1.4884-0.4024-2.6136-1.6208-2.8948-3.1364C143.6563,77.9377,128.8515,64,112,64c-16.8517,0-31.6565,13.9377-35.1953,33.1409
		c-0.2812,1.5156-1.4064,2.734-2.8948,3.1364C70.4295,101.2149,68,104.3909,68,108c0,3.8673,2.7539,7.1797,6.5507,7.8713
		c1.5116,0.2732,2.7344,1.3944,3.1408,2.8788C82.4687,136.2461,96.2579,148,112,148c15.7419,0,29.5311-11.7539,34.3083-29.2499
		C146.7147,117.2657,147.9375,116.1445,149.4491,115.8713z"/>
	<path fill="none" d="M61.0663,31.6133c-1.492-0.3944-2.6248-1.6093-2.91-3.1288C55.9179,16.6173,46.6015,8,36,8
		c-10.6017,0-19.9181,8.6173-22.1565,20.4845c-0.2852,1.5195-1.418,2.7344-2.91,3.1288C9.2071,32.0705,8,33.5861,8,35.3049
		c0,1.8396,1.3711,3.4216,3.2615,3.7616c1.512,0.2695,2.7345,1.3828,3.1448,2.8632C17.4255,52.7385,26.1055,60,36,60
		c9.8943,0,18.5743-7.2615,21.5935-18.0703c0.4105-1.4804,1.6328-2.5937,3.1448-2.8632C62.6287,38.7265,64,37.1445,64,35.3049
		C64,33.5861,62.7927,32.0705,61.0663,31.6133z"/>
	<path fill="none" d="M217.0663,31.6133c-1.492-0.3944-2.6248-1.6093-2.91-3.1288C211.9179,16.6173,202.6015,8,192,8
		c-10.6017,0-19.9181,8.6173-22.1565,20.4845c-0.2852,1.5195-1.418,2.7344-2.91,3.1288C165.2071,32.0705,164,33.5861,164,35.3049
		c0,1.8396,1.3711,3.4216,3.2615,3.7616c1.512,0.2695,2.7345,1.3828,3.1448,2.8632C173.4255,52.7385,182.1055,60,192,60
		c9.8943,0,18.5743-7.2615,21.5935-18.0703c0.4105-1.4804,1.6328-2.5937,3.1448-2.8632c1.8904-0.34,3.2617-1.922,3.2617-3.7616
		C220,33.5861,218.7927,32.0705,217.0663,31.6133z"/>
	<path d="M153.3711,123.0781C159.6563,120.8477,164,114.8633,164,108c0-6.3475-3.7617-12.0271-9.4065-14.5779
		C149.6171,71.6017,132.0235,56,112,56c-20.0237,0-37.6173,15.6017-42.5937,37.4221C63.7615,95.9729,60,101.6525,60,108
		c0,6.8633,4.3435,12.8477,10.6287,15.0781c4.1308,12.9899,12.6193,23.08,23.2448,28.5019C76.3711,158.7485,64,175.9461,64,196
		c0,2.2109,1.7891,4,4,4h88c2.2107,0,4-1.7891,4-4c0-20.0539-12.3713-37.2515-29.8737-44.42
		C140.752,146.1581,149.2403,136.068,153.3711,123.0781z M151.8007,192H72.1991c2.0116-20.1835,19.0936-36,39.8009-36
		C132.7071,156,149.7891,171.8165,151.8007,192z M112,148c-15.7421,0-29.5313-11.7539-34.3085-29.2499
		c-0.4064-1.4844-1.6292-2.6056-3.1408-2.8788C70.7539,115.1797,68,111.8673,68,108c0-3.6091,2.4295-6.7851,5.9099-7.7227
		c1.4884-0.4024,2.6136-1.6208,2.8948-3.1364C80.3435,77.9377,95.1483,64,112,64c16.8515,0,31.6563,13.9377,35.1951,33.1409
		c0.2812,1.5156,1.4064,2.734,2.8948,3.1364C153.5703,101.2149,156,104.3909,156,108c0,3.8673-2.7541,7.1797-6.5509,7.8713
		c-1.5116,0.2732-2.7344,1.3944-3.1408,2.8788C141.5311,136.2461,127.7419,148,112,148z"/>
	<path d="M221.5311,24.8085C217.8671,10.3049,205.7615,0,192,0c-13.7617,0-25.8673,10.3049-29.5313,24.8085
		c-3.9064,2-6.4687,6.0195-6.4687,10.4964c0,4.8516,2.9803,9.1092,7.3671,10.914C167.8983,59.336,179.1563,68,192,68
		c12.8435,0,24.1015-8.664,28.6327-21.7811C225.0195,44.4141,228,40.1565,228,35.3049C228,30.828,225.4375,26.8085,221.5311,24.8085
		z M216.7383,39.0665c-1.512,0.2695-2.7343,1.3828-3.1448,2.8632C210.5743,52.7385,201.8943,60,192,60
		c-9.8945,0-18.5745-7.2615-21.5937-18.0703c-0.4103-1.4804-1.6328-2.5937-3.1448-2.8632c-1.8904-0.34-3.2615-1.922-3.2615-3.7616
		c0-1.7188,1.2071-3.2344,2.9335-3.6916c1.492-0.3944,2.6248-1.6093,2.91-3.1288C172.0819,16.6173,181.3983,8,192,8
		c10.6015,0,19.9179,8.6173,22.1563,20.4845c0.2852,1.5195,1.418,2.7344,2.91,3.1288C218.7927,32.0705,220,33.5861,220,35.3049
		C220,37.1445,218.6287,38.7265,216.7383,39.0665z"/>
	<path d="M72,35.3049c0-4.4769-2.5625-8.4964-6.4689-10.4964C61.8671,10.3049,49.7615,0,36,0
		C22.2383,0,10.1327,10.3049,6.4687,24.8085C2.5623,26.8085,0,30.828,0,35.3049c0,4.8516,2.9803,9.1092,7.3671,10.914
		C11.8983,59.336,23.1563,68,36,68c12.8435,0,24.1015-8.664,28.6327-21.7811C69.0195,44.4141,72,40.1565,72,35.3049z
		 M60.7383,39.0665c-1.512,0.2695-2.7343,1.3828-3.1448,2.8632C54.5743,52.7385,45.8943,60,36,60
		c-9.8945,0-18.5745-7.2615-21.5937-18.0703c-0.4103-1.4804-1.6328-2.5937-3.1448-2.8632C9.3711,38.7265,8,37.1445,8,35.3049
		c0-1.7188,1.2071-3.2344,2.9335-3.6916c1.492-0.3944,2.6248-1.6093,2.91-3.1288C16.0819,16.6173,25.3983,8,36,8
		c10.6015,0,19.9179,8.6173,22.1563,20.4845c0.2852,1.5195,1.418,2.7344,2.91,3.1288C62.7927,32.0705,64,33.5861,64,35.3049
		C64,37.1445,62.6287,38.7265,60.7383,39.0665z"/>
</g>
</svg>
