<?xml version="1.0" encoding="utf-8"?>
<!-- Generator: Adobe Illustrator 19.2.0, SVG Export Plug-In . SVG Version: 6.00 Build 0)  -->
<svg version="1.1" id="map" xmlns="http://www.w3.org/2000/svg" xmlns:xlink="http://www.w3.org/1999/xlink" x="0px" y="0px"
	 viewBox="0 0 236 192.0004" enable-background="new 0 0 236 192.0004" xml:space="preserve">
<g>
	<polygon fill="none" points="76,19.4184 8,8.682 8,172.5824 76,183.3188 	"/>
	<polygon fill="none" points="152,8.682 84,19.4184 84,183.3188 152,172.5824 	"/>
	<polygon fill="none" points="160,172.5824 228,183.3188 228,19.4184 160,8.682 	"/>
	<path d="M232.6251,12.0492l-76-12c-0.2148-0.0336-0.4171,0.0368-0.6296,0.0372c-0.2096,0-0.408-0.0692-0.6204-0.0372L80,11.9504
		L4.6251,0.0492c-1.176-0.1836-2.336,0.1524-3.2228,0.91C0.5115,1.7192,0,2.8304,0,4.0004v172c0,1.9688,1.4335,3.6444,3.3751,3.9512
		l76,12c0.2108,0.0332,0.4176,0.0488,0.6249,0.0488c0.2071,0,0.4139-0.0156,0.6251-0.0488L156,180.0504l75.3751,11.9012
		c0.2108,0.0332,0.4176,0.0488,0.6249,0.0488c0.9451,0,1.8711-0.336,2.5975-0.9588c0.8908-0.76,1.4025-1.8712,1.4025-3.0412v-172
		C236,14.0316,234.5663,12.356,232.6251,12.0492z M8,8.682l68,10.7364v163.9004L8,172.5824V8.682z M84,19.4184L152,8.682v163.9004
		l-68,10.7364V19.4184z M228,183.3188l-68-10.7364V8.682l68,10.7364V183.3188z"/>
</g>
</svg>
