<?xml version="1.0" encoding="utf-8"?>
<!-- Generator: Adobe Illustrator 19.2.0, SVG Export Plug-In . SVG Version: 6.00 Build 0)  -->
<svg version="1.1" id="tap" xmlns="http://www.w3.org/2000/svg" xmlns:xlink="http://www.w3.org/1999/xlink" x="0px" y="0px"
	 viewBox="0 0 127.9952 220" enable-background="new 0 0 127.9952 220" xml:space="preserve">
<path d="M113.0868,83.4336c-3.2244,0-5.6676,1.5116-7.5156,3.7072c-0.0564-0.6876-0.0896-1.2816-0.0896-1.754
	c0-10.0508-5.5528-16.5469-14.1484-16.5469c-3.7988,0-6.7052,1.0585-8.8672,2.5545c-0.4708-1.6265-1.2836-3.312-2.4608-4.808
	c5.1484-7.1244,7.99-15.752,7.99-24.5864c0-23.1601-18.8416-42-42-42s-42,18.8399-42,42c0,17.5376,11.09,33.2804,27.3216,39.3496
	l-0.55,16.592c-3.3164-6.258-8.0628-12.2464-11.6348-14.0704C14.9892,81.75,7.9872,83.1916,3.8332,86.996
	c-3.8476,3.5156-4.8556,8.5156-2.7656,13.7148c1.664,4.1328,2.6736,8.9924,3.8416,14.6172c1.4924,7.176,3.3476,16.1096,7.2988,27
	c6.34,17.5,26.1368,35.9804,31.6564,40.8984v13.1564c0,13.0236,10.6112,23.6172,23.656,23.6172h25.9084
	c13.0448,0,23.658-10.6056,23.658-23.6408v-15.8008c6.6524-9.1248,10.6272-25.5468,10.7992-26.2692
	c0.072-0.3048,0.1092-0.6173,0.1092-0.93v-54.652C127.9952,89.5704,122.0048,83.4336,113.0868,83.4336z M11.9952,42
	c0-18.746,15.252-34,34-34s34,15.254,34,34c0,7.32-2.412,14.4672-6.7696,20.3096c-0.9832-0.2272-2.0188-0.3876-3.172-0.3876
	c-4.0252,0-7.1152,1.2028-9.414,2.7224C60.546,52.922,60.454,41.086,60.454,40.1952C60.454,36.0548,55.4872,28,46.384,28
	c-7.8264,0-12.1956,7.3476-13.5432,11.6876c-0.1052,0.3436-0.166,0.6992-0.1776,1.0544l-1.0628,32.0548
	C19.844,67.2759,11.9952,55.2736,11.9952,42z M119.9952,152.8788c-1.246,5.0196-5.1408,17.836-10.006,23.7891
	c-0.584,0.7149-0.9024,1.6093-0.9024,2.5313v17.16c0,8.6252-7.0232,15.6408-15.658,15.6408H67.5204
	c-8.6328,0-15.656-7.004-15.656-15.6172V181.41c0-1.1716-0.5136-2.2852-1.4064-3.0428c-0.24-0.2072-24.2148-20.7892-30.7304-38.7656
	c-3.754-10.3516-5.4708-18.6132-6.9844-25.9024c-1.248-6-2.324-11.1796-4.254-15.9728c-1.0408-2.5896-0.238-3.8552,0.5784-4.6716
	c1.582-1.582,4.154-2.172,5.584-2.172c0.3688,0,0.664,0.0392,0.8436,0.1132c2.6972,1.3788,9.252,10.6759,10.9492,17.3984
	c0.6916,2.7304,1.0392,5.3244,1.3456,7.6136c0.588,4.3708,1.0508,7.82,3.668,9.902c1.1856,0.9336,2.7968,1.1368,4.168,0.4964
	c1.3712-0.6328,2.2676-1.9844,2.3184-3.4964l2.6932-81.2692C41.1828,40.2656,43.1396,36,46.384,36
	c4.6384,0,6.0584,4.3164,6.07,4.1992c0,1.8752,0.3772,48.2736,0.3772,48.2736c0.0176,2.1132,1.6736,3.8476,3.7832,3.9608
	c2.1368,0.1876,3.9432-1.4256,4.1892-3.5272l1.7776-15.1408c0.7032-1.078,2.9512-3.8436,7.4724-3.8436
	c4.0392,0,4.7912,3.3436,4.9612,5.0624l2.5096,16.2304c0.3224,2.086,2.2092,3.5624,4.3068,3.3752
	c2.1016-0.1876,3.6952-1.9728,3.6444-4.0784l-0.246-10.3828c0.4296-1.0352,1.8556-3.2889,6.1036-3.2889
	c5.082,0,6.1484,4.6485,6.1484,8.5469c0,4.8436,2.3184,17.3516,2.582,18.7616c0.3652,1.9572,2.1308,3.3984,4.1056,3.258
	c1.988-0.086,3.6092-1.6212,3.8064-3.6016c0.5548-5.6016,2.9592-12.3712,5.1112-12.3712c5.7092,0,6.9084,3.9572,6.9084,7.2736
	V152.8788z"/>
</svg>
