<?xml version="1.0" encoding="utf-8"?>
<!-- Generator: Adobe Illustrator 19.2.0, SVG Export Plug-In . SVG Version: 6.00 Build 0)  -->
<svg version="1.1" id="stopwatch" xmlns="http://www.w3.org/2000/svg" xmlns:xlink="http://www.w3.org/1999/xlink" x="0px" y="0px"
	 viewBox="0 0 200 236" enable-background="new 0 0 200 236" xml:space="preserve">
<g>
	<path fill="none" d="M100,60c-41.9065,0-76,34.0936-76,76c0,41.9064,34.0935,76,76,76c41.9063,0,76-34.0936,76-76
		C176,94.0936,141.9063,60,100,60z M98.6443,139.004C97.8827,139.672,96.9415,140,96,140c-1.1093,0-2.2109-0.4572-3.004-1.3556
		L53.836,94.16c-1.4573-1.66-1.2969-4.1872,0.3591-5.6484c1.6604-1.4532,4.1836-1.3008,5.6484,0.3596l39.1605,44.4844
		C100.4607,135.0156,100.3007,137.5428,98.6443,139.004z"/>
	<rect x="72" y="8" fill="none" width="56" height="12"/>
	<path fill="none" d="M100,44C49.2695,44,8,85.2696,8,136c0,50.7304,41.2695,92,92,92c50.7303,0,92-41.2696,92-92
		C192,85.2696,150.7303,44,100,44z M100,220c-46.3165,0-84-37.6836-84-84c0-46.3164,37.6835-84,84-84c46.3163,0,84,37.6836,84,84
		C184,182.3164,146.3163,220,100,220z"/>
	<path d="M100,52c-46.3165,0-84,37.6836-84,84c0,46.3164,37.6835,84,84,84c46.3163,0,84-37.6836,84-84
		C184,89.6836,146.3163,52,100,52z M100,212c-41.9065,0-76-34.0936-76-76c0-41.9064,34.0935-76,76-76c41.9063,0,76,34.0936,76,76
		C176,177.9064,141.9063,212,100,212z"/>
	<path d="M104,36.1016V28h28c2.2107,0,4-1.7892,4-4V4c0-2.2108-1.7893-4-4-4H68c-2.2109,0-4,1.7892-4,4v20c0,2.2108,1.7891,4,4,4h28
		v8.1016C42.7091,38.2112,0,82.2008,0,136c0,55.1408,44.8591,100,100,100c55.1407,0,100-44.8592,100-100
		C200,82.2008,157.2907,38.2112,104,36.1016z M72,8h56v12H72V8z M100,228c-50.7305,0-92-41.2696-92-92c0-50.7304,41.2695-92,92-92
		c50.7303,0,92,41.2696,92,92C192,186.7304,150.7303,228,100,228z"/>
	<path d="M59.8435,88.8712c-1.4648-1.6604-3.988-1.8128-5.6484-0.3596c-1.656,1.4612-1.8164,3.9884-0.3591,5.6484l39.16,44.4844
		C93.7891,139.5428,94.8907,140,96,140c0.9415,0,1.8827-0.328,2.6443-0.996c1.6564-1.4612,1.8164-3.9884,0.3597-5.6483
		L59.8435,88.8712z"/>
</g>
</svg>
