<?xml version="1.0" encoding="utf-8"?>
<svg version="1.1" id="antenna" xmlns="http://www.w3.org/2000/svg" xmlns:xlink="http://www.w3.org/1999/xlink" x="0px" y="0px"
	 viewBox="0 0 143.338 217.939" width="100px" height="100px" enable-background="new 0 0 143.338 217.939" xml:space="preserve">
<g>
	<polygon fill="none" points="81.4356,101.9351 76.588,85.9351 66.5216,85.9351 61.674,101.9351 	"/>
	<polygon fill="none" points="59.248,109.9351 47.1272,149.9351 95.9804,149.9351 83.8616,109.9351 	"/>
	<path fill="#50CCD3" d="M71.5549,65.9351c8.8223,0,16-7.1776,16-16s-7.1777-16-16-16c-8.8225,0-16,7.1776-16,16
		S62.7324,65.9351,71.5549,65.9351z"/>
	<path fill="#50CCD3" d="M96.9492,81.0971c0.7812,0.7852,1.8068,1.178,2.834,1.178c1.0216,0,2.0432-0.3888,2.8224-1.166
		c8.3496-8.3164,12.9493-19.3868,12.9493-31.172c0-11.5156-4.4181-22.4044-12.4417-30.6604c-1.5408-1.582-4.07-1.6188-5.656-0.082
		c-1.584,1.5412-1.6212,4.0724-0.082,5.6564c6.5644,6.756,10.1797,15.664,10.1797,25.086c0,9.6424-3.7617,18.6992-10.5937,25.504
		C95.3949,76.9995,95.3909,79.5327,96.9492,81.0971z"/>
	<path fill="#50CCD3" d="M43.5549,82.2751c1.0251,0,2.0527-0.3928,2.8339-1.178c1.5584-1.5644,1.5548-4.0976-0.0116-5.656
		c-6.832-6.8048-10.594-15.8616-10.594-25.504c0-9.422,3.6152-18.33,10.18-25.086c1.5388-1.584,1.5016-4.1152-0.0824-5.6564
		c-1.5856-1.5368-4.1132-1.5036-5.656,0.082c-8.0236,8.256-12.4416,19.1448-12.4416,30.6604
		c0,11.7852,4.5997,22.8556,12.9492,31.172C41.512,81.8863,42.5332,82.2751,43.5549,82.2751z"/>
	<path fill="#50CCD3" d="M117.166,99.1615c0.7812,0.7852,1.8068,1.178,2.834,1.178c1.0216,0,2.0432-0.3888,2.8224-1.166
		c13.2304-13.178,20.5156-30.7168,20.5156-49.3888c0-18.2404-7-35.4904-19.7108-48.5724c-1.5412-1.584-4.0704-1.6188-5.6563-0.082
		c-1.584,1.5392-1.6213,4.0724-0.0821,5.6564c11.252,11.582,17.4492,26.8516,17.4492,42.998c0,16.5292-6.4492,32.0548-18.16,43.7208
		C115.6116,95.0639,115.6076,97.5971,117.166,99.1615z"/>
	<path fill="#50CCD3" d="M23.338,100.3395c1.0252,0,2.0529-0.3928,2.834-1.178c1.5584-1.5644,1.5549-4.0976-0.0116-5.656
		C14.4492,81.8395,8,66.3139,8,49.7847c0-16.1484,6.1972-31.418,17.4492-42.998c1.5392-1.584,1.502-4.1152-0.082-5.6564
		c-1.584-1.5368-4.1192-1.5036-5.656,0.082C7,14.2927,0,31.5427,0,49.7847c0,18.672,7.2852,36.2108,20.5156,49.3888
		C21.2952,99.9507,22.3164,100.3395,23.338,100.3395z"/>
	<path fill="#618287" d="M82.5216,77.9351H60.588l-40.8611,134.84c-0.6409,2.1152,0.5543,4.3476,2.668,4.988
		c2.1187,0.6484,4.3495-0.5528,4.988-2.668l8.836-29.16h70.672l8.836,29.16c0.5231,1.7268,2.1091,2.842,3.8259,2.842
		c0.3848,0,0.7756-0.0568,1.1621-0.174c2.1135-0.6404,3.3087-2.8728,2.668-4.988L82.5216,77.9351z M76.588,85.9351l4.8476,16H61.674
		l4.8476-16H76.588z M47.1272,149.9351l12.1208-40h24.6136l12.1188,40H47.1272z"/>
</g>
</svg>
