<?xml version="1.0" encoding="utf-8"?>
<!-- Generator: Adobe Illustrator 19.2.0, SVG Export Plug-In . SVG Version: 6.00 Build 0)  -->
<svg version="1.1" id="attachmentadd" xmlns="http://www.w3.org/2000/svg" xmlns:xlink="http://www.w3.org/1999/xlink" x="0px"
	 y="0px" viewBox="0 0 235.8828 202" enable-background="new 0 0 235.8828 202" xml:space="preserve">
<g>
	<path fill="#BC9A67" d="M12,160.1308c0-16.4708,13.414-29.8712,29.8984-29.8712h80.086c16.4844,0,29.8984,13.4004,29.8984,29.8712
		v6h12v-6c0-23.088-18.7968-41.8712-41.8984-41.8712h-80.086C18.7968,118.2596,0,137.0428,0,160.1308
		C0,183.2168,18.7968,202,41.8984,202h33.004v-12h-33.004C25.414,190,12,176.6016,12,160.1308z"/>
	<path fill="#BC9A67" d="M193.9844,118.2596h-33.004v12h33.004c16.4844,0,29.8984,13.4004,29.8984,29.8712
		S210.4688,190,193.9844,190h-80.086C97.414,190,84,176.6016,84,160.1308v-6H72v6C72,183.2168,90.7968,202,113.8984,202h80.086
		c23.1016,0,41.8984-18.7832,41.8984-41.8692C235.8828,137.0428,217.086,118.2596,193.9844,118.2596z"/>
	<path fill="#C1DB66" d="M120.7697,104c28.672,0,52-23.326,52-52s-23.328-52-52-52s-52,23.326-52,52S92.0977,104,120.7697,104z
		 M92.7697,48h24V24c0-2.2088,1.7891-4,4-4c2.2107,0,4,1.7912,4,4v24h24c2.2107,0,4,1.7912,4,4s-1.7893,4-4,4h-24v24
		c0,2.2088-1.7893,4-4,4c-2.2109,0-4-1.7912-4-4V56h-24c-2.2109,0-4-1.7912-4-4S90.5588,48,92.7697,48z"/>
	<path fill="#FD5A5A" d="M92.7697,56h24v24c0,2.2088,1.7891,4,4,4c2.2107,0,4-1.7912,4-4V56h24c2.2107,0,4-1.7912,4-4s-1.7893-4-4-4
		h-24V24c0-2.2088-1.7893-4-4-4c-2.2109,0-4,1.7912-4,4v24h-24c-2.2109,0-4,1.7912-4,4S90.5588,56,92.7697,56z"/>
</g>
</svg>
