<?xml version="1.0" encoding="utf-8"?>
<svg version="1.1" id="avatarmaleplus" xmlns="http://www.w3.org/2000/svg" xmlns:xlink="http://www.w3.org/1999/xlink" x="0px"
	 y="0px" viewBox="0 0 224 224" width="100px" height="100px" enable-background="new 0 0 224 224" xml:space="preserve">
<g>
	<path fill="none" d="M180,171.5469c0-9.074-7.4689-16.4568-16.6485-16.4568H138.332c-1.5273,0-2.9221-0.8712-3.5937-2.2424
		l-9.2812-18.9452C121.2695,135.2421,116.832,136,112.2343,136c-5.3556,0-10.508-0.992-15.2812-2.7891
		c-0.0588,0.18-0.0588,0.3712-0.1448,0.5472l-9.3512,19.0896c-0.672,1.3712-2.0664,2.2424-3.594,2.2424H61.5935
		C52.2227,155.0901,44,162.992,44,172v18.5901C62.2499,206.3985,86.0155,216,112,216c25.9843,0,49.7539-9.6015,68-25.4099V171.5469z
		"/>
	<path fill="#9AB040" d="M220,108c-2.2109,0-4,1.7893-4,4c0,27.3749-10.6485,52.3009-28,70.8909v-11.344
		c0-13.4844-11.0585-24.4568-24.6485-24.4568H140.828l-7.996-16.3204c12.0587-6.4844,20.8435-18.422,22.7695-32.594
		C160.6091,96.0313,164,91.0585,164,85.3869v-2.7736c0-5.4844-3.2189-10.3516-8-12.5976V36c0-2.2107-1.7893-4-4-4H98.6755
		c-16.656,0-30.2068,13.5625-30.2068,30.2345v7.5704C63.4647,71.9417,60,76.9493,60,82.6133v2.7736
		c0,5.836,3.6563,10.9491,8.8943,12.9804c1.8868,13.41,9.914,24.832,21.0432,31.4647c-0.0975,0.1445-0.2384,0.2501-0.3164,0.4101
		l-8.254,16.848H61.5935C47.7187,147.0901,36,158.496,36,172v10.8909C18.6483,164.3009,8,139.3749,8,112C8,54.6525,54.6523,8,112,8
		c2.2107,0,4-1.7891,4-4c0-2.2107-1.7893-4-4-4C50.2419,0,0,50.2421,0,112c0,32.992,14.3435,62.6917,37.1171,83.2033
		c0.0704,0.074,0.1484,0.1247,0.2229,0.1912C57.168,213.168,83.34,224,112,224c61.7579,0,112-50.2419,112-112
		C224,109.7893,222.2107,108,220,108z M44,190.5901V172c0-9.008,8.2227-16.9099,17.5935-16.9099h22.2696
		c1.5276,0,2.922-0.8712,3.594-2.2424l9.3512-19.0896c0.086-0.176,0.086-0.3672,0.1448-0.5472
		c4.7732,1.7971,9.9256,2.7891,15.2812,2.7891c4.5977,0,9.0352-0.7579,13.2228-2.0975l9.2812,18.9452
		c0.6716,1.3712,2.0664,2.2424,3.5937,2.2424h25.0195c9.1796,0,16.6485,7.3828,16.6485,16.4568v19.0432
		C161.7539,206.3985,137.9843,216,112,216C86.0155,216,62.2499,206.3985,44,190.5901z"/>
	<path fill="#9AB040" d="M180,32h16v16c0,2.2109,1.7891,4,4,4c2.2107,0,4-1.7891,4-4V32h16c2.2107,0,4-1.7891,4-4
		c0-2.2107-1.7893-4-4-4h-16V8c0-2.2107-1.7893-4-4-4c-2.2109,0-4,1.7893-4,4v16h-16c-2.2109,0-4,1.7893-4,4
		C176,30.2109,177.7891,32,180,32z"/>
</g>
</svg>
