<?xml version="1.0" encoding="utf-8"?>
<svg version="1.1" id="blocks" xmlns="http://www.w3.org/2000/svg" xmlns:xlink="http://www.w3.org/1999/xlink" x="0px" y="0px"
	 viewBox="0 0 220 224" width="100px" height="100px" enable-background="new 0 0 220 224" xml:space="preserve">
<g>
	<circle fill="none" cx="156" cy="12" r="4"/>
	<polygon fill="#BC9A67" points="196,216 196,56 160,42.5 160,48 152,48 152,39.5 132,32 132,140 132,144 80,132 80,130.2501 
		68,128 68,216 	"/>
	<path fill="#89714D" d="M196,216H68v-88l-52,12v76H0v8h16h52h64h64h24v-8H196z M28,204v-8h32v8H28z M59.2891,151.3985
		l1.3124,7.8908l-31.8908,5.3124l-1.3124-7.8908L59.2891,151.3985z M59.2891,171.3985l1.3124,7.8908l-31.8908,5.3124l-1.3124-7.8908
		L59.2891,171.3985z"/>
	<path fill="#89714D" d="M160,48v-5.5V23.2617c4.6443-1.656,8-6.0544,8-11.2617c0-6.6171-5.3829-12-12-12c-6.6173,0-12,5.3829-12,12
		c0,5.2073,3.3555,9.6057,8,11.2617V39.5V48H160z M156,8c2.2071,0,4,1.7929,4,4c0,2.2073-1.7929,4-4,4c-2.2073,0-4-1.7927-4-4
		C152,9.7929,153.7927,8,156,8z"/>
	<path fill="#89714D" d="M132,144v-4V32L80,44v86.2501V132L132,144z M114.9099,55.1485l1.9416,7.7616l-23.7616,5.9416
		l-1.9416-7.7616L114.9099,55.1485z M114.9099,75.1485l1.9416,7.7616l-23.7616,5.9416l-1.9416-7.7616L114.9099,75.1485z
		 M114.9099,95.1485l1.9416,7.7616l-23.7616,5.9416l-1.9416-7.7616L114.9099,95.1485z M114.9099,115.1485l1.9416,7.7616
		l-23.7616,5.9416l-1.9416-7.7616L114.9099,115.1485z"/>
	
		<rect x="91.7533" y="57.9997" transform="matrix(0.9701 -0.2427 0.2427 0.9701 -11.9371 27.0917)" fill="#D8F768" width="24.4932" height="8.0008"/>
	
		<rect x="91.7533" y="77.9997" transform="matrix(0.9701 -0.2427 0.2427 0.9701 -16.7907 27.6896)" fill="#D8F768" width="24.4932" height="8.0008"/>
	
		<rect x="91.7533" y="97.9997" transform="matrix(0.9701 -0.2427 0.2427 0.9701 -21.6442 28.2874)" fill="#D8F768" width="24.4932" height="8.0008"/>
	
		<rect x="91.7533" y="117.9997" transform="matrix(0.9701 -0.2427 0.2427 0.9701 -26.4977 28.8853)" fill="#D8F768" width="24.4932" height="8.0008"/>
	
		<rect x="27.8348" y="154.0005" transform="matrix(0.9864 -0.1641 0.1641 0.9864 -25.3263 9.3599)" fill="#D8F768" width="32.3302" height="7.9992"/>
	
		<rect x="27.8348" y="174.0005" transform="matrix(0.9864 -0.1641 0.1641 0.9864 -28.6076 9.6309)" fill="#D8F768" width="32.3302" height="7.9992"/>
	<rect x="28" y="196" fill="#D8F768" width="32" height="8"/>
</g>
</svg>
