<?xml version="1.0" encoding="utf-8"?>
<svg version="1.1" id="box" xmlns="http://www.w3.org/2000/svg" xmlns:xlink="http://www.w3.org/1999/xlink" x="0px" y="0px"
	 viewBox="0 0 156 180" width="100px" height="100px" enable-background="new 0 0 156 180" xml:space="preserve">
<g>
	<path fill="#FF427A" d="M52,48H8v128c0,2.2108,1.7911,4,4,4h132c2.2087,0,4-1.7892,4-4V48h-44H52z M104.1815,164H52v-8h52.1815V164
		z M104.1815,152H52v-8h52.1815V152z"/>
	<path fill="#FF6B97" d="M140.0135,0H15.9863C7.172,0,0,7.1756,0,16v28c0,2.2108,1.7911,4,4,4h4h44V28h52v20h44h4
		c2.2087,0,4-1.7892,4-4V16C156,7.1756,148.828,0,140.0135,0z"/>
	<rect x="52" y="144" fill="#FF8AAC" width="52.1815" height="8"/>
	<rect x="52" y="156" fill="#FF8AAC" width="52.1815" height="8"/>
	<rect x="52" y="28" fill="#FF8AAC" width="52" height="20"/>
</g>
</svg>
