<?xml version="1.0" encoding="utf-8"?>
<svg version="1.1" id="businesscenter" xmlns="http://www.w3.org/2000/svg" xmlns:xlink="http://www.w3.org/1999/xlink" x="0px"
	 y="0px" viewBox="0 0 196 196" width="100px" height="100px" enable-background="new 0 0 196 196" xml:space="preserve">
<g>
	<path fill="#7BE5E4" d="M4,152h4V61.4416l24,7.5V152h8V71.4416l24,7.5V152h8V81.4416l24,7.5V152h8V91.4416l24,7.5V152h8V96
		c0-1.75-1.1369-3.2967-2.8085-3.8164l-128-40c-1.2188-0.3908-2.5392-0.16-3.5628,0.5936C0.6055,53.5312,0,54.7264,0,56v100
		C0,153.7892,1.7891,152,4,152z"/>
	<polygon fill="#3BABB7" points="8,61.4416 8,152 32,152 32,68.9416 	"/>
	<polygon fill="#3BABB7" points="104,91.4416 104,152 112,152 128,152 128,98.9416 	"/>
	<polygon fill="#3BABB7" points="72,81.4416 72,152 96,152 96,88.9416 	"/>
	<polygon fill="#3BABB7" points="40,71.4416 40,152 64,152 64,78.9416 	"/>
	<path fill="#2F4556" d="M44,192v-24c0-2.2108-1.7893-4-4-4H20c-2.2109,0-4,1.7892-4,4v24c0,2.2108,1.7891,4,4,4h20
		C42.2107,196,44,194.2108,44,192z"/>
	<path fill="#F8A131" d="M116,188v-28h16h28v-8h-24h-8h-16h-8h-8H72h-8H40h-8H8H4c-2.2109,0-4,1.7892-4,4v36c0,2.2108,1.7891,4,4,4
		h16c-2.2109,0-4-1.7892-4-4v-24c0-2.2108,1.7891-4,4-4h20c2.2107,0,4,1.7892,4,4v24c0,2.2108-1.7893,4-4,4h72h48v-8H116z"/>
	<path fill="#F8A131" d="M192,152h-24v8h20v28h-20v8h24c2.2107,0,4-1.7892,4-4v-36C196,153.7892,194.2107,152,192,152z"/>
	<polygon fill="#FCC24C" points="116,160 116,188 160,188 160,160 132,160 	"/>
	<rect x="168" y="160" fill="#FCC24C" width="20" height="28"/>
	<path fill="#89714D" d="M168,160v-8v-40.2384c-1.2853,0.1448-2.6093,0.2384-4,0.2384c-1.3909,0-2.7149-0.0936-4-0.2384V152v8v28v8
		h8v-8V160z"/>
	<path fill="#9AB040" d="M168,111.7616c16.1251-1.7928,24-14.836,24-39.7616c0-25.1288-9.6173-72-28-72c-18.3829,0-28,46.8712-28,72
		c0,24.9256,7.8751,37.9688,24,39.7616c1.2851,0.1448,2.6091,0.2384,4,0.2384C165.3907,112,166.7147,111.9064,168,111.7616z"/>
</g>
</svg>
