<?xml version="1.0" encoding="utf-8"?>
<svg version="1.1" id="chatbubble" xmlns="http://www.w3.org/2000/svg" xmlns:xlink="http://www.w3.org/1999/xlink" x="0px" y="0px"
	 viewBox="0 0 200 212" width="100px" height="100px" enable-background="new 0 0 200 212" xml:space="preserve">
<g>
	<path fill="#BBD460" d="M100,0C44.8592,0,0,44.7772,0,99.8204c0,24.0076,8.6112,47.0896,24.2852,65.2068l-5.67,42.4416
		c-0.2012,1.504,0.4648,2.992,1.7188,3.8396C21.0096,211.7696,21.7948,212,22.58,212c0.674,0,1.3476-0.168,1.9592-0.5116
		L60.25,191.4416c12.5568,5.4372,25.918,8.1952,39.75,8.1952c55.1408,0,100-44.7776,100-99.8164C200,44.7772,155.1408,0,100,0z
		 M72,116c-6.6172,0-12-5.3828-12-12s5.3828-12,12-12s12,5.3828,12,12S78.6172,116,72,116z M100,116c-6.6172,0-12-5.3828-12-12
		s5.3828-12,12-12s12,5.3828,12,12S106.6172,116,100,116z M128,116c-6.6172,0-12-5.3828-12-12s5.3828-12,12-12s12,5.3828,12,12
		S134.6172,116,128,116z"/>
	<path fill="#D8F768" d="M72,92c-6.6172,0-12,5.3828-12,12s5.3828,12,12,12s12-5.3828,12-12S78.6172,92,72,92z"/>
	<path fill="#D8F768" d="M100,92c-6.6172,0-12,5.3828-12,12s5.3828,12,12,12s12-5.3828,12-12S106.6172,92,100,92z"/>
	<path fill="#D8F768" d="M128,92c-6.6172,0-12,5.3828-12,12s5.3828,12,12,12s12-5.3828,12-12S134.6172,92,128,92z"/>
</g>
</svg>
