<?xml version="1.0" encoding="utf-8"?>
<!-- Generator: Adobe Illustrator 19.2.0, SVG Export Plug-In . SVG Version: 6.00 Build 0)  -->
<svg version="1.1" id="chefavatar" xmlns="http://www.w3.org/2000/svg" xmlns:xlink="http://www.w3.org/1999/xlink" x="0px" y="0px"
	 viewBox="0 0 158.3546 231.998" enable-background="new 0 0 158.3546 231.998" xml:space="preserve">
<g>
	<circle fill="#EAEAEA" cx="58" cy="170" r="2"/>
	<circle fill="#EAEAEA" cx="98" cy="170" r="2"/>
	<path fill="#E4AD40" d="M89.7499,196.084H66.0508c-8.6523,10.25-19.7188,15.2383-33.7695,15.2383
		c-5.1172,0-10.1992-0.834-15.0156-2.4277c7.082,8.4277,17.0938,15.1035,28.2695,15.1035c14.8125,0,23.3438-3.0527,29.4492-10.5352
		c0.7578-0.9297,1.8945-1.4707,3.0977-1.4707s2.3398,0.541,3.0977,1.4707c5.8633,7.1875,15.9258,10.5352,31.6719,10.5352
		c11.3281,0,22.5664-6.916,30.3086-15.6875c-6.6055,2.043-13.582,3.0117-19.0469,3.0117
		C109.8867,211.3223,98.332,206.1973,89.7499,196.084z"/>
	<path fill="#E9E7D1" d="M23.0469,82.2754c1.3672,0.5508,2.3203,1.8066,2.4844,3.2695L31.582,140h92.8359l6.0508-54.4551
		c0.1641-1.4629,1.1172-2.7188,2.4844-3.2695C142.0938,78.5977,148,69.8535,148,60c0-13.2344-10.7656-24-24-24
		c-1.6328,0-3.2656,0.166-4.8516,0.4902c-2.0312,0.4219-4.0469-0.7871-4.6367-2.7773C110.0039,18.5742,95.8125,8,80,8
		C63.7383,8,49.4375,18.9551,45.2266,34.6406c-0.2891,1.0781-1.0156,1.9863-2.0039,2.5039
		c-0.9844,0.5215-2.1484,0.6035-3.1992,0.2285C37.4609,36.4609,34.7578,36,32,36C18.7656,36,8,46.7656,8,60
		C8,69.8535,13.9062,78.5977,23.0469,82.2754z M120,44c2.2109,0,4,1.791,4,4s-1.7891,4-4,4c-4.4102,0-8,3.5879-8,8
		c0,2.209-1.7891,4-4,4s-4-1.791-4-4C104,51.1777,111.1758,44,120,44z M76,20c2.2109,0,4,1.791,4,4s-1.7891,4-4,4
		c-4.4102,0-8,3.5879-8,8c0,2.209-1.7891,4-4,4s-4-1.791-4-4C60,27.1777,67.1758,20,76,20z M36,44c2.2109,0,4,1.791,4,4
		s-1.7891,4-4,4c-4.4102,0-8,3.5879-8,8c0,2.209-1.7891,4-4,4s-4-1.791-4-4C20,51.1777,27.1758,44,36,44z"/>
	<path fill="#314E55" d="M17.832,88.7012l6.1914,55.7402C24.2499,146.4668,25.9609,148,28,148h100
		c2.0391,0,3.7499-1.5332,3.9766-3.5586l6.1914-55.7402C149.0781,83.332,156,72.3164,156,60c0-17.6445-14.3555-32-32-32
		c-0.9844,0-1.9688,0.0449-2.9492,0.1348C114.5625,11.4082,98.1562,0,80,0C61.4883,0,45.0547,11.6191,38.7305,28.709
		C36.5312,28.2383,34.2812,28,32,28C14.3555,28,0,42.3555,0,60C0,72.3164,6.9219,83.332,17.832,88.7012z M32,36
		c2.7578,0,5.4609,0.4609,8.0234,1.373c1.0508,0.375,2.2148,0.293,3.1992-0.2285c0.9883-0.5176,1.7148-1.4258,2.0039-2.5039
		C49.4375,18.9551,63.7383,8,80,8c15.8125,0,30.0039,10.5742,34.5117,25.7129c0.5898,1.9902,2.6055,3.1992,4.6367,2.7773
		C120.7344,36.166,122.3672,36,124,36c13.2344,0,24,10.7656,24,24c0,9.8535-5.9062,18.5977-15.0469,22.2754
		c-1.3672,0.5508-2.3203,1.8066-2.4844,3.2695L124.418,140H31.582l-6.0508-54.4551c-0.1641-1.4629-1.1172-2.7188-2.4844-3.2695
		C13.9062,78.5977,8,69.8535,8,60C8,46.7656,18.7656,36,32,36z"/>
	<path fill="#314E55" d="M24,64c2.2109,0,4-1.791,4-4c0-4.4121,3.5898-8,8-8c2.2109,0,4-1.791,4-4s-1.7891-4-4-4
		c-8.8242,0-16,7.1777-16,16C20,62.209,21.7891,64,24,64z"/>
	<path fill="#314E55" d="M64,40c2.2109,0,4-1.791,4-4c0-4.4121,3.5898-8,8-8c2.2109,0,4-1.791,4-4s-1.7891-4-4-4
		c-8.8242,0-16,7.1777-16,16C60,38.209,61.7891,40,64,40z"/>
	<path fill="#314E55" d="M108,64c2.2109,0,4-1.791,4-4c0-4.4121,3.5898-8,8-8c2.2109,0,4-1.791,4-4s-1.7891-4-4-4
		c-8.8242,0-16,7.1777-16,16C104,62.209,105.7891,64,108,64z"/>
	<path fill="#314E55" d="M48,170c0,5.5137,4.4844,10,10,10s10-4.4863,10-10s-4.4844-10-10-10S48,164.4863,48,170z M60,170
		c0,1.1035-0.8984,2-2,2s-2-0.8965-2-2s0.8984-2,2-2S60,168.8965,60,170z"/>
	<path fill="#314E55" d="M88,170c0,5.5137,4.4844,10,10,10s10-4.4863,10-10s-4.4844-10-10-10S88,164.4863,88,170z M100,170
		c0,1.1035-0.8984,2-2,2s-2-0.8965-2-2s0.8984-2,2-2S100,168.8965,100,170z"/>
	<path fill="#314E55" d="M156.8516,195.4082c-1.4297-1.1445-3.457-1.1699-4.9102-0.0625
		c-6.0039,4.5469-17.9648,7.9766-27.8281,7.9766c-12.5195,0-22.1055-4.4824-29.3125-13.7012
		c-0.7578-0.9707-1.9219-1.5371-3.1523-1.5371h-27.5c-1.2305,0-2.3945,0.5664-3.1523,1.5352
		c-7.4102,9.4766-16.2656,13.7031-28.7148,13.7031c-8.6133,0-17.0938-2.834-23.8828-7.9766
		c-1.457-1.1055-3.4844-1.0801-4.9102,0.0625c-1.4297,1.1426-1.9023,3.1113-1.1445,4.7793
		c7.1875,15.834,23.3281,31.8105,43.1914,31.8105c10.9531,0,23.1836-1.293,32.582-10.1738
		c9.957,9.043,24.3477,10.1738,34.7344,10.1738c19.9453,0,38.1445-16.3906,45.1445-31.8105
		C158.7539,198.5195,158.2812,196.5508,156.8516,195.4082z M112.8516,223.998c-15.7461,0-25.8086-3.3477-31.6719-10.5352
		c-0.7578-0.9297-1.8945-1.4707-3.0977-1.4707s-2.3398,0.541-3.0977,1.4707c-6.1055,7.4824-14.6367,10.5352-29.4492,10.5352
		c-11.1758,0-21.1875-6.6758-28.2695-15.1035c4.8164,1.5938,9.8984,2.4277,15.0156,2.4277c14.0508,0,25.1172-4.9883,33.7695-15.2383
		h23.6992c8.5821,10.1133,20.1368,15.2383,34.3633,15.2383c5.4648,0,12.4414-0.9688,19.0469-3.0117
		C135.418,217.082,124.1797,223.998,112.8516,223.998z"/>
</g>
</svg>
