<?xml version="1.0" encoding="utf-8"?>
<svg version="1.1" id="handshake" xmlns="http://www.w3.org/2000/svg" xmlns:xlink="http://www.w3.org/1999/xlink" x="0px" y="0px"
	 viewBox="0 0 238.9787 208.336" width="100px" height="100px" enable-background="new 0 0 238.9787 208.336" xml:space="preserve">
<g>
	<path fill="#E1AD99" d="M58.3107,141.0549c-5.1872-6.34-10.3652-12.9844-14.9372-19l-11.5724,11.57
		c-0.75,0.75-1.172,1.766-1.172,2.8284c0,1.0624,0.422,2.0779,1.172,2.828l14.1424,14.1444L58.3107,141.0549z"/>
	<path fill="#E1AD99" d="M92.2523,174.996c-4.3476-3.5548-8.504-7.0896-12.1972-10.4296l-11.4844,11.4844l11.3144,11.3163
		L92.2523,174.996z"/>
	<path fill="#E1AD99" d="M74.2287,159.082c-3.2888-3.2892-6.9708-7.3869-10.7772-11.8516L51.5999,159.082l11.3144,11.3124
		L74.2287,159.082z"/>
	<path fill="#E1AD99" d="M98.5139,180.0509l-12.9728,12.9728l14.1428,14.1404c0.7812,0.7812,1.8048,1.172,2.828,1.172
		c1.0236,0,2.0468-0.3908,2.8284-1.172l12.3652-12.3632C112.0667,190.5901,105.2971,185.4377,98.5139,180.0509z"/>
	<path fill="#FCD1C0" d="M63.4515,147.2305c-1.6972-1.996-3.416-4.0664-5.1408-6.1756l-12.3672,12.3708l0,0l5.6564,5.6564l0,0
		L63.4515,147.2305z"/>
	<path fill="#FCD1C0" d="M80.0551,164.5665c-2.1076-1.9024-4.0996-3.758-5.8264-5.4844l0,0l-11.3144,11.3124l5.6564,5.6564
		L80.0551,164.5665z"/>
	<path fill="#FCD1C0" d="M98.5139,180.0509c-2.1056-1.672-4.1952-3.3632-6.2616-5.0548l-12.3672,12.3711l0,0l5.656,5.6565l0,0
		L98.5139,180.0509z"/>
	<path fill="#FFE9E1" d="M189.6155,120.6133c-0.2032,0.0312-0.4064,0.0468-0.6076,0.0468c-1.078,0-2.1208-0.4372-2.8808-1.2224
		l-36.7832-38.164c-7.6424,4.1836-18.6424,9.574-26.4648,8.6952c-5.7792-0.6368-21.1796,5.2852-29.5,9.1912
		c-0.5332,0.25-1.1152,0.3791-1.7012,0.3791c-0.1248,0-0.25-0.004-0.3748-0.0155c-15.6096-1.4688-17.246-3.1056-18.1252-3.9808
		c-3.7636-3.7656,0.176-9.3164,1.8596-11.6872c3.4236-4.8245,9.742-11.8245,19.3164-21.3948
		c8.6736-8.6756,18.248-15.1288,26.6152-19.7852c-6.5548-4.996-11.8888-8.9528-15.2052-11.3904
		c-0.1424,0.16-0.248,0.3396-0.4004,0.492l-73.586,73.5859c-0.158,0.1605-0.3436,0.2697-0.5076,0.4141
		c2.6328,3.6252,6.9568,9.508,12.1036,16.2776c4.572,6.0156,9.75,12.66,14.9372,19c1.7248,2.1092,3.4436,4.1796,5.1408,6.1756
		c3.8064,4.4647,7.4884,8.5624,10.7772,11.8516l0,0c1.7268,1.7264,3.7188,3.582,5.8264,5.4844
		c3.6932,3.34,7.8496,6.8748,12.1972,10.4296c2.0664,1.6916,4.156,3.3828,6.2616,5.0548
		c6.7832,5.3868,13.5528,10.5392,19.1916,14.75c7.5212,5.6132,13.0036,9.5392,13.5956,9.9608c0.6992,0.5,1.5136,0.746,2.3224,0.746
		c1.0312,0,2.0564-0.3984,2.83-1.1716l16.9628-16.9649c-0.7792,0.7773-1.8008,1.168-2.8204,1.168
		c-1.0232,0-2.0468-0.3907-2.828-1.172l-39.5976-39.6015c-1.5624-1.5625-1.5624-4.0936,0-5.6564
		c1.5624-1.5624,4.0936-1.5624,5.656,0l39.598,39.6016c1.5604,1.5588,1.5604,4.086,0.0056,5.6483l16.9628-16.9647
		c-0.7812,0.7812-1.8044,1.172-2.826,1.172c-1.0236,0-2.0468-0.3908-2.828-1.172l-39.5996-39.5976
		c-1.5628-1.5624-1.5628-4.0937,0-5.656c1.5624-1.5628,4.0936-1.5628,5.656,0l39.5996,39.5976
		c1.5608,1.5624,1.5608,4.0896,0.002,5.6524l16.9592-16.9572c-0.7816,0.7735-1.7988,1.164-2.8184,1.164
		c-1.0236,0-2.0468-0.3905-2.8284-1.172l-39.5996-39.5976c-1.5624-1.5624-1.5624-4.0936,0-5.656
		c1.5628-1.5628,4.094-1.5628,5.6564,0l39.5996,39.5976c1.5588,1.5584,1.5604,4.082,0.006,5.6444l16.9628-16.9608
		c1.3828-1.3828,1.5624-3.5624,0.4276-5.1524c-0.4512-0.6288-4.8652-6.7968-11.0704-15.0744l-1.1032,2.2148
		C192.0099,119.6057,190.9007,120.4181,189.6155,120.6133z"/>
	<path fill="#FCD1C0" d="M187.3655,147.7697l-39.5996-39.5976c-1.5624-1.5628-4.0936-1.5628-5.6564,0
		c-1.5624,1.5624-1.5624,4.0936,0,5.656l39.5996,39.5976c0.7816,0.7815,1.8048,1.172,2.8284,1.172
		c1.0196,0,2.0368-0.3905,2.8184-1.164c0.002-0.004,0.0076-0.004,0.0096-0.008c0.002-0.0036,0.004-0.0076,0.006-0.0116
		C188.9259,151.8517,188.9243,149.328,187.3655,147.7697z"/>
	<path fill="#FCD1C0" d="M170.3947,164.7384l-39.5996-39.5976c-1.5624-1.5628-4.0936-1.5628-5.656,0
		c-1.5628,1.5623-1.5628,4.0936,0,5.656l39.5996,39.5976c0.7811,0.7812,1.8044,1.172,2.828,1.172
		c1.0216,0,2.0448-0.3908,2.826-1.172l0,0l0.004-0.0036C171.9555,168.828,171.9555,166.3009,170.3947,164.7384z"/>
	<path fill="#FCD1C0" d="M153.4243,181.7108l-39.598-39.6016c-1.5624-1.5624-4.0936-1.5624-5.656,0
		c-1.5624,1.5628-1.5624,4.0939,0,5.6564l39.5976,39.6015c0.7812,0.7813,1.8048,1.172,2.828,1.172
		c1.0196,0,2.0412-0.3907,2.8204-1.168c0,0,0.006,0,0.008-0.004c0,0,0.0016-0.004,0.0056-0.008
		C154.9847,185.7968,154.9847,183.2697,153.4243,181.7108z"/>
	
		<line fill="none" stroke="#FE8657" stroke-width="0" stroke-linecap="round" stroke-linejoin="round" x1="77.0783" y1="3.4961" x2="77.0803" y2="3.4961"/>
	<path fill="#FE8657" d="M105.3635,31.7773c0.1524-0.1524,0.258-0.332,0.4004-0.492c4.2168-4.6916,4.1056-11.9261-0.418-16.4492
		L94.0199,3.5077c-4.6796-4.6676-12.2792-4.6716-16.9396-0.0116l-73.586,73.586c-4.666,4.664-4.658,12.2656,0.0176,16.9416
		l11.3264,11.328c2.3416,2.336,5.414,3.5075,8.486,3.5075c2.8556,0,5.6856-1.0543,7.9456-3.0819
		c0.164-0.1444,0.3496-0.2536,0.5076-0.4141L105.3635,31.7773z"/>
	<path fill="#E1AD99" d="M136.9163,35.0901c-4,1.578-9.6076,4.0584-15.9472,7.5856c-8.3672,4.6564-17.9416,11.1096-26.6152,19.7852
		c-9.5744,9.5703-15.8928,16.5703-19.3164,21.3948c-1.6836,2.3708-5.6232,7.9216-1.8596,11.6872
		c0.8792,0.8752,2.5156,2.512,18.1252,3.9808c0.1248,0.0115,0.25,0.0155,0.3748,0.0155c0.586,0,1.168-0.1291,1.7012-0.3791
		c8.3204-3.906,23.7208-9.828,29.5-9.1912c7.8224,0.8788,18.8224-4.5116,26.4648-8.6952l36.7832,38.164
		c0.76,0.7852,1.8028,1.2224,2.8808,1.2224c0.2012,0,0.4044-0.0156,0.6076-0.0468c1.2852-0.1952,2.3944-1.0076,2.9728-2.172
		l1.1032-2.2148l8.096-16.2616L136.9163,35.0901z"/>
	<path fill="#3BABB7" d="M235.4711,77.0821l-73.586-73.586c-4.664-4.668-12.2656-4.66-16.9416,0.0156l-11.326,11.3244
		c-2.2716,2.2732-3.5236,5.2852-3.5236,8.4844c-0.002,3.1912,1.2444,6.1952,3.508,8.4568l3.3144,3.3128l64.8712,64.8748
		l5.4004,5.3983c2.33,2.332,5.3924,3.496,8.4568,3.496c3.0704,0,6.1448-1.1715,8.4844-3.5115l11.3264-11.324
		c2.2712-2.2736,3.5232-5.2852,3.5232-8.4845C238.9807,82.3477,237.7348,79.3437,235.4711,77.0821z"/>
</g>
</svg>
