<?xml version="1.0" encoding="utf-8"?>
<!-- Generator: Adobe Illustrator 19.2.0, SVG Export Plug-In . SVG Version: 6.00 Build 0)  -->
<svg version="1.1" id="heartenvelope" xmlns="http://www.w3.org/2000/svg" xmlns:xlink="http://www.w3.org/1999/xlink" x="0px"
	 y="0px" viewBox="0 0 52.0008 48.9998" enable-background="new 0 0 52.0008 48.9998" xml:space="preserve">
<g>
	<path fill="#C6DFED" d="M0.0043,20.9114c-0.001,0.0103,0.0039,0.02,0.0029,0.0303c0.002-0.0244,0.0069-0.0483,0.0098-0.0718
		C0.015,20.8846,0.0053,20.8968,0.0043,20.9114z"/>
	<path fill="#C6DFED" d="M51.893,20.5584c0.0195,0.0395,0.0342,0.0815,0.0488,0.1235
		C51.9272,20.6394,51.9125,20.5984,51.893,20.5584z"/>
	<path fill="#C6DFED" d="M0.1176,20.533c0.001-0.002,0.0019-0.0049,0.0029-0.0068C0.1195,20.5281,0.1186,20.5306,0.1176,20.533z"/>
	<path fill="#C6DFED" d="M51.9731,20.785c0.0097,0.0434,0.0136,0.0888,0.0166,0.1337
		C51.9867,20.8733,51.9828,20.8289,51.9731,20.785z"/>
	<path fill="#C6DFED" d="M1.4027,20.0843l6.5977,2.9028v-8.8682l-7.625,6.1001c-0.0117,0.0093-0.0166,0.0235-0.0273,0.0328
		c0.0341-0.0303,0.0664-0.0635,0.1054-0.0894C0.7367,19.9769,1.0932,19.948,1.4027,20.0843z"/>
	<path fill="#C6DFED" d="M51.7621,20.3582c0.0274,0.0332,0.0518,0.0693,0.0752,0.1064
		C51.8139,20.4275,51.7904,20.3919,51.7621,20.3582z"/>
	<path fill="#C6DFED" d="M44.0004,22.9871l6.5977-2.9028c0.3095-0.1353,0.6669-0.1065,0.9492,0.0781
		c0.0498,0.0327,0.0918,0.0742,0.1347,0.1143c-0.0195-0.0186-0.0351-0.0406-0.0566-0.0577l-7.625-6.1001V22.9871z"/>
	<path fill="#C6DFED" d="M33.851,5.9998L26.6254,0.219c-0.3652-0.292-0.8848-0.292-1.25,0l-7.2256,5.7808H33.851z"/>
	<path fill="#FCD1C0" d="M8.0004,22.9871l18,7.9199l18-7.9199v-8.8682V6.9998c0-0.5522-0.4473-1-1-1H33.851H18.1498H9.0004
		c-0.5527,0-1,0.4478-1,1v7.1191V22.9871z M26.0004,11.0862c1.0059-0.7055,2.2031-1.0864,3.4502-1.0864
		c3.3184,0,6.0186,2.7002,6.0186,6.019c0,3.0083-6.3145,9.8516-8.5411,10.8096c-0.2871,0.1235-0.5361,0.1709-0.75,0.1709
		c-0.0625,0-0.1211-0.0039-0.1777-0.0112c-0.25,0.0322-0.5566,0-0.9277-0.1597c-2.2266-0.958-8.541-7.8013-8.541-10.8096
		c0-3.3188,2.7001-6.019,6.0185-6.019C23.7973,9.9998,24.9945,10.3807,26.0004,11.0862z"/>
	<path fill="#FF6B97" d="M16.5317,16.0188c0,3.0083,6.3144,9.8516,8.541,10.8096c0.3711,0.1597,0.6777,0.1919,0.9277,0.1597
		c0.0566,0.0073,0.1152,0.0112,0.1777,0.0112c0.2139,0,0.4629-0.0474,0.75-0.1709c2.2266-0.958,8.5411-7.8013,8.5411-10.8096
		c0-3.3188-2.7002-6.019-6.0186-6.019c-1.2471,0-2.4443,0.3809-3.4502,1.0864c-1.0059-0.7055-2.2031-1.0864-3.4502-1.0864
		C19.2318,9.9998,16.5317,12.7,16.5317,16.0188z"/>
	<path fill="#DBEEF7" d="M51.9897,20.9187c-0.003-0.0449-0.0069-0.0903-0.0166-0.1337c-0.0079-0.0352-0.0196-0.0689-0.0313-0.1031
		c-0.0146-0.042-0.0293-0.084-0.0488-0.1235c-0.0156-0.0332-0.0362-0.063-0.0557-0.0938c-0.0234-0.0371-0.0478-0.0732-0.0752-0.1064
		c-0.0254-0.0293-0.0527-0.0552-0.0801-0.0815c-0.0429-0.0401-0.0849-0.0816-0.1347-0.1143
		c-0.2823-0.1846-0.6397-0.2134-0.9492-0.0781l-6.5977,2.9028l-18,7.9199l-18-7.9199l-6.5977-2.9028
		c-0.3095-0.1363-0.666-0.1074-0.9492,0.0781c-0.039,0.0259-0.0713,0.0591-0.1054,0.0894c-0.0909,0.08-0.1719,0.1689-0.2276,0.2744
		c-0.001,0.0019-0.0019,0.0048-0.0029,0.0068c-0.0547,0.104-0.085,0.2188-0.1006,0.3369c-0.0029,0.0235-0.0078,0.0474-0.0098,0.0718
		c-0.0009,0.0195-0.0068,0.0386-0.0068,0.0581v28h1c-0.4443,0-0.835-0.293-0.96-0.7192c-0.125-0.4263,0.0469-0.8838,0.4209-1.1231
		l25-16c0.3282-0.2099,0.75-0.2099,1.0782,0l25,16c0.374,0.2393,0.5459,0.6968,0.4209,1.1231
		c-0.125,0.4262-0.5157,0.7192-0.96,0.7192h1v-28C52.0004,20.972,51.9926,20.9456,51.9897,20.9187z"/>
	<path fill="#C6DFED" d="M51.9604,48.2806c0.125-0.4263-0.0469-0.8838-0.4209-1.1231l-25-16c-0.3282-0.2099-0.75-0.2099-1.0782,0
		l-25,16c-0.374,0.2393-0.5459,0.6968-0.4209,1.1231c0.125,0.4262,0.5157,0.7192,0.96,0.7192h1h48h1
		C51.4447,48.9998,51.8354,48.7068,51.9604,48.2806z"/>
</g>
</svg>
