<?xml version="1.0" encoding="utf-8"?>
<!-- Generator: Adobe Illustrator 19.2.0, SVG Export Plug-In . SVG Version: 6.00 Build 0)  -->
<svg version="1.1" id="letter" xmlns="http://www.w3.org/2000/svg" xmlns:xlink="http://www.w3.org/1999/xlink" x="0px" y="0px"
	 viewBox="0 0 224 144" enable-background="new 0 0 224 144" xml:space="preserve">
<g>
	<path fill="#E1AD99" d="M220,0H4C1.7891,0,0,1.7892,0,4v136c0,2.2108,1.7891,4,4,4h216c2.2107,0,4-1.7892,4-4V4
		C224,1.7892,222.2107,0,220,0z M24,88h32v8H24V88z M80,112H24v-8h56V112z M88,96H68v-8h20V96z M112.1015,80H24v-8h88.1015V80z
		 M208,64c0,2.2108-1.7893,4-4,4h-44c-2.2109,0-4-1.7892-4-4V20c0-2.2108,1.7891-4,4-4h44c2.2107,0,4,1.7892,4,4V64z"/>
	<rect x="24" y="72" fill="#FFE9E1" width="88.1015" height="8"/>
	<rect x="24" y="104" fill="#FFE9E1" width="56" height="8"/>
	<rect x="24" y="88" fill="#FFE9E1" width="32" height="8"/>
	<rect x="68" y="88" fill="#FFE9E1" width="20" height="8"/>
	<path fill="#C1DB66" d="M204,16h-44c-2.2109,0-4,1.7892-4,4v44c0,2.2108,1.7891,4,4,4h44c2.2107,0,4-1.7892,4-4V20
		C208,17.7892,206.2107,16,204,16z"/>
</g>
</svg>
