<?xml version="1.0" encoding="utf-8"?>
<svg version="1.1" id="localstore" xmlns="http://www.w3.org/2000/svg" xmlns:xlink="http://www.w3.org/1999/xlink" x="0px" y="0px"
	 viewBox="0 0 200 204" width="100px" height="100px" enable-background="new 0 0 200 204" xml:space="preserve">
<g>
	<path fill="#FE8657" d="M24,0H0v59.9764C0,68.8516,7.164,76,16,76c4.7967,0,9.0547-2.166,11.992-5.5252
		C25.5391,67.66,24,64.0196,24,59.9764V0z"/>
	<path fill="#C1DB66" d="M48,0H32h-8v59.9764c0,4.0432,1.5391,7.6836,3.992,10.4984C30.9255,73.836,35.1875,76,40,76
		c4.7967,0,9.0547-2.166,11.992-5.5252C49.5391,67.66,48,64.0196,48,59.9764V0z"/>
	<path fill="#FE8657" d="M72,0H56h-8v59.9764c0,4.0432,1.5391,7.6836,3.992,10.4984C54.9255,73.836,59.1875,76,64,76
		c4.7967,0,9.0547-2.166,11.992-5.5252C73.5391,67.66,72,64.0196,72,59.9764V0z"/>
	<path fill="#C1DB66" d="M96,0H80h-8v59.9764c0,4.0432,1.5391,7.6836,3.992,10.4984C78.9255,73.836,83.1875,76,88,76
		c4.7967,0,9.0547-2.166,11.992-5.5252C97.5391,67.66,96,64.0196,96,59.9764V0z"/>
	<path fill="#FE8657" d="M120,0h-16h-8v59.9764c0,4.0432,1.5391,7.6836,3.992,10.4984C102.9255,73.836,107.1875,76,112,76
		c4.7967,0,9.0547-2.166,11.992-5.5252C121.5391,67.66,120,64.0196,120,59.9764V0z"/>
	<path fill="#C1DB66" d="M144,0h-16h-8v59.9764c0,4.0432,1.5391,7.6836,3.992,10.4984C126.9255,73.836,131.1875,76,136,76
		c4.7967,0,9.0547-2.166,11.992-5.5252C145.5391,67.66,144,64.0196,144,59.9764V0z"/>
	<path fill="#FE8657" d="M168,0h-16h-8v59.9764c0,4.0432,1.5391,7.6836,3.992,10.4984C150.9255,73.836,155.1875,76,160,76
		c4.7967,0,9.0547-2.166,11.992-5.5252C169.5391,67.66,168,64.0196,168,59.9764V0z"/>
	<path fill="#C1DB66" d="M176,0h-8v59.9764c0,4.0432,1.5391,7.6836,3.992,10.4984C174.9255,73.836,179.1875,76,184,76
		c8.8203,0,16-7.1756,16-16.0236V0H176z"/>
	<path fill="#4A8F9E" d="M188,84H12c-2.2109,0-4,1.7912-4,4v112c0,2.2088,1.7891,4,4,4h20v-88h48v88h108c2.2107,0,4-1.7912,4-4V88
		C192,85.7912,190.2107,84,188,84z M168,176H96v-60h32h8h32V176z"/>
	<path fill="#FFE9E1" d="M32,116v88h48v-88H32z M68,160h-8v-8h8V160z"/>
	<rect x="60" y="152" fill="#4A8F9E" width="8" height="8"/>
	<rect x="136" y="124" fill="#FFDC82" width="24" height="44"/>
	<rect x="104" y="124" fill="#FFDC82" width="24" height="44"/>
	<path fill="#FCC24C" d="M128,116H96v60h72v-60h-32H128z M104,124h24v44h-24V124z M160,124v44h-24v-44H160z"/>
</g>
</svg>
