<?xml version="1.0" encoding="utf-8"?>
<svg version="1.1" id="markedcalendar" xmlns="http://www.w3.org/2000/svg" xmlns:xlink="http://www.w3.org/1999/xlink" x="0px"
	 y="0px" viewBox="0 0 208 196" width="100px" height="100px" enable-background="new 0 0 208 196" xml:space="preserve">
<g>
	<rect x="36" fill="#456782" width="8" height="20"/>
	<rect x="164" fill="#456782" width="8" height="20"/>
	<path fill="#E06C3E" d="M0,196h208V72H0V196z M154.828,154.828l-14.1424,14.1408c-0.7812,0.7812-1.8048,1.172-2.828,1.172
		c-1.0236,0-2.0472-0.3908-2.8284-1.172c-1.5624-1.5624-1.5624-4.094,0-5.6564l14.1428-14.1404c1.5624-1.5628,4.0936-1.5628,5.656,0
		C156.3908,150.7345,156.3908,153.2656,154.828,154.828z M175.0292,99.3124L189.172,85.172c1.5624-1.5628,4.0936-1.5628,5.656,0
		c1.5628,1.5624,1.5628,4.0937,0,5.656l-14.1424,14.1408c-0.7812,0.7812-1.8048,1.172-2.828,1.172
		c-1.0236,0-2.0472-0.3908-2.8284-1.172C173.4668,103.4064,173.4668,100.8748,175.0292,99.3124z M175.0292,131.3124l14.1428-14.1404
		c1.5624-1.5628,4.0936-1.5628,5.656,0c1.5628,1.5624,1.5628,4.0937,0,5.656l-14.1424,14.1408
		c-0.7812,0.7812-1.8048,1.172-2.828,1.172c-1.0236,0-2.0472-0.3908-2.8284-1.172
		C173.4668,135.4064,173.4668,132.8748,175.0292,131.3124z M175.0292,163.3124l14.1428-14.1404c1.5624-1.5628,4.0936-1.5628,5.656,0
		c1.5628,1.5625,1.5628,4.0936,0,5.656l-14.1424,14.1408c-0.7812,0.7812-1.8048,1.172-2.828,1.172
		c-1.0236,0-2.0472-0.3908-2.8284-1.172C173.4668,167.4064,173.4668,164.8748,175.0292,163.3124z M135.0292,99.3124L149.172,85.172
		c1.5624-1.5628,4.0936-1.5628,5.656,0c1.5628,1.5624,1.5628,4.0937,0,5.656l-14.1424,14.1408
		c-0.7812,0.7812-1.8048,1.172-2.828,1.172c-1.0236,0-2.0472-0.3908-2.8284-1.172
		C133.4668,103.4064,133.4668,100.8748,135.0292,99.3124z M133.172,117.172c1.5624-1.5628,4.0936-1.5628,5.656,0l5.172,5.1716
		l5.172-5.1716c1.5624-1.5628,4.0936-1.5628,5.656,0c1.5628,1.5624,1.5628,4.0937,0,5.656L149.6564,128l3.3144,3.3124
		c1.5624,1.5624,1.5624,4.094,0,5.6564c-0.7812,0.7812-1.8048,1.172-2.8284,1.172c-1.0232,0-2.0468-0.3908-2.828-1.172L144,133.6564
		l-3.3144,3.3124c-0.7812,0.7812-1.8048,1.172-2.828,1.172c-1.0236,0-2.0472-0.3908-2.8284-1.172
		c-1.5624-1.5624-1.5624-4.094,0-5.6564L138.3436,128l-5.1716-5.172C131.6092,121.2656,131.6092,118.7344,133.172,117.172z
		 M95.0292,99.3124L109.172,85.172c1.5624-1.5628,4.0936-1.5628,5.656,0c1.5628,1.5624,1.5628,4.0937,0,5.656l-14.1424,14.1408
		c-0.7812,0.7812-1.8048,1.172-2.828,1.172c-1.0236,0-2.0472-0.3908-2.8284-1.172
		C93.4668,103.4064,93.4668,100.8748,95.0292,99.3124z M95.0292,131.3124l14.1428-14.1404c1.5624-1.5628,4.0936-1.5628,5.656,0
		c1.5628,1.5624,1.5628,4.0937,0,5.656l-14.1424,14.1408c-0.7812,0.7812-1.8048,1.172-2.828,1.172
		c-1.0236,0-2.0472-0.3908-2.8284-1.172C93.4668,135.4064,93.4668,132.8748,95.0292,131.3124z M93.172,149.172
		c1.5624-1.5628,4.0936-1.5628,5.656,0l5.172,5.1716l5.172-5.1716c1.5624-1.5628,4.0936-1.5628,5.656,0
		c1.5628,1.5625,1.5628,4.0936,0,5.656L109.6564,160l3.3144,3.3124c1.5624,1.5624,1.5624,4.094,0,5.6564
		c-0.7812,0.7812-1.8048,1.172-2.8284,1.172c-1.0232,0-2.0468-0.3908-2.828-1.172L104,165.6564l-3.3144,3.3124
		c-0.7812,0.7812-1.8048,1.172-2.828,1.172c-1.0236,0-2.0472-0.3908-2.8284-1.172c-1.5624-1.5624-1.5624-4.094,0-5.6564L98.3436,160
		l-5.1716-5.172C91.6092,153.2656,91.6092,150.7345,93.172,149.172z M55.0292,99.3124L69.172,85.172
		c1.5624-1.5628,4.0936-1.5628,5.656,0c1.5628,1.5624,1.5628,4.0937,0,5.656l-14.1424,14.1408
		c-0.7812,0.7812-1.8048,1.172-2.828,1.172c-1.0236,0-2.0472-0.3908-2.8284-1.172
		C53.4668,103.4064,53.4668,100.8748,55.0292,99.3124z M55.0292,131.3124L69.172,117.172c1.5624-1.5628,4.0936-1.5628,5.656,0
		c1.5628,1.5624,1.5628,4.0937,0,5.656l-14.1424,14.1408c-0.7812,0.7812-1.8048,1.172-2.828,1.172
		c-1.0236,0-2.0472-0.3908-2.8284-1.172C53.4668,135.4064,53.4668,132.8748,55.0292,131.3124z M55.0292,163.3124L69.172,149.172
		c1.5624-1.5628,4.0936-1.5628,5.656,0c1.5628,1.5625,1.5628,4.0936,0,5.656l-14.1424,14.1408
		c-0.7812,0.7812-1.8048,1.172-2.828,1.172c-1.0236,0-2.0472-0.3908-2.8284-1.172
		C53.4668,167.4064,53.4668,164.8748,55.0292,163.3124z M15.0292,99.3124L29.172,85.172c1.5624-1.5628,4.0936-1.5628,5.656,0
		c1.5628,1.5624,1.5628,4.0937,0,5.656l-14.1424,14.1408c-0.7812,0.7812-1.8048,1.172-2.828,1.172
		c-1.0236,0-2.0472-0.3908-2.8284-1.172C13.4668,103.4064,13.4668,100.8748,15.0292,99.3124z M15.0292,131.3124L29.172,117.172
		c1.5624-1.5628,4.0936-1.5628,5.656,0c1.5628,1.5624,1.5628,4.0937,0,5.656l-14.1424,14.1408
		c-0.7812,0.7812-1.8048,1.172-2.828,1.172c-1.0236,0-2.0472-0.3908-2.8284-1.172
		C13.4668,135.4064,13.4668,132.8748,15.0292,131.3124z M15.0292,163.3124L29.172,149.172c1.5624-1.5628,4.0936-1.5628,5.656,0
		c1.5628,1.5625,1.5628,4.0936,0,5.656l-14.1424,14.1408c-0.7812,0.7812-1.8048,1.172-2.828,1.172
		c-1.0236,0-2.0472-0.3908-2.8284-1.172C13.4668,167.4064,13.4668,164.8748,15.0292,163.3124z"/>
	<polygon fill="#99D59D" points="172,20 164,20 44,20 36,20 0,20 0,64 0,72 208,72 208,64 208,20 	"/>
	<path fill="#A4EEE8" d="M17.8576,106.1408c1.0232,0,2.0468-0.3908,2.828-1.172L34.828,90.828c1.5628-1.5624,1.5628-4.0936,0-5.656
		c-1.5624-1.5628-4.0936-1.5628-5.656,0L15.0292,99.3124c-1.5624,1.5624-1.5624,4.094,0,5.6564
		C15.8104,105.75,16.834,106.1408,17.8576,106.1408z"/>
	<path fill="#A4EEE8" d="M57.8576,106.1408c1.0232,0,2.0468-0.3908,2.828-1.172L74.828,90.828c1.5628-1.5624,1.5628-4.0936,0-5.656
		c-1.5624-1.5628-4.0936-1.5628-5.656,0L55.0292,99.3124c-1.5624,1.5624-1.5624,4.094,0,5.6564
		C55.8104,105.75,56.834,106.1408,57.8576,106.1408z"/>
	<path fill="#A4EEE8" d="M97.8576,106.1408c1.0232,0,2.0468-0.3908,2.828-1.172L114.828,90.828c1.5628-1.5624,1.5628-4.0936,0-5.656
		c-1.5624-1.5628-4.0936-1.5628-5.656,0L95.0292,99.3124c-1.5624,1.5624-1.5624,4.094,0,5.6564
		C95.8104,105.75,96.834,106.1408,97.8576,106.1408z"/>
	<path fill="#A4EEE8" d="M137.8576,106.1408c1.0232,0,2.0468-0.3908,2.828-1.172L154.828,90.828
		c1.5628-1.5624,1.5628-4.0936,0-5.656c-1.5624-1.5628-4.0936-1.5628-5.656,0l-14.1428,14.1404
		c-1.5624,1.5624-1.5624,4.094,0,5.6564C135.8104,105.75,136.834,106.1408,137.8576,106.1408z"/>
	<path fill="#A4EEE8" d="M177.8576,106.1408c1.0232,0,2.0468-0.3908,2.828-1.172L194.828,90.828
		c1.5628-1.5624,1.5628-4.0936,0-5.656c-1.5624-1.5628-4.0936-1.5628-5.656,0l-14.1428,14.1404
		c-1.5624,1.5624-1.5624,4.094,0,5.6564C175.8104,105.75,176.834,106.1408,177.8576,106.1408z"/>
	<path fill="#A4EEE8" d="M17.8576,138.1408c1.0232,0,2.0468-0.3908,2.828-1.172L34.828,122.828c1.5628-1.5624,1.5628-4.0936,0-5.656
		c-1.5624-1.5628-4.0936-1.5628-5.656,0l-14.1428,14.1404c-1.5624,1.5624-1.5624,4.094,0,5.6564
		C15.8104,137.75,16.834,138.1408,17.8576,138.1408z"/>
	<path fill="#A4EEE8" d="M57.8576,138.1408c1.0232,0,2.0468-0.3908,2.828-1.172L74.828,122.828c1.5628-1.5624,1.5628-4.0936,0-5.656
		c-1.5624-1.5628-4.0936-1.5628-5.656,0l-14.1428,14.1404c-1.5624,1.5624-1.5624,4.094,0,5.6564
		C55.8104,137.75,56.834,138.1408,57.8576,138.1408z"/>
	<path fill="#A4EEE8" d="M97.8576,138.1408c1.0232,0,2.0468-0.3908,2.828-1.172l14.1424-14.1408
		c1.5628-1.5624,1.5628-4.0936,0-5.656c-1.5624-1.5628-4.0936-1.5628-5.656,0l-14.1428,14.1404
		c-1.5624,1.5624-1.5624,4.094,0,5.6564C95.8104,137.75,96.834,138.1408,97.8576,138.1408z"/>
	<path fill="#A4EEE8" d="M138.3436,128l-3.3144,3.3124c-1.5624,1.5624-1.5624,4.094,0,5.6564
		c0.7812,0.7812,1.8048,1.172,2.8284,1.172c1.0232,0,2.0468-0.3908,2.828-1.172L144,133.6564l3.3144,3.3124
		c0.7812,0.7812,1.8048,1.172,2.828,1.172c1.0236,0,2.0472-0.3908,2.8284-1.172c1.5624-1.5624,1.5624-4.094,0-5.6564L149.6564,128
		l5.1716-5.172c1.5628-1.5624,1.5628-4.0936,0-5.656c-1.5624-1.5628-4.0936-1.5628-5.656,0L144,122.3436l-5.172-5.1716
		c-1.5624-1.5628-4.0936-1.5628-5.656,0c-1.5628,1.5624-1.5628,4.0937,0,5.656L138.3436,128z"/>
	<path fill="#A4EEE8" d="M177.8576,138.1408c1.0232,0,2.0468-0.3908,2.828-1.172l14.1424-14.1408
		c1.5628-1.5624,1.5628-4.0936,0-5.656c-1.5624-1.5628-4.0936-1.5628-5.656,0l-14.1428,14.1404
		c-1.5624,1.5624-1.5624,4.094,0,5.6564C175.8104,137.75,176.834,138.1408,177.8576,138.1408z"/>
	<path fill="#A4EEE8" d="M17.8576,170.1408c1.0232,0,2.0468-0.3908,2.828-1.172L34.828,154.828c1.5628-1.5624,1.5628-4.0936,0-5.656
		c-1.5624-1.5628-4.0936-1.5628-5.656,0l-14.1428,14.1404c-1.5624,1.5624-1.5624,4.094,0,5.6564
		C15.8104,169.75,16.834,170.1408,17.8576,170.1408z"/>
	<path fill="#A4EEE8" d="M57.8576,170.1408c1.0232,0,2.0468-0.3908,2.828-1.172L74.828,154.828c1.5628-1.5624,1.5628-4.0936,0-5.656
		c-1.5624-1.5628-4.0936-1.5628-5.656,0l-14.1428,14.1404c-1.5624,1.5624-1.5624,4.094,0,5.6564
		C55.8104,169.75,56.834,170.1408,57.8576,170.1408z"/>
	<path fill="#A4EEE8" d="M98.3436,160l-3.3144,3.3124c-1.5624,1.5624-1.5624,4.094,0,5.6564
		c0.7812,0.7812,1.8048,1.172,2.8284,1.172c1.0232,0,2.0468-0.3908,2.828-1.172L104,165.6564l3.3144,3.3124
		c0.7812,0.7812,1.8048,1.172,2.828,1.172c1.0236,0,2.0472-0.3908,2.8284-1.172c1.5624-1.5624,1.5624-4.094,0-5.6564L109.6564,160
		l5.1716-5.172c1.5628-1.5624,1.5628-4.0936,0-5.656c-1.5624-1.5628-4.0936-1.5628-5.656,0L104,154.3436l-5.172-5.1716
		c-1.5624-1.5628-4.0936-1.5628-5.656,0c-1.5628,1.5625-1.5628,4.0936,0,5.656L98.3436,160z"/>
	<path fill="#A4EEE8" d="M149.172,149.172l-14.1428,14.1404c-1.5624,1.5624-1.5624,4.094,0,5.6564
		c0.7812,0.7812,1.8048,1.172,2.8284,1.172c1.0232,0,2.0468-0.3908,2.828-1.172l14.1424-14.1408
		c1.5628-1.5624,1.5628-4.0936,0-5.656C153.2656,147.6092,150.7344,147.6092,149.172,149.172z"/>
	<path fill="#A4EEE8" d="M177.8576,170.1408c1.0232,0,2.0468-0.3908,2.828-1.172l14.1424-14.1408
		c1.5628-1.5624,1.5628-4.0936,0-5.656c-1.5624-1.5628-4.0936-1.5628-5.656,0l-14.1428,14.1404
		c-1.5624,1.5624-1.5624,4.094,0,5.6564C175.8104,169.75,176.834,170.1408,177.8576,170.1408z"/>
</g>
</svg>
