<?xml version="1.0" encoding="utf-8"?>
<!-- Generator: Adobe Illustrator 19.2.0, SVG Export Plug-In . SVG Version: 6.00 Build 0)  -->
<svg version="1.1" id="megaphone" xmlns="http://www.w3.org/2000/svg" xmlns:xlink="http://www.w3.org/1999/xlink" x="0px" y="0px"
	 viewBox="0 0 212 133.7543" enable-background="new 0 0 212 133.7543" xml:space="preserve">
<g>
	<path fill="#F8A131" d="M194,45.7543h-10v44h10c9.9256,0,18-8.086,18-18.0236v-7.9528C212,53.8403,203.9256,45.7543,194,45.7543z"
		/>
	<path fill="#9AB040" d="M184,9.7623c0-3.4376-1.422-6.4104-3.9004-8.1564c-2.4728-1.7424-5.7384-2.09-8.9668-0.9296L74.174,35.3011
		C68.3732,37.3755,64,43.6059,64,49.7895v31.9296c0,6.086,4.4688,12.4492,10.1756,14.4884l96.9552,34.6248
		c1.26,0.4492,2.5256,0.672,3.748,0.672c1.9064,0,3.7072-0.5392,5.2148-1.6016c2.4824-1.746,3.9064-4.7188,3.9064-8.1564v-31.992
		v-44V9.7623z"/>
	<polygon fill="#5A99A9" points="0,77.7543 0,85.7543 0,133.7543 28,133.7543 41.7148,85.7543 60,85.7543 60,45.7543 0,45.7543 	"/>
</g>
</svg>
