<?xml version="1.0" encoding="utf-8"?>
<svg version="1.1" id="moviecut" xmlns="http://www.w3.org/2000/svg" xmlns:xlink="http://www.w3.org/1999/xlink" x="0px" y="0px"
	 viewBox="0 0 210.7574 196.5805" width="100px" height="100px" enable-background="new 0 0 210.7574 196.5805" xml:space="preserve">
<g>
	<path fill="#4A8F9E" d="M206.7574,104.5805h-13.9885c-0.0035,0-0.0075,0.002-0.0115,0.002l-0.0117-0.002h-39.9768
		c-0.0035,0-0.0075,0.002-0.0115,0.002l-0.0117-0.002h-39.9768c-0.0035,0-0.0075,0.002-0.0115,0.002l-0.0117-0.002H72.7689
		c-0.0035,0-0.0075,0.002-0.0115,0.002l-0.0117-0.002H32.7689c-0.0035,0-0.0075,0.002-0.0115,0.002l-0.0117-0.002H6.7574
		c-2.2109,0-4-1.7912-4-4v92c0,2.2088,1.7891,4,4,4h200c2.2107,0,4-1.7912,4-4v-92
		C210.7574,102.7893,208.9681,104.5805,206.7574,104.5805z M18.7574,112.5805h84v8h-84V112.5805z M18.7574,124.5805h84v8h-84
		V124.5805z M194.7574,164.5805h-24v16h-8v-16h-32v16h-8v-16h-32v16h-8v-16h-32v16h-8v-16h-24v-8h24h8h32h8h32h8h32h8h24V164.5805z"
		/>
	<path fill="#FCC24C" d="M206.7574,64.5805h-200c-2.2109,0-4,1.7912-4,4v32c0,2.2088,1.7891,4,4,4h25.9883
		c-1.6992-0.004-3.2696-1.0996-3.8048-2.8068l-10-32c-0.66-2.1092,0.5156-4.3516,2.6248-5.0116
		c2.098-0.66,4.348,0.5176,5.008,2.6252l10,32c0.66,2.1092-0.5156,4.3516-2.6248,5.0116c-0.3908,0.1232-0.7892,0.1796-1.18,0.1816
		h39.9768c-1.6992-0.004-3.2696-1.0996-3.8048-2.8068l-10-32c-0.66-2.1092,0.5156-4.3516,2.6248-5.0116
		c2.098-0.66,4.348,0.5176,5.008,2.6252l10,32c0.66,2.1092-0.5156,4.3516-2.6248,5.0116c-0.3908,0.1232-0.7892,0.1796-1.18,0.1816
		h39.9768c-1.6992-0.004-3.2696-1.0996-3.8048-2.8068l-10-32c-0.66-2.1092,0.5156-4.3516,2.6248-5.0116
		c2.098-0.66,4.348,0.5176,5.008,2.6252l10,32c0.66,2.1092-0.5156,4.3516-2.6248,5.0116c-0.3908,0.1232-0.7892,0.1796-1.18,0.1816
		h39.9768c-1.6992-0.004-3.2696-1.0996-3.8048-2.8068l-10-32c-0.66-2.1092,0.5156-4.3516,2.6248-5.0116
		c2.1016-0.66,4.348,0.5176,5.008,2.6252l10,32c0.66,2.1092-0.5156,4.3516-2.6248,5.0116c-0.3908,0.1232-0.7892,0.1796-1.18,0.1816
		h39.9768c-1.6992-0.004-3.2696-1.0996-3.8048-2.8068l-10-32c-0.66-2.1092,0.5156-4.3516,2.6248-5.0116
		c2.09-0.66,4.348,0.5176,5.008,2.6252l10,32c0.66,2.1092-0.5156,4.3516-2.6248,5.0116c-0.3908,0.1232-0.7892,0.1796-1.18,0.1816
		h13.9885c2.2107,0,4-1.7912,4-4v-32C210.7574,66.3717,208.9681,64.5805,206.7574,64.5805z"/>
	<path fill="#FD5A5A" d="M32.7689,104.5805c0.3908-0.002,0.7892-0.0584,1.18-0.1816c2.1092-0.66,3.2848-2.9024,2.6248-5.0116l-10-32
		c-0.66-2.1076-2.91-3.2852-5.008-2.6252c-2.1092,0.66-3.2848,2.9024-2.6248,5.0116l10,32
		c0.5352,1.7072,2.1056,2.8028,3.8048,2.8068l0.0117,0.002C32.7614,104.5825,32.7654,104.5805,32.7689,104.5805z"/>
	<path fill="#FD5A5A" d="M72.7689,104.5805c0.3908-0.002,0.7892-0.0584,1.18-0.1816c2.1092-0.66,3.2848-2.9024,2.6248-5.0116l-10-32
		c-0.66-2.1076-2.91-3.2852-5.008-2.6252c-2.1092,0.66-3.2848,2.9024-2.6248,5.0116l10,32
		c0.5352,1.7072,2.1056,2.8028,3.8048,2.8068l0.0117,0.002C72.7614,104.5825,72.7654,104.5805,72.7689,104.5805z"/>
	<path fill="#FD5A5A" d="M112.7689,104.5805c0.3908-0.002,0.7892-0.0584,1.18-0.1816c2.1092-0.66,3.2848-2.9024,2.6248-5.0116
		l-10-32c-0.66-2.1076-2.91-3.2852-5.008-2.6252c-2.1092,0.66-3.2848,2.9024-2.6248,5.0116l10,32
		c0.5352,1.7072,2.1056,2.8028,3.8048,2.8068l0.0117,0.002C112.7614,104.5825,112.7654,104.5805,112.7689,104.5805z"/>
	<path fill="#FD5A5A" d="M152.7689,104.5805c0.3908-0.002,0.7892-0.0584,1.18-0.1816c2.1092-0.66,3.2848-2.9024,2.6248-5.0116
		l-10-32c-0.66-2.1076-2.9064-3.2852-5.008-2.6252c-2.1092,0.66-3.2848,2.9024-2.6248,5.0116l10,32
		c0.5352,1.7072,2.1056,2.8028,3.8048,2.8068l0.0117,0.002C152.7614,104.5825,152.7654,104.5805,152.7689,104.5805z"/>
	<path fill="#FD5A5A" d="M4.2181,56.3753c0.7228,0.6076,1.6328,0.9356,2.5704,0.9356c0.1172,0,0.2304-0.0056,0.3476-0.0156
		l199.2384-17.4316c2.2032-0.1916,3.828-2.1328,3.6368-4.332l-2.7892-31.8788c-0.0936-1.0588-0.6016-2.0352-1.414-2.7168
		c-0.8124-0.6836-1.8592-1.0156-2.918-0.92L3.6517,17.4477c-2.2028,0.1912-3.828,2.1328-3.6364,4.332l2.7888,31.8788
		C2.8981,54.7173,3.4057,55.6937,4.2181,56.3753z M177.8121,2.3929c2.0312-0.836,4.3748,0.1348,5.2188,2.178l12.75,31.0076
		c0.8396,2.0432-0.1368,4.3808-2.18,5.2208c-0.496,0.2052-1.0115,0.3028-1.5192,0.3028c-1.5704,0-3.0628-0.9356-3.6992-2.4804
		l-12.75-31.008C174.7925,5.5709,175.7689,3.2329,177.8121,2.3929z M137.9645,5.8813c2.0348-0.832,4.3788,0.1368,5.2184,2.1776
		l12.75,31.006c0.84,2.0428-0.1364,4.3808-2.1795,5.2208c-0.496,0.2048-1.0117,0.3028-1.5197,0.3028
		c-1.57,0-3.0624-0.9356-3.6992-2.4808l-12.75-31.0056C134.9449,9.0589,135.9214,6.7213,137.9645,5.8813z M98.1165,9.3657
		c2.0316-0.832,4.3792,0.1348,5.2188,2.1776l12.7501,31.006c0.84,2.0428-0.1365,4.3808-2.1797,5.2208
		c-0.496,0.2048-1.0116,0.3024-1.5196,0.3024c-1.5704,0-3.0624-0.9352-3.6992-2.4804l-12.75-31.0056
		C95.0974,12.5433,96.0737,10.2053,98.1165,9.3657z M58.2689,12.8541c2.0352-0.836,4.3752,0.1348,5.2188,2.1776l12.75,31.006
		c0.84,2.0428-0.1368,4.3808-2.1796,5.2204c-0.496,0.2052-1.0116,0.3028-1.5196,0.3028c-1.5704,0-3.0624-0.9356-3.6992-2.4804
		l-12.7499-31.006C55.2494,16.0317,56.2261,13.6937,58.2689,12.8541z M18.4214,16.3421c2.0311-0.8376,4.3787,0.1348,5.2187,2.178
		l12.75,31.0056c0.84,2.0432-0.1367,4.3808-2.1796,5.2208c-0.496,0.2052-1.0116,0.3028-1.5196,0.3028
		c-1.5704,0-3.0624-0.9356-3.6992-2.4804l-12.75-31.006C15.4017,19.5201,16.3785,17.1821,18.4214,16.3421z"/>
	<path fill="#FCC24C" d="M28.9917,52.5689c0.6368,1.5448,2.1288,2.4804,3.6992,2.4804c0.508,0,1.0236-0.0976,1.5196-0.3028
		c2.0429-0.84,3.0196-3.1776,2.1796-5.2208l-12.75-31.0056c-0.84-2.0432-3.1876-3.0156-5.2187-2.178
		c-2.0429,0.84-3.0197,3.178-2.1797,5.2208L28.9917,52.5689z"/>
	<path fill="#FCC24C" d="M68.8393,49.0805c0.6368,1.5448,2.1288,2.4804,3.6992,2.4804c0.508,0,1.0236-0.0976,1.5196-0.3028
		c2.0428-0.8396,3.0196-3.1776,2.1796-5.2204l-12.75-31.006c-0.8436-2.0428-3.1836-3.0136-5.2188-2.1776
		c-2.0428,0.8396-3.0195,3.1776-2.1795,5.2204L68.8393,49.0805z"/>
	<path fill="#FCC24C" d="M108.6869,45.5921c0.6368,1.5452,2.1288,2.4804,3.6992,2.4804c0.508,0,1.0236-0.0976,1.5196-0.3024
		c2.0432-0.84,3.0197-3.178,2.1797-5.2208l-12.7501-31.006c-0.8396-2.0428-3.1872-3.0096-5.2188-2.1776
		c-2.0428,0.8396-3.0191,3.1776-2.1796,5.2208L108.6869,45.5921z"/>
	<path fill="#FCC24C" d="M148.5345,42.1077c0.6368,1.5452,2.1292,2.4808,3.6992,2.4808c0.508,0,1.0237-0.098,1.5197-0.3028
		c2.0431-0.84,3.0195-3.178,2.1795-5.2208l-12.75-31.006c-0.8396-2.0408-3.1836-3.0096-5.2184-2.1776
		c-2.0431,0.84-3.0196,3.1776-2.18,5.2208L148.5345,42.1077z"/>
	<path fill="#FCC24C" d="M188.3825,38.6217c0.6364,1.5448,2.1288,2.4804,3.6992,2.4804c0.5077,0,1.0232-0.0976,1.5192-0.3028
		c2.0432-0.84,3.0196-3.1776,2.18-5.2208l-12.75-31.0076c-0.844-2.0432-3.1876-3.014-5.2188-2.178
		c-2.0432,0.84-3.0196,3.178-2.1796,5.2208L188.3825,38.6217z"/>
	<path fill="#FD5A5A" d="M192.7689,104.5805c0.3908-0.002,0.7892-0.0584,1.18-0.1816c2.1092-0.66,3.2848-2.9024,2.6248-5.0116
		l-10-32c-0.66-2.1076-2.918-3.2852-5.008-2.6252c-2.1092,0.66-3.2848,2.9024-2.6248,5.0116l10,32
		c0.5352,1.7072,2.1056,2.8028,3.8048,2.8068l0.0117,0.002C192.7614,104.5825,192.7654,104.5805,192.7689,104.5805z"/>
	<rect x="18.7574" y="112.5805" fill="#C1DB66" width="84" height="8"/>
	<rect x="18.7574" y="124.5805" fill="#C1DB66" width="84" height="8"/>
	<polygon fill="#C1DB66" points="162.7574,156.5805 130.7574,156.5805 122.7574,156.5805 90.7574,156.5805 82.7574,156.5805 
		50.7574,156.5805 42.7574,156.5805 18.7574,156.5805 18.7574,164.5805 42.7574,164.5805 42.7574,180.5805 50.7574,180.5805 
		50.7574,164.5805 82.7574,164.5805 82.7574,180.5805 90.7574,180.5805 90.7574,164.5805 122.7574,164.5805 122.7574,180.5805 
		130.7574,180.5805 130.7574,164.5805 162.7574,164.5805 162.7574,180.5805 170.7574,180.5805 170.7574,164.5805 194.7574,164.5805 
		194.7574,156.5805 170.7574,156.5805 	"/>
</g>
</svg>
