<?xml version="1.0" encoding="utf-8"?>
<svg version="1.1" xmlns="http://www.w3.org/2000/svg" xmlns:xlink="http://www.w3.org/1999/xlink" x="0px" y="0px"
	 viewBox="0 0 68.8 68.8" width="100px" height="100px" style="enable-background:new 0 0 68.8 68.8;" xml:space="preserve">
<style type="text/css">
	.st0{clip-path:url(#SVGID_2_);fill:#4285F4;}
	.st1{clip-path:url(#SVGID_8_);}
	.st2{fill:#4285F4;}
	.st3{opacity:0.2;clip-path:url(#SVGID_10_);}
	.st4{fill:#FFFFFF;}
	.st5{opacity:0.2;clip-path:url(#SVGID_12_);}
	.st6{fill:#1A237E;}
	.st7{opacity:0.2;clip-path:url(#SVGID_14_);fill:#FFFFFF;enable-background:new    ;}
	.st8{opacity:0.2;clip-path:url(#SVGID_16_);fill:#1A237E;enable-background:new    ;}
	.st9{fill:none;}
	.st10{display:none;}
	.st11{display:inline;}
	.st12{clip-path:url(#SVGID_18_);fill:#1C71DA;}
	.st13{clip-path:url(#SVGID_20_);}
	.st14{fill:#F5F5F5;}
	.st15{clip-path:url(#SVGID_22_);fill:url(#XMLID_4_);}
	.st16{clip-path:url(#SVGID_24_);}
	.st17{fill:#1C71DA;}
	.st18{opacity:0.2;clip-path:url(#SVGID_26_);}
	.st19{opacity:0.2;clip-path:url(#SVGID_28_);}
	.st20{opacity:0.2;clip-path:url(#SVGID_30_);fill:#FFFFFF;enable-background:new    ;}
	.st21{opacity:0.2;clip-path:url(#SVGID_32_);fill:#1A237E;enable-background:new    ;}
	.st22{display:inline;fill:#FF5D5D;}
	.st23{display:inline;fill:#00D40B;}
	.st24{display:inline;fill:#FFC504;}
</style>
<g id="logo_x5F_google_x5F_nearby_x5F_192px_x5F_clr">
	<g id="XMLID_19_">
		<g id="XMLID_16_">
			<g id="XMLID_1_">
				<g>
					<defs>
						<path id="SVGID_1_" d="M64.7,31.4L37.5,4.1c-1.7-1.7-4.4-1.7-6.1,0L4.1,31.4c-1.7,1.7-1.7,4.4,0,6.1l27.3,27.3
							c1.7,1.7,4.4,1.7,6.1,0l27.3-27.3C66.4,35.8,66.4,33.1,64.7,31.4z"/>
					</defs>
					<clipPath id="SVGID_2_">
						<use xlink:href="#SVGID_1_"  style="overflow:visible;"/>
					</clipPath>
					<path id="XMLID_9_" class="st0" d="M64.7,31.4L37.5,4.1c-1.7-1.7-4.4-1.7-6.1,0L4.1,31.4c-1.7,1.7-1.7,4.4,0,6.1l27.3,27.3
						c1.7,1.7,4.4,1.7,6.1,0l27.3-27.3C66.4,35.8,66.4,33.1,64.7,31.4z M34.4,57.4L11.5,34.4l22.9-22.9l22.9,22.9L34.4,57.4z"/>
				</g>
				<g>
					<defs>
						<path id="SVGID_3_" d="M64.7,31.4L37.5,4.1c-1.7-1.7-4.4-1.7-6.1,0L4.1,31.4c-1.7,1.7-1.7,4.4,0,6.1l27.3,27.3
							c1.7,1.7,4.4,1.7,6.1,0l27.3-27.3C66.4,35.8,66.4,33.1,64.7,31.4z"/>
					</defs>
					<clipPath id="SVGID_4_">
						<use xlink:href="#SVGID_3_"  style="overflow:visible;"/>
					</clipPath>
				</g>
				<g>
					<defs>
						<path id="SVGID_5_" d="M64.7,31.4L37.5,4.1c-1.7-1.7-4.4-1.7-6.1,0L4.1,31.4c-1.7,1.7-1.7,4.4,0,6.1l27.3,27.3
							c1.7,1.7,4.4,1.7,6.1,0l27.3-27.3C66.4,35.8,66.4,33.1,64.7,31.4z"/>
					</defs>
					<clipPath id="SVGID_6_">
						<use xlink:href="#SVGID_5_"  style="overflow:visible;"/>
					</clipPath>
				</g>
				<g>
					<defs>
						<path id="SVGID_7_" d="M64.7,31.4L37.5,4.1c-1.7-1.7-4.4-1.7-6.1,0L4.1,31.4c-1.7,1.7-1.7,4.4,0,6.1l27.3,27.3
							c1.7,1.7,4.4,1.7,6.1,0l27.3-27.3C66.4,35.8,66.4,33.1,64.7,31.4z"/>
					</defs>
					<clipPath id="SVGID_8_">
						<use xlink:href="#SVGID_7_"  style="overflow:visible;"/>
					</clipPath>
					<g id="XMLID_6_" class="st1">
						<g id="XMLID_26_">
							
								<rect id="XMLID_32_" x="24.3" y="24.3" transform="matrix(0.7071 -0.7071 0.7071 0.7071 -14.2552 34.4181)" class="st2" width="20.3" height="20.3"/>
						</g>
					</g>
				</g>
				<g>
					<defs>
						<path id="SVGID_9_" d="M64.7,31.4L37.5,4.1c-1.7-1.7-4.4-1.7-6.1,0L4.1,31.4c-1.7,1.7-1.7,4.4,0,6.1l27.3,27.3
							c1.7,1.7,4.4,1.7,6.1,0l27.3-27.3C66.4,35.8,66.4,33.1,64.7,31.4z"/>
					</defs>
					<clipPath id="SVGID_10_">
						<use xlink:href="#SVGID_9_"  style="overflow:visible;"/>
					</clipPath>
					<g id="XMLID_13_" class="st3">
						<path id="XMLID_14_" class="st4" d="M4.1,31.7L31.4,4.5c1.7-1.7,4.4-1.7,6.1,0l27.3,27.3c0.8,0.8,1.2,1.8,1.2,2.9
							c0-1.2-0.4-2.3-1.2-3.2L37.5,4.1c-1.7-1.7-4.4-1.7-6.1,0L4.1,31.4c-0.9,0.9-1.3,2.1-1.2,3.2C2.9,33.6,3.3,32.5,4.1,31.7z"/>
					</g>
				</g>
				<g>
					<defs>
						<path id="SVGID_11_" d="M64.7,31.4L37.5,4.1c-1.7-1.7-4.4-1.7-6.1,0L4.1,31.4c-1.7,1.7-1.7,4.4,0,6.1l27.3,27.3
							c1.7,1.7,4.4,1.7,6.1,0l27.3-27.3C66.4,35.8,66.4,33.1,64.7,31.4z"/>
					</defs>
					<clipPath id="SVGID_12_">
						<use xlink:href="#SVGID_11_"  style="overflow:visible;"/>
					</clipPath>
					<g id="XMLID_15_" class="st5">
						<path id="XMLID_17_" class="st6" d="M64.7,37.1L37.4,64.4c-1.7,1.7-4.4,1.7-6.1,0L4.1,37.1c-0.8-0.8-1.2-1.8-1.2-2.9
							c0,1.2,0.4,2.3,1.2,3.2l27.3,27.3c1.7,1.7,4.4,1.7,6.1,0l27.3-27.3c0.9-0.9,1.3-2.1,1.2-3.2C65.9,35.3,65.5,36.3,64.7,37.1z"
							/>
					</g>
				</g>
				<g>
					<defs>
						<path id="SVGID_13_" d="M64.7,31.4L37.5,4.1c-1.7-1.7-4.4-1.7-6.1,0L4.1,31.4c-1.7,1.7-1.7,4.4,0,6.1l27.3,27.3
							c1.7,1.7,4.4,1.7,6.1,0l27.3-27.3C66.4,35.8,66.4,33.1,64.7,31.4z"/>
					</defs>
					<clipPath id="SVGID_14_">
						<use xlink:href="#SVGID_13_"  style="overflow:visible;"/>
					</clipPath>
					<polygon id="XMLID_10_" class="st7" points="34.4,20.4 48.6,34.6 48.8,34.4 34.4,20.1 20.1,34.4 20.3,34.6 					"/>
				</g>
				<g>
					<defs>
						<path id="SVGID_15_" d="M64.7,31.4L37.5,4.1c-1.7-1.7-4.4-1.7-6.1,0L4.1,31.4c-1.7,1.7-1.7,4.4,0,6.1l27.3,27.3
							c1.7,1.7,4.4,1.7,6.1,0l27.3-27.3C66.4,35.8,66.4,33.1,64.7,31.4z"/>
					</defs>
					<clipPath id="SVGID_16_">
						<use xlink:href="#SVGID_15_"  style="overflow:visible;"/>
					</clipPath>
					<polygon id="XMLID_11_" class="st8" points="34.4,48.8 20.1,34.4 19.9,34.6 34.4,49.1 48.9,34.6 48.8,34.4 					"/>
				</g>
			</g>
		</g>
		<rect id="XMLID_18_" class="st9" width="68.8" height="68.8"/>
	</g>
</g>
<g id="Laag_3" class="st10">
	<g id="XMLID_3_" class="st11">
		<g id="XMLID_7_">
			<g id="XMLID_12_">
				<g>
					<defs>
						<path id="SVGID_17_" d="M55.5,32.3l-19-19c-1.2-1.2-3.1-1.2-4.2,0l-19,19c-1.2,1.2-1.2,3.1,0,4.2l19,19c1.2,1.2,3.1,1.2,4.2,0
							l19-19C56.7,35.4,56.7,33.5,55.5,32.3z"/>
					</defs>
					<clipPath id="SVGID_18_">
						<use xlink:href="#SVGID_17_"  style="overflow:visible;"/>
					</clipPath>
					<path id="XMLID_36_" class="st12" d="M55.5,32.3l-19-19c-1.2-1.2-3.1-1.2-4.2,0l-19,19c-1.2,1.2-1.2,3.1,0,4.2l19,19
						c1.2,1.2,3.1,1.2,4.2,0l19-19C56.7,35.4,56.7,33.5,55.5,32.3z M34.4,50.4l-16-16l16-16l16,16L34.4,50.4z"/>
				</g>
				<g>
					<defs>
						<path id="SVGID_19_" d="M55.5,32.3l-19-19c-1.2-1.2-3.1-1.2-4.2,0l-19,19c-1.2,1.2-1.2,3.1,0,4.2l19,19c1.2,1.2,3.1,1.2,4.2,0
							l19-19C56.7,35.4,56.7,33.5,55.5,32.3z"/>
					</defs>
					<clipPath id="SVGID_20_">
						<use xlink:href="#SVGID_19_"  style="overflow:visible;"/>
					</clipPath>
					<g id="XMLID_34_" class="st13">
						
							<rect id="XMLID_35_" x="23.1" y="23.1" transform="matrix(0.7071 -0.7071 0.7071 0.7071 -14.2554 34.4177)" class="st14" width="22.6" height="22.6"/>
					</g>
				</g>
				<g>
					<defs>
						<path id="SVGID_21_" d="M55.5,32.3l-19-19c-1.2-1.2-3.1-1.2-4.2,0l-19,19c-1.2,1.2-1.2,3.1,0,4.2l19,19c1.2,1.2,3.1,1.2,4.2,0
							l19-19C56.7,35.4,56.7,33.5,55.5,32.3z"/>
					</defs>
					<clipPath id="SVGID_22_">
						<use xlink:href="#SVGID_21_"  style="overflow:visible;"/>
					</clipPath>
					
						<linearGradient id="XMLID_4_" gradientUnits="userSpaceOnUse" x1="2060.8333" y1="-1093" x2="2126.8367" y2="-1159.0034" gradientTransform="matrix(0.25 0 0 -0.25 -485.6875 -243.7292)">
						<stop  offset="0" style="stop-color:#1A237E;stop-opacity:0.2"/>
						<stop  offset="1" style="stop-color:#1A237E;stop-opacity:2.000000e-02"/>
					</linearGradient>
					<polygon id="XMLID_31_" class="st15" points="51,41 41,51 24.4,34.4 34.4,24.4 					"/>
				</g>
				<g>
					<defs>
						<path id="SVGID_23_" d="M55.5,32.3l-19-19c-1.2-1.2-3.1-1.2-4.2,0l-19,19c-1.2,1.2-1.2,3.1,0,4.2l19,19c1.2,1.2,3.1,1.2,4.2,0
							l19-19C56.7,35.4,56.7,33.5,55.5,32.3z"/>
					</defs>
					<clipPath id="SVGID_24_">
						<use xlink:href="#SVGID_23_"  style="overflow:visible;"/>
					</clipPath>
					<g id="XMLID_27_" class="st16">
						
							<image style="overflow:visible;opacity:0.2;enable-background:new    ;" width="105" height="104" id="XMLID_30_" xlink:href="FAECADD.png"  transform="matrix(0.25 0 0 0.25 22.1667 22.4167)">
						</image>
						<g id="XMLID_28_">
							
								<rect id="XMLID_29_" x="27.3" y="27.3" transform="matrix(0.7071 -0.7071 0.7071 0.7071 -14.2554 34.4177)" class="st17" width="14.1" height="14.1"/>
						</g>
					</g>
				</g>
				<g>
					<defs>
						<path id="SVGID_25_" d="M55.5,32.3l-19-19c-1.2-1.2-3.1-1.2-4.2,0l-19,19c-1.2,1.2-1.2,3.1,0,4.2l19,19c1.2,1.2,3.1,1.2,4.2,0
							l19-19C56.7,35.4,56.7,33.5,55.5,32.3z"/>
					</defs>
					<clipPath id="SVGID_26_">
						<use xlink:href="#SVGID_25_"  style="overflow:visible;"/>
					</clipPath>
					<g id="XMLID_24_" class="st18">
						<path id="XMLID_25_" class="st4" d="M13.3,32.6l19-19c1.2-1.2,3.1-1.2,4.2,0l19,19c0.6,0.6,0.8,1.3,0.9,2
							c0-0.8-0.3-1.6-0.9-2.2l-19-19c-1.2-1.2-3.1-1.2-4.2,0l-19,19c-0.6,0.6-0.9,1.4-0.9,2.2C12.5,33.8,12.7,33.1,13.3,32.6z"/>
					</g>
				</g>
				<g>
					<defs>
						<path id="SVGID_27_" d="M55.5,32.3l-19-19c-1.2-1.2-3.1-1.2-4.2,0l-19,19c-1.2,1.2-1.2,3.1,0,4.2l19,19c1.2,1.2,3.1,1.2,4.2,0
							l19-19C56.7,35.4,56.7,33.5,55.5,32.3z"/>
					</defs>
					<clipPath id="SVGID_28_">
						<use xlink:href="#SVGID_27_"  style="overflow:visible;"/>
					</clipPath>
					<g id="XMLID_22_" class="st19">
						<path id="XMLID_23_" class="st6" d="M55.5,36.3l-19,19c-1.2,1.2-3.1,1.2-4.2,0l-19-19c-0.6-0.6-0.8-1.3-0.9-2
							c0,0.8,0.3,1.6,0.9,2.2l19,19c1.2,1.2,3.1,1.2,4.2,0l19-19c0.6-0.6,0.9-1.4,0.9-2.2C56.4,35,56.1,35.7,55.5,36.3z"/>
					</g>
				</g>
				<g>
					<defs>
						<path id="SVGID_29_" d="M55.5,32.3l-19-19c-1.2-1.2-3.1-1.2-4.2,0l-19,19c-1.2,1.2-1.2,3.1,0,4.2l19,19c1.2,1.2,3.1,1.2,4.2,0
							l19-19C56.7,35.4,56.7,33.5,55.5,32.3z"/>
					</defs>
					<clipPath id="SVGID_30_">
						<use xlink:href="#SVGID_29_"  style="overflow:visible;"/>
					</clipPath>
					<polygon id="XMLID_21_" class="st20" points="34.4,24.7 44.3,34.5 44.4,34.4 34.4,24.4 24.4,34.4 24.5,34.5 					"/>
				</g>
				<g>
					<defs>
						<path id="SVGID_31_" d="M55.5,32.3l-19-19c-1.2-1.2-3.1-1.2-4.2,0l-19,19c-1.2,1.2-1.2,3.1,0,4.2l19,19c1.2,1.2,3.1,1.2,4.2,0
							l19-19C56.7,35.4,56.7,33.5,55.5,32.3z"/>
					</defs>
					<clipPath id="SVGID_32_">
						<use xlink:href="#SVGID_31_"  style="overflow:visible;"/>
					</clipPath>
					<polygon id="XMLID_20_" class="st21" points="34.4,44.4 24.4,34.4 24.3,34.5 34.4,44.7 44.5,34.5 44.4,34.4 					"/>
				</g>
			</g>
		</g>
		<rect id="XMLID_5_" x="10.4" y="10.4" class="st9" width="48" height="48"/>
	</g>
</g>
<g id="Laag_2" class="st10">
	<path class="st22" d="M54,64.1c-0.5,0-0.9-0.2-1.3-0.5c-0.7-0.7-0.7-1.9,0-2.6l6.5-6.5c0.7-0.7,1.9-0.7,2.6,0
		c0.7,0.7,0.7,1.9,0,2.6l-6.5,6.5C55,63.9,54.5,64.1,54,64.1z"/>
	<path class="st22" d="M60.5,64.1c-0.5,0-0.9-0.2-1.3-0.5L52.7,57c-0.7-0.7-0.7-1.9,0-2.6c0.7-0.7,1.9-0.7,2.6,0l6.5,6.5
		c0.7,0.7,0.7,1.9,0,2.6C61.5,63.9,61,64.1,60.5,64.1z"/>
	<path class="st23" d="M18.8,26.9c-3.5,0-6.4-2.9-6.4-6.4s2.9-6.4,6.4-6.4s6.4,2.9,6.4,6.4S22.4,26.9,18.8,26.9z M18.8,17.7
		c-1.5,0-2.8,1.2-2.8,2.8c0,1.5,1.2,2.8,2.8,2.8s2.8-1.2,2.8-2.8C21.6,18.9,20.4,17.7,18.8,17.7z"/>
	<path class="st24" d="M49.4,14.6c-0.5,0-0.9-0.2-1.3-0.5l-5.2-5.2c-0.7-0.7-0.7-1.9,0-2.6l5.2-5.2c0.7-0.7,1.9-0.7,2.6,0l5.2,5.2
		c0.3,0.3,0.5,0.8,0.5,1.3s-0.2,1-0.5,1.3l-5.2,5.2C50.3,14.4,49.9,14.6,49.4,14.6z M46.8,7.6l2.6,2.6L52,7.6L49.4,5L46.8,7.6z"/>
</g>
</svg>
