<?xml version="1.0" encoding="utf-8"?>
<!-- Generator: Adobe Illustrator 19.2.0, SVG Export Plug-In . SVG Version: 6.00 Build 0)  -->
<svg version="1.1" id="newsletter" xmlns="http://www.w3.org/2000/svg" xmlns:xlink="http://www.w3.org/1999/xlink" x="0px" y="0px"
	 viewBox="0 0 188.0013 192.0009" enable-background="new 0 0 188.0013 192.0009" xml:space="preserve">
<g>
	<path fill="#456782" d="M129.1451,44.0009L98.1219,24.6101c-1.2968-0.8124-2.9456-0.8124-4.2424,0L62.8563,44.0009H129.1451z"/>
	<path fill="#456782" d="M186.1687,80.6377l-37.2425-24c-0.2928-0.1836-0.6132-0.258-0.9255-0.3596v80.9024l33.9255-20.5976
		c1.8908-1.1444,4.3516-0.5468,5.4924,1.3436c1.1484,1.8868,0.5468,4.348-1.3436,5.4924l-51.4844,31.2576l47.324,25.8128
		c1.9416,1.0584,2.6564,3.488,1.5976,5.4256c-0.7264,1.332-2.0976,2.086-3.5155,2.086c-0.6485,0-1.3045-0.1564-1.9101-0.4884
		l-86.0392-46.9296L9.9851,187.4737c-1.922,1.0976-4.3632,0.4256-5.4572-1.4884c-1.0976-1.918-0.4296-4.3596,1.4884-5.4572
		l46.3476-26.4844L1.9263,123.4189c-1.8904-1.1444-2.492-3.6056-1.3436-5.4924c1.1408-1.8904,3.6056-2.492,5.4924-1.3436
		l33.9257,20.5976v-80.906c-0.3125,0.1052-0.6369,0.1756-0.9257,0.3632l-37.2423,24c-1.1405,0.738-1.832,2.004-1.832,3.3632v104
		c0,2.2108,1.7891,4,4,4h180c2.2107,0,4-1.7892,4-4v-104C188.0007,82.6417,187.3091,81.3757,186.1687,80.6377z"/>
	<path fill="#DBEEF7" d="M40.0008,137.1805l20.3007,12.3284l29.7148-16.9808c1.2072-0.6912,2.6836-0.6952,3.8984-0.0388
		l32.5624,17.7616l21.5237-13.0704V56.2781v-8.2772c0-2.2108-1.7893-4-4-4h-14.8557H62.8563H44.0008c-2.2109,0-4,1.7892-4,4v8.2736
		V137.1805z M112.0007,60.0009c2.2107,0,4,1.7892,4,4v24c0,2.2108-1.7893,4-4,4h-48c-2.2109,0-4-1.7892-4-4v-24
		c0-2.2108,1.7891-4,4-4H112.0007z M124.0007,124.0009h-64v-8h64V124.0009z M124.0007,108.0009h-64v-8h64V108.0009z"/>
	<path fill="#4A8F9E" d="M93.9147,132.4893c-1.2148-0.6564-2.6912-0.6524-3.8984,0.0388l-29.7148,16.9808l-20.3007-12.3284
		L6.0751,116.5829c-1.8868-1.1484-4.3516-0.5468-5.4924,1.3436c-1.1484,1.8868-0.5468,4.348,1.3436,5.4924l50.4376,30.6248
		L6.0163,180.5281c-1.918,1.0976-2.586,3.5392-1.4884,5.4572c1.094,1.914,3.5352,2.586,5.4572,1.4884l82.0624-46.8908
		l86.0392,46.9296c0.6056,0.332,1.2616,0.4884,1.9101,0.4884c1.4179,0,2.7891-0.754,3.5155-2.086
		c1.0588-1.9376,0.344-4.3672-1.5976-5.4256l-47.324-25.8128l51.4844-31.2576c1.8904-1.1444,2.492-3.6056,1.3436-5.4924
		c-1.1408-1.8904-3.6016-2.488-5.4924-1.3436l-33.9255,20.5976l-21.5237,13.0704L93.9147,132.4893z"/>
	<path fill="#FE7D71" d="M60.0008,64.0009v24c0,2.2108,1.7891,4,4,4h48c2.2107,0,4-1.7892,4-4v-24c0-2.2108-1.7893-4-4-4h-48
		C61.7899,60.0009,60.0008,61.7901,60.0008,64.0009z"/>
	<rect x="60.0008" y="100.0009" fill="#618287" width="64" height="8"/>
	<rect x="60.0008" y="116.0009" fill="#618287" width="64" height="8"/>
	<path fill="#FCC24C" d="M168.0007,48.0009c1.0235,0,2.0467-0.3908,2.828-1.172l14.1407-14.1404
		c1.5624-1.5628,1.5624-4.094,0-5.6564c-1.5624-1.5624-4.0936-1.5624-5.6564,0l-14.1403,14.1408
		c-1.5629,1.5624-1.5629,4.0936,0,5.656C165.9539,47.6101,166.9771,48.0009,168.0007,48.0009z"/>
	<path fill="#FCC24C" d="M17.1728,46.8289c0.7811,0.7812,1.8043,1.172,2.828,1.172c1.0235,0,2.0467-0.3908,2.828-1.172
		c1.5627-1.5624,1.5627-4.0936,0-5.656L8.6883,27.0321c-1.5624-1.5624-4.094-1.5624-5.6564,0c-1.5624,1.5624-1.5624,4.0936,0,5.6564
		L17.1728,46.8289z"/>
	<path fill="#FCC24C" d="M134.5163,27.7157c0.4845,0.1952,0.9885,0.2852,1.4845,0.2852c1.5859,0,3.0899-0.9492,3.7147-2.5156l8-20
		c0.8204-2.0508-0.1796-4.3788-2.2304-5.1992c-2.0312-0.8164-4.3788,0.172-5.1992,2.2304l-8,20
		C131.4655,24.5673,132.4655,26.8953,134.5163,27.7157z"/>
	<path fill="#FCC24C" d="M52.2859,25.4853c0.6248,1.5664,2.1288,2.5156,3.7149,2.5156c0.496,0,1-0.09,1.4843-0.2852
		c2.0508-0.8204,3.0508-3.1484,2.2304-5.1992l-8-20c-0.8204-2.0584-3.164-3.0468-5.1992-2.2304
		c-2.0508,0.8204-3.0508,3.1484-2.2304,5.1992L52.2859,25.4853z"/>
</g>
</svg>
