<?xml version="1.0" encoding="utf-8"?>
<!-- Generator: Adobe Illustrator 19.2.0, SVG Export Plug-In . SVG Version: 6.00 Build 0)  -->
<svg version="1.1" id="onepagelayout" xmlns="http://www.w3.org/2000/svg" xmlns:xlink="http://www.w3.org/1999/xlink" x="0px"
	 y="0px" viewBox="0 0 224 168" enable-background="new 0 0 224 168" xml:space="preserve">
<g>
	<path fill="#A9C7D8" d="M156,164V36h-20v128c0,2.2108-1.7893,4-4,4h28C157.7891,168,156,166.2108,156,164z"/>
	<path fill="#A9C7D8" d="M28,164V36H4c-2.2109,0-4-1.7892-4-4v132c0,2.2108,1.7891,4,4,4h28C29.7891,168,28,166.2108,28,164z"/>
	<path fill="#50CCD3" d="M136,164V36H28v128c0,2.2108,1.7891,4,4,4h100C134.2107,168,136,166.2108,136,164z M116,152H48v-40h68V152z
		 M116,104H48v-8h68V104z M116,88H48V48h68V88z"/>
	<path fill="#FE7D71" d="M220,36h-64v128c0,2.2108,1.7891,4,4,4h60c2.2107,0,4-1.7892,4-4V32C224,34.2108,222.2107,36,220,36z"/>
	<path fill="#618287" d="M220,0H4C1.7891,0,0,1.7892,0,4v28c0,2.2108,1.7891,4,4,4h24h108h20h64c2.2107,0,4-1.7892,4-4V4
		C224,1.7892,222.2107,0,220,0z"/>
	<rect x="56" y="56" fill="#7BE5E4" width="52" height="24"/>
	<path fill="#618287" d="M48,88h68V48H48V88z M56,56h52v24H56V56z"/>
	<rect x="56" y="120" fill="#7BE5E4" width="52" height="24"/>
	<path fill="#618287" d="M48,152h68v-40H48V152z M56,120h52v24H56V120z"/>
	<rect x="48" y="96" fill="#618287" width="68" height="8"/>
</g>
</svg>
