<?xml version="1.0" encoding="utf-8"?>
<svg version="1.1" id="pictureprofile" xmlns="http://www.w3.org/2000/svg" xmlns:xlink="http://www.w3.org/1999/xlink" x="0px"
	 y="0px" viewBox="0 0 207.6359 208" width="100px" height="100px" enable-background="new 0 0 207.6359 208" xml:space="preserve">
<g>
	<path fill="#63B473" d="M80.2842,197.1408c-8.6912-2.172-17.0352-5.5628-24.8083-10.0744
		c-1.8985-1.1092-4.3557-0.4688-5.4649,1.4492c-1.1136,1.91-0.4612,4.3556,1.4492,5.4648
		c8.4176,4.8944,17.4648,8.5664,26.8864,10.922c0.3244,0.078,0.6524,0.1172,0.9728,0.1172c1.7928,0,3.422-1.2148,3.8788-3.0312
		C83.7294,199.8436,82.4286,197.6756,80.2842,197.1408z"/>
	<path fill="#63B473" d="M169.745,173.6056c-1.8044,1.7148-3.6836,3.3396-5.6091,4.906c-1.8557-0.836-4.1017-1.992-6.6093-3.2888
		c-6.0196-3.1136-13.3947-6.93-21.1368-9.258l-4.8124-11.5076c-0.1564-0.3712-0.3636-0.7072-0.6095-1.004v-14.3556
		c3.3475-4.1212,6.2107-9.0664,8.3943-14.504c4.2308-0.328,7.8244-3.5468,8.4377-7.902l1.8203-12.9456
		c0.574-4.1016-1.672-7.9648-5.2616-9.6368c-0.1992-4.8124-0.84-9.5348-1.9064-14.0936c0.1524-1.3084,0.2264-2.6288,0.2264-3.9412
		c0-11.7932-5.9336-22.5784-16.0036-29.3284c0.1756-3.6404-0.5431-6.3516-2.18-8.2344C123.503,37.3672,121.7022,36,118.749,36
		c-6.1171,0-15.1716,2.8084-20.2616,4.5744c-18.2032,2.8044-31.8788,18-31.8788,35.5c0,1.332,0.074,2.656,0.2264,3.9452
		c-1.074,4.586-1.7148,9.3436-1.91,14.1912c-1.344,0.6252-2.5236,1.5744-3.4416,2.7852c-1.4804,1.9572-2.1092,4.3712-1.7656,6.8048
		l1.8048,12.828c0.3396,2.426,1.6093,4.5784,3.582,6.0508c1.41,1.0588,3.0584,1.676,4.7772,1.8124
		c2.1916,5.4844,5.0664,10.4652,8.4336,14.6056v13.2696c-0.9844,0.4256-1.7968,1.2032-2.1835,2.254L71.9482,166
		c-7.7032,2.328-15.0352,6.1212-21.0232,9.2188c-3.504,1.8124-6.5276,3.3788-8.6291,4.1248
		c-0.4609,0.1644-0.8553,0.43-1.2109,0.7268c0.4844-1.4688,0.0936-3.1484-1.1408-4.2384
		c-6.7184-5.9608-12.5664-12.8204-17.3788-20.3904c-1.1836-1.8636-3.66-2.4144-5.5196-1.2308
		c-1.8672,1.1836-2.4179,3.6564-1.2304,5.5196c5.2112,8.2032,11.5468,15.6328,18.8245,22.086
		c0.7615,0.6756,1.7067,1.008,2.6523,1.008c0.9608,0,1.8904-0.4104,2.6444-1.094c-0.3164,0.8516-0.3984,1.8008-0.0704,2.7228
		c0.7384,2.078,3.0352,3.156,5.1097,2.4296c2.6131-0.9296,5.8631-2.6092,9.6247-4.5584c6.164-3.1876,13.832-7.1564,21.422-9.168
		c1.2616-0.336,2.2813-1.262,2.7304-2.4884L82.675,160h42.5468l4.5312,10.832c0.4804,1.1484,1.4648,2.004,2.668,2.3244
		c7.59,2.0116,15.2616,5.9804,21.4296,9.1716c1.0352,0.5352,2.0236,1.0432,2.9804,1.5312
		c-2.8671,1.9144-5.8084,3.7228-8.8748,5.3204c-1.9612,1.0196-2.7188,3.4376-1.6992,5.3948c0.7149,1.3708,2.1052,2.152,3.5509,2.152
		c0.6207,0,1.2535-0.1444,1.8435-0.4528c5.332-2.7816,10.3712-6.0664,15.1408-9.7188c0.2968-0.168,0.5584-0.3792,0.8044-0.6172
		c2.6408-2.0664,5.2228-4.2148,7.6644-6.5352c1.5976-1.5236,1.664-4.0548,0.1404-5.6564
		C173.8778,172.1484,171.3546,172.086,169.745,173.6056z M86.3154,152v-14.3592c0-0.9652-0.3475-1.8988-0.9804-2.6252
		c-3.75-4.3084-6.8671-9.8944-9.0116-16.1524c-0.3555-1.0312-1.258-1.836-2.246-2.2928c-0.9884-0.4612-2.266-0.4612-3.2775-0.0624
		c-0.4257,0.0504-0.7541-0.1172-0.9025-0.2308c-0.1756-0.1328-0.3984-0.3708-0.4532-0.7616l-1.8043-12.832
		c-0.0549-0.3944,0.0895-0.6836,0.2223-0.8592c0.1368-0.18,0.3868-0.4064,1-0.4768c2.2072,0,4-1.7892,4-3.996
		c0.004-5.5548,0.6488-10.9924,1.918-16.16c0.1212-0.4924,0.1448-1.008,0.0744-1.508c-0.164-1.164-0.246-2.3788-0.246-3.6092
		c0-13.676,10.9216-25.5548,25.41-27.6368c0.254-0.0392,0.508-0.1016,0.754-0.1876c7.496-2.6252,13.8944-4.16,17.7576-4.242
		c0.1408,0.5116,0.3244,1.742-0.0388,4.246c-0.2304,1.6172,0.5428,3.2148,1.9568,4.0312
		c8.9104,5.1524,14.2304,14.0468,14.2304,23.7892c0,1.2068-0.082,2.4216-0.246,3.6172c-0.0704,0.5-0.0428,1.0076,0.0744,1.5
		c1.2616,5.1444,1.906,10.5468,1.918,16.0624c0.0036,2.2068,2,4.004,4.2029,4.004c0.6955,0.0976,1.1643,0.7028,1.0703,1.3748
		l-1.8204,12.9416c-0.0936,0.664-0.7108,1.1248-1.7028,0.9568c-1.0196-0.4024-2.1484-0.3592-3.1368,0.09
		c-0.9924,0.4568-1.75,1.3008-2.1056,2.328c-2.1404,6.2108-5.246,11.7696-8.9844,16.0664c-0.6328,0.7304-0.9803,1.66-0.9803,2.6252
		V152H86.3154z"/>
	<path fill="#63B473" d="M197.6554,73.8556c0.4532,0,0.914-0.0784,1.3672-0.2384c2.074-0.758,3.1484-3.0508,2.3904-5.1288
		c-3.3124-9.1212-7.8984-17.7424-13.6328-25.6172c-1.3083-1.7852-3.8043-2.176-5.5896-0.8792
		c-1.7852,1.3008-2.1796,3.8048-0.8792,5.59c5.2932,7.2656,9.5276,15.2188,12.586,23.6408
		C194.4874,72.8476,196.0226,73.8556,197.6554,73.8556z"/>
	<path fill="#63B473" d="M206.507,88.6212c-0.3204-2.1876-2.3556-3.668-4.5431-3.3712c-2.1873,0.3244-3.6953,2.3592-3.3709,4.5428
		c0.6912,4.668,1.0429,9.4492,1.0429,14.2072c0,4.2148-0.2737,8.4492-0.8165,12.586c-0.2892,2.1912,1.254,4.1992,3.4452,4.4844
		c0.176,0.0232,0.3516,0.0352,0.5236,0.0352c1.9804,0,3.6992-1.4648,3.9608-3.4808c0.59-4.4804,0.8869-9.0624,0.8869-13.6248
		C207.6359,98.8516,207.257,93.6756,206.507,88.6212z"/>
	<path fill="#63B473" d="M12.8079,61.9064c-2.0157-0.8516-4.3793,0.1132-5.2269,2.156c-3.7304,8.9612-6.1796,18.4104-7.2811,28.09
		c-0.2501,2.1952,1.3243,4.1756,3.5195,4.4256c0.1525,0.0196,0.3085,0.0276,0.4572,0.0276c2.0076,0,3.738-1.508,3.9684-3.5472
		c1.0196-8.9336,3.2816-17.656,6.7189-25.9256C15.8154,65.0936,14.8506,62.754,12.8079,61.9064z"/>
	<path fill="#63B473" d="M199.5226,132.758c-2.094-0.7268-4.3632,0.3944-5.082,2.4804c-2.914,8.4724-7.008,16.496-12.172,23.8516
		c-1.2696,1.8044-0.832,4.3008,0.9764,5.57c0.6992,0.4924,1.5,0.7268,2.2932,0.7268c1.2577,0,2.5-0.594,3.2772-1.7032
		c5.594-7.9688,10.0312-16.664,13.1876-25.8436C202.7218,135.75,201.6122,133.4764,199.5226,132.758z"/>
	<path fill="#63B473" d="M130.1594,196.2892c-9.9728,2.8592-20.504,4.0544-30.9144,3.6132
		c-2.1756-0.1876-4.074,1.6172-4.1716,3.8204c-0.0975,2.2068,1.6132,4.074,3.8204,4.1716c1.5741,0.0704,3.156,0.1056,4.7421,0.1056
		c9.7695,0,19.4375-1.3516,28.7343-4.0236c2.1212-0.6092,3.3476-2.824,2.7384-4.9492
		C134.499,196.9064,132.3154,195.6836,130.1594,196.2892z"/>
	<path fill="#63B473" d="M55.9562,20.078c0.6444,0,1.3008-0.156,1.906-0.4844c7.8868-4.2928,16.3284-7.4412,25.09-9.3632
		c2.16-0.4724,3.5237-2.6056,3.0508-4.7616c-0.4728-2.1604-2.6092-3.5236-4.7616-3.0508c-9.5,2.082-18.6484,5.496-27.1992,10.1444
		c-1.9416,1.0588-2.6604,3.4844-1.6056,5.426C53.163,19.3244,54.5382,20.078,55.9562,20.078z"/>
	<path fill="#63B473" d="M7.9834,112.2228c-0.1835-2.2032-2.1368-3.8948-4.3204-3.6484c-2.2028,0.1836-3.8356,2.1208-3.6484,4.32
		c0.8204,9.7072,2.9964,19.2268,6.4688,28.2892c0.6096,1.5936,2.1252,2.5704,3.7344,2.5704c0.4764,0,0.9608-0.086,1.4296-0.2656
		c2.0628-0.7892,3.0976-3.1016,2.3048-5.164C10.753,129.9608,8.7414,121.1796,7.9834,112.2228z"/>
	<path fill="#63B473" d="M146.495,18.0744c8.004,3.996,15.422,9.1092,22.0508,15.1952c0.7696,0.7068,1.7384,1.0548,2.7072,1.0548
		c1.078,0,2.1564-0.4336,2.9452-1.2932c1.496-1.6288,1.3868-4.16-0.238-5.6524c-7.18-6.5936-15.2188-12.1328-23.8948-16.4608
		c-1.9804-0.9924-4.3788-0.176-5.3632,1.7928C143.7138,14.6876,144.5186,17.09,146.495,18.0744z"/>
	<path fill="#63B473" d="M102.003,8.0156L103.6359,8c8.4607,0,16.8515,1.1016,24.9415,3.2696
		c0.3476,0.0936,0.6952,0.1368,1.0388,0.1368c1.7656,0,3.3788-1.176,3.8597-2.9648c0.5739-2.1332-0.6917-4.3244-2.8285-4.8988
		C121.8858,1.1916,112.7959,0,103.6359,0l-1.7969,0.0156c-2.2071,0.0468-3.9612,1.8752-3.918,4.082
		C97.9679,6.3048,99.917,8.1172,102.003,8.0156z"/>
	<path fill="#63B473" d="M20.749,52.0272c1.2812,0,2.5432-0.6172,3.3164-1.7576c5.0312-7.4296,11.0705-14.1252,17.9572-19.8908
		c1.6912-1.418,1.914-3.9412,0.496-5.6368c-1.418-1.6872-3.9376-1.9176-5.6368-0.496c-7.4532,6.246-13.996,13.4924-19.4412,21.5392
		c-1.2384,1.828-0.758,4.3164,1.0704,5.5548C19.1982,51.8048,19.9794,52.0272,20.749,52.0272z"/>
	<path fill="#99D59D" d="M123.9482,135.0156c3.7384-4.2968,6.844-9.8556,8.9844-16.0664c0.3556-1.0272,1.1132-1.8712,2.1056-2.328
		c0.9884-0.4492,2.1172-0.4924,3.1368-0.09c0.992,0.168,1.6092-0.2928,1.7028-0.9568l1.8204-12.9416
		c0.094-0.672-0.3748-1.2772-1.0703-1.3748c-2.2029,0-4.1993-1.7972-4.2029-4.004c-0.012-5.5156-0.6564-10.918-1.918-16.0624
		c-0.1172-0.4924-0.1448-1-0.0744-1.5c0.164-1.1956,0.246-2.4104,0.246-3.6172c0-9.7424-5.32-18.6368-14.2304-23.7892
		c-1.414-0.8164-2.1872-2.414-1.9568-4.0312c0.3632-2.504,0.1796-3.7344,0.0388-4.246c-3.8632,0.082-10.2616,1.6168-17.7576,4.242
		c-0.246,0.086-0.5,0.1484-0.754,0.1876c-14.4884,2.082-25.41,13.9608-25.41,27.6368c0,1.2304,0.082,2.4452,0.246,3.6092
		c0.0704,0.5,0.0468,1.0156-0.0744,1.508c-1.2692,5.1676-1.914,10.6052-1.918,16.16c0,2.2068-1.7928,3.996-4,3.996
		c-0.6132,0.0704-0.8632,0.2968-1,0.4768c-0.1328,0.1756-0.2772,0.4648-0.2223,0.8592l1.8043,12.832
		c0.0548,0.3908,0.2776,0.6288,0.4532,0.7616c0.1484,0.1136,0.4768,0.2812,0.9025,0.2308c1.0115-0.3988,2.2891-0.3988,3.2775,0.0624
		c0.988,0.4568,1.8905,1.2616,2.246,2.2928c2.1445,6.258,5.2616,11.844,9.0116,16.1524c0.6329,0.7264,0.9804,1.66,0.9804,2.6252V152
		h36.6525v-14.3592C122.9679,136.6756,123.3154,135.746,123.9482,135.0156z"/>
</g>
</svg>
