<?xml version="1.0" encoding="utf-8"?>
<svg version="1.1" id="pinpointlocation" xmlns="http://www.w3.org/2000/svg" xmlns:xlink="http://www.w3.org/1999/xlink" x="0px"
	 y="0px" viewBox="0 0 190.8592 216" width="100px" height="100px" enable-background="new 0 0 190.8592 216" xml:space="preserve">
<g>
	<path fill="none" d="M163.4297,172c0,15.756-34.2073,24-68,24c-33.7929,0-68-8.244-68-24c0-12.5704,21.4415-19.6876,43.4607-22.492
		c-0.2927-0.3636-0.5896-0.7404-0.8828-1.1096C34.0664,152.3888,8,164.6192,8,177.5096C8,191.9316,43.906,208,95.4297,208
		c51.5235,0,87.4295-16.0684,87.4295-30.4904c0-12.6716-25.5664-24.8572-60.7888-28.9764
		c-0.3828-0.0448-0.7152-0.2012-1.0508-0.3436c-0.348,0.4372-0.7032,0.8848-1.0472,1.3124
		C141.8516,152.2968,163.4297,159.4452,163.4297,172z"/>
	<path fill="none" d="M95.4297,72c8.8243,0,16-7.1776,16-16s-7.1757-16-16-16c-8.8245,0-16,7.1776-16,16S86.6052,72,95.4297,72z"/>
	<path fill="none" d="M35.4297,172c0,6.5236,23.3751,16,60,16c36.6251,0,60-9.4764,60-16c0-4.4824-13.16-12.3888-41.4141-15.1268
		c-0.0196-0.002-0.0352-0.014-0.0548-0.0156c-8.4376,10.1344-14.7968,17.0016-15.6056,17.8708
		C97.5977,175.5392,96.5388,176,95.4297,176c-1.1093,0-2.168-0.4608-2.9257-1.2716c-0.8088-0.8672-7.1604-7.7244-15.59-17.8496
		C48.6404,159.6016,35.4297,167.4728,35.4297,172z"/>
	<path fill="#49A25A" d="M27.4297,172c0,15.756,34.2071,24,68,24c33.7927,0,68-8.244,68-24
		c0-12.5548-21.5781-19.7032-43.4573-22.498c-2.0856,2.6056-4.0976,5.0564-6.0116,7.3556c0.0196,0.0016,0.0352,0.0136,0.0548,0.0156
		c28.2541,2.738,41.4141,10.6444,41.4141,15.1268c0,6.5236-23.3749,16-60,16c-36.6249,0-60-9.4764-60-16
		c0-4.5272,13.2107-12.3984,41.4843-15.1212c-1.914-2.3028-3.9296-4.7596-6.0236-7.3708
		C48.8712,152.3124,27.4297,159.4296,27.4297,172z"/>
	<path fill="#49A25A" d="M126.578,141.0684c-1.8828,2.4608-3.742,4.838-5.5584,7.1212c0.3356,0.1424,0.668,0.2988,1.0508,0.3436
		c35.2224,4.1192,60.7888,16.3048,60.7888,28.9764c0,14.422-35.906,30.4904-87.4295,30.4904C43.906,208,8,191.9316,8,177.5096
		c0-12.8904,26.0664-25.1208,62.0076-29.1112c-1.8708-2.3476-3.7888-4.7968-5.7304-7.334C25.074,146.2812,0,160.3496,0,177.5096
		C0,199.0936,41.918,216,95.4297,216c53.5115,0,95.4295-16.9064,95.4295-38.4904
		C190.8592,160.422,165.7304,146.2968,126.578,141.0684z"/>
	<path fill="#99D59D" d="M70.8904,149.508c2.094,2.6112,4.1096,5.068,6.0236,7.3708c8.4296,10.1252,14.7812,16.9824,15.59,17.8496
		C93.2617,175.5392,94.3204,176,95.4297,176c1.1091,0,2.168-0.4608,2.9255-1.2716c0.8088-0.8692,7.168-7.7364,15.6056-17.8708
		c1.914-2.2992,3.926-4.75,6.0116-7.3556c0.344-0.4276,0.6992-0.8752,1.0472-1.3124c1.8164-2.2832,3.6756-4.6604,5.5584-7.1212
		C144.16,118.088,163.4297,88.2832,163.4297,68c0-37.496-30.504-68-68-68s-68,30.504-68,68
		c0,20.2832,19.2655,50.086,36.8475,73.0644c1.9416,2.5372,3.8596,4.9864,5.7304,7.334
		C70.3008,148.7676,70.5977,149.1444,70.8904,149.508z M95.4297,40c8.8243,0,16,7.1776,16,16s-7.1757,16-16,16
		c-8.8245,0-16-7.1776-16-16S86.6052,40,95.4297,40z"/>
</g>
</svg>
