<?xml version="1.0" encoding="utf-8"?>
<!-- Generator: Adobe Illustrator 19.2.0, SVG Export Plug-In . SVG Version: 6.00 Build 0)  -->
<svg version="1.1" id="plan" xmlns="http://www.w3.org/2000/svg" xmlns:xlink="http://www.w3.org/1999/xlink" x="0px" y="0px"
	 viewBox="0 0 208 188" enable-background="new 0 0 208 188" xml:space="preserve">
<g>
	<path fill="#EAEAEA" d="M14,156h6h4h160h8.0155c4.4024,0,7.9845-3.5916,7.9845-8.008v-1.9528c0-3.3304-2.6917-6.0392-6-6.0392h-10
		c-2.2089,0-4-1.7912-4-4V20H4c-2.2089,0-4,1.7912-4,4v146.0392C0,162.2988,6.2811,156,14,156z M148.08,140H148h-8H48h-8v-8V56v-8h8
		h36h8h56v8H92v24h-8V56H48v76h36V92h8v40h48v-16v-16h-36v-8h36V68h8v24v8v16v16h0.08V140z"/>
	<path fill="#D8D8D8" d="M194,0h-10c-2.2089,0-4,1.7912-4,4v16v116c0,2.2088,1.7911,4,4,4h10c3.3083,0,6,2.7088,6,6.0392v1.9528
		c0,4.4164-3.5821,8.008-7.9845,8.008H184H24h-4h-6c-7.7189,0-14,6.2988-14,14.0392V172v1.9608C0,181.7012,6.2811,188,14,188h10
		c2.2087,0,4-1.7912,4-4v-20h156h8.0155H194c6.2607,0,11.5127-4.172,13.2971-9.8672C207.704,153.5068,208,152.8028,208,152v-2.0392
		v-3.9216V14.0116C208,6.2852,201.7187,0,194,0z"/>
	<polygon fill="#63B473" points="148,116 148,100 148,92 148,68 140,68 140,92 104,92 104,100 140,100 140,116 140,132 92,132 
		92,92 84,92 84,132 48,132 48,56 84,56 84,80 92,80 92,56 148,56 148,48 92,48 84,48 48,48 40,48 40,56 40,132 40,140 48,140 
		140,140 148,140 148.08,140 148.08,132 148,132 	"/>
</g>
</svg>
