<?xml version="1.0" encoding="utf-8"?>
<svg version="1.1" id="presentation" xmlns="http://www.w3.org/2000/svg" xmlns:xlink="http://www.w3.org/1999/xlink" x="0px"
	 y="0px" viewBox="0 0 212 204" width="100px" height="100px" enable-background="new 0 0 212 204" xml:space="preserve">
<g>
	<path fill="#E4AD40" d="M36.1797,196h143.6406l-7.25-164H43.4297L36.1797,196z M132,68h32v8h-32V68z M132,92h32v8h-32V92z M132,176
		h32v8h-32V176z M48,48c0-2.209,1.7891-4,4-4h68c2.2109,0,4,1.791,4,4v52c0,2.209-1.7891,4-4,4H52c-2.2109,0-4-1.791-4-4V48z
		 M48,176h68v8H48V176z"/>
	<rect x="56" y="52" fill="#73C9C9" width="60" height="44"/>
	<rect x="84" y="124" fill="#314E55" width="8" height="8"/>
	<rect x="84" y="152" fill="#314E55" width="8" height="8"/>
	<rect x="56" y="124" fill="#314E55" width="8" height="8"/>
	<rect x="112" y="124" fill="#314E55" width="8" height="8"/>
	<rect x="112" y="152" fill="#314E55" width="8" height="8"/>
	<path fill="#E4AD40" d="M196,8H16c-4.4102,0-8,3.5879-8,8s3.5898,8,8,8h23.6016h136.7969H196c4.4102,0,8-3.5879,8-8
		S200.4102,8,196,8z"/>
	<rect x="56" y="152" fill="#314E55" width="8" height="8"/>
	<path fill="#314E55" d="M196,0H16C7.1758,0,0,7.1777,0,16s7.1758,16,16,16h19.4209l-7.417,167.8242
		c-0.0469,1.0898,0.3516,2.1523,1.1055,2.9414S30.9102,204,32,204h152c1.0898,0,2.1367-0.4453,2.8906-1.2344
		s1.1523-1.8516,1.1055-2.9414L180.5791,32H196c8.8242,0,16-7.1777,16-16S204.8242,0,196,0z M179.8203,196H36.1797l7.25-164
		h129.1406L179.8203,196z M196,24h-19.6016H39.6016H16c-4.4102,0-8-3.5879-8-8s3.5898-8,8-8h180c4.4102,0,8,3.5879,8,8
		S200.4102,24,196,24z"/>
	<path fill="#314E55" d="M52,104h68c2.2109,0,4-1.791,4-4V48c0-2.209-1.7891-4-4-4H52c-2.2109,0-4,1.791-4,4v52
		C48,102.209,49.7891,104,52,104z M56,52h60v44H56V52z"/>
	<rect x="132" y="92" fill="#314E55" width="32" height="8"/>
	<rect x="132" y="68" fill="#314E55" width="32" height="8"/>
	<rect x="132" y="176" fill="#314E55" width="32" height="8"/>
	<rect x="48" y="176" fill="#314E55" width="68" height="8"/>
</g>
</svg>
