<?xml version="1.0" encoding="utf-8"?>
<svg version="1.1" id="refresh1" xmlns="http://www.w3.org/2000/svg" xmlns:xlink="http://www.w3.org/1999/xlink" x="0px" y="0px"
	 viewBox="0 0 211.2324 196" width="100px" height="100px" enable-background="new 0 0 211.2324 196" xml:space="preserve">
<g>
	<path fill="#90A9AE" d="M197.5245,92c-3.3125,0-6,2.6872-6,6c0,47.4216-38.5781,86-86,86c-31.7773,0-60.3437-17.2304-75.34-44.59
		l15.6251,6.9572c3.0232,1.3552,6.578-0.012,7.922-3.0392c1.3476-3.0272-0.012-6.5745-3.0391-7.922L21.458,122.3904
		c-3.0196-1.3552-6.578,0.012-7.922,3.0391L0.5205,154.664c-1.3477,3.0272,0.012,6.574,3.0391,7.922
		c0.7929,0.3552,1.6212,0.5192,2.4376,0.5192c2.2968,0,4.492-1.324,5.4844-3.5584l7.2029-16.1796
		C35.4816,175.6015,68.6104,196,105.5245,196c54.0391,0,98-43.9612,98-98C203.5245,94.6872,200.8368,92,197.5245,92z"/>
	<path fill="#90A9AE" d="M207.6728,33.246c-3.0196-1.3556-6.578,0.0116-7.922,3.0392l-7.332,16.4683
		C175.6572,20.4335,142.5556,0,105.5245,0c-54.0393,0-98,43.9608-98,98c0,3.3124,2.6875,6,6,6c3.3123,0,6-2.6876,6-6
		c0-47.422,38.5779-86,86-86c31.7147,0,60.1443,17.078,75.172,44.2616l-15.2697-6.7968c-3.0272-1.3516-6.578,0.0116-7.922,3.0388
		c-1.3476,3.0276,0.0117,6.5744,3.0392,7.9219l29.2304,13.0157c0.7772,0.3476,1.6092,0.5196,2.4416,0.5196
		c0.7264,0,1.4568-0.1328,2.1485-0.3984c1.488-0.5704,2.6871-1.7072,3.332-3.16L210.712,41.168
		C212.0596,38.1404,210.7,34.5936,207.6728,33.246z"/>
	<path fill="#90A9AE" d="M145.5245,98c0-22.0548-17.9453-40-40-40c-22.0549,0-40,17.9452-40,40c0,22.0544,17.9451,40,40,40
		C127.5792,138,145.5245,120.0544,145.5245,98z M95.8096,87.746c-0.8204-2.0508,0.1796-4.3788,2.2304-5.1992l10-4
		c1.2188-0.496,2.6212-0.3436,3.7264,0.4024c1.0981,0.746,1.7581,1.9843,1.7581,3.3124v32c0,2.2108-1.7893,4-4,4
		c-2.2109,0-4-1.7892-4-4V88.168l-4.5157,1.8084C98.9736,90.7928,96.63,89.8044,95.8096,87.746z"/>
	<path fill="#FEE8E0" d="M105.5245,114.2616c0,2.2108,1.7891,4,4,4c2.2107,0,4-1.7892,4-4v-32c0-1.3281-0.66-2.5664-1.7581-3.3124
		c-1.1052-0.746-2.5076-0.8984-3.7264-0.4024l-10,4c-2.0508,0.8204-3.0508,3.1484-2.2304,5.1992
		c0.8204,2.0584,3.164,3.0468,5.1992,2.2304l4.5157-1.8084V114.2616z"/>
</g>
</svg>
