<?xml version="1.0" encoding="utf-8"?>
<svg version="1.1" id="skewdriverandkey" xmlns="http://www.w3.org/2000/svg" xmlns:xlink="http://www.w3.org/1999/xlink" x="0px"
	 y="0px" viewBox="0 0 176 216" width="100px" height="100px" enable-background="new 0 0 176 216" xml:space="preserve">
<g>
	<path fill="#F8A131" d="M44,92c-7.1429,0-13.872-1.748-19.8425-4.7812C24.104,87.48,24,87.7228,24,88v107.9804
		C24,207.0196,32.9727,216,44,216c11.0271,0,20-8.9804,20-20.0196V88c0-0.2772-0.104-0.52-0.1577-0.7812
		C57.872,90.252,51.1423,92,44,92z M41.16,193.16c1.4807-1.4804,4.1991-1.4804,5.68,0c0.7183,0.76,1.16,1.76,1.16,2.84
		c0,1.0392-0.4417,2.08-1.16,2.84C46.0779,199.5584,45.0391,200,44,200c-1.0393,0-2.0821-0.4416-2.84-1.16
		C40.4375,198.08,40,197.0392,40,196C40,194.92,40.4375,193.92,41.16,193.16z"/>
	<path fill="#90A9AE" d="M61.6015,7.662c-1.2344-0.5352-2.668-0.4216-3.7932,0.3184C56.6795,8.7208,56,9.9784,56,11.328V44H32
		V11.328c0-1.3496-0.6797-2.6072-1.8085-3.3476c-1.1332-0.7364-2.5548-0.8516-3.7932-0.3184C10.3631,14.668,0,30.502,0,48
		c0,17.1192,9.8487,31.9488,24.1575,39.2188C30.128,90.252,36.8571,92,44,92c7.1423,0,13.872-1.748,19.8423-4.7812
		C78.1511,79.9488,88,65.1192,88,48C88,30.502,77.6367,14.668,61.6015,7.662z"/>
	<path fill="#90A9AE" d="M44,200c1.0391,0,2.0779-0.4416,2.84-1.16c0.7183-0.76,1.16-1.8008,1.16-2.84c0-1.08-0.4417-2.08-1.16-2.84
		c-1.4809-1.4804-4.1993-1.4804-5.68,0C40.4375,193.92,40,194.92,40,196c0,1.0392,0.4375,2.08,1.16,2.84
		C41.9179,199.5584,42.9607,200,44,200z"/>
	<path fill="#638287" d="M156,29.6556l6.828-6.8276C163.5779,22.078,164,21.0604,164,20V4c0-2.2088-1.7893-4-4-4h-16
		c-2.2109,0-4,1.7912-4,4v16c0,1.0604,0.4219,2.078,1.172,2.828L148,29.6556V100h8V29.6556z M148,8h8v10.3436l-4,4l-4-4V8z"/>
	<path fill="#F8A131" d="M172,100h-16h-8h-16c-2.2109,0-4,1.7912-4,4v12c0,2.2088,1.7891,4,4,4h4.5263l-3.8543,5.7812
		C132.2343,126.4376,132,127.2108,132,128v68.004c0,11.0252,8.9727,19.996,20,19.996c11.0271,0,20-8.9708,20-19.996V128
		c0-0.7892-0.2345-1.5624-0.672-2.2188L167.4735,120H172c2.2107,0,4-1.7912,4-4v-12C176,101.7912,174.2107,100,172,100z"/>
	<polygon fill="#90A9AE" points="156,18.3436 156,8 148,8 148,18.3436 152,22.3436 	"/>
</g>
</svg>
