<?xml version="1.0" encoding="utf-8"?>
<svg version="1.1" id="stopwatch" xmlns="http://www.w3.org/2000/svg" xmlns:xlink="http://www.w3.org/1999/xlink" x="0px" y="0px"
	 viewBox="0 0 192 208" width="100px" height="100px" enable-background="new 0 0 192 208" xml:space="preserve">
<g>
	<path fill="#FFDC82" d="M113.0859,17.5548l-0.7344,3.3124C111.9451,22.6992,110.3203,24,108.4451,24H83.5547
		c-1.8752,0-3.5-1.3008-3.9064-3.1328l-0.7344-3.3124C34.1055,25.6408,0,64.8984,0,112c0,52.9336,43.0663,96,96,96
		c52.9335,0,96-43.0664,96-96C192,64.8984,157.8943,25.6408,113.0859,17.5548z M100,40v60.7384c4.6443,1.656,8,6.0544,8,11.2616
		c0,3.1056-1.2189,5.914-3.16,8.0468l24.7067,37.0624l-6.656,4.4376l-25.1488-37.7224C97.168,123.91,96.5975,124,96,124
		c-6.6173,0-12-5.3828-12-12c0-5.2072,3.3555-9.6056,8-11.2616V40H100z"/>
	<path fill="#FE8657" d="M83.5547,24h24.8904c1.8752,0,3.5-1.3008,3.9064-3.1328l0.7344-3.3124l2.8204-12.6876
		c0.2617-1.1836-0.0276-2.422-0.7852-3.3712C114.3591,0.5508,113.2147,0,112,0H80c-1.2149,0-2.3593,0.5508-3.1213,1.496
		c-0.7576,0.9492-1.0467,2.1876-0.7852,3.3712l2.8204,12.6876l0.7344,3.3124C80.0547,22.6992,81.6795,24,83.5547,24z"/>
	<path fill="#FE8657" d="M92,100.7384c-4.6445,1.656-8,6.0544-8,11.2616c0,6.6172,5.3827,12,12,12
		c0.5975,0,1.168-0.09,1.7419-0.1756l25.1488,37.7224l6.656-4.4376L104.84,120.0468c1.9411-2.1328,3.16-4.9412,3.16-8.0468
		c0-5.2072-3.3557-9.6056-8-11.2616V40h-8V100.7384z"/>
</g>
</svg>
