<?xml version="1.0" encoding="utf-8"?>
<!-- Generator: Adobe Illustrator 19.2.0, SVG Export Plug-In . SVG Version: 6.00 Build 0)  -->
<svg version="1.1" id="ticket" xmlns="http://www.w3.org/2000/svg" xmlns:xlink="http://www.w3.org/1999/xlink" x="0px" y="0px"
	 viewBox="0 0 220 192.7147" enable-background="new 0 0 220 192.7147" xml:space="preserve">
<g>
	<path fill="#C1DB66" d="M73.336,0L57.9063,15.4296L46.5935,4.1132L9.5663,41.1404l11.3124,11.3164L5.4531,67.8827l28.832,28.832
		h135.7656L73.336,0z M39.3943,96.168l-5.656-5.6564l16.9688-16.9689l5.656,5.6565L39.3943,96.168z M62.0195,73.5392l-5.6564-5.6565
		L73.336,50.914l5.656,5.6564L62.0195,73.5392z M78.992,45.254l16.9687-16.9688l5.6564,5.656L84.6483,50.91L78.992,45.254z"/>
	<path fill="#50CCD3" d="M204,118.5312V96.7147h-33.9493H34.2851H16v21.8165H0v52.3672h16v21.8163h188v-21.8163h16v-52.3672H204z
		 M60,188.7147h-8v-24h8V188.7147z M60,156.7147h-8v-24h8V156.7147z M52,124.7147v-24h8v24H52z M152,116.7147v8H84v-8H152z
		 M108,156.7147H84v-8h24V156.7147z M140,156.7147h-24v-8h24V156.7147z M172,140.7147H84v-8h88V140.7147z"/>
	<rect x="52" y="164.7147" fill="#FFFFFF" width="8" height="24"/>
	<rect x="52" y="132.7147" fill="#FFFFFF" width="8" height="24"/>
	<rect x="52" y="100.7147" fill="#FFFFFF" width="8" height="24"/>
	<rect x="84" y="116.7147" fill="#D8F768" width="68" height="8"/>
	<rect x="84" y="132.7147" fill="#D8F768" width="88" height="8"/>
	<rect x="84" y="148.7147" fill="#D8F768" width="24" height="8"/>
	<rect x="116" y="148.7147" fill="#D8F768" width="24" height="8"/>
	
		<rect x="33.0519" y="80.8558" transform="matrix(0.7071 -0.7071 0.7071 0.7071 -46.8058 56.706)" fill="#FFFFFF" width="23.9975" height="7.9991"/>
	
		<rect x="78.3058" y="35.5981" transform="matrix(0.7071 -0.7071 0.7071 0.7071 -1.55 75.4531)" fill="#FFFFFF" width="23.9975" height="7.999"/>
	
		<rect x="55.6775" y="58.2269" transform="matrix(0.7071 -0.7071 0.7071 0.7071 -24.1785 66.0803)" fill="#FFFFFF" width="24.0002" height="7.9993"/>
</g>
</svg>
