<?xml version="1.0" encoding="utf-8"?>
<svg version="1.1" id="website" xmlns="http://www.w3.org/2000/svg" xmlns:xlink="http://www.w3.org/1999/xlink" x="0px" y="0px"
	 viewBox="0 0 224 168" width="100px" height="100px" enable-background="new 0 0 224 168" xml:space="preserve">
<g>
	<path fill="#FFE9E1" d="M220,0H4C1.7891,0,0,1.7892,0,4v160c0,2.2108,1.7891,4,4,4h16V84h76v84h12V84h92v84h20
		c2.2107,0,4-1.7892,4-4V4C224,1.7892,222.2107,0,220,0z M96,36h40v8H96V36z M96,52h56v8H96V52z M20,20h64v40H20V20z M124,76H20v-8
		h104V76z M200,76h-68v-8h68V76z M200,60h-40v-8h40V60z M200,44h-56v-8h56V44z M200,28H96v-8h104V28z"/>
	<rect x="20" y="20" fill="#8F89F5" width="64" height="40"/>
	<rect x="20" y="84" fill="#49A25A" width="76" height="84"/>
	<rect x="108" y="84" fill="#FCC24C" width="92" height="84"/>
	<rect x="96" y="20" fill="#858598" width="104" height="8"/>
	<rect x="20" y="68" fill="#858598" width="104" height="8"/>
	<rect x="132" y="68" fill="#858598" width="68" height="8"/>
	<rect x="96" y="36" fill="#858598" width="40" height="8"/>
	<rect x="160" y="52" fill="#858598" width="40" height="8"/>
	<rect x="144" y="36" fill="#858598" width="56" height="8"/>
	<rect x="96" y="52" fill="#858598" width="56" height="8"/>
</g>
</svg>
