<?xml version="1.0" encoding="utf-8"?>
<!-- Generator: Adobe Illustrator 19.2.0, SVG Export Plug-In . SVG Version: 6.00 Build 0)  -->
<svg version="1.1" id="sharethis" xmlns="http://www.w3.org/2000/svg" xmlns:xlink="http://www.w3.org/1999/xlink" x="0px" y="0px"
	 viewBox="0 0 174.6795 196.9043" enable-background="new 0 0 174.6795 196.9043" xml:space="preserve">
<path d="M139.8435,122.3828c-6.3692,0-12.4668,2.0276-17.7908,5.8928L71.1071,99.586L119.916,70.34
	c5.8787,4.8396,12.9803,7.4744,20.2907,7.4744c19.008,0,34.4728-17.4512,34.4728-38.9021C174.6795,17.4552,159.2127,0,140.2031,0
	c-18.2892,0-33.3148,16.1992-34.3988,36.5608L53.504,68.0216c-5.676-4.4256-12.4573-6.832-19.3909-6.832
	C15.3027,61.1896,0,78.4628,0,99.6936c0,21.2224,15.3027,38.488,34.1131,38.488c6.9412,0,13.7364-2.412,19.412-6.8476
	l53.3029,29.1328c0.3907,20.166,15.0507,36.4375,33.0155,36.4375c18.2128,0,33.0312-16.7147,33.0312-37.2615
	C172.8747,139.0976,158.0563,122.3828,139.8435,122.3828z M139.8435,188.9043c-13.7988,0-25.0232-13.1267-25.0232-29.2615
	c0-0.2425,0.0157-0.4788,0.0292-0.7132l0.1192-3.1308l-62.5472-34.1836l-2.1112,1.9571c-4.66,4.324-10.2616,6.6093-16.1972,6.6093
	C19.7147,130.1816,8,116.504,8,99.6936c0-16.8204,11.7147-30.504,26.1131-30.504c5.9608,0,11.582,2.3048,16.2596,6.668
	l2.2052,2.0564l61.16-36.7908l0.004-2.258C113.7655,21.846,125.6367,8,140.2031,8c14.5996,0,26.4764,13.8672,26.4764,30.9123
	c0,17.0389-11.8752,30.9021-26.4728,30.9021c-6.1952,0-12.236-2.584-17.0096-7.2772l-2.2072-2.168L60.1971,96.7988v5.8244
	l62.7128,35.3164l2.1288-1.832c4.348-3.746,9.4668-5.7248,14.8048-5.7248c13.8028,0,25.0312,13.1252,25.0312,29.26
	S153.6463,188.9043,139.8435,188.9043z"/>
</svg>
