<?xml version="1.0" encoding="utf-8"?>
<!-- Generator: Adobe Illustrator 19.2.0, SVG Export Plug-In . SVG Version: 6.00 Build 0)  -->
<svg version="1.1" id="chatbubble" xmlns="http://www.w3.org/2000/svg" xmlns:xlink="http://www.w3.org/1999/xlink" x="0px" y="0px"
	 viewBox="0 0 200 212" enable-background="new 0 0 200 212" xml:space="preserve">
<g>
	<circle fill="none" cx="100" cy="104" r="4"/>
	<circle fill="none" cx="72" cy="104" r="4"/>
	<circle fill="none" cx="128" cy="104" r="4"/>
	<path fill="none" d="M100,8C49.2716,8,8,49.1876,8,99.8164c0,22.6564,8.334,44.41,23.4688,61.2616
		c0.7812,0.8712,1.1424,2.0392,0.9884,3.2032L27.6056,200.59l30.4784-17.1096c1.1152-0.6288,2.4588-0.6796,3.6232-0.1484
		c12.0448,5.5116,24.9276,8.3048,38.2928,8.3048c50.7284,0,92-41.1916,92-91.8204S150.7284,8,100,8z M72,116
		c-6.6172,0-12-5.3828-12-12s5.3828-12,12-12s12,5.3828,12,12S78.6172,116,72,116z M100,116c-6.6172,0-12-5.3828-12-12
		s5.3828-12,12-12s12,5.3828,12,12S106.6172,116,100,116z M128,116c-6.6172,0-12-5.3828-12-12s5.3828-12,12-12s12,5.3828,12,12
		S134.6172,116,128,116z"/>
	<path d="M100,0C44.8592,0,0,44.7772,0,99.8164c0,24.0116,8.6112,47.0936,24.2852,65.2108l-5.67,42.4416
		c-0.2012,1.504,0.4648,2.992,1.7188,3.8396C21.0096,211.7696,21.7948,212,22.58,212c0.674,0,1.3476-0.168,1.9592-0.5116
		L60.25,191.4416c12.5568,5.4372,25.918,8.1952,39.75,8.1952c55.1408,0,100-44.7776,100-99.8204C200,44.7772,155.1408,0,100,0z
		 M100,191.6368c-13.3652,0-26.248-2.7932-38.2928-8.3048c-1.1644-0.5312-2.508-0.4804-3.6232,0.1484L27.6056,200.59l4.8516-36.3088
		c0.154-1.164-0.2072-2.332-0.9884-3.2032C16.334,144.2264,8,122.4728,8,99.8164C8,49.1876,49.2716,8,100,8s92,41.1876,92,91.8164
		S150.7284,191.6368,100,191.6368z"/>
	<path d="M72,92c-6.6172,0-12,5.3828-12,12s5.3828,12,12,12s12-5.3828,12-12S78.6172,92,72,92z M72,108c-2.2052,0-4-1.7928-4-4
		s1.7948-4,4-4s4,1.7928,4,4S74.2052,108,72,108z"/>
	<path d="M100,92c-6.6172,0-12,5.3828-12,12s5.3828,12,12,12s12-5.3828,12-12S106.6172,92,100,92z M100,108c-2.2052,0-4-1.7928-4-4
		s1.7948-4,4-4s4,1.7928,4,4S102.2052,108,100,108z"/>
	<path d="M128,92c-6.6172,0-12,5.3828-12,12s5.3828,12,12,12s12-5.3828,12-12S134.6172,92,128,92z M128,108c-2.2052,0-4-1.7928-4-4
		s1.7948-4,4-4s4,1.7928,4,4S130.2052,108,128,108z"/>
</g>
</svg>
