<?xml version="1.0" encoding="utf-8"?>
<svg version="1.1" id="drummer" xmlns="http://www.w3.org/2000/svg" xmlns:xlink="http://www.w3.org/1999/xlink" x="0px" y="0px"
	 viewBox="0 0 224 225.6317" width="150px" height="150px" enable-background="new 0 0 224 225.6317" xml:space="preserve">
<g>
	<path fill="#FAE6F5" d="M20,8h-4V4c0-2.209-1.791-4-4-4S8,1.791,8,4v4H4c-2.209,0-4,1.791-4,4s1.791,4,4,4h4v4c0,2.209,1.791,4,4,4
		s4-1.791,4-4v-4h4c2.209,0,4-1.791,4-4S22.209,8,20,8z"/>
	<path fill="#FAE6F5" d="M60,8h-4V4c0-2.209-1.791-4-4-4s-4,1.791-4,4v4h-4c-2.209,0-4,1.791-4,4s1.791,4,4,4h4v4
		c0,2.209,1.791,4,4,4s4-1.791,4-4v-4h4c2.209,0,4-1.791,4-4S62.209,8,60,8z"/>
	<path fill="#FAE6F5" d="M100,8h-4V4c0-2.209-1.791-4-4-4s-4,1.791-4,4v4h-4c-2.209,0-4,1.791-4,4s1.791,4,4,4h4v4
		c0,2.209,1.791,4,4,4s4-1.791,4-4v-4h4c2.209,0,4-1.791,4-4S102.209,8,100,8z"/>
	<path fill="#FAE6F5" d="M140,8h-4V4c0-2.209-1.791-4-4-4s-4,1.791-4,4v4h-4c-2.209,0-4,1.791-4,4s1.791,4,4,4h4v4
		c0,2.209,1.791,4,4,4s4-1.791,4-4v-4h4c2.209,0,4-1.791,4-4S142.209,8,140,8z"/>
	<path fill="#FAE6F5" d="M180,8h-4V4c0-2.209-1.791-4-4-4s-4,1.791-4,4v4h-4c-2.209,0-4,1.791-4,4s1.791,4,4,4h4v4
		c0,2.209,1.791,4,4,4s4-1.791,4-4v-4h4c2.209,0,4-1.791,4-4S182.209,8,180,8z"/>
	<path fill="#FAE6F5" d="M204,16h4v4c0,2.209,1.791,4,4,4s4-1.791,4-4v-4h4c2.209,0,4-1.791,4-4s-1.791-4-4-4h-4V4
		c0-2.209-1.791-4-4-4s-4,1.791-4,4v4h-4c-2.209,0-4,1.791-4,4S201.791,16,204,16z"/>
	<path fill="#FAE6F5" d="M20,48h-4v-4c0-2.209-1.791-4-4-4s-4,1.791-4,4v4H4c-2.209,0-4,1.791-4,4s1.791,4,4,4h4v4
		c0,2.209,1.791,4,4,4s4-1.791,4-4v-4h4c2.209,0,4-1.791,4-4S22.209,48,20,48z"/>
	<path fill="#FAE6F5" d="M60,48h-4v-4c0-2.209-1.791-4-4-4s-4,1.791-4,4v4h-4c-2.209,0-4,1.791-4,4s1.791,4,4,4h4v4
		c0,2.209,1.791,4,4,4s4-1.791,4-4v-4h4c2.209,0,4-1.791,4-4S62.209,48,60,48z"/>
	<path fill="#FAE6F5" d="M100,48h-4v-4c0-2.209-1.791-4-4-4s-4,1.791-4,4v4h-4c-2.209,0-4,1.791-4,4s1.791,4,4,4h4v4
		c0,2.209,1.791,4,4,4s4-1.791,4-4v-4h4c2.209,0,4-1.791,4-4S102.209,48,100,48z"/>
	<path fill="#FAE6F5" d="M140,48h-4v-4c0-2.209-1.791-4-4-4s-4,1.791-4,4v4h-4c-2.209,0-4,1.791-4,4s1.791,4,4,4h4v4
		c0,2.209,1.791,4,4,4s4-1.791,4-4v-4h4c2.209,0,4-1.791,4-4S142.209,48,140,48z"/>
	<path fill="#FAE6F5" d="M180,48h-4v-4c0-2.209-1.791-4-4-4s-4,1.791-4,4v4h-4c-2.209,0-4,1.791-4,4s1.791,4,4,4h4v4
		c0,2.209,1.791,4,4,4s4-1.791,4-4v-4h4c2.209,0,4-1.791,4-4S182.209,48,180,48z"/>
	<path fill="#FAE6F5" d="M220,48h-4v-4c0-2.209-1.791-4-4-4s-4,1.791-4,4v4h-4c-2.209,0-4,1.791-4,4s1.791,4,4,4h4v4
		c0,2.209,1.791,4,4,4s4-1.791,4-4v-4h4c2.209,0,4-1.791,4-4S222.209,48,220,48z"/>
	<path fill="#FAE6F5" d="M20,88h-4v-4c0-2.209-1.791-4-4-4s-4,1.791-4,4v4H4c-2.209,0-4,1.791-4,4s1.791,4,4,4h4v4
		c0,2.209,1.791,4,4,4s4-1.791,4-4v-4h4c2.209,0,4-1.791,4-4S22.209,88,20,88z"/>
	<path fill="#FAE6F5" d="M60,88h-4v-4c0-2.209-1.791-4-4-4s-4,1.791-4,4v4h-4c-2.209,0-4,1.791-4,4s1.791,4,4,4h4v4
		c0,2.209,1.791,4,4,4s4-1.791,4-4v-4h4c2.209,0,4-1.791,4-4S62.209,88,60,88z"/>
	<path fill="#FAE6F5" d="M100,88h-4v-4c0-2.209-1.791-4-4-4s-4,1.791-4,4v4h-4c-2.209,0-4,1.791-4,4s1.791,4,4,4h4v4
		c0,2.209,1.791,4,4,4s4-1.791,4-4v-4h4c2.209,0,4-1.791,4-4S102.209,88,100,88z"/>
	<path fill="#FAE6F5" d="M140,88h-4v-4c0-2.209-1.791-4-4-4s-4,1.791-4,4v4h-4c-2.209,0-4,1.791-4,4s1.791,4,4,4h4v4
		c0,2.209,1.791,4,4,4s4-1.791,4-4v-4h4c2.209,0,4-1.791,4-4S142.209,88,140,88z"/>
	<path fill="#FAE6F5" d="M180,88h-4v-4c0-2.209-1.791-4-4-4s-4,1.791-4,4v4h-4c-2.209,0-4,1.791-4,4s1.791,4,4,4h4v4
		c0,2.209,1.791,4,4,4s4-1.791,4-4v-4h4c2.209,0,4-1.791,4-4S182.209,88,180,88z"/>
	<path fill="#FAE6F5" d="M220,88h-4v-4c0-2.209-1.791-4-4-4s-4,1.791-4,4v4h-4c-2.209,0-4,1.791-4,4s1.791,4,4,4h4v4
		c0,2.209,1.791,4,4,4s4-1.791,4-4v-4h4c2.209,0,4-1.791,4-4S222.209,88,220,88z"/>
	<path fill="#FAE6F5" d="M20,128h-4v-4c0-2.209-1.791-4-4-4s-4,1.791-4,4v4H4c-2.209,0-4,1.791-4,4s1.791,4,4,4h4v4
		c0,2.209,1.791,4,4,4s4-1.791,4-4v-4h4c2.209,0,4-1.791,4-4S22.209,128,20,128z"/>
	<path fill="#FAE6F5" d="M60,128h-4v-4c0-2.209-1.791-4-4-4s-4,1.791-4,4v4h-4c-2.209,0-4,1.791-4,4s1.791,4,4,4h4v4
		c0,2.209,1.791,4,4,4s4-1.791,4-4v-4h4c2.209,0,4-1.791,4-4S62.209,128,60,128z"/>
	<path fill="#FAE6F5" d="M100,128h-4v-4c0-2.209-1.791-4-4-4s-4,1.791-4,4v4h-4c-2.209,0-4,1.791-4,4s1.791,4,4,4h4v4
		c0,2.209,1.791,4,4,4s4-1.791,4-4v-4h4c2.209,0,4-1.791,4-4S102.209,128,100,128z"/>
	<path fill="#FAE6F5" d="M140,128h-4v-4c0-2.209-1.791-4-4-4s-4,1.791-4,4v4h-4c-2.209,0-4,1.791-4,4s1.791,4,4,4h4v4
		c0,2.209,1.791,4,4,4s4-1.791,4-4v-4h4c2.209,0,4-1.791,4-4S142.209,128,140,128z"/>
	<path fill="#FAE6F5" d="M180,128h-4v-4c0-2.209-1.791-4-4-4s-4,1.791-4,4v4h-4c-2.209,0-4,1.791-4,4s1.791,4,4,4h4v4
		c0,2.209,1.791,4,4,4s4-1.791,4-4v-4h4c2.209,0,4-1.791,4-4S182.209,128,180,128z"/>
	<path fill="#FAE6F5" d="M220,128h-4v-4c0-2.209-1.791-4-4-4s-4,1.791-4,4v4h-4c-2.209,0-4,1.791-4,4s1.791,4,4,4h4v4
		c0,2.209,1.791,4,4,4s4-1.791,4-4v-4h4c2.209,0,4-1.791,4-4S222.209,128,220,128z"/>
	<path fill="#FAE6F5" d="M20,168h-4v-4c0-2.209-1.791-4-4-4s-4,1.791-4,4v4H4c-2.209,0-4,1.791-4,4s1.791,4,4,4h4v4
		c0,2.209,1.791,4,4,4s4-1.791,4-4v-4h4c2.209,0,4-1.791,4-4S22.209,168,20,168z"/>
	<path fill="#FAE6F5" d="M60,168h-4v-4c0-2.209-1.791-4-4-4s-4,1.791-4,4v4h-4c-2.209,0-4,1.791-4,4s1.791,4,4,4h4v4
		c0,2.209,1.791,4,4,4s4-1.791,4-4v-4h4c2.209,0,4-1.791,4-4S62.209,168,60,168z"/>
	<path fill="#FAE6F5" d="M100,168h-4v-4c0-2.209-1.791-4-4-4s-4,1.791-4,4v4h-4c-2.209,0-4,1.791-4,4s1.791,4,4,4h4v4
		c0,2.209,1.791,4,4,4s4-1.791,4-4v-4h4c2.209,0,4-1.791,4-4S102.209,168,100,168z"/>
	<path fill="#FAE6F5" d="M140,168h-4v-4c0-2.209-1.791-4-4-4s-4,1.791-4,4v4h-4c-2.209,0-4,1.791-4,4s1.791,4,4,4h4v4
		c0,2.209,1.791,4,4,4s4-1.791,4-4v-4h4c2.209,0,4-1.791,4-4S142.209,168,140,168z"/>
	<path fill="#FAE6F5" d="M180,168h-4v-4c0-2.209-1.791-4-4-4s-4,1.791-4,4v4h-4c-2.209,0-4,1.791-4,4s1.791,4,4,4h4v4
		c0,2.209,1.791,4,4,4s4-1.791,4-4v-4h4c2.209,0,4-1.791,4-4S182.209,168,180,168z"/>
	<path fill="#FAE6F5" d="M220,168h-4v-4c0-2.209-1.791-4-4-4s-4,1.791-4,4v4h-4c-2.209,0-4,1.791-4,4s1.791,4,4,4h4v4
		c0,2.209,1.791,4,4,4s4-1.791,4-4v-4h4c2.209,0,4-1.791,4-4S222.209,168,220,168z"/>
	<path fill="#FAE6F5" d="M20,208h-4v-4c0-2.209-1.791-4-4-4s-4,1.791-4,4v4H4c-2.209,0-4,1.791-4,4s1.791,4,4,4h4v4
		c0,2.209,1.791,4,4,4s4-1.791,4-4v-4h4c2.209,0,4-1.791,4-4S22.209,208,20,208z"/>
	<path fill="#FAE6F5" d="M60,208h-4v-4c0-2.209-1.791-4-4-4s-4,1.791-4,4v4h-4c-2.209,0-4,1.791-4,4s1.791,4,4,4h4v4
		c0,2.209,1.791,4,4,4s4-1.791,4-4v-4h4c2.209,0,4-1.791,4-4S62.209,208,60,208z"/>
	<path fill="#FAE6F5" d="M100,208h-4v-4c0-2.209-1.791-4-4-4s-4,1.791-4,4v4h-4c-2.209,0-4,1.791-4,4s1.791,4,4,4h4v4
		c0,2.209,1.791,4,4,4s4-1.791,4-4v-4h4c2.209,0,4-1.791,4-4S102.209,208,100,208z"/>
	<path fill="#FAE6F5" d="M140,208h-4v-4c0-2.209-1.791-4-4-4s-4,1.791-4,4v4h-4c-2.209,0-4,1.791-4,4s1.791,4,4,4h4v4
		c0,2.209,1.791,4,4,4s4-1.791,4-4v-4h4c2.209,0,4-1.791,4-4S142.209,208,140,208z"/>
	<path fill="#FAE6F5" d="M180,208h-4v-4c0-2.209-1.791-4-4-4s-4,1.791-4,4v4h-4c-2.209,0-4,1.791-4,4s1.791,4,4,4h4v4
		c0,2.209,1.791,4,4,4s4-1.791,4-4v-4h4c2.209,0,4-1.791,4-4S182.209,208,180,208z"/>
	<path fill="#FAE6F5" d="M220,208h-4v-4c0-2.209-1.791-4-4-4s-4,1.791-4,4v4h-4c-2.209,0-4,1.791-4,4s1.791,4,4,4h4v4
		c0,2.209,1.791,4,4,4s4-1.791,4-4v-4h4c2.209,0,4-1.791,4-4S222.209,208,220,208z"/>
</g>
<path fill="#643458" d="M187.4788,97.4428c-0.2161-17.1924-29.4839-30.3403-69.2766-31.6777l-1.4722-1.7524l29.5435-35.1699
	c0.6309-0.75,0.9375-1.6621,0.9375-2.5703c0-1.1406-0.4863-2.2734-1.4277-3.0645c-1.6934-1.4238-4.2148-1.2031-5.6348,0.4902
	l-28.6416,34.0967L82.8652,23.6981c-1.418-1.6934-3.9395-1.9121-5.6348-0.4902c-0.9414,0.791-1.4277,1.9238-1.4277,3.0645
	c0,0.9082,0.3066,1.8203,0.9375,2.5703l29.5435,35.1699l-1.4719,1.752c-39.8,1.335-69.0745,14.4839-69.2905,31.6782
	c-0.001,0.0366-0.0212,0.0679-0.0212,0.105v96.084c0,18.2422,32.6738,32,76,32s76-13.7578,76-32v-96.084
	C187.5,97.5106,187.4797,97.4794,187.4788,97.4428z"/>
<path fill="#FFFFFF" d="M161.2812,122.1742c7.572-2.6968,13.7505-6.0337,18.2188-9.8481v64.1963L161.2812,122.1742z"/>
<path fill="#FDCA8D" d="M97.7627,74.1562L80.7402,94.4208c-0.6309,0.75-0.9375,1.6621-0.9375,2.5703
	c0,1.1406,0.4863,2.2734,1.4277,3.0645c0.75,0.6309,1.6621,0.9375,2.5703,0.9375c1.1406,0,2.2734-0.4863,3.0645-1.4277
	l21.7368-25.877c0.9702-0.0146,1.9128-0.0566,2.8979-0.0566c0.99,0,1.937,0.042,2.9119,0.0571l21.7366,25.8765
	c0.791,0.9434,1.9238,1.4277,3.0645,1.4277c0.9082,0,1.8203-0.3066,2.5703-0.9375c0.9414-0.791,1.4277-1.9238,1.4277-3.0645
	c0-0.9082-0.3066-1.8203-0.9375-2.5703l-17.0217-20.2637C157.812,76.6356,179.5,87.6312,179.5,97.6317
	c0,11.1367-26.9087,23.4907-65.7664,23.9561c-0.407-0.124-0.8328-0.1963-1.2727-0.1904c-0.4202,0.0127-0.8257,0.0942-1.2083,0.2295
	c-14.0532-0.0186-26.5623-1.6089-36.9287-4.1357c-0.1516-0.042-0.2844-0.124-0.4431-0.1484
	c-0.0591-0.0088-0.1143,0.0093-0.1731,0.0029C54.9722,112.6737,43.5,104.8954,43.5,97.6317
	C43.5,87.6298,65.1948,76.6322,97.7627,74.1562z"/>
<path fill="#FFFFFF" d="M152.54,124.829l-4.585,73.6953l-29.2878-69.0352C131.2244,129.0375,142.6875,127.3935,152.54,124.829z"/>
<path fill="#FFFFFF" d="M106.8848,129.5399l-23.7012,67.2832l-5.5002-70.3467C86.4924,128.2318,96.3279,129.2968,106.8848,129.5399z
	"/>
<path fill="#FFFFFF" d="M67.7957,124.1249L43.5,183.8285v-71.5024C49.1143,117.119,57.4341,121.161,67.7957,124.1249z"/>
<path fill="#ED5175" d="M45.7783,199.2909c0.0481-0.0957,0.1318-0.1602,0.1729-0.2607l24.6445-60.5625l5.9058,75.5371
	C61.1279,210.5575,50.2246,205.0604,45.7783,199.2909z"/>
<path fill="#ED5175" d="M85.04,215.6312l27.8916-79.1792l32.9614,77.6958c-9.8608,2.1592-21.4832,3.4839-34.3931,3.4839
	C101.9023,217.6317,93.0273,216.8905,85.04,215.6312z"/>
<path fill="#ED5175" d="M155.1492,211.7245l4.3391-69.7295l18.4082,54.916c0.0969,0.2881,0.2854,0.5088,0.4373,0.7583
	C175.4578,202.8588,167.2468,207.9696,155.1492,211.7245z"/>
</svg>
