<?xml version="1.0" encoding="utf-8"?>
<svg version="1.1" id="grill" xmlns="http://www.w3.org/2000/svg" xmlns:xlink="http://www.w3.org/1999/xlink" x="0px" y="0px"
	 viewBox="0 0 224 226.9927" width="150px" height="150px" enable-background="new 0 0 224 226.9927" xml:space="preserve">
<g>
	<path fill="#FAE6F5" d="M20,8h-4V4c0-2.2109-1.791-4-4-4S8,1.7891,8,4v4H4c-2.209,0-4,1.7891-4,4s1.791,4,4,4h4v4
		c0,2.2109,1.791,4,4,4s4-1.7891,4-4v-4h4c2.209,0,4-1.7891,4-4S22.209,8,20,8z"/>
	<path fill="#FAE6F5" d="M60,8h-4V4c0-2.2109-1.791-4-4-4s-4,1.7891-4,4v4h-4c-2.209,0-4,1.7891-4,4s1.791,4,4,4h4v4
		c0,2.2109,1.791,4,4,4s4-1.7891,4-4v-4h4c2.209,0,4-1.7891,4-4S62.209,8,60,8z"/>
	<path fill="#FAE6F5" d="M100,8h-4V4c0-2.2109-1.791-4-4-4s-4,1.7891-4,4v4h-4c-2.209,0-4,1.7891-4,4s1.791,4,4,4h4v4
		c0,2.2109,1.791,4,4,4s4-1.7891,4-4v-4h4c2.209,0,4-1.7891,4-4S102.209,8,100,8z"/>
	<path fill="#FAE6F5" d="M140,8h-4V4c0-2.2109-1.791-4-4-4s-4,1.7891-4,4v4h-4c-2.209,0-4,1.7891-4,4s1.791,4,4,4h4v4
		c0,2.2109,1.791,4,4,4s4-1.7891,4-4v-4h4c2.209,0,4-1.7891,4-4S142.209,8,140,8z"/>
	<path fill="#FAE6F5" d="M180,8h-4V4c0-2.2109-1.791-4-4-4s-4,1.7891-4,4v4h-4c-2.209,0-4,1.7891-4,4s1.791,4,4,4h4v4
		c0,2.2109,1.791,4,4,4s4-1.7891,4-4v-4h4c2.209,0,4-1.7891,4-4S182.209,8,180,8z"/>
	<path fill="#FAE6F5" d="M204,16h4v4c0,2.2109,1.791,4,4,4s4-1.7891,4-4v-4h4c2.209,0,4-1.7891,4-4s-1.791-4-4-4h-4V4
		c0-2.2109-1.791-4-4-4s-4,1.7891-4,4v4h-4c-2.209,0-4,1.7891-4,4S201.791,16,204,16z"/>
	<path fill="#FAE6F5" d="M20,48h-4v-4c0-2.2109-1.791-4-4-4s-4,1.7891-4,4v4H4c-2.209,0-4,1.7891-4,4s1.791,4,4,4h4v4
		c0,2.2109,1.791,4,4,4s4-1.7891,4-4v-4h4c2.209,0,4-1.7891,4-4S22.209,48,20,48z"/>
	<path fill="#FAE6F5" d="M60,48h-4v-4c0-2.2109-1.791-4-4-4s-4,1.7891-4,4v4h-4c-2.209,0-4,1.7891-4,4s1.791,4,4,4h4v4
		c0,2.2109,1.791,4,4,4s4-1.7891,4-4v-4h4c2.209,0,4-1.7891,4-4S62.209,48,60,48z"/>
	<path fill="#FAE6F5" d="M100,48h-4v-4c0-2.2109-1.791-4-4-4s-4,1.7891-4,4v4h-4c-2.209,0-4,1.7891-4,4s1.791,4,4,4h4v4
		c0,2.2109,1.791,4,4,4s4-1.7891,4-4v-4h4c2.209,0,4-1.7891,4-4S102.209,48,100,48z"/>
	<path fill="#FAE6F5" d="M140,48h-4v-4c0-2.2109-1.791-4-4-4s-4,1.7891-4,4v4h-4c-2.209,0-4,1.7891-4,4s1.791,4,4,4h4v4
		c0,2.2109,1.791,4,4,4s4-1.7891,4-4v-4h4c2.209,0,4-1.7891,4-4S142.209,48,140,48z"/>
	<path fill="#FAE6F5" d="M180,48h-4v-4c0-2.2109-1.791-4-4-4s-4,1.7891-4,4v4h-4c-2.209,0-4,1.7891-4,4s1.791,4,4,4h4v4
		c0,2.2109,1.791,4,4,4s4-1.7891,4-4v-4h4c2.209,0,4-1.7891,4-4S182.209,48,180,48z"/>
	<path fill="#FAE6F5" d="M220,48h-4v-4c0-2.2109-1.791-4-4-4s-4,1.7891-4,4v4h-4c-2.209,0-4,1.7891-4,4s1.791,4,4,4h4v4
		c0,2.2109,1.791,4,4,4s4-1.7891,4-4v-4h4c2.209,0,4-1.7891,4-4S222.209,48,220,48z"/>
	<path fill="#FAE6F5" d="M20,88h-4v-4c0-2.2109-1.791-4-4-4s-4,1.7891-4,4v4H4c-2.209,0-4,1.7891-4,4s1.791,4,4,4h4v4
		c0,2.2109,1.791,4,4,4s4-1.7891,4-4v-4h4c2.209,0,4-1.7891,4-4S22.209,88,20,88z"/>
	<path fill="#FAE6F5" d="M60,88h-4v-4c0-2.2109-1.791-4-4-4s-4,1.7891-4,4v4h-4c-2.209,0-4,1.7891-4,4s1.791,4,4,4h4v4
		c0,2.2109,1.791,4,4,4s4-1.7891,4-4v-4h4c2.209,0,4-1.7891,4-4S62.209,88,60,88z"/>
	<path fill="#FAE6F5" d="M100,88h-4v-4c0-2.2109-1.791-4-4-4s-4,1.7891-4,4v4h-4c-2.209,0-4,1.7891-4,4s1.791,4,4,4h4v4
		c0,2.2109,1.791,4,4,4s4-1.7891,4-4v-4h4c2.209,0,4-1.7891,4-4S102.209,88,100,88z"/>
	<path fill="#FAE6F5" d="M140,88h-4v-4c0-2.2109-1.791-4-4-4s-4,1.7891-4,4v4h-4c-2.209,0-4,1.7891-4,4s1.791,4,4,4h4v4
		c0,2.2109,1.791,4,4,4s4-1.7891,4-4v-4h4c2.209,0,4-1.7891,4-4S142.209,88,140,88z"/>
	<path fill="#FAE6F5" d="M180,88h-4v-4c0-2.2109-1.791-4-4-4s-4,1.7891-4,4v4h-4c-2.209,0-4,1.7891-4,4s1.791,4,4,4h4v4
		c0,2.2109,1.791,4,4,4s4-1.7891,4-4v-4h4c2.209,0,4-1.7891,4-4S182.209,88,180,88z"/>
	<path fill="#FAE6F5" d="M220,88h-4v-4c0-2.2109-1.791-4-4-4s-4,1.7891-4,4v4h-4c-2.209,0-4,1.7891-4,4s1.791,4,4,4h4v4
		c0,2.2109,1.791,4,4,4s4-1.7891,4-4v-4h4c2.209,0,4-1.7891,4-4S222.209,88,220,88z"/>
	<path fill="#FAE6F5" d="M20,128h-4v-4c0-2.2109-1.791-4-4-4s-4,1.7891-4,4v4H4c-2.209,0-4,1.7891-4,4s1.791,4,4,4h4v4
		c0,2.2109,1.791,4,4,4s4-1.7891,4-4v-4h4c2.209,0,4-1.7891,4-4S22.209,128,20,128z"/>
	<path fill="#FAE6F5" d="M60,128h-4v-4c0-2.2109-1.791-4-4-4s-4,1.7891-4,4v4h-4c-2.209,0-4,1.7891-4,4s1.791,4,4,4h4v4
		c0,2.2109,1.791,4,4,4s4-1.7891,4-4v-4h4c2.209,0,4-1.7891,4-4S62.209,128,60,128z"/>
	<path fill="#FAE6F5" d="M100,128h-4v-4c0-2.2109-1.791-4-4-4s-4,1.7891-4,4v4h-4c-2.209,0-4,1.7891-4,4s1.791,4,4,4h4v4
		c0,2.2109,1.791,4,4,4s4-1.7891,4-4v-4h4c2.209,0,4-1.7891,4-4S102.209,128,100,128z"/>
	<path fill="#FAE6F5" d="M140,128h-4v-4c0-2.2109-1.791-4-4-4s-4,1.7891-4,4v4h-4c-2.209,0-4,1.7891-4,4s1.791,4,4,4h4v4
		c0,2.2109,1.791,4,4,4s4-1.7891,4-4v-4h4c2.209,0,4-1.7891,4-4S142.209,128,140,128z"/>
	<path fill="#FAE6F5" d="M180,128h-4v-4c0-2.2109-1.791-4-4-4s-4,1.7891-4,4v4h-4c-2.209,0-4,1.7891-4,4s1.791,4,4,4h4v4
		c0,2.2109,1.791,4,4,4s4-1.7891,4-4v-4h4c2.209,0,4-1.7891,4-4S182.209,128,180,128z"/>
	<path fill="#FAE6F5" d="M220,128h-4v-4c0-2.2109-1.791-4-4-4s-4,1.7891-4,4v4h-4c-2.209,0-4,1.7891-4,4s1.791,4,4,4h4v4
		c0,2.2109,1.791,4,4,4s4-1.7891,4-4v-4h4c2.209,0,4-1.7891,4-4S222.209,128,220,128z"/>
	<path fill="#FAE6F5" d="M20,168h-4v-4c0-2.2109-1.791-4-4-4s-4,1.7891-4,4v4H4c-2.209,0-4,1.7891-4,4s1.791,4,4,4h4v4
		c0,2.2109,1.791,4,4,4s4-1.7891,4-4v-4h4c2.209,0,4-1.7891,4-4S22.209,168,20,168z"/>
	<path fill="#FAE6F5" d="M60,168h-4v-4c0-2.2109-1.791-4-4-4s-4,1.7891-4,4v4h-4c-2.209,0-4,1.7891-4,4s1.791,4,4,4h4v4
		c0,2.2109,1.791,4,4,4s4-1.7891,4-4v-4h4c2.209,0,4-1.7891,4-4S62.209,168,60,168z"/>
	<path fill="#FAE6F5" d="M100,168h-4v-4c0-2.2109-1.791-4-4-4s-4,1.7891-4,4v4h-4c-2.209,0-4,1.7891-4,4s1.791,4,4,4h4v4
		c0,2.2109,1.791,4,4,4s4-1.7891,4-4v-4h4c2.209,0,4-1.7891,4-4S102.209,168,100,168z"/>
	<path fill="#FAE6F5" d="M140,168h-4v-4c0-2.2109-1.791-4-4-4s-4,1.7891-4,4v4h-4c-2.209,0-4,1.7891-4,4s1.791,4,4,4h4v4
		c0,2.2109,1.791,4,4,4s4-1.7891,4-4v-4h4c2.209,0,4-1.7891,4-4S142.209,168,140,168z"/>
	<path fill="#FAE6F5" d="M180,168h-4v-4c0-2.2109-1.791-4-4-4s-4,1.7891-4,4v4h-4c-2.209,0-4,1.7891-4,4s1.791,4,4,4h4v4
		c0,2.2109,1.791,4,4,4s4-1.7891,4-4v-4h4c2.209,0,4-1.7891,4-4S182.209,168,180,168z"/>
	<path fill="#FAE6F5" d="M220,168h-4v-4c0-2.2109-1.791-4-4-4s-4,1.7891-4,4v4h-4c-2.209,0-4,1.7891-4,4s1.791,4,4,4h4v4
		c0,2.2109,1.791,4,4,4s4-1.7891,4-4v-4h4c2.209,0,4-1.7891,4-4S222.209,168,220,168z"/>
	<path fill="#FAE6F5" d="M20,208h-4v-4c0-2.2109-1.791-4-4-4s-4,1.7891-4,4v4H4c-2.209,0-4,1.7891-4,4s1.791,4,4,4h4v4
		c0,2.2109,1.791,4,4,4s4-1.7891,4-4v-4h4c2.209,0,4-1.7891,4-4S22.209,208,20,208z"/>
	<path fill="#FAE6F5" d="M60,208h-4v-4c0-2.2109-1.791-4-4-4s-4,1.7891-4,4v4h-4c-2.209,0-4,1.7891-4,4s1.791,4,4,4h4v4
		c0,2.2109,1.791,4,4,4s4-1.7891,4-4v-4h4c2.209,0,4-1.7891,4-4S62.209,208,60,208z"/>
	<path fill="#FAE6F5" d="M100,208h-4v-4c0-2.2109-1.791-4-4-4s-4,1.7891-4,4v4h-4c-2.209,0-4,1.7891-4,4s1.791,4,4,4h4v4
		c0,2.2109,1.791,4,4,4s4-1.7891,4-4v-4h4c2.209,0,4-1.7891,4-4S102.209,208,100,208z"/>
	<path fill="#FAE6F5" d="M140,208h-4v-4c0-2.2109-1.791-4-4-4s-4,1.7891-4,4v4h-4c-2.209,0-4,1.7891-4,4s1.791,4,4,4h4v4
		c0,2.2109,1.791,4,4,4s4-1.7891,4-4v-4h4c2.209,0,4-1.7891,4-4S142.209,208,140,208z"/>
	<path fill="#FAE6F5" d="M180,208h-4v-4c0-2.2109-1.791-4-4-4s-4,1.7891-4,4v4h-4c-2.209,0-4,1.7891-4,4s1.791,4,4,4h4v4
		c0,2.2109,1.791,4,4,4s4-1.7891,4-4v-4h4c2.209,0,4-1.7891,4-4S182.209,208,180,208z"/>
	<path fill="#FAE6F5" d="M220,208h-4v-4c0-2.2109-1.791-4-4-4s-4,1.7891-4,4v4h-4c-2.209,0-4,1.7891-4,4s1.791,4,4,4h4v4
		c0,2.2109,1.791,4,4,4s4-1.7891,4-4v-4h4c2.209,0,4-1.7891,4-4S222.209,208,220,208z"/>
</g>
<g>
	<path fill="#FDCA8D" d="M101.7109,126.6255c0.7559-3.207,0.2383-6.1523-1.459-8.2969c-1.7051-2.1523-4.4688-3.3359-7.7852-3.3359
		H66.5332c-7.541,0-15.4492,6.1523-17.2695,13.4375l-2.6816,10.7305l51.7754,1.7266L101.7109,126.6255z"/>
	<path fill="#FDCA8D" d="M38.9297,90.3755c1.4238,2.3711,3.9277,3.8945,7.4434,4.5273c6.5527,1.1875,15.0391-1.1172,20.6289-5.5938
		c5.5586-4.4492,13.8086-3.4258,22.5449-2.3438c11.498,1.418,19.2637,1.8945,22.375-4.3203
		c1.5312-3.0625,1.7988-5.5898,0.8145-7.7305c-3.1426-6.8359-18.7207-10.7266-26.207-12.6016
		c-5.9844-1.4961-10.6973-4.0273-14.8555-6.2617c-5.2832-2.8398-9.7871-5.2617-15.9863-5.2617
		c-2.6406,0-5.5898,0.4414-9.0391,1.4766c-5,1.5-8.375,4.6602-10.3105,9.6641C32.6816,71.3716,35.5488,84.7427,38.9297,90.3755z
		 M49.5,62.9927c6.6172,0,12,5.3828,12,12s-5.3828,12-12,12s-12-5.3828-12-12S42.8828,62.9927,49.5,62.9927z"/>
	<circle fill="#FDCA8D" cx="49.5" cy="74.9927" r="4"/>
	<path fill="#ED5175" d="M185.748,58.9927c-1.332-2.3086-3.4863-3.9648-6.0664-4.6602c-0.8652-0.2344-1.7441-0.3477-2.6152-0.3477
		c-1.7227,0-3.4219,0.4492-4.9492,1.332l-31.2344,18.0352c-2.3047,1.3281-3.9512,3.4805-4.6367,6.0547
		c-0.6875,2.5781-0.3301,5.2734,1.0059,7.5859c1.332,2.3086,3.4863,3.9648,6.0664,4.6602c2.5742,0.6953,5.2656,0.3438,7.5645-0.9844
		L177.5,75.2993v-0.3066h0.531l4.0862-2.3594c2.3047-1.3281,3.9512-3.4805,4.6367-6.0547
		C187.4414,64.0005,187.084,61.3052,185.748,58.9927z"/>
	<path fill="#ED5175" d="M199.5879,106.5786c0.6875-2.5781,0.3301-5.2695-1.0059-7.5859c-1.334-2.3125-3.4883-3.9648-6.0664-4.6602
		c-2.5762-0.6992-5.2637-0.3438-7.5645,0.9844l-31.2363,18.0352c-2.3047,1.3281-3.9512,3.4805-4.6367,6.0547
		c-0.6875,2.5781-0.3301,5.2695,1.0059,7.5859c2.7559,4.7734,8.873,6.4258,13.6309,3.6758l31.2363-18.0352
		C197.2559,111.3052,198.9023,109.1528,199.5879,106.5786z"/>
	<path fill="#FDCA8D" d="M109.5,212.981c0,3.3164,2.6914,6.0117,6,6.0117s6-2.6953,6-6.0117v-41.9883h-12V212.981z"/>
	<path fill="#68395A" d="M197.4609,22.9927H33.5391c-11.0488,0-20.0391,8.9688-20.0391,19.9922v108.0156
		c0,11.0234,8.9902,19.9922,20.0391,19.9922H37.5h8h20h8h20h8v41.9883c0,7.7266,6.2812,14.0117,14,14.0117s14-6.2852,14-14.0117
		v-41.9883h20h8h20h8h11.9609c11.0488,0,20.0391-8.9688,20.0391-19.9922V42.9849C217.5,31.9614,208.5098,22.9927,197.4609,22.9927z
		 M182.1172,72.6333l-4.0862,2.3594H177.5v0.3066l-26.6172,15.3691c-2.2988,1.3281-4.9902,1.6797-7.5645,0.9844
		c-2.5801-0.6953-4.7344-2.3516-6.0664-4.6602c-1.3359-2.3125-1.6934-5.0078-1.0059-7.5859
		c0.6855-2.5742,2.332-4.7266,4.6367-6.0547l31.2344-18.0352c1.5273-0.8828,3.2266-1.332,4.9492-1.332
		c0.8711,0,1.75,0.1133,2.6152,0.3477c2.5801,0.6953,4.7344,2.3516,6.0664,4.6602c1.3359,2.3125,1.6934,5.0078,1.0059,7.5859
		C186.0684,69.1528,184.4219,71.3052,182.1172,72.6333z M163.7148,130.6685c-4.7578,2.75-10.875,1.0977-13.6309-3.6758
		c-1.3359-2.3164-1.6934-5.0078-1.0059-7.5859c0.6855-2.5742,2.332-4.7266,4.6367-6.0547l31.2363-18.0352
		c2.3008-1.3281,4.9883-1.6836,7.5645-0.9844c2.5781,0.6953,4.7324,2.3477,6.0664,4.6602c1.3359,2.3164,1.6934,5.0078,1.0059,7.5859
		c-0.6855,2.5742-2.332,4.7266-4.6367,6.0547L163.7148,130.6685z M177.5,90.3799l-24,13.8569v-5.9563
		c0.4644-0.2178,0.9333-0.4231,1.3828-0.6824L177.5,84.5386V90.3799z M101.5,162.9927v-14h0.002
		c1.8496,0,3.4648-1.2734,3.8926-3.082l4.1055-17.4492c1.3262-5.6406,0.2695-11-2.9766-15.0977
		c-1.3704-1.7307-3.105-3.0525-5.0234-4.0967V95.8477c7.1992-0.2048,13.9104-2.2939,17.5781-9.6245
		c2.6484-5.3008,2.9609-10.2266,0.9258-14.6523c-2.9106-6.3301-10.165-10.3257-18.5039-13.2485V30.9927h20v132h-16H101.5z
		 M46.582,139.1606l2.6816-10.7305c1.8203-7.2852,9.7285-13.4375,17.2695-13.4375h25.9336c3.3164,0,6.0801,1.1836,7.7852,3.3359
		c1.6973,2.1445,2.2148,5.0898,1.459,8.2969l-3.3535,14.2617L46.582,139.1606z M88.4707,54.5552
		c-5.0176-1.2578-9.0801-3.4375-13.0098-5.5508c-0.6484-0.3481-1.3059-0.6921-1.9609-1.0376V30.9927h20v24.8701
		C91.8186,55.4045,90.1345,54.9709,88.4707,54.5552z M65.5,44.4143c-5.356-1.7852-11.645-2.3772-20-0.0881V30.9927h20V44.4143z
		 M46.6484,52.2661c3.4492-1.0352,6.3984-1.4766,9.0391-1.4766c6.1992,0,10.7031,2.4219,15.9863,5.2617
		c4.1582,2.2344,8.8711,4.7656,14.8555,6.2617c7.4863,1.875,23.0645,5.7656,26.207,12.6016
		c0.9844,2.1406,0.7168,4.668-0.8145,7.7305c-3.1113,6.2148-10.877,5.7383-22.375,4.3203
		c-8.7363-1.082-16.9863-2.1055-22.5449,2.3438c-5.5898,4.4766-14.0762,6.7812-20.6289,5.5938
		c-3.5156-0.6328-6.0195-2.1562-7.4434-4.5273c-3.3809-5.6328-6.248-19.0039-2.5918-28.4453
		C38.2734,56.9263,41.6484,53.7661,46.6484,52.2661z M92.4668,106.9927H73.5V94.7573c3.4187-1.2849,9.3169-0.5608,15.0625,0.1494
		c1.5989,0.1973,3.2573,0.397,4.9375,0.5662v11.6228C93.1482,107.0786,92.825,106.9927,92.4668,106.9927z M45.5,102.8242
		c1.4385,0.2263,2.9121,0.3794,4.4316,0.3794c5.1848,0,10.6785-1.3171,15.5684-3.6467v7.5315
		c-7.8347,0.3613-15.3655,4.7258-20,11.095V102.8242z M129.5,30.9927h16v30.4541l-8.6172,4.9756
		c-3.335,1.9246-5.8567,4.8291-7.3828,8.2908V30.9927z M177.5,46.0444c-3.2598-0.0818-6.4905,0.6738-9.3828,2.3428L153.5,56.8274
		V30.9927h24V46.0444z M33.5391,162.9927c-6.6387,0-12.0391-5.3789-12.0391-11.9922V42.9849
		c0-6.6133,5.4004-11.9922,12.0391-11.9922H37.5v16.8958c-3.8472,2.6589-6.7871,6.4119-8.623,11.1511
		c-4.8379,12.4922-0.9551,28.5391,3.1934,35.4531c1.3455,2.2427,3.1863,4.0737,5.4297,5.4814v63.0186H33.5391z M45.5,162.9927
		v-15.8662l20,0.6667v15.1995H45.5z M73.5,162.9927v-14.9329l20,0.6667v14.2661H73.5z M121.5,212.981
		c0,3.3164-2.6914,6.0117-6,6.0117s-6-2.6953-6-6.0117v-41.9883h12V212.981z M129.5,162.9927V89.1826
		c0.2668,0.6064,0.4863,1.2283,0.8223,1.8101c2.4004,4.1562,6.2754,7.1328,10.9141,8.3828c1.4109,0.3818,2.8406,0.564,4.2637,0.5994
		v9.9309c-1.9265,2.1035-3.3955,4.6001-4.1523,7.4385c-1.2363,4.6406-0.5957,9.4883,1.8066,13.6484
		c1.5862,2.7466,3.801,4.8967,6.3457,6.4182v25.5818H129.5z M157.5,162.9927v-23.0784c0.4243,0.0303,0.8467,0.0823,1.2734,0.0823
		c3.043,0,6.125-0.7734,8.9414-2.3984l9.7852-5.6497v31.0442H157.5z M209.5,151.0005c0,6.6133-5.4004,11.9922-12.0391,11.9922H185.5
		v-35.6633l13.4512-7.7664c4.1582-2.3984,7.1289-6.2773,8.3672-10.9219c1.2363-4.6406,0.5938-9.4883-1.8086-13.6484
		c-2.4004-4.1562-6.2754-7.1328-10.9121-8.3828c-3.033-0.8196-6.1384-0.7527-9.0977,0.0059v-6.6963l0.6172-0.3564
		c4.1562-2.3984,7.1289-6.2773,8.3672-10.9219c1.2363-4.6406,0.5957-9.4883-1.8066-13.6484
		c-1.7173-2.9731-4.2117-5.3083-7.1777-6.874v-17.126h11.9609c6.6387,0,12.0391,5.3789,12.0391,11.9922V151.0005z"/>
	<path fill="#68395A" d="M49.5,86.9927c6.6172,0,12-5.3828,12-12s-5.3828-12-12-12s-12,5.3828-12,12S42.8828,86.9927,49.5,86.9927z
		 M49.5,70.9927c2.2051,0,4,1.793,4,4s-1.7949,4-4,4s-4-1.793-4-4S47.2949,70.9927,49.5,70.9927z"/>
</g>
</svg>
