<?xml version="1.0" encoding="utf-8"?>
<!-- Generator: Adobe Illustrator 21.1.0, SVG Export Plug-In . SVG Version: 6.00 Build 0)  -->
<svg version="1.1" id="Laag_1" xmlns="http://www.w3.org/2000/svg" xmlns:xlink="http://www.w3.org/1999/xlink" x="0px" y="0px"
	 viewBox="0 0 621.5 72.2" style="enable-background:new 0 0 621.5 72.2;" xml:space="preserve">
<style type="text/css">
	.st0{fill:#138DFA;}
</style>
<g>
	<path class="st0" d="M99,55.7c-1.3-0.9-2.2-2.1-2.9-3.6c-0.7-1.5-1-3.3-1-5.2V17c0-0.8,0.3-1.5,0.8-2c0.5-0.5,1.2-0.8,2-0.8
		s1.5,0.3,2,0.8c0.5,0.5,0.8,1.2,0.8,2v29.9c0,1.3,0.3,2.5,0.8,3.3c0.5,0.9,1.2,1.3,2,1.3h1.4c0.7,0,1.3,0.3,1.8,0.8
		c0.5,0.5,0.7,1.2,0.7,2c0,0.8-0.3,1.5-1,2c-0.7,0.5-1.6,0.8-2.7,0.8h-0.1C101.7,56.9,100.3,56.5,99,55.7z"/>
	<path class="st0" d="M132.1,28.8c2.3,1.3,4.1,3.2,5.4,5.5c1.3,2.3,2,4.9,2,7.7v12.2c0,0.8-0.3,1.5-0.8,2c-0.5,0.5-1.2,0.8-2,0.8
		s-1.5-0.3-2-0.8c-0.5-0.5-0.8-1.2-0.8-2v-2c-1.3,1.6-2.8,2.8-4.7,3.7c-1.8,0.9-3.8,1.3-5.9,1.3c-2.6,0-5-0.7-7.1-2
		c-2.1-1.3-3.8-3.1-5-5.4c-1.2-2.3-1.8-4.9-1.8-7.7s0.7-5.4,2-7.7c1.3-2.3,3.1-4.1,5.4-5.5c2.3-1.3,4.9-2,7.7-2
		S129.8,27.5,132.1,28.8z M129.4,50.9c1.5-0.9,2.6-2.1,3.5-3.7c0.8-1.5,1.3-3.3,1.3-5.2c0-1.9-0.4-3.7-1.3-5.3
		c-0.8-1.6-2-2.8-3.5-3.7c-1.5-0.9-3.1-1.3-5-1.3c-1.8,0-3.5,0.4-5,1.3c-1.5,0.9-2.6,2.1-3.5,3.7c-0.9,1.6-1.3,3.3-1.3,5.3
		c0,1.9,0.4,3.7,1.3,5.2c0.9,1.6,2,2.8,3.5,3.7s3.1,1.3,5,1.3C126.3,52.2,128,51.8,129.4,50.9z"/>
	<path class="st0" d="M169.5,28.4c2,1.1,3.6,2.7,4.7,4.8c1.1,2.1,1.7,4.6,1.7,7.6v13.5c0,0.8-0.3,1.5-0.8,2c-0.5,0.5-1.2,0.8-2,0.8
		c-0.8,0-1.5-0.3-2-0.8c-0.5-0.5-0.8-1.2-0.8-2V40.8c0-3-0.8-5.2-2.4-6.7c-1.6-1.5-3.7-2.3-6.3-2.3c-1.5,0-2.9,0.3-4.2,0.9
		c-1.3,0.6-2.2,1.5-3,2.5s-1.1,2.2-1.1,3.6v15.4c0,0.8-0.3,1.5-0.8,2c-0.5,0.5-1.2,0.8-2,0.8c-0.8,0-1.5-0.3-2-0.8
		c-0.5-0.5-0.8-1.2-0.8-2V29.8c0-0.8,0.3-1.5,0.8-2c0.5-0.5,1.2-0.8,2-0.8c0.8,0,1.5,0.3,2,0.8c0.5,0.5,0.8,1.2,0.8,2v0.6
		c1.2-1.2,2.6-2.1,4.2-2.7c1.6-0.6,3.3-1,5.1-1C165.3,26.8,167.5,27.3,169.5,28.4z"/>
	<path class="st0" d="M213,15c0.5,0.5,0.8,1.2,0.8,2V42c0,2.8-0.7,5.4-2,7.7c-1.3,2.3-3.1,4.1-5.4,5.5c-2.3,1.3-4.8,2-7.6,2
		s-5.4-0.7-7.7-2c-2.3-1.3-4.1-3.2-5.4-5.5c-1.3-2.3-2-4.9-2-7.7s0.6-5.4,1.8-7.7c1.2-2.3,2.9-4.1,5-5.4c2.1-1.3,4.5-2,7.1-2
		c2.1,0,4.1,0.4,5.9,1.3s3.4,2.1,4.7,3.7V17c0-0.8,0.3-1.5,0.8-2c0.5-0.5,1.2-0.8,2-0.8C211.8,14.2,212.5,14.5,213,15z M203.7,50.9
		c1.5-0.9,2.6-2.1,3.5-3.7c0.8-1.6,1.3-3.3,1.3-5.3c0-1.9-0.4-3.7-1.3-5.2c-0.8-1.5-2-2.8-3.5-3.7c-1.5-0.9-3.1-1.3-5-1.3
		s-3.5,0.4-5,1.3c-1.5,0.9-2.6,2.1-3.5,3.7c-0.9,1.6-1.3,3.3-1.3,5.2c0,1.9,0.4,3.7,1.3,5.3c0.9,1.6,2,2.8,3.5,3.7
		c1.5,0.9,3.1,1.3,5,1.3S202.2,51.8,203.7,50.9z"/>
	<path class="st0" d="M224.4,21.1c-0.7-0.7-1.1-1.6-1.1-2.5c0-1,0.4-1.8,1.1-2.5c0.7-0.7,1.6-1.1,2.5-1.1c1,0,1.8,0.4,2.5,1.1
		c0.7,0.7,1.1,1.6,1.1,2.5c0,1-0.4,1.8-1.1,2.5c-0.7,0.7-1.6,1.1-2.5,1.1C226,22.2,225.1,21.8,224.4,21.1z M225,56.2
		c-0.5-0.5-0.8-1.2-0.8-2V29.8c0-0.8,0.3-1.5,0.8-2c0.5-0.5,1.2-0.8,2-0.8c0.8,0,1.5,0.3,2,0.8c0.5,0.5,0.8,1.2,0.8,2v24.3
		c0,0.8-0.3,1.5-0.8,2c-0.5,0.5-1.2,0.8-2,0.8C226.2,56.9,225.5,56.7,225,56.2z"/>
	<path class="st0" d="M261.8,28.4c2,1.1,3.6,2.7,4.7,4.8c1.1,2.1,1.7,4.6,1.7,7.6v13.5c0,0.8-0.3,1.5-0.8,2c-0.5,0.5-1.2,0.8-2,0.8
		s-1.5-0.3-2-0.8c-0.5-0.5-0.8-1.2-0.8-2V40.8c0-3-0.8-5.2-2.4-6.7c-1.6-1.5-3.7-2.3-6.3-2.3c-1.5,0-2.9,0.3-4.2,0.9
		c-1.3,0.6-2.2,1.5-3,2.5c-0.7,1.1-1.1,2.2-1.1,3.6v15.4c0,0.8-0.3,1.5-0.8,2c-0.5,0.5-1.2,0.8-2,0.8c-0.8,0-1.5-0.3-2-0.8
		c-0.5-0.5-0.8-1.2-0.8-2V29.8c0-0.8,0.3-1.5,0.8-2s1.2-0.8,2-0.8c0.8,0,1.5,0.3,2,0.8s0.8,1.2,0.8,2v0.6c1.2-1.2,2.6-2.1,4.2-2.7
		c1.6-0.6,3.3-1,5.1-1C257.5,26.8,259.8,27.3,261.8,28.4z"/>
	<path class="st0" d="M298.8,28.7c2.3,1.3,4.1,3.1,5.4,5.4c1.3,2.3,1.9,4.9,1.9,7.9v11.8c0,2.9-0.6,5.5-1.9,7.9
		c-1.3,2.4-3.1,4.2-5.4,5.6c-2.3,1.4-4.9,2.1-7.8,2.1c-2.6,0-5.1-0.5-7.3-1.6s-4.2-2.5-5.7-4.5c-0.4-0.5-0.6-1-0.6-1.5
		c0-0.8,0.4-1.4,1.1-2c0.5-0.3,1-0.5,1.5-0.5c0.9,0,1.7,0.4,2.2,1.1c1,1.3,2.2,2.3,3.7,2.9c1.5,0.7,3.2,1,5.1,1
		c1.8,0,3.4-0.4,4.9-1.3c1.5-0.9,2.6-2.1,3.5-3.8c0.9-1.7,1.3-3.6,1.3-5.9v-2.7c-1.1,2-2.6,3.6-4.5,4.7c-1.9,1.1-4,1.7-6.3,1.7
		c-2.7,0-5.1-0.6-7.2-1.9c-2.1-1.3-3.8-3.1-5-5.4s-1.8-4.9-1.8-7.8c0-3,0.6-5.6,1.9-7.9c1.3-2.3,3.1-4.1,5.4-5.4
		c2.3-1.3,4.9-1.9,7.8-1.9C293.9,26.8,296.5,27.5,298.8,28.7z M296,50.9c1.5-0.9,2.6-2.1,3.4-3.6c0.8-1.5,1.2-3.3,1.2-5.3
		c0-2-0.4-3.7-1.2-5.3c-0.8-1.6-2-2.8-3.4-3.7c-1.5-0.9-3.1-1.3-5-1.3c-1.9,0-3.5,0.4-5,1.3c-1.5,0.9-2.6,2.1-3.5,3.7
		c-0.8,1.6-1.3,3.3-1.3,5.3c0,2,0.4,3.7,1.3,5.3c0.8,1.6,2,2.8,3.5,3.6c1.5,0.9,3.1,1.3,5,1.3C292.9,52.2,294.6,51.8,296,50.9z"/>
	<path class="st0" d="M338.4,21.3c-1.2,1.3-1.9,3.1-1.9,5.4v1.5h5.6c0.8,0,1.4,0.2,1.9,0.7c0.5,0.4,0.7,1,0.7,1.8
		c0,0.7-0.2,1.2-0.7,1.6c-0.5,0.4-1.1,0.7-1.9,0.7h-5.6v21.3c0,0.8-0.3,1.5-0.8,2c-0.5,0.5-1.2,0.8-2.1,0.8c-0.7,0-1.4-0.3-1.9-0.8
		s-0.8-1.2-0.8-2V32.8h-2.4c-0.8,0-1.4-0.2-1.9-0.7s-0.7-1-0.7-1.6c0-0.7,0.2-1.3,0.7-1.8c0.5-0.4,1.1-0.7,1.9-0.7h2.4v-0.9
		c0-2.6,0.5-4.9,1.6-6.8c1-2,2.5-3.5,4.4-4.5c1.9-1.1,4-1.6,6.4-1.6c0.8,0,1.5,0.2,2,0.7c0.5,0.5,0.8,1.1,0.8,1.8s-0.3,1.3-0.8,1.8
		s-1.2,0.7-2,0.7C341.3,19.3,339.6,19.9,338.4,21.3z"/>
	<path class="st0" d="M369.7,27.6c1.1,0.6,1.6,1.3,1.6,2.2c0,0.3,0,0.4-0.1,0.5c-0.3,1.2-1.1,1.8-2.2,1.8c-0.2,0-0.5,0-0.8-0.1
		c-1.5-0.3-2.6-0.4-3.6-0.4c-2.6,0-4.7,0.6-6.3,1.8c-1.6,1.2-2.4,2.8-2.4,4.9v16c0,0.9-0.2,1.6-0.7,2c-0.5,0.5-1.1,0.7-2.1,0.7
		c-0.9,0-1.6-0.2-2-0.7c-0.5-0.5-0.7-1.1-0.7-2.1V29.8c0-0.9,0.2-1.5,0.7-2c0.5-0.5,1.1-0.7,2-0.7c1.8,0,2.7,0.9,2.7,2.7v1
		c1.1-1.3,2.4-2.3,4-3c1.6-0.7,3.3-1.1,5.1-1.1C367.1,26.7,368.6,27,369.7,27.6z"/>
	<path class="st0" d="M396.1,28.8c2.3,1.3,4.1,3.2,5.4,5.5c1.3,2.3,2,4.9,2,7.7v12.2c0,0.8-0.3,1.5-0.8,2c-0.5,0.5-1.2,0.8-2,0.8
		c-0.8,0-1.5-0.3-2-0.8c-0.5-0.5-0.8-1.2-0.8-2v-2c-1.3,1.6-2.8,2.8-4.7,3.7c-1.8,0.9-3.8,1.3-5.9,1.3c-2.6,0-5-0.7-7.1-2
		c-2.1-1.3-3.8-3.1-5-5.4c-1.2-2.3-1.8-4.9-1.8-7.7s0.7-5.4,2-7.7c1.3-2.3,3.1-4.1,5.4-5.5c2.3-1.3,4.9-2,7.7-2
		C391.3,26.8,393.8,27.5,396.1,28.8z M393.4,50.9c1.5-0.9,2.6-2.1,3.5-3.7c0.8-1.5,1.3-3.3,1.3-5.2c0-1.9-0.4-3.7-1.3-5.3
		c-0.8-1.6-2-2.8-3.5-3.7c-1.5-0.9-3.1-1.3-5-1.3c-1.8,0-3.5,0.4-5,1.3c-1.5,0.9-2.6,2.1-3.5,3.7c-0.9,1.6-1.3,3.3-1.3,5.3
		c0,1.9,0.4,3.7,1.3,5.2c0.9,1.6,2,2.8,3.5,3.7c1.5,0.9,3.1,1.3,5,1.3C390.3,52.2,391.9,51.8,393.4,50.9z"/>
	<path class="st0" d="M451,29.9c2,2.1,2.9,5,2.9,8.7v15.6c0,0.8-0.3,1.5-0.8,2c-0.5,0.5-1.2,0.8-2,0.8c-0.8,0-1.5-0.3-2-0.8
		c-0.5-0.5-0.8-1.2-0.8-2V38.6c0-2.2-0.6-3.9-1.7-5.1c-1.1-1.1-2.6-1.7-4.5-1.7c-1.9,0-3.5,0.7-4.7,2c-1.2,1.3-1.8,3-1.8,5v15.4
		c0,0.8-0.3,1.5-0.8,2c-0.5,0.5-1.2,0.8-2,0.8c-0.8,0-1.5-0.3-2-0.8c-0.5-0.5-0.8-1.2-0.8-2V38.6c0-2.2-0.6-3.9-1.7-5.1
		c-1.1-1.1-2.6-1.7-4.5-1.7c-1.9,0-3.5,0.7-4.7,2c-1.2,1.3-1.8,3-1.8,5v15.4c0,0.8-0.3,1.5-0.8,2c-0.5,0.5-1.2,0.8-2,0.8
		c-0.8,0-1.5-0.3-2-0.8c-0.5-0.5-0.8-1.2-0.8-2V29.9c0-0.8,0.3-1.5,0.8-2c0.5-0.5,1.2-0.8,2-0.8c0.8,0,1.5,0.2,2,0.7
		c0.5,0.5,0.8,1.1,0.8,1.9c0.9-0.9,2.1-1.7,3.4-2.2c1.3-0.5,2.7-0.8,4.3-0.8c1.9,0,3.5,0.4,5,1.1c1.5,0.7,2.7,1.8,3.6,3.2
		c1.1-1.3,2.5-2.4,4.1-3.2c1.6-0.8,3.5-1.1,5.5-1.1C446.4,26.8,449,27.8,451,29.9z"/>
	<path class="st0" d="M489.3,43.2c-0.5,0.5-1.1,0.7-1.8,0.7h-20.8c0.4,2.6,1.6,4.6,3.5,6.2c1.9,1.6,4.3,2.4,7,2.4
		c1.1,0,2.2-0.2,3.4-0.6c1.2-0.4,2.2-0.9,2.9-1.5c0.5-0.4,1.1-0.6,1.8-0.6c0.7,0,1.2,0.2,1.6,0.5c0.7,0.5,1,1.2,1,1.9
		c0,0.7-0.3,1.2-0.9,1.6c-1.2,1-2.8,1.8-4.6,2.4s-3.6,0.9-5.3,0.9c-3,0-5.7-0.6-8-1.9c-2.4-1.3-4.2-3.1-5.6-5.4
		c-1.3-2.3-2-4.9-2-7.8c0-2.9,0.6-5.5,1.9-7.9c1.3-2.3,3-4.1,5.3-5.4c2.2-1.3,4.8-1.9,7.6-1.9c2.8,0,5.2,0.6,7.3,1.9
		c2,1.2,3.6,3,4.7,5.2c1.1,2.2,1.6,4.8,1.6,7.7C490,42.2,489.8,42.8,489.3,43.2z M469.9,33.7c-1.7,1.5-2.7,3.4-3.1,5.9H485
		c-0.3-2.4-1.2-4.4-2.7-5.9c-1.5-1.5-3.4-2.2-5.9-2.2C473.7,31.5,471.5,32.2,469.9,33.7z"/>
	<path class="st0" d="M529.5,27.6c0.4,0.4,0.6,0.9,0.6,1.6c0,0.6-0.1,1.1-0.3,1.6l-8.1,24.3c-0.2,0.5-0.5,0.9-1,1.3
		c-0.5,0.3-1,0.5-1.6,0.5c-0.6,0-1.2-0.2-1.7-0.5s-0.8-0.8-1-1.3l-5.4-19.9l-5.6,19.9c-0.2,0.5-0.5,0.9-1,1.3s-1,0.5-1.6,0.5
		s-1.1-0.2-1.6-0.5s-0.8-0.8-1-1.3l-8.1-24.3c-0.1-0.5-0.2-1-0.2-1.5c0-1.5,0.8-2.3,2.3-2.3c0.7,0,1.3,0.2,1.7,0.6
		c0.5,0.4,0.8,1,1.1,1.9L503,48l5.6-18.9c0.2-0.6,0.5-1.1,1-1.5c0.5-0.4,1-0.6,1.8-0.6c0.7,0,1.3,0.2,1.7,0.6s0.8,0.9,1,1.5
		l4.9,19.3l6-18.8c0.5-1.7,1.5-2.5,2.8-2.5C528.6,27,529.1,27.2,529.5,27.6z"/>
	<path class="st0" d="M540.5,55.2c-2.3-1.3-4.1-3.1-5.4-5.4c-1.3-2.3-1.9-4.9-1.9-7.8c0-3,0.6-5.6,1.9-7.9c1.3-2.3,3.1-4.1,5.4-5.4
		c2.3-1.3,4.9-1.9,7.8-1.9c2.9,0,5.5,0.6,7.7,1.9c2.3,1.3,4.1,3.1,5.4,5.4c1.3,2.3,1.9,4.9,1.9,7.9c0,2.9-0.6,5.5-1.9,7.8
		c-1.3,2.3-3.1,4.1-5.3,5.4c-2.3,1.3-4.9,1.9-7.8,1.9C545.4,57.2,542.8,56.5,540.5,55.2z M553.3,50.9c1.5-0.9,2.6-2.1,3.4-3.6
		c0.8-1.5,1.2-3.3,1.2-5.3c0-2-0.4-3.7-1.2-5.3c-0.8-1.6-2-2.8-3.4-3.7c-1.5-0.9-3.1-1.3-5-1.3s-3.5,0.4-5,1.3
		c-1.5,0.9-2.6,2.1-3.5,3.7c-0.8,1.6-1.3,3.3-1.3,5.3c0,2,0.4,3.7,1.3,5.3c0.8,1.6,2,2.8,3.5,3.6c1.5,0.9,3.1,1.3,5,1.3
		S551.8,51.8,553.3,50.9z"/>
	<path class="st0" d="M590.9,27.6c1.1,0.6,1.6,1.3,1.6,2.2c0,0.3,0,0.4-0.1,0.5c-0.3,1.2-1.1,1.8-2.2,1.8c-0.2,0-0.5,0-0.8-0.1
		c-1.5-0.3-2.6-0.4-3.6-0.4c-2.6,0-4.7,0.6-6.3,1.8c-1.6,1.2-2.4,2.8-2.4,4.9v16c0,0.9-0.2,1.6-0.7,2c-0.5,0.5-1.1,0.7-2.1,0.7
		c-0.9,0-1.6-0.2-2-0.7c-0.5-0.5-0.7-1.1-0.7-2.1V29.8c0-0.9,0.2-1.5,0.7-2c0.5-0.5,1.1-0.7,2-0.7c1.8,0,2.7,0.9,2.7,2.7v1
		c1.1-1.3,2.4-2.3,4-3c1.6-0.7,3.3-1.1,5.1-1.1C588.3,26.7,589.8,27,590.9,27.6z"/>
	<path class="st0" d="M621.5,54.7c0,0.8-0.3,1.5-1,2c-0.5,0.4-1.1,0.7-1.8,0.7c-0.8,0-1.5-0.3-2-1l-10.4-12.9l-2.7,2.4v8.4
		c0,0.8-0.2,1.5-0.7,1.9c-0.5,0.5-1.1,0.7-1.9,0.7c-0.8,0-1.5-0.2-1.9-0.7s-0.7-1.1-0.7-1.9V16.9c0-0.8,0.2-1.5,0.7-1.9
		s1.1-0.7,1.9-0.7c0.8,0,1.4,0.2,1.9,0.7c0.5,0.5,0.7,1.1,0.7,1.9v22.3l13.3-11.9c0.5-0.5,1-0.7,1.7-0.7c0.8,0,1.4,0.3,1.9,0.9
		c0.5,0.5,0.7,1,0.7,1.7c0,0.8-0.3,1.4-0.9,1.9l-10.1,9l10.6,13C621.3,53.4,621.5,54,621.5,54.7z"/>
</g>
<path class="st0" d="M65.9,72.2c-3.3,0-5.9-2.6-5.9-5.9V35.9c0-7.4-2.1-13.2-6.1-17.2c-6.9-6.8-17.7-6.9-17.9-6.9c0,0-0.1,0-0.1,0
	C32.7,11.8,30,9.2,30,6c0-3.3,2.6-5.9,5.8-6c0.6,0,15.8-0.1,26.3,10.3c6.4,6.3,9.7,14.9,9.7,25.6v30.4
	C71.8,69.5,69.1,72.2,65.9,72.2z"/>
<path class="st0" d="M5.9,0c3.3,0,5.9,2.6,5.9,5.9v30.4c0,7.4,2.1,13.2,6.1,17.2c6.9,6.8,17.7,6.9,17.9,6.9c0,0,0.1,0,0.1,0
	c3.2,0,5.9,2.6,5.9,5.8c0,3.3-2.6,5.9-5.8,6c-0.6,0-15.8,0.1-26.3-10.3C3.2,55.6,0,47,0,36.3V5.9C0,2.6,2.6,0,5.9,0z"/>
<path class="st0" d="M65.9,41.8h-30c-3.3,0-5.9-2.6-5.9-5.9s2.6-5.9,5.9-5.9h30c3.3,0,5.9,2.6,5.9,5.9S69.1,41.8,65.9,41.8z"/>
</svg>
