<?xml version="1.0" encoding="utf-8"?>
<!-- Generator: Adobe Illustrator 21.1.0, SVG Export Plug-In . SVG Version: 6.00 Build 0)  -->
<svg version="1.1" id="Laag_1" xmlns="http://www.w3.org/2000/svg" xmlns:xlink="http://www.w3.org/1999/xlink" x="0px" y="0px"
	 viewBox="0 0 71.8 72.2" style="enable-background:new 0 0 71.8 72.2;" xml:space="preserve">
<style type="text/css">
	.st0{fill:#138DFA;}
</style>
<g>
	<path class="st0" d="M65.9,72.2c-3.3,0-5.9-2.6-5.9-5.9V35.9c0-7.4-2.1-13.2-6.1-17.2c-6.9-6.8-17.7-6.9-17.9-6.9c0,0-0.1,0-0.1,0
		C32.7,11.8,30,9.2,30,6c0-3.3,2.6-5.9,5.8-6c0.6,0,15.8-0.1,26.3,10.3c6.4,6.3,9.7,14.9,9.7,25.6v30.4
		C71.8,69.5,69.1,72.2,65.9,72.2z"/>
	<path class="st0" d="M5.9,0c3.3,0,5.9,2.6,5.9,5.9v30.4c0,7.4,2.1,13.2,6.1,17.2c6.9,6.8,17.7,6.9,17.9,6.9c0,0,0.1,0,0.1,0
		c3.2,0,5.9,2.6,5.9,5.8c0,3.3-2.6,5.9-5.8,6c-0.6,0-15.8,0.1-26.3-10.3C3.2,55.6,0,47,0,36.3V5.9C0,2.6,2.6,0,5.9,0z"/>
	<path class="st0" d="M65.9,41.8h-30c-3.3,0-5.9-2.6-5.9-5.9s2.6-5.9,5.9-5.9h30c3.3,0,5.9,2.6,5.9,5.9S69.1,41.8,65.9,41.8z"/>
</g>
</svg>
