<?xml version="1.0" encoding="utf-8"?>
<!-- Generator: Adobe Illustrator 21.1.0, SVG Export Plug-In . SVG Version: 6.00 Build 0)  -->
<svg version="1.1" id="Laag_1" xmlns="http://www.w3.org/2000/svg" xmlns:xlink="http://www.w3.org/1999/xlink" x="0px" y="0px"
	 viewBox="0 0 365.6 144.6" style="enable-background:new 0 0 365.6 144.6;" xml:space="preserve">
<style type="text/css">
	.st0{fill:#FFFFFF;}
</style>
<g>
	<path class="st0" d="M2.8,135.1c-0.9-0.6-1.6-1.4-2-2.5c-0.5-1.1-0.7-2.3-0.7-3.6v-20.7c0-0.6,0.2-1,0.5-1.4
		c0.4-0.4,0.8-0.5,1.4-0.5c0.6,0,1,0.2,1.4,0.5c0.4,0.4,0.5,0.8,0.5,1.4v20.7c0,0.9,0.2,1.7,0.5,2.3c0.4,0.6,0.8,0.9,1.4,0.9h1
		c0.5,0,0.9,0.2,1.2,0.5s0.5,0.8,0.5,1.4c0,0.6-0.2,1-0.7,1.4c-0.5,0.4-1.1,0.5-1.9,0.5H5.7C4.6,135.9,3.6,135.7,2.8,135.1z"/>
	<path class="st0" d="M25.7,116.4c1.6,0.9,2.8,2.2,3.8,3.8c0.9,1.6,1.4,3.4,1.4,5.4v8.5c0,0.6-0.2,1-0.6,1.4S29.5,136,29,136
		c-0.6,0-1-0.2-1.4-0.6c-0.4-0.4-0.6-0.8-0.6-1.4v-1.4c-0.9,1.1-2,1.9-3.2,2.5c-1.3,0.6-2.6,0.9-4.1,0.9c-1.8,0-3.5-0.5-5-1.4
		c-1.5-0.9-2.6-2.2-3.5-3.8c-0.8-1.6-1.3-3.4-1.3-5.4s0.5-3.8,1.4-5.4c0.9-1.6,2.2-2.9,3.8-3.8s3.4-1.4,5.3-1.4
		C22.4,115,24.2,115.5,25.7,116.4z M23.9,131.7c1-0.6,1.8-1.5,2.4-2.5c0.6-1.1,0.9-2.3,0.9-3.6s-0.3-2.6-0.9-3.6
		c-0.6-1.1-1.4-1.9-2.4-2.6c-1-0.6-2.2-0.9-3.4-0.9c-1.3,0-2.4,0.3-3.4,0.9c-1,0.6-1.8,1.5-2.4,2.6c-0.6,1.1-0.9,2.3-0.9,3.6
		s0.3,2.6,0.9,3.6c0.6,1.1,1.4,1.9,2.4,2.5c1,0.6,2.2,0.9,3.4,0.9C21.7,132.7,22.9,132.4,23.9,131.7z"/>
	<path class="st0" d="M51.7,116.1c1.4,0.8,2.5,1.9,3.3,3.3s1.2,3.2,1.2,5.3v9.3c0,0.6-0.2,1-0.6,1.4s-0.8,0.6-1.4,0.6
		c-0.6,0-1-0.2-1.4-0.6s-0.6-0.8-0.6-1.4v-9.3c0-2.1-0.6-3.6-1.7-4.7c-1.1-1.1-2.6-1.6-4.4-1.6c-1.1,0-2,0.2-2.9,0.6s-1.6,1-2.1,1.7
		c-0.5,0.7-0.7,1.6-0.7,2.5V134c0,0.6-0.2,1-0.5,1.4c-0.4,0.4-0.8,0.6-1.4,0.6c-0.6,0-1-0.2-1.4-0.6c-0.4-0.4-0.6-0.8-0.6-1.4v-16.9
		c0-0.6,0.2-1.1,0.6-1.4c0.4-0.4,0.8-0.5,1.4-0.5c0.6,0,1.1,0.2,1.4,0.5c0.4,0.4,0.5,0.8,0.5,1.4v0.4c0.8-0.8,1.8-1.4,2.9-1.9
		c1.1-0.4,2.3-0.7,3.6-0.7C48.8,115,50.3,115.4,51.7,116.1z"/>
	<path class="st0" d="M81.9,106.8c0.4,0.4,0.5,0.8,0.5,1.4v17.3c0,2-0.5,3.8-1.4,5.4c-0.9,1.6-2.2,2.9-3.8,3.8
		c-1.6,0.9-3.4,1.4-5.3,1.4c-2,0-3.7-0.5-5.3-1.4c-1.6-0.9-2.9-2.2-3.8-3.8c-0.9-1.6-1.4-3.4-1.4-5.4c0-2,0.4-3.8,1.3-5.4
		c0.8-1.6,2-2.9,3.5-3.8c1.5-0.9,3.1-1.4,5-1.4c1.5,0,2.8,0.3,4.1,0.9c1.3,0.6,2.3,1.5,3.2,2.5v-10.3c0-0.6,0.2-1.1,0.6-1.4
		c0.4-0.4,0.8-0.5,1.4-0.5C81.1,106.3,81.6,106.4,81.9,106.8z M75.4,131.7c1-0.6,1.8-1.5,2.4-2.6s0.9-2.3,0.9-3.6s-0.3-2.6-0.9-3.6
		c-0.6-1.1-1.4-1.9-2.4-2.5c-1-0.6-2.2-0.9-3.4-0.9s-2.4,0.3-3.4,0.9c-1,0.6-1.8,1.5-2.4,2.5c-0.6,1.1-0.9,2.3-0.9,3.6
		s0.3,2.6,0.9,3.6c0.6,1.1,1.4,1.9,2.4,2.6c1,0.6,2.2,0.9,3.4,0.9S74.4,132.4,75.4,131.7z"/>
	<path class="st0" d="M89.8,111c-0.5-0.5-0.7-1.1-0.7-1.8c0-0.7,0.2-1.3,0.7-1.8c0.5-0.5,1.1-0.7,1.8-0.7s1.3,0.2,1.8,0.7
		c0.5,0.5,0.7,1.1,0.7,1.8c0,0.7-0.2,1.3-0.7,1.8c-0.5,0.5-1.1,0.7-1.8,0.7S90.3,111.5,89.8,111z M90.2,135.4
		c-0.4-0.4-0.6-0.8-0.6-1.4v-16.9c0-0.6,0.2-1.1,0.6-1.4c0.4-0.4,0.8-0.5,1.4-0.5c0.6,0,1.1,0.2,1.4,0.5c0.4,0.4,0.5,0.8,0.5,1.4
		V134c0,0.6-0.2,1-0.5,1.4c-0.4,0.4-0.8,0.6-1.4,0.6C91.1,135.9,90.6,135.8,90.2,135.4z"/>
	<path class="st0" d="M115.8,116.1c1.4,0.8,2.5,1.9,3.3,3.3s1.2,3.2,1.2,5.3v9.3c0,0.6-0.2,1-0.6,1.4s-0.8,0.6-1.4,0.6
		c-0.6,0-1-0.2-1.4-0.6s-0.6-0.8-0.6-1.4v-9.3c0-2.1-0.6-3.6-1.7-4.7c-1.1-1.1-2.6-1.6-4.4-1.6c-1.1,0-2,0.2-2.9,0.6s-1.6,1-2.1,1.7
		c-0.5,0.7-0.7,1.6-0.7,2.5V134c0,0.6-0.2,1-0.5,1.4c-0.4,0.4-0.8,0.6-1.4,0.6c-0.6,0-1-0.2-1.4-0.6c-0.4-0.4-0.6-0.8-0.6-1.4v-16.9
		c0-0.6,0.2-1.1,0.6-1.4c0.4-0.4,0.8-0.5,1.4-0.5c0.6,0,1.1,0.2,1.4,0.5c0.4,0.4,0.5,0.8,0.5,1.4v0.4c0.8-0.8,1.8-1.4,2.9-1.9
		c1.1-0.4,2.3-0.7,3.6-0.7C112.9,115,114.4,115.4,115.8,116.1z"/>
	<path class="st0" d="M141.5,116.4c1.6,0.9,2.8,2.1,3.7,3.7c0.9,1.6,1.3,3.4,1.3,5.5v8.2c0,2-0.4,3.8-1.3,5.5s-2.1,2.9-3.7,3.9
		c-1.6,1-3.4,1.4-5.5,1.4c-1.8,0-3.5-0.4-5.1-1.1c-1.6-0.7-2.9-1.8-4-3.1c-0.3-0.4-0.4-0.7-0.4-1.1c0-0.5,0.3-1,0.8-1.4
		c0.4-0.2,0.7-0.3,1.1-0.3c0.6,0,1.2,0.3,1.6,0.8c0.7,0.9,1.5,1.6,2.6,2c1,0.5,2.2,0.7,3.5,0.7c1.2,0,2.4-0.3,3.4-0.9
		c1-0.6,1.8-1.5,2.4-2.6c0.6-1.2,0.9-2.5,0.9-4.1v-1.9c-0.8,1.4-1.8,2.5-3.1,3.3c-1.3,0.8-2.7,1.2-4.4,1.2c-1.9,0-3.6-0.5-5-1.3
		c-1.5-0.9-2.6-2.1-3.5-3.7c-0.8-1.6-1.2-3.4-1.2-5.4c0-2.1,0.4-3.9,1.3-5.5c0.9-1.6,2.1-2.8,3.7-3.7s3.4-1.3,5.4-1.3
		C138.1,115,139.9,115.5,141.5,116.4z M139.6,131.8c1-0.6,1.8-1.5,2.4-2.5c0.6-1.1,0.9-2.3,0.9-3.7s-0.3-2.6-0.9-3.7
		c-0.6-1.1-1.4-1.9-2.4-2.5c-1-0.6-2.2-0.9-3.5-0.9c-1.3,0-2.5,0.3-3.5,0.9c-1,0.6-1.8,1.5-2.4,2.5c-0.6,1.1-0.9,2.3-0.9,3.7
		s0.3,2.6,0.9,3.7c0.6,1.1,1.4,1.9,2.4,2.5c1,0.6,2.2,0.9,3.5,0.9C137.4,132.7,138.6,132.4,139.6,131.8z"/>
	<path class="st0" d="M169,111.2c-0.9,0.9-1.3,2.2-1.3,3.7v1h3.9c0.5,0,1,0.2,1.3,0.5c0.3,0.3,0.5,0.7,0.5,1.2
		c0,0.5-0.2,0.8-0.5,1.1c-0.3,0.3-0.8,0.5-1.3,0.5h-3.9V134c0,0.6-0.2,1.1-0.5,1.4c-0.4,0.4-0.8,0.5-1.5,0.5c-0.5,0-0.9-0.2-1.3-0.5
		c-0.4-0.4-0.6-0.8-0.6-1.4v-14.8h-1.6c-0.5,0-1-0.2-1.3-0.5s-0.5-0.7-0.5-1.1c0-0.5,0.2-0.9,0.5-1.2c0.3-0.3,0.8-0.5,1.3-0.5h1.6
		v-0.6c0-1.8,0.4-3.4,1.1-4.7c0.7-1.4,1.7-2.4,3-3.2s2.8-1.1,4.5-1.1c0.6,0,1,0.2,1.4,0.5c0.4,0.3,0.6,0.7,0.6,1.3s-0.2,0.9-0.6,1.3
		c-0.4,0.3-0.8,0.5-1.4,0.5C171,109.8,169.9,110.2,169,111.2z"/>
	<path class="st0" d="M190.8,115.5c0.8,0.4,1.1,0.9,1.1,1.5c0,0.2,0,0.3,0,0.4c-0.2,0.8-0.7,1.2-1.5,1.2c-0.1,0-0.3,0-0.6-0.1
		c-1-0.2-1.8-0.3-2.5-0.3c-1.8,0-3.3,0.4-4.4,1.3c-1.1,0.8-1.7,2-1.7,3.4V134c0,0.6-0.2,1.1-0.5,1.4c-0.3,0.3-0.8,0.5-1.4,0.5
		c-0.6,0-1.1-0.2-1.4-0.5c-0.3-0.3-0.5-0.8-0.5-1.4v-17c0-0.6,0.2-1.1,0.5-1.4c0.3-0.3,0.8-0.5,1.4-0.5c1.3,0,1.9,0.6,1.9,1.9v0.7
		c0.8-0.9,1.7-1.6,2.8-2.1c1.1-0.5,2.3-0.8,3.6-0.8C188.9,114.9,190,115.1,190.8,115.5z"/>
	<path class="st0" d="M209.1,116.4c1.6,0.9,2.8,2.2,3.8,3.8c0.9,1.6,1.4,3.4,1.4,5.4v8.5c0,0.6-0.2,1-0.6,1.4s-0.8,0.6-1.4,0.6
		c-0.6,0-1-0.2-1.4-0.6c-0.4-0.4-0.6-0.8-0.6-1.4v-1.4c-0.9,1.1-2,1.9-3.2,2.5c-1.3,0.6-2.6,0.9-4.1,0.9c-1.8,0-3.5-0.5-5-1.4
		c-1.5-0.9-2.6-2.2-3.5-3.8c-0.8-1.6-1.3-3.4-1.3-5.4s0.5-3.8,1.4-5.4c0.9-1.6,2.2-2.9,3.8-3.8s3.4-1.4,5.3-1.4
		C205.7,115,207.5,115.5,209.1,116.4z M207.2,131.7c1-0.6,1.8-1.5,2.4-2.5c0.6-1.1,0.9-2.3,0.9-3.6s-0.3-2.6-0.9-3.6
		c-0.6-1.1-1.4-1.9-2.4-2.6c-1-0.6-2.2-0.9-3.4-0.9c-1.3,0-2.4,0.3-3.4,0.9c-1,0.6-1.8,1.5-2.4,2.6c-0.6,1.1-0.9,2.3-0.9,3.6
		s0.3,2.6,0.9,3.6c0.6,1.1,1.4,1.9,2.4,2.5c1,0.6,2.2,0.9,3.4,0.9C205.1,132.7,206.2,132.4,207.2,131.7z"/>
	<path class="st0" d="M247.2,117.1c1.4,1.4,2,3.5,2,6V134c0,0.6-0.2,1-0.5,1.4c-0.4,0.4-0.8,0.6-1.4,0.6c-0.6,0-1-0.2-1.4-0.6
		s-0.6-0.8-0.6-1.4v-10.9c0-1.5-0.4-2.7-1.2-3.5c-0.8-0.8-1.8-1.2-3.1-1.2c-1.3,0-2.4,0.5-3.2,1.4c-0.8,0.9-1.3,2.1-1.3,3.5V134
		c0,0.6-0.2,1-0.5,1.4s-0.8,0.6-1.4,0.6c-0.6,0-1-0.2-1.4-0.6s-0.6-0.8-0.6-1.4v-10.9c0-1.5-0.4-2.7-1.2-3.5s-1.8-1.2-3.1-1.2
		c-1.3,0-2.4,0.5-3.3,1.4c-0.8,0.9-1.3,2.1-1.3,3.5V134c0,0.6-0.2,1-0.5,1.4c-0.4,0.4-0.8,0.6-1.4,0.6c-0.6,0-1-0.2-1.4-0.6
		c-0.4-0.4-0.6-0.8-0.6-1.4v-16.9c0-0.6,0.2-1.1,0.6-1.4c0.4-0.4,0.8-0.5,1.4-0.5c0.6,0,1,0.2,1.4,0.5c0.4,0.3,0.5,0.8,0.6,1.3
		c0.7-0.7,1.4-1.2,2.4-1.5s1.9-0.6,3-0.6c1.3,0,2.5,0.3,3.5,0.8c1,0.5,1.9,1.3,2.5,2.2c0.8-0.9,1.7-1.7,2.9-2.2
		c1.1-0.5,2.4-0.8,3.8-0.8C244.1,115,245.8,115.7,247.2,117.1z"/>
	<path class="st0" d="M273.8,126.4c-0.3,0.3-0.7,0.5-1.3,0.5h-14.4c0.3,1.8,1.1,3.2,2.4,4.3c1.3,1.1,3,1.6,4.9,1.6
		c0.8,0,1.6-0.1,2.4-0.4c0.8-0.3,1.5-0.6,2-1c0.4-0.3,0.8-0.4,1.3-0.4c0.5,0,0.9,0.1,1.1,0.4c0.5,0.4,0.7,0.8,0.7,1.3
		c0,0.5-0.2,0.8-0.6,1.1c-0.9,0.7-1.9,1.2-3.2,1.7c-1.3,0.4-2.5,0.6-3.7,0.6c-2.1,0-3.9-0.5-5.6-1.3c-1.6-0.9-2.9-2.1-3.9-3.7
		c-0.9-1.6-1.4-3.4-1.4-5.4c0-2,0.4-3.8,1.3-5.5c0.9-1.6,2.1-2.9,3.6-3.8c1.6-0.9,3.3-1.3,5.3-1.3c2,0,3.6,0.4,5.1,1.3
		c1.4,0.9,2.5,2.1,3.3,3.6c0.8,1.5,1.1,3.3,1.1,5.3C274.3,125.7,274.2,126.1,273.8,126.4z M260.4,119.8c-1.2,1-1.9,2.4-2.2,4.1h12.7
		c-0.2-1.7-0.9-3.1-1.9-4.1c-1-1-2.4-1.5-4.1-1.5C263,118.3,261.5,118.8,260.4,119.8z"/>
	<path class="st0" d="M301.8,115.6c0.3,0.3,0.4,0.7,0.4,1.1c0,0.4-0.1,0.8-0.2,1.1l-5.6,16.9c-0.1,0.4-0.4,0.7-0.7,0.9
		c-0.3,0.2-0.7,0.4-1.1,0.4c-0.4,0-0.8-0.1-1.2-0.4c-0.3-0.2-0.6-0.5-0.7-0.9l-3.7-13.8l-3.9,13.8c-0.1,0.4-0.4,0.7-0.7,0.9
		c-0.3,0.2-0.7,0.4-1.1,0.4c-0.4,0-0.8-0.1-1.1-0.4c-0.3-0.2-0.6-0.5-0.7-0.9l-5.6-16.9c-0.1-0.3-0.2-0.7-0.2-1.1
		c0-1.1,0.5-1.6,1.6-1.6c0.5,0,0.9,0.1,1.2,0.4c0.3,0.3,0.6,0.7,0.8,1.3l4.1,12.8l3.9-13.1c0.1-0.4,0.3-0.8,0.7-1
		c0.3-0.3,0.7-0.4,1.2-0.4c0.5,0,0.9,0.1,1.2,0.4c0.3,0.3,0.5,0.6,0.7,1l3.4,13.4l4.2-13.1c0.4-1.2,1-1.7,2-1.7
		C301.1,115.2,301.5,115.3,301.8,115.6z"/>
	<path class="st0" d="M309.4,134.8c-1.6-0.9-2.8-2.1-3.7-3.7c-0.9-1.6-1.3-3.4-1.3-5.4c0-2.1,0.4-3.9,1.3-5.5
		c0.9-1.6,2.1-2.8,3.7-3.7c1.6-0.9,3.4-1.3,5.4-1.3c2,0,3.8,0.5,5.4,1.3s2.8,2.1,3.7,3.7c0.9,1.6,1.3,3.4,1.3,5.5
		c0,2-0.4,3.8-1.3,5.4c-0.9,1.6-2.1,2.8-3.7,3.7c-1.6,0.9-3.4,1.3-5.4,1.3C312.8,136.1,311,135.7,309.4,134.8z M318.3,131.8
		c1-0.6,1.8-1.5,2.4-2.5c0.6-1.1,0.9-2.3,0.9-3.7s-0.3-2.6-0.9-3.7c-0.6-1.1-1.4-1.9-2.4-2.5c-1-0.6-2.2-0.9-3.5-0.9
		s-2.5,0.3-3.5,0.9c-1,0.6-1.8,1.5-2.4,2.5c-0.6,1.1-0.9,2.3-0.9,3.7s0.3,2.6,0.9,3.7c0.6,1.1,1.4,1.9,2.4,2.5
		c1,0.6,2.2,0.9,3.5,0.9S317.3,132.4,318.3,131.8z"/>
	<path class="st0" d="M344.4,115.5c0.8,0.4,1.1,0.9,1.1,1.5c0,0.2,0,0.3,0,0.4c-0.2,0.8-0.7,1.2-1.5,1.2c-0.1,0-0.3,0-0.6-0.1
		c-1-0.2-1.8-0.3-2.5-0.3c-1.8,0-3.3,0.4-4.4,1.3c-1.1,0.8-1.7,2-1.7,3.4V134c0,0.6-0.2,1.1-0.5,1.4c-0.3,0.3-0.8,0.5-1.4,0.5
		c-0.6,0-1.1-0.2-1.4-0.5c-0.3-0.3-0.5-0.8-0.5-1.4v-17c0-0.6,0.2-1.1,0.5-1.4c0.3-0.3,0.8-0.5,1.4-0.5c1.3,0,1.9,0.6,1.9,1.9v0.7
		c0.8-0.9,1.7-1.6,2.8-2.1c1.1-0.5,2.3-0.8,3.6-0.8C342.6,114.9,343.6,115.1,344.4,115.5z"/>
	<path class="st0" d="M365.6,134.4c0,0.6-0.2,1-0.7,1.4c-0.4,0.3-0.8,0.5-1.2,0.5c-0.6,0-1-0.2-1.4-0.7l-7.2-8.9l-1.9,1.7v5.8
		c0,0.6-0.2,1-0.5,1.3c-0.3,0.3-0.8,0.5-1.3,0.5c-0.6,0-1-0.2-1.3-0.5c-0.3-0.3-0.5-0.8-0.5-1.3v-26c0-0.6,0.2-1,0.5-1.3
		s0.8-0.5,1.3-0.5c0.6,0,1,0.2,1.3,0.5s0.5,0.8,0.5,1.3v15.5l9.2-8.2c0.3-0.3,0.7-0.5,1.2-0.5c0.5,0,1,0.2,1.3,0.6
		c0.3,0.3,0.5,0.7,0.5,1.2c0,0.5-0.2,1-0.6,1.3l-7,6.2l7.4,9C365.5,133.5,365.6,133.9,365.6,134.4z"/>
</g>
<g>
	<path class="st0" d="M212.8,72.2c-3.3,0-5.9-2.6-5.9-5.9V35.9c0-7.4-2.1-13.2-6.1-17.2c-6.9-6.8-17.7-6.9-17.9-6.9c0,0-0.1,0-0.1,0
		c-3.2,0-5.9-2.6-5.9-5.8c0-3.3,2.6-5.9,5.8-6c0.6,0,15.8-0.1,26.3,10.3c6.4,6.3,9.7,14.9,9.7,25.6v30.4
		C218.7,69.5,216.1,72.2,212.8,72.2z"/>
	<path class="st0" d="M152.8,0c3.3,0,5.9,2.6,5.9,5.9v30.4c0,7.4,2.1,13.2,6.1,17.2c6.9,6.8,17.7,6.9,17.9,6.9c0,0,0.1,0,0.1,0
		c3.2,0,5.9,2.6,5.9,5.8c0,3.3-2.6,5.9-5.8,6c-0.6,0-15.8,0.1-26.3-10.3c-6.4-6.3-9.7-14.9-9.7-25.6V5.9C146.9,2.6,149.6,0,152.8,0z
		"/>
	<path class="st0" d="M212.8,41.8h-30c-3.3,0-5.9-2.6-5.9-5.9s2.6-5.9,5.9-5.9h30c3.3,0,5.9,2.6,5.9,5.9S216.1,41.8,212.8,41.8z"/>
</g>
</svg>
