<?xml version="1.0" encoding="utf-8"?>
<svg version="1.1" id="Laag_1" xmlns="http://www.w3.org/2000/svg" xmlns:xlink="http://www.w3.org/1999/xlink" x="0px" y="0px"
	 viewBox="0 0 140 140" width="140x" height="140px" style="enable-background:new 0 0 140 140;" xml:space="preserve">
<style type="text/css">
	.st0{fill:#808184;}
</style>
<path class="st0" d="M70,0C31.4,0,0,31.4,0,70s31.4,70,70,70c38.6,0,70-31.4,70-70S108.6,0,70,0z M70,125.8
	c-30.7,0-55.8-25-55.8-55.8s25-55.8,55.8-55.8s55.8,25,55.8,55.8S100.7,125.8,70,125.8z M37.9,37.9L59,81l43.1,21.1L81,59L37.9,37.9
	z M64.3,75.7L53.5,53.5l22.2,10.9L64.3,75.7z"/>
</svg>
