<?xml version="1.0" encoding="utf-8"?>
<svg version="1.1" id="Laag_1" xmlns="http://www.w3.org/2000/svg" xmlns:xlink="http://www.w3.org/1999/xlink" x="0px" y="0px"
	 viewBox="0 0 265.2 198.4" width="132.6px" height="99.2px" style="enable-background:new 0 0 265.2 198.4;" xml:space="preserve">
<style type="text/css">
	.st0{fill:#2B2422;}
	.st1{fill:#F0F0F1;}
</style>
<g>
	<path class="st0" d="M231.7,99.2c0,8.4-11.6,15.2-13.7,22.9c-2.1,8,4.5,19.7,0.4,26.7c-4.1,7.1-17.6,7.2-23.4,13
		c-5.8,5.8-5.8,19.2-13,23.4c-7,4.1-18.7-2.6-26.7-0.4c-7.7,2.1-14.5,13.7-22.9,13.7c-8.4,0-15.2-11.6-22.9-13.7
		c-8-2.1-19.7,4.5-26.7,0.4c-7.1-4.1-7.2-17.6-13-23.4c-5.8-5.8-19.2-5.8-23.4-13c-4.1-7,2.6-18.7,0.4-26.7
		c-2.1-7.7-13.7-14.5-13.7-22.9C33.3,90.8,45,84,47,76.3c2.1-8-4.5-19.7-0.4-26.7c4.1-7.1,17.6-7.2,23.4-13
		c5.8-5.8,5.8-19.2,13-23.4c7-4.1,18.7,2.6,26.7,0.4C117.4,11.6,124.1,0,132.5,0c8.4,0,15.2,11.6,22.9,13.7c8,2.1,19.7-4.5,26.7-0.4
		c7.1,4.1,7.2,17.6,13,23.4c5.8,5.8,19.2,5.8,23.4,13c4.1,7-2.6,18.7-0.4,26.7C220.1,84.1,231.7,90.8,231.7,99.2z"/>
	<circle class="st1" cx="132.5" cy="99.2" r="87.4"/>
	<g>
		<path class="st0" d="M132.5,183.3c-46.3,0-84-37.7-84-84c0-46.3,37.7-84,84-84c46.3,0,84,37.7,84,84
			C216.6,145.6,178.9,183.3,132.5,183.3z M132.5,39.8c-32.8,0-59.4,26.7-59.4,59.4c0,32.8,26.7,59.4,59.4,59.4
			c32.8,0,59.4-26.7,59.4-59.4C192,66.4,165.3,39.8,132.5,39.8z"/>
	</g>
	<g>
		<path class="st0" d="M264.5,115.6c1.2-1.2,0.8-3.3-0.7-4l-0.1-0.1c-8.3-4.1-18.7-7.9-29.3-10.9l-0.2-0.1l0.8-6.9
			c0.1-1.2-0.6-2.4-1.8-2.7l-0.1,0c-10.2-3-50.9-7-62.1-7.2c-4.4-0.2-16.8-0.7-32.3-0.7c-13.4,0-26,0.3-37.4,0.9
			c-31.9,1.3-63.6,5.6-70,7.1l-0.1,0c-1.3,0.3-2.1,1.5-1.9,2.8l0.6,4.9c0.1,1.2-0.6,2.4-1.8,2.7c-9.3,2.6-17.8,5.9-26.4,10.1
			l-0.1,0.1c-1.5,0.7-1.9,2.8-0.7,4l0.1,0.1c5.6,6,11.2,12.2,16.6,18.4c0.6,0.7,0.8,1.6,0.5,2.4c-3.2,10-6.2,20.1-9,30l-0.1,0.2
			c-0.6,2.1,1.6,4,3.6,3l0.2-0.1c11.8-6,24.9-10.4,39-13.1l1.8-0.3l0,0c1.3-0.2,2.2-1.4,2-2.7l-0.1-0.7l-0.4-3.6
			c-0.1-1.4,0.9-2.6,2.2-2.8c8.8-1,30.9-3,53.4-3.6c7.2-0.3,15.1-0.4,23.4-0.4c19.6,0,34.7,0.8,34.8,0.8l0.3,0
			c4.1,0,28.8,1.9,39.1,3.1c1.4,0.2,2.4,1.4,2.2,2.8l-0.4,3.6l-0.1,0.8c-0.1,1.3,0.8,2.5,2.1,2.7l0.1,0l1.5,0.3
			c14,2.6,27.1,7,39,13.1l0.2,0.1c2,1,4.2-0.8,3.6-3l-0.1-0.2c-2.9-10-6-20.1-9.2-30c-0.3-0.9-0.1-1.8,0.5-2.5
			c5.5-6.2,11.2-12.3,16.9-18.4L264.5,115.6z"/>
		<g>
			<path class="st1" d="M36.5,149.6c-0.1,0-0.3-0.6-0.3-0.9c-1.8-15-3.6-29.9-5.4-44.9c-10.8,2.8-18.9,5.5-28,10
				c6.3,6.8,12.5,13.7,18.6,20.7c-3.5,10.9-6.8,21.8-9.9,32.7c12-6.1,25.3-10.6,39.7-13.3C46.6,152.2,41,151.3,36.5,149.6z"/>
			<path class="st0" d="M52,145.8c-4.5,0.8-8.3,1.6-11.9,2.5c4.3,1.6,8.5,3.2,12.7,4.8C52.5,150.7,52.2,148.2,52,145.8z"/>
			<path class="st0" d="M213.3,145.8c-0.3,2.5-0.5,5-0.8,7.4c4.3-1.7,8.6-3.3,12.9-4.9C221.9,147.4,217.9,146.6,213.3,145.8z"/>
			<path class="st1" d="M52.6,144.3c0.1,0,0.2,0,0.3,0c2.5-0.4,30-3.4,57.7-4.1c27.7-1,55.5,0.2,58.4,0.4c4.2-0.1,38.6,2.6,43.7,3.7
				c0.3,0,0.6,0.1,0.9,0.1c0,0,0,0,0,0c4.6,0.9,9.2,1.8,12.6,2.8c1.8-14.9,3.5-29.7,5.3-44.6c0-0.2,0-0.4,0.1-0.6
				c0.3-2.9,0.7-5.7,1-8.6c-9.7-2.8-49.8-6.9-61.5-7.1c-6.5-0.3-38-1.4-69.5,0.3c-31.5,1.3-62.9,5.4-69.6,7c0.3,2.9,0.7,5.7,1,8.6
				c0,0.2,0,0.4,0.1,0.6c1.8,14.9,3.6,29.8,5.4,44.7C42.9,146.2,47.1,145.2,52.6,144.3C52.6,144.3,52.5,144.3,52.6,144.3z"/>
			<path class="st1" d="M243.6,134.5c6.2-6.9,12.5-13.8,18.9-20.6c-8.8-4.3-19.3-8.1-28.8-10.7c-1.8,14.9-3.6,29.7-5.4,44.6
				c0,0.1,0,0.3,0,0.4c0,0.3-0.3,0.6-0.6,0.7c-4.6,1.7-9.2,3.4-13.7,5.1c14.3,2.7,27.7,7.2,39.7,13.3
				C250.5,156.3,247.2,145.4,243.6,134.5z"/>
		</g>
	</g>
	<g>
		<g>
			<path class="st0" d="M59.9,136.3c-7.3,0.5-11.4-2.2-12.9-3.4c-3.2-2.6-5.6-8.4-6.1-15c-0.7-9,1.7-13.7,3.3-15.8
				c2-2.6,6.5-5.6,13.2-6c7.9-0.5,11.8,2.6,12.2,3c0.6,0.5,2.7,2.6,3.8,6.7c0.1,0.4,0.2,0.8,0.3,1.3c-2.2,1.3-4.5,2.5-6.7,3.8
				c-0.2-0.7-0.4-1.5-0.6-2.2c-0.8-3-2-4.1-2.3-4.3c-2-1.1-4.5-1.2-6.2-1.1c-4.4,0.3-6.4,2-7.1,2.7c-0.4,0.4-2.5,3.1-1.9,11
				c0.6,7.7,2.8,10.1,3,10.3c1.1,1,3.7,2.2,7.5,1.9c4.6-0.3,6.4-2.2,6.4-2.2c0,0,1.1-1.2,1.6-4.4c0.1-0.8,0.3-1.5,0.4-2.3
				c2.3,1.1,4.6,2.2,6.8,3.3c-0.1,0.4-0.1,0.8-0.2,1.3c-0.8,4.5-2.8,6.7-3.6,7.4C70,133.2,66.4,135.9,59.9,136.3z"/>
		</g>
		<g>
			<path class="st0" d="M94.2,134.6c-8.2,0.3-12.2-3-13.6-4.4c-2.9-3-4.5-8.1-4.9-15.2c-0.3-6.8,0.9-11.9,3.6-15.1
				C81,97.9,85,94.7,93,94.4c8.2-0.3,12.5,3.1,13.9,4.5c2.9,3.1,4.4,8.1,4.6,14.9c0.2,9.9-2.5,14.3-4.8,16.4
				C104.8,131.7,100.9,134.4,94.2,134.6z M93.2,101.5c-4.7,0.2-7.1,1.8-7.7,2.7c-1,1.2-2,4.1-1.7,10.6c0.3,7.2,1.7,9.7,2.6,10.6
				c0.7,0.8,3.2,2.3,7.7,2.1c4.5-0.1,6.9-1.8,7.6-2.6c1.4-1.9,2-5.6,1.9-11c-0.2-6.7-1.6-9.4-2.4-10.3
				C100.4,102.8,97.8,101.3,93.2,101.5z"/>
		</g>
		<g>
			<path class="st0" d="M115.9,133.2c-0.2-12.8-0.4-25.7-0.5-38.5c8.3-0.1,16.6-0.1,24.9-0.1c-0.5,2.3-1.1,4.7-1.6,7
				c-5.1,0-10.2,0-15.3,0c0,2.7,0,5.4,0.1,8.1c4.5,0,9.1,0,13.6,0c0,2.3,0,4.7,0,7c-4.5,0-9,0-13.5,0c0,5.5,0.1,10.9,0.1,16.4
				C121.1,133.1,118.5,133.1,115.9,133.2z"/>
		</g>
		<g>
			<path class="st0" d="M142.2,133.1c0.1-12.8,0.2-25.7,0.3-38.5c8.3,0.1,16.6,0.2,24.9,0.5c-0.6,2.3-1.2,4.6-1.7,7
				c-5.1-0.1-10.2-0.3-15.3-0.3c0,2.7-0.1,5.4-0.1,8.1c4.5,0.1,9.1,0.2,13.6,0.3c-0.1,2.3-0.1,4.7-0.2,7c-4.5-0.1-9-0.2-13.5-0.3
				c-0.1,5.5-0.2,10.9-0.3,16.4C147.3,133.1,144.7,133.1,142.2,133.1z"/>
		</g>
		<g>
			<path class="st0" d="M168.4,133.6c0.4-12.8,0.8-25.7,1.2-38.5c8.5,0.3,17,0.6,25.5,1.1c-0.5,2.3-1,4.6-1.5,6.9
				c-5.4-0.3-10.9-0.5-16.4-0.7c-0.1,2.7-0.2,5.4-0.3,8.1c5.1,0.2,10.1,0.4,15.2,0.7c-0.1,2.3-0.2,4.5-0.4,6.8
				c-5-0.3-10-0.5-15.1-0.7c-0.1,3.2-0.3,6.5-0.4,9.7c5.4,0.2,10.7,0.5,16,0.7c0.3,2.3,0.5,4.7,0.8,7
				C184.9,134.2,176.6,133.9,168.4,133.6z"/>
		</g>
		<g>
			<path class="st0" d="M196.7,134.9c0.7-12.8,1.5-25.6,2.2-38.4c8.5,0.5,17,1.1,25.5,1.7c-0.6,2.3-1.1,4.5-1.6,6.8
				c-5.4-0.4-10.9-0.8-16.3-1.2c-0.2,2.7-0.3,5.4-0.5,8.1c5,0.3,10.1,0.7,15.1,1.1c-0.2,2.3-0.3,4.5-0.5,6.8c-5-0.4-10-0.7-15-1.1
				c-0.2,3.2-0.4,6.5-0.6,9.7c5.3,0.3,10.7,0.7,16,1.1c0.2,2.3,0.4,4.7,0.6,7C213.2,135.9,205,135.4,196.7,134.9z"/>
		</g>
	</g>
	<g>
		<path class="st0" d="M98.1,76.7c-0.1,0.9-0.5,1.4-0.7,1.6c-0.2,0.2-0.9,0.8-2.4,0.9c-1.6,0.1-2.5-0.4-2.8-0.7
			c-0.6-0.5-1.2-1.7-1.3-3.3c-0.2-2,0.4-3.1,0.7-3.5c0.3-0.5,1.2-1.2,2.8-1.3c1.5-0.1,2.4,0.4,2.6,0.6c0.2,0.2,0.6,0.6,0.8,1.4
			c-0.3,0.2-0.6,0.3-0.8,0.5c-0.2-0.7-0.5-1.2-0.8-1.3c-0.1-0.1-0.7-0.4-1.7-0.3c-1.2,0.1-1.7,0.5-2,0.8c-0.3,0.3-0.7,1.2-0.6,3
			c0.1,1.7,0.6,2.5,0.9,2.8c0.4,0.4,1.1,0.6,2.1,0.6c1.1-0.1,1.7-0.5,1.8-0.7c0.1-0.1,0.4-0.5,0.5-1.3
			C97.5,76.4,97.8,76.5,98.1,76.7z"/>
		<path class="st0" d="M99.9,70.9c0.3-0.4,1.2-1.1,2.9-1.2c1.7-0.1,2.6,0.5,3,0.9c0.4,0.4,1,1.2,1.1,3.3c0.1,2.3-0.5,3.3-0.9,3.7
			c-0.4,0.4-1.3,1-2.7,1c-1.7,0.1-2.6-0.5-3-0.9c-0.4-0.4-1-1.3-1.1-3.4C99.1,72.2,99.6,71.3,99.9,70.9z M100.7,71.4
			c-0.3,0.3-0.6,1.1-0.4,2.9c0.1,1.8,0.5,2.5,0.8,2.8c0.3,0.3,1,0.7,2.2,0.6c1.2-0.1,1.9-0.5,2.1-0.9c0.2-0.3,0.6-1.1,0.5-2.9
			c-0.1-1.8-0.5-2.4-0.8-2.7c-0.3-0.3-1-0.7-2.2-0.6C101.7,70.6,100.9,71.1,100.7,71.4z"/>
		<path class="st0" d="M109.1,70.4c0.4-0.4,1.2-1.1,2.9-1.2c1.7-0.1,2.6,0.6,3,0.9c0.4,0.4,1,1.3,1,3.3c0.1,2.3-0.6,3.3-1,3.7
			c-0.4,0.4-1.3,0.9-2.7,1c-1.7,0.1-2.6-0.5-3-0.9c-0.4-0.4-1-1.3-1-3.4C108.3,71.7,108.8,70.8,109.1,70.4z M109.9,70.9
			c-0.3,0.3-0.6,1.1-0.5,2.8c0.1,1.8,0.5,2.5,0.7,2.8c0.3,0.3,1,0.7,2.2,0.6c1.2,0,1.9-0.5,2.1-0.8c0.2-0.3,0.6-1.1,0.5-2.9
			c-0.1-1.8-0.4-2.5-0.7-2.8c-0.3-0.3-1-0.7-2.2-0.7C110.9,70.2,110.2,70.6,109.9,70.9z"/>
		<path class="st0" d="M118.1,77.7c-0.1-2.8-0.2-5.7-0.2-8.5c0.3,0,0.7,0,1,0c0.1,2.6,0.1,5.1,0.2,7.7c1.3,0,2.5-0.1,3.8-0.1
			c0,0.3,0,0.6,0,0.8C121.3,77.7,119.7,77.7,118.1,77.7z"/>
		<path class="st0" d="M131.1,69.9c-0.2-0.2-0.6-0.2-1.1-0.2c-0.4,0-0.8,0.1-1,0.4c-0.1,0.2-0.2,0.5-0.2,0.8c0,0.4,0.1,0.8,0.6,1.3
			c1,0.9,2,1.9,3,2.8c0.1-0.5,0.1-1,0.2-1.3c0.3,0.1,0.5,0.1,0.8,0.2c-0.1,0.6-0.1,1.3-0.3,1.7c0.5,0.4,1,0.9,1.5,1.3
			c-0.2,0.2-0.3,0.4-0.5,0.6c0,0-0.1-0.1-1.3-1.1c-0.2,0.7-0.8,0.9-0.8,0.9c0,0-0.5,0.3-2.2,0.3c-1.1,0-2.1-0.1-2.6-0.6
			c-0.4-0.4-0.5-1-0.5-1.9c0-1.7,0.9-2.2,1.9-2.7c-0.5-0.6-0.7-0.9-0.7-1.6c0-0.7,0.2-1.2,0.5-1.5c0.4-0.3,0.9-0.5,1.7-0.5
			c0.8,0,1.4,0.1,1.7,0.4c0.3,0.3,0.7,1.3,0.7,1.3c-0.3,0.1-0.5,0.2-0.8,0.4C131.6,70.9,131.3,70.1,131.1,69.9z M128.9,73
			c-1,0.4-1.3,0.8-1.3,1.9c0,0.7,0.1,1.2,0.3,1.5c0.3,0.3,0.9,0.4,1.8,0.4c1.3,0,1.7-0.2,1.7-0.2s0.4-0.2,0.5-0.8
			C131,74.9,130,74,128.9,73z"/>
		<path class="st0" d="M138.9,69.1c1.7,0,3.3,0,5,0.1c-0.1,0.3-0.1,0.6-0.2,0.9c-1.2,0-2.5,0-3.7-0.1c0,0.9,0,1.9,0,2.8
			c1.1,0,2.2,0,3.3,0.1c0,0.3,0,0.6,0,0.9c-1.1,0-2.2,0-3.3-0.1c0,1.3,0,2.6-0.1,4c-0.3,0-0.7,0-1,0
			C138.8,74.7,138.9,71.9,138.9,69.1z"/>
		<path class="st0" d="M145.4,69.2c0.9,0,1.8,0,2.7,0.1c0.4,0,0.7,0,1.1,0.1c0.7,0.1,1.2,0.2,1.6,0.5c0.5,0.4,0.7,1,0.7,1.8
			c0,0.9-0.2,1.5-0.7,1.9c-0.4,0.3-0.9,0.4-1.6,0.4c0.1,0.1,0.2,0.2,0.3,0.3c0.2,0.2,0.4,0.4,0.6,0.8c0.5,0.9,1,1.8,1.6,2.8
			c-0.3,0.1-0.6,0.2-0.9,0.3c-1-1.8-1.9-3.5-2.4-4c-0.6,0-1.2,0-1.8-0.1c0,1.2-0.1,2.5-0.1,3.7c-0.3,0-0.7,0-1,0
			C145.2,74.9,145.3,72,145.4,69.2z M150.3,71.7c0-0.6-0.1-0.9-0.3-1.2c-0.3-0.3-0.9-0.4-1.8-0.4c-0.6,0-1.2,0-1.8-0.1
			c0,1-0.1,2.1-0.1,3.1c0.5,0,1.1,0,1.6,0c0.3,0,0.5,0,0.8,0c0.6,0,1-0.1,1.3-0.4C150.3,72.6,150.3,72.2,150.3,71.7z"/>
		<path class="st0" d="M153.4,69.4c1.7,0.1,3.4,0.1,5.2,0.2c-0.1,0.3-0.1,0.6-0.2,0.8c-1.3-0.1-2.7-0.1-4-0.2c0,0.9-0.1,1.9-0.1,2.8
			c1.2,0,2.4,0.1,3.6,0.2c0,0.3,0,0.5,0,0.8c-1.2-0.1-2.4-0.1-3.6-0.2c0,1.1-0.1,2.1-0.1,3.2c1.3,0.1,2.6,0.1,3.9,0.2
			c0,0.3,0.1,0.6,0.1,0.8c-1.7-0.1-3.4-0.2-5.1-0.2C153.2,75.1,153.3,72.3,153.4,69.4z"/>
		<path class="st0" d="M159.9,76.5c0.2,0.6,1.3,1.2,2.5,1.3c0.6,0,1.1-0.1,1.4-0.3c0.4-0.3,0.6-0.7,0.6-1.3c0.1-1-0.4-1.4-1.6-1.7
			c-1-0.3-1.7-0.5-2.3-0.9c-0.5-0.4-0.7-1-0.7-1.7c0-0.7,0.3-1.2,0.7-1.5c0.5-0.5,1.4-0.6,2.4-0.6c1.6,0.1,2.4,0.8,2.5,1.1
			c-0.1,0.3-0.3,0.6-0.4,0.9c-0.2-0.3-0.9-1-2.2-1c-0.8,0-1.3,0.1-1.6,0.4c-0.2,0.2-0.3,0.5-0.3,0.8c0,0.9,0.7,1.2,1.8,1.5
			c1.7,0.5,2.9,0.9,2.8,2.8c-0.1,0.9-0.4,1.6-1.1,2c-0.5,0.3-1.2,0.4-2.1,0.4c-1.4-0.1-2.5-0.6-2.8-1.3
			C159.6,77,159.7,76.8,159.9,76.5z"/>
		<path class="st0" d="M167.6,70.2c0.3,0,0.7,0,1,0.1c-0.1,1.2-0.2,2.4-0.2,3.7c1.6,0.1,3.1,0.2,4.7,0.3c0.1-1.2,0.2-2.4,0.3-3.7
			c0.3,0,0.7,0.1,1,0.1c-0.2,2.8-0.4,5.6-0.7,8.5c-0.3,0-0.7-0.1-1-0.1c0.1-1.3,0.2-2.7,0.3-4c-1.6-0.1-3.1-0.2-4.7-0.3
			c-0.1,1.3-0.2,2.7-0.3,4c-0.3,0-0.7,0-1-0.1C167.2,75.9,167.4,73,167.6,70.2z"/>
	</g>
	<g>
		<path class="st1" d="M77.7,48.8c-0.2,0.2-0.5,0.4-0.9,0.4c0.1-0.6-0.2-1.3-0.7-1.7c-0.5-0.4-1.2-0.5-1.9,0.3
			c-0.7,0.8-0.7,1.8,0.1,2.5c2.3,1.9,5.2-1.3,8.5,1.5c2.1,1.7,2.2,4.4,0.2,6.8c-1,1.2-3,3.1-5.1,1.3c-1.4-1.2-1.3-2.8-0.3-4
			c0.6-0.7,1.1-0.9,1.8-0.6c-0.9,1.3-0.8,2.2,0.2,3.1c1,0.8,2.1,0.4,2.6-0.3c1-1.2,0.3-2.5-0.8-3.4c-2.8-2.3-6.1,0.4-8.3-1.5
			c-1.6-1.3-1.3-4.1,0.2-5.8c0.7-0.8,2.2-2.4,3.9-1C78,47,78.3,48,77.7,48.8z"/>
		<path class="st1" d="M81.6,41.5c0,0,0.7,1.2,1.6,2.7l0.8-0.8l0.4,0.7l-0.8,0.8c3.2,5.4,3.3,5.5,3.4,5.6c0.3,0.3,0.6,0.4,1.2-0.1
			c0.6-0.5,0.6-2,0.7-3l0.5-0.4c0,1.3,0.1,4.6-1,5.6c-1.1,1-2.2,1.2-3.2,0.1c-0.7-0.7-2.8-4.4-3.7-5.8l-0.5,0.4l-0.4-0.7l0.5-0.4
			l-1.4-2.3L81.6,41.5z"/>
		<path class="st1" d="M91.8,37.4l2.8,6.1c0.1,0.2,0.2,0.4,0.3,0.5c0.3,0.3,0.6,0.5,1.2,0c0.6-0.5,0.8-1.9,1-2.9l0.5-0.4
			c-0.2,1.2-0.4,4.6-1.6,5.5c-1,0.8-2,0.9-2.8,0.2c0,1-0.2,2.1-1.2,2.8c-1.5,1.1-2.7,0.4-3.4-0.5c-2-2.7-3.4-6.6-0.3-8.9
			c0.4-0.3,0.9-0.4,1.3-0.4L89.6,39L91.8,37.4z M90.5,46.8c0.7,0.9,1.3,0.7,1.7,0.4c0.4-0.3,0.4-0.9,0.4-1.5
			c-0.1-0.2-0.2-0.4-0.3-0.6l-2.2-4.7c-0.4,0-0.7,0.1-1,0.3C88.1,41.5,89,44.7,90.5,46.8z"/>
		<path class="st1" d="M96.8,34.5l0.3,0.9c0.3-0.8,0.8-1.6,1.5-2c0.8-0.4,1.5-0.2,1.8,0.4c0.3,0.6,0.3,1.6-0.5,2
			c-0.9,0.5-1.1-0.8-1.6-0.6c-0.5,0.3-0.7,0.6-0.9,1.2l2.3,7.4l-2.4,1.4l-3-9.4L96.8,34.5z"/>
		<path class="st1" d="M103.5,27.8c0,0,0.3,1.3,0.6,3.1l1.1-0.5l0.2,0.8l-1.1,0.5c1.3,6.1,1.4,6.3,1.4,6.4c0.2,0.4,0.5,0.6,1.2,0.3
			c0.7-0.3,1.2-1.7,1.6-2.6l0.6-0.3c-0.5,1.2-1.4,4.4-2.8,5c-1.4,0.6-2.5,0.4-3-1c-0.4-0.9-1.2-5.1-1.5-6.7l-0.6,0.3l-0.2-0.8
			l0.6-0.3l-0.6-2.7L103.5,27.8z"/>
		<path class="st1" d="M107.5,25.2c0.8-0.3,1.7,0.1,2,0.9c0.3,0.8-0.2,1.7-1,1.9c-0.8,0.3-1.7-0.1-1.9-0.9
			C106.3,26.4,106.7,25.5,107.5,25.2z M109.7,28.8l0.9,6.7c0,0.2,0.1,0.4,0.1,0.6c0.1,0.4,0.4,0.6,1.2,0.4c0.7-0.3,1.3-1.6,1.8-2.4
			l0.6-0.2c-0.5,1.1-1.8,4.3-3.2,4.8c-1.4,0.5-2.5,0.2-3-1.2c-0.1-0.3-0.2-0.6-0.2-1l-0.9-6.7L109.7,28.8z"/>
		<path class="st1" d="M120.3,32.7c0,0.2,0,0.4,0,0.6c0.1,0.4,0.4,0.6,1.1,0.5c0.8-0.2,0.9-0.8,1.5-1.6l0.6-0.1
			c-0.7,1.1-1.6,3.4-3.1,3.8c-1.5,0.3-2.5-0.1-2.8-1.5c-0.1-0.3-0.1-0.6-0.1-1l-0.1-3.5c0-0.2,0-0.4-0.1-0.5c-0.2-0.7-0.6-1-1.1-0.9
			c-0.5,0.1-0.8,0.3-1.1,0.7l0.2,8l-2.7,0.6l-0.2-9.9l2.7-0.6l0,1.1c0.6-0.7,1.4-1.4,2.2-1.6c1-0.2,2.4,0.6,2.7,1.8
			c0,0.2,0.1,0.3,0.1,0.5L120.3,32.7z"/>
		<path class="st1" d="M121.9,33.1c-0.2-2.7,0.4-7.4,4.1-7.7c0.7-0.1,1.3,0.3,1.6,0.8l0.1-0.9l2.8-0.2l-1.4,11.4
			c-0.3,2.8-1.9,3.5-3.2,3.6c-1.2,0.1-2.3-0.6-2.5-1.9c-0.2-1.7,1.2-2.2,3-2.7l0.1-1.1c-0.5,0.5-1.3,0.9-2.1,1
			C122.6,35.5,122,34.2,121.9,33.1z M124.2,32.5c0.1,0.9,0.7,1.2,1.5,1.1c0.4,0,0.7-0.3,1.1-0.7l0.7-5.7c-0.4-0.5-0.9-0.8-1.2-0.7
			C124.4,26.6,124.1,30.9,124.2,32.5z M125.3,38.3c0.4,0,0.9-0.4,1-1.6l0.1-0.6c-1.2,0.3-2,0.6-1.9,1.7
			C124.5,38,124.9,38.3,125.3,38.3z"/>
		<path class="st1" d="M138.5,27c-1.3-0.2-1.9-0.8-1.7-2.2c0.5-2.5,2.9-4.6,7.6-3.7c0.9,0.2,3.1,1.1,5,1.4c0.9,0.2,1.8,0.2,2.4,0
			c-0.6,0.8-1,1.3-2.7,5.6c1-0.5,2-0.9,2.9-0.7c1,0.2,2,1.5,1.8,2.8c0,0.2-0.1,0.3-0.1,0.4l-1.4,3.5c-0.1,0.2-0.2,0.4-0.2,0.6
			c-0.1,0.4,0.1,0.7,0.8,0.9c0.8,0.1,1.9-0.7,2.8-1.2l0.6,0.1c-1,0.7-3.6,2.9-5.1,2.6c-1.5-0.3-2.2-1.1-2-2.5
			c0.1-0.3,0.1-0.6,0.3-0.9l1.3-3.3c0.1-0.2,0.1-0.3,0.1-0.5c0.1-0.7-0.2-1.2-0.7-1.3c-0.5-0.1-1,0-1.5,0.3
			c-0.7,1.8-1.6,4.1-2.8,7.3l-2.7-0.5l4.8-11.6c-0.7-0.2-1.6-0.5-2.4-0.8l-4.9,11.9l-2.7-0.5l5-12.1c-2.1-0.3-4,0.2-4.5,3.2
			C138.3,26.6,138.5,26.8,138.5,27z"/>
		<path class="st1" d="M153.8,34.8c0.9-2.3,3.4-5.9,6.7-4.6c1.5,0.6,2.1,1.5,1.6,2.8c-0.9,2.2-3.7,2.5-5.5,2.1
			c-0.1,0.3-0.3,0.5-0.4,0.8c-0.5,1.2,0,1.8,0.7,2.1c0.8,0.3,1.8,0.1,2.8-0.3c-0.8,1.9-2.5,1.8-4.3,1.1
			C153.6,38.1,153.2,36.4,153.8,34.8z M160.7,31.4c-1-0.4-2.6,1.3-3.7,2.9c1.7,0.6,3.4-0.3,3.9-1.6
			C161.1,32.3,161.2,31.6,160.7,31.4z"/>
		<path class="st1" d="M175.8,35.1l-7.9,7.8c0.2,0.4,0.4,0.7,0.7,0.9c1.9,1.3,5.6-1.9,7.7-5c1.3-2,1.7-3.4-0.2-4.6
			c-2.6-1.7-5.3-1.4-6.9,1.1c-0.5,0.8-0.4,1.1-0.5,1.2c-1.1-0.7-1.5-1.5-0.7-2.7c1.4-2.1,5.7-2.3,8.4-0.5c3.7,2.4,3.3,5.1,1.8,7.4
			c-2.7,4.2-7.3,6.6-9.7,5c-0.6-0.4-1.1-1.1-1.4-2.1l-0.6,0.6l-2.3-1.5l8.9-8.8L175.8,35.1z"/>
		<path class="st1" d="M186.1,47.4l-5.5,3.9c-0.2,0.1-0.3,0.3-0.5,0.4c-0.3,0.3-0.4,0.7,0.2,1.2c0.6,0.5,2,0.4,3,0.5l0.5,0.4
			c-1.3,0.1-4.6,0.5-5.7-0.6c-0.9-0.9-1.2-1.8-0.7-2.7c-1,0.2-2.1,0.2-3-0.6c-1.4-1.3-0.9-2.6-0.1-3.4c2.2-2.4,5.8-4.6,8.7-1.9
			c0.3,0.3,0.6,0.8,0.6,1.2l0.4-0.3L186.1,47.4z M176.6,47.9c-0.8,0.9-0.5,1.4-0.1,1.8c0.3,0.3,0.9,0.3,1.6,0.1
			c0.1-0.1,0.3-0.3,0.5-0.4l4.3-3c0-0.4-0.3-0.7-0.5-0.9C181.3,44.5,178.4,46,176.6,47.9z"/>
		<path class="st1" d="M189.8,51.8l-6,3.1c-0.2,0.1-0.4,0.2-0.5,0.3c-0.3,0.3-0.4,0.6,0.1,1.2c0.3,0.3,0.9,0.5,1.5,0.6l6.5-3.3
			l1.8,2.2L183,61.1c-2.5,1.3-4,0.3-4.8-0.6c-0.7-0.9-0.8-2.3,0.2-3.1c1.4-1.1,2.8-0.3,4.4,0.8l1.2-0.6c-1.2-0.2-2.3-0.5-2.8-1.1
			c-1-1.2-1-2.3,0.1-3.2c0.2-0.2,0.5-0.4,0.8-0.5l5.9-3.1L189.8,51.8z M179.3,59c0.2,0.3,0.9,0.5,1.9-0.1l1-0.5
			c-1.1-0.7-2.1-1-2.9-0.4C179.1,58.2,179,58.7,179.3,59z"/>
	</g>
	<g>
		<path class="st0" d="M130.5,43.6c-2,0.1-4,0.3-6,0.5v19.6c2,0,4,0,6,0V43.6z"/>
		<path class="st0" d="M103.5,64.1c2-0.1,4-0.1,6-0.1V48.5c-3,0.9-4,1.9-6,3V64.1z"/>
		<path class="st0" d="M177.8,64.9c-3-3.8-10.3-7.5-10.3-10.4v10.3"/>
		<path class="st0" d="M119.5,45c-2,0.4-4,1-6,1.6v17.3c2,0,4-0.1,6-0.1V45z"/>
		<path class="st0" d="M141.5,44.1c-2-0.3-4-0.4-6-0.5v20.1c2,0,4,0,6,0V44.1z"/>
		<path class="st0" d="M98.5,54.5c-1,2.9-7.3,6.3-10.3,10.1c3.4-0.1,9.3-0.3,10.3-0.4V54.5z"/>
		<path class="st0" d="M162.5,51.4c-2-1.1-3-2.1-6-3V64c2,0,4,0.1,6,0.1V51.4z"/>
		<path class="st0" d="M152.5,46.6c-2-0.6-4-1.2-6-1.6v18.8c2,0,4,0.1,6,0.1V46.6z"/>
	</g>
</g>
</svg>
