<?xml version="1.0" encoding="utf-8"?>
<svg version="1.1" id="Laag_1" xmlns="http://www.w3.org/2000/svg" xmlns:xlink="http://www.w3.org/1999/xlink" x="0px" y="0px"
	 viewBox="0 0 80 89.3" width="144px" height="160.74px" style="enable-background:new 0 0 80 89.3;" xml:space="preserve">
<style type="text/css">
	.st0{fill:#37B34A;}
</style>
<path class="st0" d="M77.9,37.9c0,0-24-8.3-40.8,8.5c-16.8,16.8-8.5,40.8-8.5,40.8c0,0,24,8.3,40.8-8.5
	C86.3,61.9,77.9,37.9,77.9,37.9z M54.9,64.2c-7.6,7.6-21.4,18.1-21.4,18.1S44,68.5,51.6,60.9C59.2,53.3,73,42.8,73,42.8
	S62.5,56.6,54.9,64.2z M25.6,43.6c0-13.4,3-34.9,3-34.9s3,21.5,3,34.9c0,0.4,0,0.9,0,1.3c0.6-0.7,1.3-1.4,2-2.1
	c6-6,13.5-9.8,22-11.3C49.4,10.1,28.6,0,28.6,0C28.6,0,0,13.9,0,43.6c0,20.9,14.1,33.9,22.5,39.8c-0.7-3.4-1-6.9-1-10.4
	c0-7.2,1.6-13.9,4.5-19.8C25.8,49.9,25.6,46.6,25.6,43.6z"/>
</svg>
