<?xml version="1.0" encoding="utf-8"?>
<svg version="1.1" id="Laag_1" xmlns="http://www.w3.org/2000/svg" xmlns:xlink="http://www.w3.org/1999/xlink" x="0px" y="0px"
	 viewBox="0 0 112 26" width="224px" height="52px" style="enable-background:new 0 0 112 26;" xml:space="preserve">
<style type="text/css">
	.st0{fill:#FFFFFF;}
</style>
<g>
	<path class="st0" d="M39.1,0h3.2v10.9h0.1c0.5-0.9,1.3-1.7,2.3-2.2c0.9-0.5,2.1-0.9,3.2-0.9c2.3,0,6.1,1.4,6.1,7.5v10.4h-3.2v-10
		c0-2.8-1-5.2-4-5.2c-2.1,0-3.7,1.4-4.3,3.2c-0.2,0.4-0.2,0.9-0.2,1.5v10.5h-3.2V0z"/>
	<path class="st0" d="M74.9,16.7c0,6.5-4.5,9.3-8.7,9.3c-4.7,0-8.4-3.5-8.4-9c0-5.8,3.8-9.3,8.7-9.3C71.5,7.8,74.9,11.4,74.9,16.7z
		 M61.1,16.9c0,3.8,2.2,6.7,5.3,6.7c3,0,5.3-2.9,5.3-6.8c0-3-1.5-6.7-5.2-6.7C62.7,10.1,61.1,13.6,61.1,16.9z"/>
	<path class="st0" d="M82.8,3.1v5h4.5v2.4h-4.5V20c0,2.2,0.6,3.4,2.4,3.4c0.8,0,1.4-0.1,1.8-0.2l0.1,2.4c-0.6,0.3-1.6,0.4-2.8,0.4
		c-1.5,0-2.7-0.5-3.4-1.3c-0.9-0.9-1.2-2.5-1.2-4.5v-9.5H77V8.2h2.7V4L82.8,3.1z"/>
	<path class="st0" d="M92.5,17.5c0.1,4.3,2.8,6.1,6,6.1c2.3,0,3.6-0.4,4.8-0.9l0.5,2.3c-1.1,0.5-3,1.1-5.8,1.1
		c-5.4,0-8.6-3.5-8.6-8.8c0-5.3,3.1-9.4,8.2-9.4c5.7,0,7.2,5,7.2,8.2c0,0.7-0.1,1.2-0.1,1.5H92.5z M101.8,15.2c0-2-0.8-5.2-4.4-5.2
		c-3.2,0-4.6,3-4.9,5.2H101.8z"/>
	<path class="st0" d="M108.8,0h3.2v25.6h-3.2V0z"/>
</g>
<path class="st0" d="M24.2,8.1H13.4v9.4H2.7V5.4H0v20.1h2.7v-4h24.2v4h2.7V13.4C29.5,10.5,27.1,8.1,24.2,8.1 M8.1,16.1
	c2.2,0,4-1.8,4-4s-1.8-4-4-4s-4,1.8-4,4S5.8,16.1,8.1,16.1z"/>
</svg>
