<?xml version="1.0" encoding="utf-8"?>
<svg version="1.1" xmlns="http://www.w3.org/2000/svg" xmlns:xlink="http://www.w3.org/1999/xlink" x="0px" y="0px"
	 viewBox="0 0 193.1 58.6" width="193.1px" height="58.6px" style="enable-background:new 0 0 193.1 58.6;" xml:space="preserve">
<style type="text/css">
	.st0{fill:#F44336;}
</style>
<path class="st0" d="M4.4,37.6L0,13.1l12.2,15.6L20,13.1l7.8,15.6L40,13.1l-4.4,24.4H4.4 M35.6,44.2c0,1.2-1,2.2-2.2,2.2H6.7
	c-1.2,0-2.2-1-2.2-2.2V42h31.1V44.2z"/>
<g>
	<path class="st0" d="M68,43.1c-1.5-1.9-2.3-4.3-2.3-7.3V2.2c0-0.7,0.2-1.2,0.6-1.6C66.9,0.2,67.4,0,68,0c0.7,0,1.2,0.2,1.6,0.6
		s0.6,1,0.6,1.6v33.5c0,1.7,0.3,3.1,1,4.1c0.7,1.1,1.6,1.6,2.6,1.6h1.5c0.6,0,1.1,0.2,1.4,0.6c0.4,0.4,0.5,1,0.5,1.6
		c0,0.7-0.2,1.2-0.7,1.6c-0.5,0.4-1.1,0.6-1.9,0.6h-0.8C71.5,45.9,69.6,45,68,43.1z"/>
	<path class="st0" d="M88.7,44.1c-2.5-1.4-4.4-3.4-5.8-5.8c-1.4-2.5-2.1-5.3-2.1-8.4c0-3.1,0.7-5.9,2.1-8.4c1.4-2.5,3.4-4.5,5.8-5.9
		c2.5-1.4,5.3-2.1,8.4-2.1c3.1,0,5.9,0.7,8.3,2.1c2.5,1.4,4.4,3.4,5.8,5.9c1.4,2.5,2.1,5.3,2.1,8.4c0,3.1-0.7,5.9-2.1,8.4
		c-1.4,2.5-3.4,4.4-5.8,5.8c-2.5,1.4-5.3,2.1-8.4,2.1C94,46.2,91.2,45.5,88.7,44.1z M103.2,40.5c1.8-1.1,3.2-2.5,4.2-4.4
		c1-1.9,1.5-3.9,1.5-6.3c0-2.4-0.5-4.5-1.5-6.3c-1-1.9-2.4-3.3-4.2-4.4c-1.8-1.1-3.8-1.6-6.1-1.6c-2.2,0-4.3,0.5-6.1,1.6
		s-3.3,2.5-4.3,4.4c-1,1.9-1.6,4-1.6,6.3c0,2.3,0.5,4.4,1.6,6.3c1,1.9,2.5,3.3,4.3,4.4s3.9,1.6,6.1,1.6
		C99.4,42.1,101.4,41.6,103.2,40.5z"/>
	<path class="st0" d="M145.3,15.5c2.5,1.4,4.4,3.3,5.8,5.8c1.4,2.5,2.1,5.3,2.1,8.5v12c0,3.1-0.7,6-2.1,8.5c-1.4,2.5-3.3,4.6-5.8,6
		c-2.5,1.5-5.3,2.2-8.3,2.2c-3,0-5.7-0.6-8.1-1.7c-2.4-1.1-4.3-2.7-5.9-4.8c-0.4-0.4-0.5-0.8-0.5-1.4c0-0.6,0.3-1.1,0.8-1.5
		c0.4-0.3,0.8-0.4,1.3-0.4c0.4,0,0.7,0.1,1.1,0.3c0.4,0.2,0.6,0.4,0.8,0.7c1.2,1.5,2.7,2.6,4.5,3.5c1.8,0.8,3.8,1.2,6.1,1.2
		c2.2,0,4.2-0.5,6-1.6c1.8-1.1,3.2-2.6,4.2-4.5c1-1.9,1.5-4.2,1.5-6.7V39c-1.2,2.2-2.8,4-5,5.3c-2.2,1.3-4.6,1.9-7.3,1.9
		c-3.1,0-5.8-0.7-8.2-2.1c-2.4-1.4-4.3-3.3-5.6-5.8c-1.4-2.5-2-5.3-2-8.4c0-3.2,0.7-6,2.1-8.5c1.4-2.5,3.4-4.4,5.8-5.8
		c2.5-1.4,5.3-2.1,8.4-2.1C140,13.5,142.9,14.2,145.3,15.5z M143,40.5c1.8-1,3.2-2.5,4.2-4.4c1-1.9,1.5-4,1.5-6.3
		c0-2.4-0.5-4.5-1.5-6.3c-1-1.9-2.4-3.3-4.2-4.4c-1.8-1.1-3.8-1.6-6.1-1.6c-2.3,0-4.4,0.5-6.2,1.6c-1.8,1.1-3.2,2.5-4.2,4.4
		c-1,1.9-1.5,4-1.5,6.3c0,2.4,0.5,4.5,1.5,6.3c1,1.9,2.4,3.3,4.2,4.4c1.8,1,3.9,1.6,6.2,1.6C139.2,42.1,141.2,41.6,143,40.5z"/>
	<path class="st0" d="M168.3,44.1c-2.5-1.4-4.4-3.4-5.8-5.8c-1.4-2.5-2.1-5.3-2.1-8.4c0-3.1,0.7-5.9,2.1-8.4
		c1.4-2.5,3.4-4.5,5.8-5.9c2.5-1.4,5.3-2.1,8.4-2.1c3.1,0,5.9,0.7,8.3,2.1c2.5,1.4,4.4,3.4,5.8,5.9c1.4,2.5,2.1,5.3,2.1,8.4
		c0,3.1-0.7,5.9-2.1,8.4c-1.4,2.5-3.4,4.4-5.8,5.8c-2.5,1.4-5.3,2.1-8.4,2.1C173.6,46.2,170.8,45.5,168.3,44.1z M182.8,40.5
		c1.8-1.1,3.2-2.5,4.2-4.4c1-1.9,1.5-3.9,1.5-6.3c0-2.4-0.5-4.5-1.5-6.3c-1-1.9-2.4-3.3-4.2-4.4c-1.8-1.1-3.8-1.6-6.1-1.6
		c-2.2,0-4.3,0.5-6.1,1.6s-3.3,2.5-4.3,4.4c-1,1.9-1.6,4-1.6,6.3c0,2.3,0.5,4.4,1.6,6.3c1,1.9,2.5,3.3,4.3,4.4s3.9,1.6,6.1,1.6
		C179,42.1,181,41.6,182.8,40.5z"/>
</g>
</svg>
