<?xml version="1.0" encoding="utf-8"?>
<svg version="1.1" id="mic" xmlns="http://www.w3.org/2000/svg" xmlns:xlink="http://www.w3.org/1999/xlink" x="0px" y="0px"
	 viewBox="0 0 209.4 224" width="209.4px" height="224px" style="enable-background:new 0 0 209.4 224;" xml:space="preserve">
<style type="text/css">
	.st0{fill:#FFFFFF;}
</style>
<g>
	<path class="st0" d="M203.6,11.7c-5.2-6.9-13.2-11.1-22.5-11.6c-9-0.6-18.3,2.3-26,8.1c-7.8,5.9-13.2,14.1-15.1,23.1
		c-0.2,1,0,2,0.5,2.9l-9.7,7.3c0,0,0,0,0,0c0,0-0.1,0-0.1,0l-80.7,65.8c-1.7,1.4-2,3.8-0.7,5.5l0,0l-9.6,7.2
		c-1.8,1.3-2.1,3.8-0.8,5.6l2.4,3.2l-28.8,21.7c-0.6,0.4-1,1.1-1.2,1.7c-0.7,0.1-1.4,0.3-2,0.7c-10.6,8-12.7,23-4.7,33.6
		c4.7,6.3,11.9,9.5,19.2,9.5c5,0,10.1-1.6,14.4-4.8c7.1-5.3,17.1-3.9,22.4,3.1c2.6,3.4,3.7,7.6,3.1,11.9c-0.6,4.2-2.8,8-6.2,10.6
		c-1.8,1.3-2.1,3.8-0.8,5.6c0.8,1,2,1.6,3.2,1.6c0.8,0,1.7-0.3,2.4-0.8c10.6-8,12.7-23,4.7-33.6c-8-10.6-23-12.7-33.6-4.7
		c-3.4,2.6-7.6,3.7-11.9,3.1c-4.2-0.6-8-2.8-10.6-6.2c-5.3-7-3.9-17.1,3.1-22.4c0.6-0.4,1-1,1.2-1.7c0.7-0.1,1.4-0.3,2-0.7
		l28.8-21.7l2.4,3.2c0.8,1,2,1.6,3.2,1.6c0.8,0,1.7-0.3,2.4-0.8l9.6-7.2l0,0c0.8,1,2,1.6,3.2,1.6c0.8,0,1.6-0.2,2.3-0.7l85.5-59.4
		c0,0,0,0,0,0c0,0,0.1,0,0.1,0l9.7-7.3c0.7,0.7,1.6,1.2,2.6,1.3c0.9,0.1,1.7,0.1,2.6,0.1c8.3,0,16.7-2.9,23.8-8.2
		c7.7-5.8,13.1-13.9,15-22.8C210.6,27.5,208.8,18.6,203.6,11.7z M52.7,130.5l-4.8-6.4l6.4-4.8l4.8,6.4L52.7,130.5z M153.4,64.6
		l-7.2-9.6l-7.2-9.6l6.4-4.8l14.4,19.2L153.4,64.6z M68,124.1l-9.8-13l74.4-60.7l14.3,18.9L68,124.1z M200.8,34.8
		c-1.5,7-5.8,13.4-12,18.1c-5.7,4.3-12.4,6.6-19,6.6c-0.1,0-0.2,0-0.3,0l-21.3-28.3c1.8-6.4,5.9-12.3,11.7-16.7
		c6.2-4.7,13.6-7,20.7-6.6c6.9,0.4,12.8,3.4,16.6,8.5C201,21.6,202.3,28.1,200.8,34.8z"/>
	<rect x="175.6" y="15.8" transform="matrix(0.7986 -0.6018 0.6018 0.7986 24.2768 112.0923)" class="st0" width="8" height="8"/>
	<rect x="185.3" y="28.5" transform="matrix(0.7986 -0.6018 0.6018 0.7986 18.5281 120.4574)" class="st0" width="8" height="8"/>
	<rect x="167.7" y="31.8" transform="matrix(0.7986 -0.6018 0.6018 0.7986 13.0358 110.5226)" class="st0" width="8" height="8"/>
	<path class="st0" d="M192.6,133.3l-43.4-12.1c-0.7-0.2-1.3-0.1-1.9,0c-2.1,0.1-3.8,1.8-3.8,4v39c-3.3-1.7-7.4-2.8-12-2.8
		c-11.2,0-20,6.1-20,14c0,7.9,8.8,14,20,14c11.2,0,20-6.1,20-14c0-0.4-0.1-0.8-0.2-1.2c0.1-0.3,0.2-0.5,0.2-0.8v-43.2l36,10.1v35.9
		c-3.3-1.7-7.4-2.8-12-2.8c-11.2,0-20,6.1-20,14c0,7.9,8.8,14,20,14c11.2,0,20-6.1,20-14c0-0.4-0.1-0.8-0.2-1.2
		c0.1-0.3,0.2-0.5,0.2-0.8v-48.2C195.5,135.3,194.3,133.7,192.6,133.3z M131.5,181.3c-6.9,0-12-3.2-12-6s5.1-6,12-6
		c6.9,0,12,3.2,12,6S138.4,181.3,131.5,181.3z M175.5,193.3c-6.9,0-12-3.2-12-6s5.1-6,12-6c6.9,0,12,3.2,12,6
		S182.4,193.3,175.5,193.3z"/>
</g>
</svg>
