<?xml version="1.0" encoding="utf-8"?>
<svg version="1.1" id="Laag_1" xmlns="http://www.w3.org/2000/svg" xmlns:xlink="http://www.w3.org/1999/xlink" x="0px" y="0px"
	 viewBox="0 0 406.7 36.3" width="300px" height="27px" style="enable-background:new 0 0 406.7 36.3;" xml:space="preserve">
<style type="text/css">
	.st0{fill:#242424;}
</style>
<g>
	<path class="st0" d="M88.4,29.4h3.2V7.3h-3.2V1h14.2l10.2,25l9.5-25h14.5v6.3h-3.2v22.1h3.2v6.3h-12.9v-6.3h2.4V9.5l-10.4,25.8
		h-6.4L98.8,10.2v19.2h2.6v6.3h-13V29.4z"/>
	<path class="st0" d="M155.9,12h11.2v17.4h2.9v6.3h-10v-2c-0.8,0.7-1.8,1.3-2.8,1.7s-2.3,0.6-3.7,0.6c-1.3,0-2.5-0.2-3.7-0.6
		c-1.2-0.4-2.2-1-3-1.9c-0.9-0.8-1.5-1.9-2-3.1c-0.5-1.2-0.7-2.7-0.7-4.4v-7.7h-3.1V12h10.5v13.9c0,1.6,0.4,2.8,1.2,3.5
		c0.8,0.8,1.9,1.2,3.2,1.2c0.9,0,1.7-0.3,2.5-0.8c0.7-0.6,1.3-1.3,1.6-2.3v-9.3h-3.8V12z"/>
	<path class="st0" d="M188.1,18.2c-0.2-0.3-0.6-0.6-1-0.9c-0.5-0.3-1-0.5-1.7-0.6c-0.7-0.2-1.4-0.2-2.2-0.2c-0.3,0-0.7,0-1,0.1
		c-0.4,0.1-0.7,0.1-1,0.3c-0.3,0.1-0.6,0.3-0.8,0.6c-0.2,0.2-0.3,0.5-0.3,0.9c0,0.2,0,0.4,0.1,0.5c0.1,0.2,0.2,0.3,0.3,0.5
		c0.2,0.2,0.4,0.3,0.6,0.4c0.3,0.1,0.6,0.2,1,0.3l4.3,0.8c1.6,0.3,2.9,0.7,3.9,1.1c1.1,0.5,1.9,1,2.5,1.6c0.6,0.6,1.1,1.3,1.4,2
		c0.3,0.7,0.4,1.6,0.4,2.4c0,1.4-0.3,2.5-0.9,3.6c-0.6,1-1.5,1.9-2.5,2.5s-2.2,1.2-3.5,1.5c-1.3,0.3-2.6,0.5-3.9,0.5
		c-0.9,0-1.6-0.1-2.3-0.2c-0.7-0.1-1.3-0.3-1.9-0.4c-0.6-0.2-1.1-0.4-1.5-0.7c-0.4-0.3-0.8-0.5-1.2-0.8h-4.1v-6.3h6.5v0.1
		c0,0.4,0.2,0.8,0.4,1.2c0.3,0.3,0.6,0.6,1,0.8c0.4,0.2,0.9,0.4,1.4,0.5c0.5,0.1,1.1,0.2,1.7,0.2c1.4,0,2.4-0.2,3-0.5
		c0.6-0.4,0.9-0.8,0.9-1.4c0-0.4-0.2-0.8-0.5-1.1c-0.3-0.3-0.8-0.6-1.6-0.7l-4.4-0.9c-2.8-0.5-4.8-1.4-6.2-2.7
		c-1.4-1.2-2.1-2.8-2.1-4.8c0-1.1,0.3-2.2,0.8-3.1c0.5-0.9,1.3-1.7,2.2-2.4c0.9-0.7,2-1.2,3.2-1.5c1.2-0.4,2.5-0.5,3.9-0.5
		c1,0,1.8,0.1,2.6,0.2c0.7,0.1,1.4,0.3,2,0.4c0.6,0.2,1.1,0.4,1.6,0.7s0.8,0.5,1.2,0.8h4v6.3h-5.9C188.5,18.9,188.3,18.5,188.1,18.2
		z"/>
	<path class="st0" d="M198.5,12h10.6v17.4h3.3v6.3h-13.9v-6.3h3.6V18.2h-3.6V12z M201.7,4.4c0-0.6,0.1-1.1,0.3-1.6
		c0.2-0.5,0.5-0.9,0.9-1.3c0.4-0.4,0.8-0.7,1.3-0.9c0.5-0.2,1-0.3,1.6-0.3c0.5,0,1.1,0.1,1.6,0.3c0.5,0.2,0.9,0.5,1.3,0.9
		c0.4,0.4,0.7,0.8,0.9,1.3c0.2,0.5,0.3,1,0.3,1.6c0,0.6-0.1,1.1-0.3,1.6c-0.2,0.5-0.5,0.9-0.9,1.3c-0.4,0.4-0.8,0.7-1.3,0.9
		c-0.5,0.2-1,0.3-1.6,0.3c-0.6,0-1.1-0.1-1.6-0.3c-0.5-0.2-0.9-0.5-1.3-0.9c-0.4-0.4-0.7-0.8-0.9-1.3C201.8,5.5,201.7,4.9,201.7,4.4
		z"/>
	<path class="st0" d="M234.3,20.2c-0.7-0.8-1.4-1.4-2.2-1.9c-0.8-0.4-1.8-0.6-2.9-0.5c-0.9-0.1-1.7,0.1-2.4,0.4
		c-0.7,0.3-1.3,0.7-1.9,1.3c-0.5,0.5-0.9,1.2-1.2,2c-0.3,0.8-0.4,1.6-0.4,2.5c0,0.8,0.2,1.6,0.5,2.4c0.3,0.7,0.7,1.4,1.2,1.9
		c0.5,0.5,1.1,1,1.9,1.3c0.7,0.3,1.5,0.5,2.4,0.5c0.7-0.1,1.4-0.2,2-0.4c0.6-0.2,1.1-0.5,1.6-0.9c0.5-0.4,0.8-0.8,1.2-1.3
		c0.3-0.5,0.6-0.9,0.8-1.3l6.3,1.7c-0.3,0.9-0.7,1.9-1.3,2.9c-0.6,1-1.5,1.9-2.5,2.7c-1,0.8-2.2,1.5-3.6,2c-1.4,0.5-3,0.8-4.8,0.8
		c-1.8,0-3.5-0.3-5-1c-1.5-0.7-2.8-1.6-3.9-2.7c-1.1-1.1-2-2.5-2.6-4c-0.6-1.5-0.9-3.2-0.9-5c0-1.7,0.3-3.4,0.9-4.9
		c0.6-1.5,1.5-2.8,2.6-3.9c1.1-1.1,2.4-2,4-2.6c1.5-0.6,3.2-0.9,5-0.8c1.3-0.1,2.5,0.1,3.7,0.4c1.2,0.4,2.3,0.9,3.4,1.6h4.5v6.9
		H234.3z"/>
	<path class="st0" d="M270.3,10.8c-0.1-0.5-0.3-1-0.6-1.5c-0.3-0.5-0.7-0.9-1.1-1.2c-0.5-0.3-1-0.6-1.6-0.8s-1.2-0.3-1.8-0.3
		c-0.6,0-1.1,0.1-1.6,0.2c-0.5,0.1-0.9,0.3-1.3,0.6c-0.4,0.3-0.7,0.6-0.9,1c-0.2,0.4-0.3,0.9-0.3,1.4c0,0.7,0.1,1.2,0.4,1.6
		c0.3,0.4,0.7,0.7,1.1,1c0.5,0.3,1,0.5,1.5,0.6c0.6,0.2,1.1,0.3,1.6,0.5l6.3,2.1c0.9,0.3,1.7,0.7,2.4,1.3c0.8,0.5,1.4,1.2,2,1.9
		c0.6,0.8,1,1.6,1.3,2.6s0.5,2.1,0.5,3.3c0,1.7-0.3,3.2-0.9,4.6c-0.6,1.4-1.5,2.6-2.6,3.6c-1.1,1-2.4,1.8-4,2.3
		c-1.6,0.5-3.3,0.8-5.2,0.8c-1.3,0-2.6-0.1-3.8-0.4c-1.2-0.3-2.3-0.7-3.2-1.3c-1-0.6-1.8-1.2-2.6-2c-0.7-0.8-1.3-1.7-1.7-2.7H252
		v-6.9h8.3v1.4c0,0.7,0.1,1.3,0.3,1.9c0.2,0.6,0.6,1.1,1,1.5c0.4,0.4,1,0.8,1.7,1c0.7,0.2,1.5,0.4,2.4,0.4c1.4,0,2.4-0.3,3.1-0.9
		c0.7-0.6,1.1-1.5,1.1-2.6c0-0.6-0.1-1.1-0.4-1.4s-0.6-0.7-1-1c-0.4-0.3-0.8-0.5-1.3-0.7c-0.5-0.2-1-0.4-1.4-0.5l-5.2-1.7
		c-1-0.3-1.9-0.7-2.9-1.3s-1.7-1.2-2.4-2.1c-0.7-0.8-1.3-1.8-1.7-2.9c-0.4-1.1-0.6-2.4-0.6-3.8c0-1.6,0.3-3.1,0.9-4.4
		c0.6-1.3,1.5-2.4,2.6-3.3c1.1-0.9,2.4-1.6,3.9-2c1.5-0.5,3.2-0.7,5-0.7c1.4,0,2.7,0.2,3.9,0.5c1.2,0.3,2.3,0.8,3.2,1.3
		s1.8,1.2,2.4,1.9c0.7,0.7,1.2,1.4,1.5,2.2h2.3v6.9h-8.3V10.8z"/>
	<path class="st0" d="M290.2,12h4.7v6h-4.8l0,10c0,0.6,0,1,0.1,1.4c0.1,0.4,0.2,0.6,0.4,0.9c0.2,0.2,0.4,0.4,0.6,0.4
		c0.2,0.1,0.5,0.1,0.8,0.1c0.6,0,1.1-0.1,1.5-0.2c0.4-0.1,0.9-0.2,1.3-0.4l1,4.4c-0.8,0.5-1.6,0.9-2.6,1.2c-1,0.3-2.1,0.4-3.4,0.4
		c-0.9,0-1.8-0.2-2.7-0.5c-0.8-0.3-1.6-0.8-2.2-1.4c-0.6-0.6-1.1-1.5-1.5-2.4c-0.4-1-0.6-2.1-0.5-3.4l0.1-10.5h-3.4v-6h3.4l0-5.7
		l7.1-3.4L290.2,12z"/>
	<path class="st0" d="M314.2,12h11.2v17.4h2.9v6.3h-10v-2c-0.8,0.7-1.8,1.3-2.8,1.7s-2.3,0.6-3.7,0.6c-1.3,0-2.5-0.2-3.7-0.6
		c-1.2-0.4-2.2-1-3-1.9c-0.9-0.8-1.5-1.9-2-3.1c-0.5-1.2-0.7-2.7-0.7-4.4v-7.7h-3.1V12h10.5v13.9c0,1.6,0.4,2.8,1.2,3.5
		c0.8,0.8,1.9,1.2,3.2,1.2c0.9,0,1.7-0.3,2.5-0.8c0.7-0.6,1.3-1.3,1.6-2.3v-9.3h-3.8V12z"/>
	<path class="st0" d="M345.7,0.1h10.3v29.3h4.6v6.3H349v-0.9c-0.8,0.4-1.7,0.8-2.5,1c-0.9,0.2-1.7,0.4-2.6,0.4c-1.8,0-3.5-0.3-5-1
		c-1.5-0.6-2.8-1.5-3.9-2.7c-1.1-1.1-1.9-2.4-2.5-4c-0.6-1.5-0.9-3.1-0.9-4.9c0-1.7,0.3-3.4,0.9-4.9c0.6-1.5,1.4-2.8,2.5-3.9
		c1.1-1.1,2.4-2,3.9-2.6c1.5-0.6,3.1-1,4.9-1c1,0,1.9,0.1,2.8,0.3c0.9,0.2,1.7,0.5,2.5,0.8v-6h-3.3V0.1z M344.3,29.8
		c1,0,1.9-0.3,2.7-0.8c0.8-0.5,1.5-1.1,2-1.9v-7c-0.5-0.8-1.2-1.4-2.1-1.9c-0.8-0.4-1.7-0.7-2.7-0.7c-0.8,0-1.5,0.1-2.2,0.4
		c-0.7,0.3-1.3,0.7-1.8,1.2c-0.5,0.5-0.9,1.2-1.2,1.9c-0.3,0.7-0.5,1.6-0.5,2.5c0,0.9,0.2,1.8,0.5,2.5c0.3,0.8,0.7,1.4,1.2,1.9
		c0.5,0.5,1.1,0.9,1.8,1.2C342.8,29.6,343.5,29.8,344.3,29.8z"/>
	<path class="st0" d="M363.7,12h10.6v17.4h3.3v6.3h-13.9v-6.3h3.6V18.2h-3.6V12z M366.9,4.4c0-0.6,0.1-1.1,0.3-1.6
		c0.2-0.5,0.5-0.9,0.9-1.3c0.4-0.4,0.8-0.7,1.3-0.9c0.5-0.2,1-0.3,1.6-0.3c0.5,0,1.1,0.1,1.6,0.3c0.5,0.2,0.9,0.5,1.3,0.9
		c0.4,0.4,0.7,0.8,0.9,1.3c0.2,0.5,0.3,1,0.3,1.6c0,0.6-0.1,1.1-0.3,1.6c-0.2,0.5-0.5,0.9-0.9,1.3c-0.4,0.4-0.8,0.7-1.3,0.9
		c-0.5,0.2-1,0.3-1.6,0.3c-0.6,0-1.1-0.1-1.6-0.3c-0.5-0.2-0.9-0.5-1.3-0.9c-0.4-0.4-0.7-0.8-0.9-1.3C367,5.5,366.9,4.9,366.9,4.4z"
		/>
	<path class="st0" d="M381.5,23.7c0-1.7,0.3-3.3,0.9-4.8s1.5-2.8,2.6-3.9c1.1-1.1,2.4-2,4-2.7c1.5-0.7,3.2-1,5.1-1
		c1.8,0,3.5,0.3,5.1,1c1.5,0.7,2.9,1.5,4,2.7c1.1,1.1,2,2.4,2.6,3.9c0.6,1.5,0.9,3.1,0.9,4.8c0,1.7-0.3,3.3-0.9,4.9
		c-0.6,1.5-1.5,2.8-2.6,4c-1.1,1.1-2.4,2-4,2.7c-1.5,0.7-3.3,1-5.1,1c-1.9,0-3.6-0.3-5.2-1c-1.5-0.7-2.9-1.5-4-2.7
		c-1.1-1.1-1.9-2.4-2.5-4C381.8,27.1,381.5,25.5,381.5,23.7z M388.4,23.7c0,0.9,0.2,1.7,0.5,2.5c0.3,0.8,0.7,1.4,1.2,2
		s1.1,1,1.8,1.3c0.7,0.3,1.4,0.5,2.2,0.5c0.8,0,1.6-0.1,2.2-0.4c0.7-0.3,1.3-0.7,1.8-1.3c0.5-0.5,0.9-1.2,1.2-2
		c0.3-0.8,0.4-1.6,0.4-2.5c0-0.9-0.1-1.8-0.4-2.6c-0.3-0.8-0.7-1.4-1.2-1.9c-0.5-0.5-1.1-0.9-1.8-1.2c-0.7-0.3-1.4-0.4-2.2-0.4
		c-0.8,0-1.5,0.1-2.2,0.4c-0.7,0.3-1.3,0.7-1.8,1.2c-0.5,0.5-0.9,1.2-1.2,1.9S388.4,22.8,388.4,23.7z"/>
</g>
<g>
	<path d="M66.9,1.3H6.3C2.8,1.3,0,4.2,0,7.7v21.5c0,3.5,2.8,6.3,6.3,6.3h60.6c3.5,0,6.3-2.8,6.3-6.3V7.7C73.3,4.2,70.4,1.3,66.9,1.3
		z M70.7,29.1c0,2.1-1.7,3.8-3.8,3.8H6.3c-2.1,0-3.8-1.7-3.8-3.8V7.7c0-2.1,1.7-3.8,3.8-3.8h60.6c2.1,0,3.8,1.7,3.8,3.8V29.1z"/>
	<path d="M57.5,6.4c-6.6,0-12,5.4-12,12s5.4,12,12,12c6.6,0,12-5.4,12-12S64.1,6.4,57.5,6.4z M57.5,27.9c-1.2,0-2.4-0.2-3.5-0.7
		l2.9-4.4c0.2,0,0.4,0.1,0.6,0.1c2.4,0,4.4-2,4.4-4.4s-2-4.4-4.4-4.4c-2.4,0-4.4,2-4.4,4.4c0,1.3,0.6,2.5,1.5,3.3l-2.8,4.3
		c-2.3-1.7-3.8-4.5-3.8-7.5c0-5.2,4.2-9.5,9.5-9.5c5.2,0,9.5,4.2,9.5,9.5S62.7,27.9,57.5,27.9z M57.5,20.3c-0.2,0-0.4,0-0.5-0.1
		c-0.1-0.1-0.2-0.1-0.3-0.1c-0.6-0.3-1-0.9-1-1.7c0-1,0.8-1.9,1.9-1.9c1,0,1.9,0.8,1.9,1.9S58.5,20.3,57.5,20.3z"/>
	<path d="M15.8,6.4c-6.6,0-12,5.4-12,12s5.4,12,12,12c6.6,0,12-5.4,12-12S22.4,6.4,15.8,6.4z M15.8,27.9c-5.2,0-9.5-4.2-9.5-9.5
		c0-2.5,1-4.7,2.5-6.4l3.4,3.9c-0.5,0.7-0.8,1.6-0.8,2.6c0,2.4,2,4.4,4.4,4.4c2.4,0,4.4-2,4.4-4.4s-2-4.4-4.4-4.4
		c-0.6,0-1.1,0.1-1.6,0.3l-3.4-3.9c1.5-0.9,3.2-1.4,5-1.4c5.2,0,9.5,4.2,9.5,9.5S21,27.9,15.8,27.9z M15.8,16.5c1,0,1.9,0.8,1.9,1.9
		s-0.9,1.9-1.9,1.9c-1,0-1.9-0.8-1.9-1.9S14.7,16.5,15.8,16.5z"/>
	<path d="M32.8,8.9c-0.7,0-1.3,0.6-1.3,1.3V19h-1.3c-0.7,0-1.3,0.6-1.3,1.3c0,0.7,0.6,1.3,1.3,1.3h1.3v2.6c0,0.7,0.6,1.3,1.3,1.3
		c0.7,0,1.3-0.6,1.3-1.3v-14C34.1,9.5,33.5,8.9,32.8,8.9z"/>
	<path d="M36.6,8.9c-0.7,0-1.3,0.6-1.3,1.3v14c0,0.7,0.6,1.3,1.3,1.3c0.7,0,1.3-0.6,1.3-1.3v-14C37.9,9.5,37.3,8.9,36.6,8.9z"/>
	<path d="M42.9,14h-1.3v-3.8c0-0.7-0.6-1.3-1.3-1.3c-0.7,0-1.3,0.6-1.3,1.3v14c0,0.7,0.6,1.3,1.3,1.3c0.7,0,1.3-0.6,1.3-1.3v-7.6
		h1.3c0.7,0,1.3-0.6,1.3-1.3S43.6,14,42.9,14z"/>
</g>
</svg>
