<?xml version="1.0" encoding="utf-8"?>
<!-- Generator: Adobe Illustrator 19.2.0, SVG Export Plug-In . SVG Version: 6.00 Build 0)  -->
<svg version="1.1" id="heartsignalmonitor" xmlns="http://www.w3.org/2000/svg" xmlns:xlink="http://www.w3.org/1999/xlink" x="0px"
	 y="0px" viewBox="0 0 219.1872 162.6149" enable-background="new 0 0 219.1872 162.6149" xml:space="preserve">
<g>
	<path fill="#FD5A5A" d="M151.2656,100.2244l-12.92-25.2188l-18.2284,53.9628c-0.5488,1.6288-2.0764,2.7208-3.7892,2.7208
		c-0.0292,0-0.0604,0-0.092-0.002c-1.748-0.0392-3.2672-1.2108-3.7516-2.8908L91.83,57.0465L75.3748,96.4996
		c-0.586,1.4044-1.916,2.3556-3.4336,2.4532c-1.5488,0.1092-2.9628-0.6756-3.7208-1.9904l-13.24-22.9176l-16.6036,27.1384
		c25.8964,27.2932,66.4472,57.8516,68.8164,59.6288l2.4004,1.8028l2.4004-1.8028c2.334-1.75,41.7148-31.4336,67.6444-58.412H154.826
		C153.326,102.4001,151.9512,101.5605,151.2656,100.2244z"/>
	<path fill="#FD5A5A" d="M55.1288,62.2205c1.41,0.0176,2.7068,0.7772,3.412,1.998l12.5624,21.7424l17.7288-42.506
		c0.6524-1.5704,2.248-2.5604,3.9216-2.4552c1.6956,0.0976,3.1448,1.256,3.6136,2.8868l20.2656,70.4004l17.164-50.8144
		c0.5136-1.5236,1.8904-2.592,3.494-2.7092c1.5644-0.1228,3.1212,0.7324,3.8556,2.1644l16.1248,31.4724h29.7132
		c7.2184-8.3008,12.582-16.0216,14.4392-22.1736c3.6272-12.0196,0.7092-25.256-8.2148-37.2716
		c-10.7772-14.51-27.8984-23.8848-43.6152-23.8848c-15.584,0-30.166,6.9256-40,18.7676c-9.834-11.842-24.416-18.7676-40-18.7676
		c-15.7168,0-32.838,9.3748-43.6152,23.8848c-8.924,12.0156-11.842,25.252-8.2148,37.2716c1.9024,6.3064,7.5,14.2656,14.998,22.8044
		L51.666,64.1325C52.402,62.9293,53.6872,62.1833,55.1288,62.2205z"/>
	<path fill="#F8A131" d="M215.1872,94.4001h-28.2028h-29.7132l-16.1248-31.4724c-0.7344-1.432-2.2912-2.2872-3.8556-2.1644
		c-1.6036,0.1172-2.9804,1.1856-3.494,2.7092l-17.164,50.8144L96.3672,43.8865c-0.4688-1.6308-1.918-2.7892-3.6136-2.8868
		c-1.6736-0.1052-3.2692,0.8848-3.9216,2.4552l-17.7288,42.506L58.5408,64.2185c-0.7052-1.2208-2.002-1.9804-3.412-1.998
		c-1.4416-0.0372-2.7268,0.7088-3.4628,1.912L32.7616,95.0309l-7.16,11.7012H4c-2.2092,0-4,1.7912-4,4c0,2.2092,1.7908,4,4,4
		h23.8436c1.3924,0,2.6856-0.7244,3.412-1.912l7.1212-11.6368l16.6036-27.1384l13.24,22.9176
		c0.758,1.3148,2.172,2.0996,3.7208,1.9904c1.5176-0.0976,2.8476-1.0488,3.4336-2.4532L91.83,57.0465l20.6544,71.75
		c0.4844,1.68,2.0036,2.8516,3.7516,2.8908c0.0316,0.002,0.0628,0.002,0.092,0.002c1.7128,0,3.2404-1.092,3.7892-2.7208
		l18.2284-53.9628l12.92,25.2188c0.6856,1.336,2.0604,2.1756,3.5604,2.1756h24.8124h35.5488c2.2092,0,4-1.7908,4-4
		C219.1872,96.1913,217.3964,94.4001,215.1872,94.4001z"/>
	<path fill="#FE8657" d="M176.7168,7.6873c14.2616,5.9648,25.5544,17.0392,31.7988,31.1876c0.66,1.496,2.1268,2.3868,3.662,2.3868
		c0.5392,0,1.088-0.1116,1.6132-0.342c2.0216-0.8924,2.9356-3.254,2.0448-5.2752c-7.076-16.0296-19.8728-28.5804-36.0332-35.336
		c-2.0348-0.8476-4.3788,0.1112-5.2324,2.1464C173.7168,4.4921,174.6776,6.8357,176.7168,7.6873z"/>
</g>
</svg>
