<?xml version="1.0" encoding="utf-8"?>
<!-- Generator: Adobe Illustrator 19.2.0, SVG Export Plug-In . SVG Version: 6.00 Build 0)  -->
<svg version="1.1" id="salebanner" xmlns="http://www.w3.org/2000/svg" xmlns:xlink="http://www.w3.org/1999/xlink" x="0px" y="0px"
	 viewBox="0 0 192 184" enable-background="new 0 0 192 184" xml:space="preserve">
<g>
	<rect x="92" y="72" fill="#535353" width="8" height="20"/>
	<path fill="#63B473" d="M192,72V0H0v72h92h8H192z M136,48v-8v-8v-8v-8h8h20v8h-20v8h20v8h-20v8h20v8h-20h-8V48z M100,48V16h8v32h20
		v8h-20h-8V48z M56,24H36v8h12h8v8v8v4v4H28v-8h20v-8H28v-4v-4v-8v-8h8h20V24z M72,40v16h-8V40v-8v-8v-8h8h12h8v8v8v8v16h-8V40H72z"
		/>
	<rect x="72" y="24" fill="#63B473" width="12" height="8"/>
	<polygon fill="#FFE9E1" points="128,56 128,48 108,48 108,16 100,16 100,48 100,56 108,56 	"/>
	<polygon fill="#FFE9E1" points="164,56 164,48 144,48 144,40 164,40 164,32 144,32 144,24 164,24 164,16 144,16 136,16 136,24 
		136,32 136,40 136,48 136,56 144,56 	"/>
	<polygon fill="#FFE9E1" points="28,16 28,24 28,32 28,36 28,40 48,40 48,48 28,48 28,56 56,56 56,52 56,48 56,40 56,32 48,32 
		36,32 36,24 56,24 56,16 36,16 	"/>
	<path fill="#FFE9E1" d="M92,56V40v-8v-8v-8h-8H72h-8v8v8v8v16h8V40h12v16H92z M72,32v-8h12v8H72z"/>
	<path fill="#456782" d="M4,92v92h24v-72h72v72h88V92h-88h-8H4z M144,112h24v36h-24V112z M112,112h24v36h-24V112z"/>
	<path fill="#FE7D71" d="M28,112v72h72v-72H28z M84,152h-8v-8h8V152z"/>
	<rect x="76" y="144" fill="#535353" width="8" height="8"/>
	<rect x="112" y="112" fill="#F8A131" width="24" height="36"/>
	<rect x="144" y="112" fill="#F8A131" width="24" height="36"/>
</g>
</svg>
