<?xml version="1.0" encoding="utf-8"?>
<!-- Generator: Adobe Illustrator 19.2.0, SVG Export Plug-In . SVG Version: 6.00 Build 0)  -->
<svg version="1.1" id="unisex" xmlns="http://www.w3.org/2000/svg" xmlns:xlink="http://www.w3.org/1999/xlink" x="0px" y="0px"
	 viewBox="0 0 224 224" enable-background="new 0 0 224 224" xml:space="preserve">
<g>
	<path fill="#DBEEF7" d="M112,0C50.242,0,0,50.242,0,112s50.242,112,112,112s112-50.242,112-112S173.758,0,112,0z M70,40
		c12.1308,0,22,9.8692,22,22s-9.8692,22-22,22s-22-9.8692-22-22S57.8692,40,70,40z M103.0936,154.5352
		C102.334,155.4628,101.1992,156,100,156H88v12c0,8.8224-7.1776,16-16,16s-16-7.1776-16-16v-12H44
		c-1.1524,0-2.25-0.498-3.0096-1.3652c-0.76-0.8672-1.1076-2.0196-0.9552-3.164l8-60C48.3008,89.4844,49.996,88,52,88h36
		c1.9064,0,3.5488,1.3456,3.922,3.2148l12,60C104.1584,152.3908,103.8536,153.6092,103.0936,154.5352z M150,40
		c12.1308,0,22,9.8692,22,22s-9.8692,22-22,22s-22-9.8692-22-22S137.8692,40,150,40z M163.9004,180.8868
		C163.4864,182.7072,161.8672,184,160,184h-16c-1.8672,0-3.4864-1.2928-3.9004-3.1132l-20-88
		c-0.2696-1.1876,0.0156-2.4316,0.7736-3.3828C121.6328,88.5548,122.7832,88,124,88h56c1.2168,0,2.3672,0.5548,3.1268,1.504
		c0.758,0.9512,1.0432,2.1952,0.7736,3.3828L163.9004,180.8868z"/>
	<path fill="#FE8657" d="M88,88H52c-2.004,0-3.6992,1.4844-3.9648,3.4708l-8,60c-0.1524,1.1444,0.1952,2.2968,0.9552,3.164
		C41.75,155.502,42.8476,156,44,156h12v12c0,8.8224,7.1776,16,16,16s16-7.1776,16-16v-12h12c1.1992,0,2.334-0.5372,3.0936-1.4648
		c0.76-0.926,1.0648-2.1444,0.8284-3.3204l-12-60C91.5488,89.3456,89.9064,88,88,88z"/>
	<path fill="#50CCD3" d="M180,88h-56c-1.2168,0-2.3672,0.5548-3.1268,1.504c-0.758,0.9512-1.0432,2.1952-0.7736,3.3828l20,88
		C140.5136,182.7072,142.1328,184,144,184h16c1.8672,0,3.4864-1.2928,3.9004-3.1132l20-88
		c0.2696-1.1876-0.0156-2.4316-0.7736-3.3828C182.3672,88.5548,181.2168,88,180,88z"/>
	<path fill="#FE8657" d="M70,84c12.1308,0,22-9.8692,22-22s-9.8692-22-22-22s-22,9.8692-22,22S57.8692,84,70,84z"/>
	<path fill="#50CCD3" d="M150,84c12.1308,0,22-9.8692,22-22s-9.8692-22-22-22s-22,9.8692-22,22S137.8692,84,150,84z"/>
</g>
</svg>
