<?xml version="1.0" encoding="utf-8"?>
<!-- Generator: Adobe Illustrator 21.1.0, SVG Export Plug-In . SVG Version: 6.00 Build 0)  -->
<svg version="1.1" xmlns="http://www.w3.org/2000/svg" xmlns:xlink="http://www.w3.org/1999/xlink" x="0px" y="0px"
	 viewBox="0 0 28.8 28.8" style="enable-background:new 0 0 28.8 28.8;" xml:space="preserve">
<style type="text/css">
	.st0{display:none;}
	.st1{display:inline;fill:#FFFFFF;}
	.st2{display:inline;}
	.st3{fill:#FFFFFF;}
</style>
<g id="Laag_1">
	<circle cx="14.4" cy="14.4" r="14.4"/>
</g>
<g id="Laag_3" class="st0">
	<path class="st1" d="M14.4,17.9c-1.9,0-3.5-1.6-3.5-3.5s1.6-3.5,3.5-3.5s3.5,1.6,3.5,3.5S16.3,17.9,14.4,17.9 M21.8,15.3
		c0-0.3,0.1-0.6,0.1-1s0-0.7-0.1-1l2.1-1.6c0.2-0.1,0.2-0.4,0.1-0.6l-2-3.5c-0.1-0.2-0.4-0.3-0.6-0.2l-2.5,1c-0.5-0.4-1.1-0.7-1.7-1
		l-0.4-2.7c0-0.2-0.3-0.4-0.5-0.4h-4c-0.3,0-0.5,0.2-0.5,0.4l-0.4,2.7c-0.6,0.3-1.2,0.6-1.7,1l-2.5-1c-0.2-0.1-0.5,0-0.6,0.2l-2,3.5
		c-0.1,0.2-0.1,0.5,0.1,0.6l2.1,1.6c0,0.3-0.1,0.7-0.1,1s0,0.6,0.1,1L4.8,17c-0.2,0.1-0.3,0.4-0.1,0.6l2,3.5
		c0.1,0.2,0.4,0.3,0.6,0.2l2.5-1c0.5,0.4,1.1,0.7,1.7,1l0.4,2.6c0,0.2,0.3,0.4,0.5,0.4h4c0.3,0,0.5-0.2,0.5-0.4l0.4-2.6
		c0.6-0.3,1.2-0.6,1.7-1l2.5,1c0.2,0.1,0.5,0,0.6-0.2l2-3.5c0.1-0.2,0.1-0.5-0.1-0.6L21.8,15.3z"/>
</g>
<g id="Laag_2" class="st0">
	<path class="st1" d="M10.9,15.9l2.5,3l3.5-4.5l4.5,6h-14 M23.4,21.4v-14c0-1.1-0.9-2-2-2h-14c-1.1,0-2,0.9-2,2v14c0,1.1,0.9,2,2,2
		h14C22.5,23.4,23.4,22.5,23.4,21.4z"/>
</g>
<g id="Laag_4" class="st0">
	<path class="st1" d="M18.4,8.4h-3v1.9h3c2.3,0,4.1,1.8,4.1,4.1c0,2.3-1.8,4.1-4.1,4.1l0,0h-3v1.9h3c3.3,0,6-2.7,6-6
		C24.4,11.1,21.7,8.4,18.4,8.4 M6.3,14.4c0-2.3,1.8-4.1,4.1-4.1h3V8.4h-3c-3.3,0-6,2.7-6,6s2.7,6,6,6h3v-1.9h-3
		C8.1,18.5,6.3,16.6,6.3,14.4 M10.4,15.4h8v-2h-8V15.4z"/>
</g>
<g id="Laag_5" class="st0">
	<path class="st2" d="M14.4,18.8l7.4-5.7l1.6-1.3l-9-7l-9,7L7,13.1 M14.4,21.4L7,15.7l-1.6,1.3l9,7l9-7l-1.6-1.3L14.4,21.4z"/>
</g>
<g id="Laag_6">
	<path class="st3" d="M14.4,18.4c1.1,0,2,0.9,2,2s-0.9,2-2,2s-2-0.9-2-2S13.3,18.4,14.4,18.4 M14.4,12.4c1.1,0,2,0.9,2,2s-0.9,2-2,2
		s-2-0.9-2-2S13.3,12.4,14.4,12.4 M14.4,6.4c1.1,0,2,0.9,2,2s-0.9,2-2,2s-2-0.9-2-2S13.3,6.4,14.4,6.4z"/>
</g>
</svg>
