<?xml version="1.0" encoding="utf-8"?>
<!-- Generator: Adobe Illustrator 21.1.0, SVG Export Plug-In . SVG Version: 6.00 Build 0)  -->
<svg version="1.1" xmlns="http://www.w3.org/2000/svg" xmlns:xlink="http://www.w3.org/1999/xlink" x="0px" y="0px"
	 viewBox="0 0 28.8 28.8" style="enable-background:new 0 0 28.8 28.8;" xml:space="preserve">
<style type="text/css">
	.st0{display:none;}
	.st1{display:inline;fill:#FFFFFF;}
	.st2{display:inline;}
	.st3{fill:#FFFFFF;}
</style>
<g id="Laag_1">
	<circle cx="14.4" cy="14.4" r="14.4"/>
</g>
<g id="Laag_3" class="st0">
	<path class="st1" d="M14.4,17.9c-1.9,0-3.5-1.6-3.5-3.5s1.6-3.5,3.5-3.5s3.5,1.6,3.5,3.5S16.3,17.9,14.4,17.9 M21.8,15.3
		c0-0.3,0.1-0.6,0.1-1s0-0.7-0.1-1l2.1-1.6c0.2-0.1,0.2-0.4,0.1-0.6l-2-3.5c-0.1-0.2-0.4-0.3-0.6-0.2l-2.5,1c-0.5-0.4-1.1-0.7-1.7-1
		l-0.4-2.7c0-0.2-0.3-0.4-0.5-0.4h-4c-0.3,0-0.5,0.2-0.5,0.4l-0.4,2.7c-0.6,0.3-1.2,0.6-1.7,1l-2.5-1c-0.2-0.1-0.5,0-0.6,0.2l-2,3.5
		c-0.1,0.2-0.1,0.5,0.1,0.6l2.1,1.6c0,0.3-0.1,0.7-0.1,1s0,0.6,0.1,1L4.8,17c-0.2,0.1-0.3,0.4-0.1,0.6l2,3.5
		c0.1,0.2,0.4,0.3,0.6,0.2l2.5-1c0.5,0.4,1.1,0.7,1.7,1l0.4,2.6c0,0.2,0.3,0.4,0.5,0.4h4c0.3,0,0.5-0.2,0.5-0.4l0.4-2.6
		c0.6-0.3,1.2-0.6,1.7-1l2.5,1c0.2,0.1,0.5,0,0.6-0.2l2-3.5c0.1-0.2,0.1-0.5-0.1-0.6L21.8,15.3z"/>
</g>
<g id="Laag_2" class="st0">
	<path class="st1" d="M10.9,15.9l2.5,3l3.5-4.5l4.5,6h-14 M23.4,21.4v-14c0-1.1-0.9-2-2-2h-14c-1.1,0-2,0.9-2,2v14c0,1.1,0.9,2,2,2
		h14C22.5,23.4,23.4,22.5,23.4,21.4z"/>
</g>
<g id="Laag_4" class="st0">
	<path class="st1" d="M18.4,8.4h-3v1.9h3c2.3,0,4.1,1.8,4.1,4.1c0,2.3-1.8,4.1-4.1,4.1l0,0h-3v1.9h3c3.3,0,6-2.7,6-6
		C24.4,11.1,21.7,8.4,18.4,8.4 M6.3,14.4c0-2.3,1.8-4.1,4.1-4.1h3V8.4h-3c-3.3,0-6,2.7-6,6s2.7,6,6,6h3v-1.9h-3
		C8.1,18.5,6.3,16.6,6.3,14.4 M10.4,15.4h8v-2h-8V15.4z"/>
</g>
<g id="Laag_5" class="st0">
	<path class="st2" d="M14.4,18.8l7.4-5.7l1.6-1.3l-9-7l-9,7L7,13.1 M14.4,21.4L7,15.7l-1.6,1.3l9,7l9-7l-1.6-1.3L14.4,21.4z"/>
</g>
<g id="Laag_6" class="st0">
	<path class="st2" d="M14.4,18.4c1.1,0,2,0.9,2,2s-0.9,2-2,2s-2-0.9-2-2S13.3,18.4,14.4,18.4 M14.4,12.4c1.1,0,2,0.9,2,2s-0.9,2-2,2
		s-2-0.9-2-2S13.3,12.4,14.4,12.4 M14.4,6.4c1.1,0,2,0.9,2,2s-0.9,2-2,2s-2-0.9-2-2S13.3,6.4,14.4,6.4z"/>
</g>
<g id="Laag_7" class="st0">
	<path class="st1" d="M18.4,14.4c0-1.1,0.9-2,2-2s2,0.9,2,2s-0.9,2-2,2S18.4,15.5,18.4,14.4 M12.4,14.4c0-1.1,0.9-2,2-2s2,0.9,2,2
		s-0.9,2-2,2S12.4,15.5,12.4,14.4 M6.4,14.4c0-1.1,0.9-2,2-2s2,0.9,2,2s-0.9,2-2,2S6.4,15.5,6.4,14.4z"/>
</g>
<g id="Laag_8" class="st0">
	<path class="st1" d="M23.4,18.9c0,0.4-0.2,0.7-0.5,0.9l-7.9,4.4c-0.2,0.1-0.4,0.2-0.6,0.2s-0.4-0.1-0.6-0.2l-7.9-4.4
		c-0.3-0.2-0.5-0.5-0.5-0.9v-9c0-0.4,0.2-0.7,0.5-0.9l7.9-4.4c0.2-0.1,0.4-0.2,0.6-0.2s0.4,0.1,0.6,0.2L22.8,9
		c0.3,0.2,0.5,0.5,0.5,0.9V18.9 M14.4,6.5l-6,3.3l6,3.4l6-3.4L14.4,6.5 M7.4,18.3l6,3.4V15l-6-3.4V18.3 M21.4,18.3v-6.7l-6,3.4v6.7
		L21.4,18.3z"/>
</g>
<g id="Laag_9" class="st0">
	<path class="st2" d="M17.8,5.9V11h0.9l-1.8,4.3h-0.6l-1.9-2.6V8.4H9.3v5.1H10l-1.7,4.3H5.9v5.1H11v-5.1h-0.8l1.7-4.3h1l1.5,2v4.8
		h5.1v-5.1h-0.7l1.8-4.3h2.3V5.9 M19.5,7.6h1.7v1.7h-1.7 M11,10.1h1.7v1.7H11 M16.1,16.9h1.7v1.7h-1.7 M7.6,19.5h1.7v1.7H7.6"/>
</g>
<g id="Laag_10" class="st0">
	<path class="st1" d="M14.4,13.4c0.6,0,1,0.4,1,1s-0.4,1-1,1s-1-0.4-1-1S13.8,13.4,14.4,13.4 M6.6,6.6c1.4-1.4,4.5-0.8,7.8,1.3
		c3.3-2.1,6.4-2.8,7.8-1.3c1.4,1.4,0.8,4.5-1.3,7.8c2.1,3.3,2.8,6.4,1.3,7.8c-1.4,1.4-4.5,0.8-7.8-1.3c-3.3,2.1-6.3,2.8-7.8,1.3
		c-1.4-1.4-0.8-4.5,1.3-7.8C5.8,11.1,5.2,8,6.6,6.6 M17.9,10.8c0.6,0.6,1.2,1.3,1.7,1.9c1.4-2.1,1.9-4,1.1-4.7
		C20,7.3,18.2,7.8,16,9.1C16.7,9.7,17.3,10.2,17.9,10.8 M10.8,17.9c-0.6-0.6-1.2-1.3-1.7-1.9c-1.4,2.1-1.9,4-1.1,4.7
		c0.7,0.8,2.6,0.3,4.7-1.1C12.1,19.1,11.5,18.5,10.8,17.9 M8,8c-0.8,0.7-0.3,2.6,1.1,4.7c0.5-0.6,1.1-1.3,1.7-1.9
		c0.6-0.6,1.3-1.2,1.9-1.7C10.6,7.8,8.8,7.3,8,8 M12.3,16.5c0.7,0.7,1.4,1.3,2.1,1.9c0.7-0.6,1.4-1.2,2.1-1.9
		c0.7-0.7,1.3-1.4,1.9-2.1c-0.6-0.7-1.2-1.4-1.9-2.1c-0.7-0.7-1.4-1.3-2.1-1.9c-0.7,0.6-1.4,1.2-2.1,1.9s-1.3,1.4-1.9,2.1
		C10.9,15.1,11.6,15.8,12.3,16.5 M20.7,20.7c0.8-0.7,0.3-2.6-1.1-4.7c-0.5,0.6-1.1,1.3-1.7,1.9c-0.6,0.6-1.3,1.2-1.9,1.7
		C18.2,21,20,21.5,20.7,20.7z"/>
</g>
<g id="Laag_11" class="st0">
	<path class="st1" d="M17.4,5.4V10L10,17.4H5.4v6h6v-4.6l7.4-7.4h4.6v-6 M19.4,7.4h2v2h-2 M7.4,19.4h2v2h-2"/>
</g>
<g id="Laag_12" class="st0">
	<path class="st1" d="M21.2,11l-6.9,4.3L7.5,11V9.2l6.9,4.3l6.9-4.3 M21.2,7.5H7.5c-1,0-1.7,0.8-1.7,1.7v10.3c0,0.9,0.8,1.7,1.7,1.7
		h13.7c0.9,0,1.7-0.8,1.7-1.7V9.2C22.9,8.3,22.2,7.5,21.2,7.5z"/>
</g>
<g id="Laag_13">
	<path class="st3" d="M20.4,11.4h-2v-2h2 M20.4,15.4h-2v-2h2 M20.4,19.4h-2v-2h2 M10.4,11.4h-2v-2h2 M10.4,15.4h-2v-2h2 M10.4,19.4
		h-2v-2h2 M20.4,5.4v2h-2v-2h-8v2h-2v-2h-2v18h2v-2h2v2h8v-2h2v2h2v-18H20.4z"/>
</g>
</svg>
