<?xml version="1.0" encoding="utf-8"?>
<!-- Generator: Adobe Illustrator 21.1.0, SVG Export Plug-In . SVG Version: 6.00 Build 0)  -->
<svg version="1.1" xmlns="http://www.w3.org/2000/svg" xmlns:xlink="http://www.w3.org/1999/xlink" x="0px" y="0px"
	 viewBox="0 0 28.8 28.8" style="enable-background:new 0 0 28.8 28.8;" xml:space="preserve">
<style type="text/css">
	.st0{fill:#FFFFFF;}
	.st1{display:none;}
	.st2{display:inline;}
</style>
<g id="Laag_1">
	<circle class="st0" cx="14.4" cy="14.4" r="14.4"/>
</g>
<g id="Laag_3" class="st1">
	<path class="st2" d="M14.4,17.9c-1.9,0-3.5-1.6-3.5-3.5s1.6-3.5,3.5-3.5s3.5,1.6,3.5,3.5S16.3,17.9,14.4,17.9 M21.8,15.3
		c0-0.3,0.1-0.6,0.1-1s0-0.7-0.1-1l2.1-1.6c0.2-0.1,0.2-0.4,0.1-0.6l-2-3.5c-0.1-0.2-0.4-0.3-0.6-0.2l-2.5,1c-0.5-0.4-1.1-0.7-1.7-1
		l-0.4-2.7c0-0.2-0.3-0.4-0.5-0.4h-4c-0.3,0-0.5,0.2-0.5,0.4l-0.4,2.7c-0.6,0.3-1.2,0.6-1.7,1l-2.5-1c-0.2-0.1-0.5,0-0.6,0.2l-2,3.5
		c-0.1,0.2-0.1,0.5,0.1,0.6l2.1,1.6c0,0.3-0.1,0.7-0.1,1s0,0.6,0.1,1L4.8,17c-0.2,0.1-0.3,0.4-0.1,0.6l2,3.5
		c0.1,0.2,0.4,0.3,0.6,0.2l2.5-1c0.5,0.4,1.1,0.7,1.7,1l0.4,2.6c0,0.2,0.3,0.4,0.5,0.4h4c0.3,0,0.5-0.2,0.5-0.4l0.4-2.6
		c0.6-0.3,1.2-0.6,1.7-1l2.5,1c0.2,0.1,0.5,0,0.6-0.2l2-3.5c0.1-0.2,0.1-0.5-0.1-0.6L21.8,15.3z"/>
</g>
<g id="Laag_2">
	<path d="M10.9,15.9l2.5,3l3.5-4.5l4.5,6h-14 M23.4,21.4v-14c0-1.1-0.9-2-2-2h-14c-1.1,0-2,0.9-2,2v14c0,1.1,0.9,2,2,2h14
		C22.5,23.4,23.4,22.5,23.4,21.4z"/>
</g>
</svg>
