<?xml version="1.0" encoding="utf-8"?>
<svg version="1.1" id="antenna" xmlns="http://www.w3.org/2000/svg" xmlns:xlink="http://www.w3.org/1999/xlink" x="0px" y="0px"
	 viewBox="0 0 214.6274 217.94" width="100px" height="100px" enable-background="new 0 0 214.6274 217.94" xml:space="preserve">
<g>
	<polygon fill="#FFFFFF" points="117.6292,101.936 112.7808,85.936 102.7144,85.936 97.866,101.936 	"/>
	<circle fill="#D0E8FF" cx="107.7476" cy="49.936" r="8"/>
	<polygon fill="#5CB0FF" points="81.3608,157.936 75.189,177.936 140.5718,177.936 134.5698,157.936 	"/>
	<polygon fill="#FFFFFF" points="95.4417,109.936 83.3208,149.936 132.1743,149.936 120.0535,109.936 	"/>
	<path fill="#1C71DA" d="M107.7476,65.936c8.8223,0,16-7.1777,16-16s-7.1777-16-16-16s-16,7.1777-16,16
		S98.9253,65.936,107.7476,65.936z M107.7476,41.936c4.4121,0,8,3.5879,8,8s-3.5879,8-8,8s-8-3.5879-8-8
		S103.3354,41.936,107.7476,41.936z"/>
	<path fill="#1C71DA" d="M133.1421,81.0981c0.7812,0.7852,1.8066,1.1777,2.834,1.1777c1.0214,0,2.043-0.3887,2.8223-1.166
		c8.3496-8.3164,12.9492-19.3867,12.9492-31.1719c0-11.5156-4.418-22.4043-12.4414-30.6621c-1.541-1.582-4.0703-1.6191-5.6562-0.082
		c-1.584,1.5391-1.6211,4.0723-0.082,5.6562c6.5645,6.7578,10.1797,15.666,10.1797,25.0879c0,9.6426-3.7617,18.6992-10.5938,25.5039
		C131.5874,77.0004,131.5835,79.5336,133.1421,81.0981z"/>
	<path fill="#1C71DA" d="M79.7476,82.2758c1.0254,0,2.0527-0.3926,2.834-1.1777c1.5586-1.5645,1.5547-4.0977-0.0117-5.6562
		c-6.832-6.8047-10.5938-15.8613-10.5938-25.5039c0-9.4219,3.6152-18.3301,10.1797-25.0879c1.5391-1.584,1.502-4.1172-0.082-5.6562
		c-1.584-1.541-4.1172-1.5-5.6562,0.082c-8.0234,8.2578-12.4414,19.1465-12.4414,30.6621c0,11.7852,4.5996,22.8555,12.9492,31.1719
		C77.7046,81.8872,78.7261,82.2758,79.7476,82.2758z"/>
	<path fill="#1C71DA" d="M153.3589,99.1626c0.7812,0.7852,1.8066,1.1777,2.834,1.1777c1.0215,0,2.043-0.3887,2.8223-1.166
		c13.2305-13.1777,20.5156-30.7168,20.5156-49.3887c0-18.2402-7-35.4902-19.7109-48.5723c-1.541-1.584-4.0703-1.6191-5.6562-0.082
		c-1.584,1.5391-1.6211,4.0723-0.082,5.6562c11.252,11.582,17.4492,26.8516,17.4492,42.998
		c0,16.5293-6.4492,32.0547-18.1602,43.7207C151.8042,95.0649,151.8003,97.5981,153.3589,99.1626z"/>
	<path fill="#1C71DA" d="M59.5308,100.3403c1.0254,0,2.0527-0.3926,2.834-1.1777c1.5586-1.5645,1.5547-4.0977-0.0117-5.6562
		c-11.7109-11.666-18.1602-27.1914-18.1602-43.7207c0-16.1465,6.1973-31.416,17.4492-42.998c1.5391-1.584,1.502-4.1172-0.082-5.6562
		c-1.584-1.541-4.1172-1.502-5.6562,0.082c-12.7109,13.082-19.7109,30.332-19.7109,48.5723
		c0,18.6719,7.2852,36.2109,20.5156,49.3887C57.4878,99.9516,58.5093,100.3403,59.5308,100.3403z"/>
	<path fill="#1C71DA" d="M118.7144,77.936H96.7808L55.9194,212.7758c-0.6406,2.1152,0.5547,4.3477,2.668,4.9883
		c2.1191,0.6484,4.3496-0.5527,4.9883-2.668l8.8362-29.1602h70.6714l8.8362,29.1602c0.5234,1.7266,2.1094,2.8418,3.8262,2.8418
		c0.3848,0,0.7754-0.0566,1.1621-0.1738c2.1133-0.6406,3.3086-2.873,2.668-4.9883L118.7144,77.936z M112.7808,85.936l4.8484,16
		H97.866l4.8484-16H112.7808z M75.189,177.936l6.1719-20h53.209l6.002,20H75.189z M83.3208,149.936l12.1208-40h24.6118l12.1208,40
		H83.3208z"/>
</g>
<path fill="#FF5D5D" d="M192,169.7597c-1.0239,0-2.0474-0.3906-2.8286-1.1714c-1.562-1.5625-1.562-4.0947,0-5.6572l14.1421-14.1421
	c1.5625-1.5615,4.0947-1.5615,5.6572,0c1.562,1.5625,1.562,4.0947,0,5.6572l-14.1421,14.1421
	C194.0474,169.3691,193.0239,169.7597,192,169.7597z"/>
<path fill="#FF5D5D" d="M206.1421,169.7583c-1.0239,0-2.0474-0.3906-2.8286-1.1714l-14.1421-14.1426
	c-1.562-1.5625-1.562-4.0952,0-5.6572c1.5635-1.5615,4.0957-1.561,5.6572,0l14.1421,14.1426c1.562,1.5625,1.562,4.0952,0,5.6572
	C208.1895,169.3676,207.1655,169.7583,206.1421,169.7583z"/>
<path fill="#00D40B" d="M14,189.7597c-7.7197,0-14-6.2803-14-14s6.2803-14,14-14s14,6.2803,14,14S21.7197,189.7597,14,189.7597z
	 M14,169.7597c-3.3086,0-6,2.6914-6,6s2.6914,6,6,6s6-2.6914,6-6S17.3086,169.7597,14,169.7597z"/>
<path fill="#FFC504" d="M199.3135,48.3852c-1.0239,0-2.0474-0.3906-2.8286-1.1714l-11.3135-11.3135
	c-1.562-1.5625-1.562-4.0947,0-5.6572l11.3135-11.3135c1.5625-1.5615,4.0952-1.5615,5.6567,0l11.314,11.3135
	c0.7505,0.7505,1.1719,1.7676,1.1719,2.8286s-0.4214,2.0781-1.1719,2.8286l-11.314,11.3135
	C201.3608,47.9946,200.3369,48.3852,199.3135,48.3852z M193.6567,33.0717l5.6567,5.6567l5.6572-5.6567l-5.6572-5.6567
	L193.6567,33.0717z"/>
</svg>
