<?xml version="1.0" encoding="utf-8"?>
<svg version="1.1" id="attachmentadd" xmlns="http://www.w3.org/2000/svg" xmlns:xlink="http://www.w3.org/1999/xlink" x="0px"
	 y="0px" viewBox="0 0 231.8828 202.3201" width="100px" height="100px" enable-background="new 0 0 231.8828 202.3201" xml:space="preserve">
<g>
	<path fill="#5CB0FF" d="M118.7695,98.3201c24.2617,0,44-19.7383,44-44s-19.7383-44-44-44s-44,19.7383-44,44
		S94.5078,98.3201,118.7695,98.3201z M90.7695,50.3201h24v-24c0-2.209,1.7891-4,4-4s4,1.791,4,4v24h24c2.2109,0,4,1.791,4,4
		s-1.7891,4-4,4h-24v24c0,2.209-1.7891,4-4,4s-4-1.791-4-4v-24h-24c-2.2109,0-4-1.791-4-4S88.5586,50.3201,90.7695,50.3201z"/>
	<path fill="#1C71DA" d="M8,162.4509c0-17.5742,14.3086-31.8711,31.8984-31.8711h80.0859c17.5898,0,31.8984,14.2969,31.8984,31.8711
		v4h8v-4c0-21.9844-17.8984-39.8711-39.8984-39.8711H39.8984c-22,0-39.8984,17.8867-39.8984,39.8711
		s17.8984,39.8691,39.8984,39.8691h31.0039v-8H39.8984C22.3086,194.3201,8,180.0232,8,162.4509z"/>
	<path fill="#1C71DA" d="M191.9844,122.5798h-31.0039v8h31.0039c17.5898,0,31.8984,14.2969,31.8984,31.8691
		c0,17.5742-14.3086,31.8711-31.8984,31.8711h-80.0859C94.3086,194.3201,80,180.0232,80,162.449v-4h-8v4
		c0,21.9844,17.8984,39.8711,39.8984,39.8711h80.0859c22,0,39.8984-17.8867,39.8984-39.8711S213.9844,122.5798,191.9844,122.5798z"
		/>
	<path fill="#1C71DA" d="M118.7695,106.3201c28.6719,0,52-23.3262,52-52s-23.3281-52-52-52s-52,23.3262-52,52
		S90.0977,106.3201,118.7695,106.3201z M118.7695,10.3201c24.2617,0,44,19.7383,44,44s-19.7383,44-44,44s-44-19.7383-44-44
		S94.5078,10.3201,118.7695,10.3201z"/>
	<path fill="#FFFFFF" d="M90.7695,58.3201h24v24c0,2.209,1.7891,4,4,4s4-1.791,4-4v-24h24c2.2109,0,4-1.791,4-4s-1.7891-4-4-4h-24
		v-24c0-2.209-1.7891-4-4-4s-4,1.791-4,4v24h-24c-2.2109,0-4,1.791-4,4S88.5586,58.3201,90.7695,58.3201z"/>
</g>
<path fill="#FF5D5D" d="M199.0215,22.1438c-1.0234,0-2.0469-0.3906-2.8281-1.1714c-1.5625-1.5625-1.5625-4.0952,0-5.6572
	l14.1426-14.1421c1.5605-1.5615,4.0938-1.5615,5.6562,0c1.5625,1.5625,1.5625,4.0952,0,5.6572l-14.1426,14.1421
	C201.0693,21.7532,200.0449,22.1438,199.0215,22.1438z"/>
<path fill="#FF5D5D" d="M213.1641,22.1423c-1.0234,0-2.0479-0.3906-2.8281-1.1714L196.1934,6.8284
	c-1.5625-1.5625-1.5625-4.0947,0-5.6572c1.5605-1.5615,4.0957-1.5615,5.6562,0l14.1426,14.1426
	c1.5625,1.5625,1.5625,4.0947,0,5.6572C215.2119,21.7517,214.1875,22.1423,213.1641,22.1423z"/>
<path fill="#00D40B" d="M205.0215,122.1438c-7.7197,0-14-6.2803-14-14s6.2803-14,14-14s14,6.2803,14,14
	S212.7412,122.1438,205.0215,122.1438z M205.0215,102.1438c-3.3086,0-6,2.6914-6,6s2.6914,6,6,6s6-2.6914,6-6
	S208.3301,102.1438,205.0215,102.1438z"/>
<path fill="#FFC504" d="M22.3359,112.7693c-1.0234,0-2.0469-0.3906-2.8281-1.1714L8.1934,100.2844
	c-0.75-0.75-1.1719-1.7676-1.1719-2.8286s0.4219-2.0786,1.1719-2.8286l11.3145-11.3135c1.5625-1.5615,4.0938-1.5615,5.6562,0
	l11.3135,11.3135c1.5625,1.5625,1.5625,4.0947,0,5.6572l-11.3135,11.3135C24.3838,112.3787,23.3594,112.7693,22.3359,112.7693z
	 M16.6787,97.4558l5.6572,5.6567l5.6562-5.6567l-5.6562-5.6567L16.6787,97.4558z"/>
</svg>
