<?xml version="1.0" encoding="utf-8"?>
<svg version="1.1" id="avatarmaleplus" xmlns="http://www.w3.org/2000/svg" xmlns:xlink="http://www.w3.org/1999/xlink" x="0px"
	 y="0px" viewBox="0 0 224 224" width="100px" height="100px" enable-background="new 0 0 224 224" xml:space="preserve">
<g>
	<path fill="#FFFFFF" d="M180,171.5469c0-9.0742-7.4688-16.457-16.6484-16.457H138.332c-1.5273,0-2.9219-0.8711-3.5938-2.2422
		l-9.2815-18.9468c-4.1885,1.3394-8.623,2.0991-13.2224,2.0991c-5.356,0-10.5068-0.9929-15.2827-2.7896
		c-0.0583,0.1819-0.0566,0.3708-0.1431,0.5474l-9.3516,19.0898c-0.6719,1.3711-2.0664,2.2422-3.5938,2.2422H61.5938
		C52.2227,155.0898,44,162.9922,44,172v18.5901C62.2478,206.4004,86.0161,216,112,216s49.7522-9.5996,68-25.4099V171.5469z"/>
	<path fill="#D0E8FF" d="M147.9102,94.8516c0.1289-1.8242,1.4805-3.3281,3.2773-3.6523C153.9766,90.6953,156,88.2539,156,85.3867
		v-2.7734c0-2.8242-2.0039-5.2617-4.7656-5.8008C149.3555,76.4492,148,74.8008,148,72.8867V40H98.6758
		c-12.2461,0-22.207,9.9727-22.207,22.2344v10.5703c0,1.9922-1.4648,3.6797-3.4375,3.9609C70.1172,77.1797,68,79.6367,68,82.6133
		v2.7734c0,2.9531,2.1953,5.4688,5.1016,5.8555c1.8789,0.25,3.3281,1.7812,3.4648,3.6719C77.9336,113.4648,93.6016,128,112.2344,128
		C130.9062,128,146.5781,113.4375,147.9102,94.8516z"/>
	<path fill="#1A6ACC" d="M220,108c-2.2109,0-4,1.7891-4,4c0,27.3765-10.6487,52.2991-28,70.8892v-11.3423
		c0-13.4844-11.0586-24.457-24.6484-24.457h-22.5234l-7.9961-16.3213c12.0579-6.4827,20.8445-18.4214,22.7695-32.5928
		C160.6094,96.0312,164,91.0586,164,85.3867v-2.7734c0-5.4844-3.2188-10.3516-8-12.5977V36c0-2.2109-1.7891-4-4-4H98.6758
		c-16.6562,0-30.207,13.5625-30.207,30.2344v7.5703C63.4648,71.9414,60,76.9492,60,82.6133v2.7734
		c0,5.8359,3.6562,10.9492,8.8945,12.9805c1.887,13.4104,9.9148,24.8313,21.041,31.4658c-0.0969,0.1453-0.2354,0.248-0.3145,0.4092
		l-8.2539,16.8477H61.5938C47.7188,147.0898,36,158.4961,36,172v10.8892C18.6487,164.2991,8,139.3765,8,112
		C8,54.6523,54.6523,8,112,8c2.2109,0,4-1.7891,4-4s-1.7891-4-4-4C50.2422,0,0,50.2422,0,112
		c0,32.9919,14.3457,62.6895,37.1184,83.2043c0.0684,0.0715,0.147,0.1248,0.2205,0.1912C57.1687,213.167,83.3389,224,112,224
		c61.7578,0,112-50.2422,112-112C224,109.7891,222.2109,108,220,108z M76.5664,94.9141c-0.1367-1.8906-1.5859-3.4219-3.4648-3.6719
		C70.1953,90.8555,68,88.3398,68,85.3867v-2.7734c0-2.9766,2.1172-5.4336,5.0312-5.8477c1.9727-0.2812,3.4375-1.9688,3.4375-3.9609
		V62.2344C76.4688,49.9727,86.4297,40,98.6758,40H148v32.8867c0,1.9141,1.3555,3.5625,3.2344,3.9258
		C153.9961,77.3516,156,79.7891,156,82.6133v2.7734c0,2.8672-2.0234,5.3086-4.8125,5.8125
		c-1.7969,0.3242-3.1484,1.8281-3.2773,3.6523C146.5781,113.4375,130.9062,128,112.2344,128
		C93.6016,128,77.9336,113.4648,76.5664,94.9141z M44,190.5901V172c0-9.0078,8.2227-16.9102,17.5938-16.9102h22.2695
		c1.5273,0,2.9219-0.8711,3.5938-2.2422l9.3516-19.0898c0.0864-0.1765,0.0847-0.3655,0.1431-0.5474
		c4.7759,1.7966,9.9268,2.7896,15.2827,2.7896c4.5994,0,9.0339-0.7598,13.2224-2.0991l9.2815,18.9468
		c0.6719,1.3711,2.0664,2.2422,3.5938,2.2422h25.0195c9.1797,0,16.6484,7.3828,16.6484,16.457v19.0432
		C161.7522,206.4004,137.9839,216,112,216S62.2478,206.4004,44,190.5901z"/>
	<path fill="#1A6ACC" d="M180,32h16v16c0,2.2109,1.7891,4,4,4s4-1.7891,4-4V32h16c2.2109,0,4-1.7891,4-4s-1.7891-4-4-4h-16V8
		c0-2.2109-1.7891-4-4-4s-4,1.7891-4,4v16h-16c-2.2109,0-4,1.7891-4,4S177.7891,32,180,32z"/>
</g>
<path fill="#FF5D5D" d="M184.0146,110.6992c-1.0234,0-2.0479-0.3906-2.8281-1.1719c-1.5625-1.5615-1.5625-4.0947,0-5.6562
	l14.1426-14.1416c1.5625-1.5625,4.0957-1.5625,5.6562,0c1.5625,1.5615,1.5625,4.0947,0,5.6562l-14.1426,14.1416
	C186.0615,110.3086,185.0381,110.6992,184.0146,110.6992z"/>
<path fill="#FF5D5D" d="M198.1572,110.6992c-1.0234,0-2.0469-0.3906-2.8281-1.1719l-14.1426-14.1416
	c-1.5625-1.5615-1.5625-4.0947,0-5.6562c1.5605-1.5625,4.0938-1.5625,5.6562,0l14.1426,14.1416
	c1.5625,1.5615,1.5625,4.0947,0,5.6562C200.2051,110.3086,199.1807,110.6992,198.1572,110.6992z"/>
<path fill="#00D40B" d="M30.0146,106.6992c-7.7197,0-14-6.2803-14-14s6.2803-14,14-14s14,6.2803,14,14
	S37.7344,106.6992,30.0146,106.6992z M30.0146,86.6992c-3.3086,0-6,2.6914-6,6s2.6914,6,6,6s6-2.6914,6-6
	S33.3232,86.6992,30.0146,86.6992z"/>
<path fill="#FFC504" d="M67.3281,201.3271L67.3281,201.3271c-1.0605,0-2.0781-0.4219-2.8281-1.1719l-11.3135-11.3145
	c-1.5625-1.5615-1.5625-4.0947,0-5.6562L64.5,171.8711c1.5605-1.5625,4.0938-1.5625,5.6562,0l11.3145,11.3135
	c0.75,0.75,1.1719,1.7676,1.1719,2.8281s-0.4219,2.0781-1.1719,2.8281l-11.3145,11.3145
	C69.4062,200.9053,68.3887,201.3271,67.3281,201.3271z M61.6709,186.0127l5.6572,5.6572l5.6572-5.6572l-5.6572-5.6572
	L61.6709,186.0127z"/>
</svg>
