<?xml version="1.0" encoding="utf-8"?>
<svg version="1.1" id="blocks" xmlns="http://www.w3.org/2000/svg" xmlns:xlink="http://www.w3.org/1999/xlink" x="0px" y="0px"
	 viewBox="0 0 220 220" width="100px" height="100px" enable-background="new 0 0 220 220" xml:space="preserve">
<g>
	<path fill="#1C71DA" d="M188,212V55c0-1.6211-0.9805-3.082-2.4805-3.6992L152,37.5339v-14.271c4.646-1.6565,8-6.0552,8-11.2629
		c0-6.6172-5.3828-12-12-12s-12,5.3828-12,12c0,5.2078,3.354,9.6062,8,11.2627V34.248l-14.4805-5.9473
		c-0.1392-0.0579-0.2847-0.0422-0.4263-0.0833c-0.2197-0.0637-0.4268-0.1025-0.6538-0.1277
		c-0.3682-0.0413-0.7183-0.0283-1.0767,0.0317c-0.1262,0.0205-0.2539-0.022-0.3784,0.0112l-44,11.5703
		C81.2266,40.1641,80,41.7539,80,43.5703v81.9241l-7.2305-1.4202c-0.0085-0.0017-0.0171,0.0024-0.0256,0.0007
		c-0.5286-0.1011-1.082-0.1052-1.6384,0.0266l-48,11C21.2891,135.5195,20,137.1367,20,139v73H0v8h24h48h56h56h36v-8H188z"/>
	<circle fill="#D0E8FF" cx="148" cy="12" r="4"/>
	<polygon fill="#D0E8FF" points="88,46.6562 124,37.1875 124,134.1375 88,127.0659 	"/>
	<polygon fill="#D0E8FF" points="28,142.1875 68,133.0203 68,212 28,212 	"/>
	<polygon fill="#5CB0FF" points="76,132.8633 124,142.2891 124,212 76,212 	"/>
	<polygon fill="#5CB0FF" points="132,212 132,140 132,139 132,37.9661 180,57.6797 180,212 	"/>
	<rect x="92" y="116" fill="#1C71DA" width="28" height="8"/>
	<rect x="92" y="96" fill="#1C71DA" width="28" height="8"/>
	<rect x="92" y="76" fill="#1C71DA" width="28" height="8"/>
	<rect x="92" y="56" fill="#1C71DA" width="28" height="8"/>
	<rect x="32" y="152" fill="#1C71DA" width="32" height="8"/>
	<rect x="32" y="172" fill="#1C71DA" width="32" height="8"/>
	<rect x="32" y="192" fill="#1C71DA" width="32" height="8"/>
</g>
<path fill="#FF5D5D" d="M196.691,30.861c-1.0234,0-2.0479-0.3906-2.8281-1.1719c-1.5625-1.5615-1.5625-4.0947,0-5.6562
	l14.1426-14.1426c1.5605-1.5625,4.0957-1.5625,5.6562,0c1.5625,1.5615,1.5625,4.0947,0,5.6562l-14.1426,14.1426
	C198.7389,30.4704,197.7144,30.861,196.691,30.861z"/>
<path fill="#FF5D5D" d="M210.8336,30.861c-1.0234,0-2.0479-0.3906-2.8281-1.1719l-14.1426-14.1426
	c-1.5625-1.5615-1.5625-4.0947,0-5.6562c1.5605-1.5625,4.0957-1.5625,5.6562,0l14.1426,14.1426
	c1.5625,1.5615,1.5625,4.0947,0,5.6562C212.8814,30.4704,211.857,30.861,210.8336,30.861z"/>
<path fill="#00D40B" d="M22.691,38.861c-7.7197,0-14-6.2803-14-14s6.2803-14,14-14s14,6.2803,14,14S30.4107,38.861,22.691,38.861z
	 M22.691,18.861c-3.3086,0-6,2.6914-6,6s2.6914,6,6,6s6-2.6914,6-6S25.9996,18.861,22.691,18.861z"/>
<path fill="#FFC504" d="M152.0045,177.488c-1.0234,0-2.0479-0.3906-2.8281-1.1719l-11.3135-11.3135
	c-1.5625-1.5615-1.5625-4.0947,0-5.6562l11.3135-11.3145c0.75-0.75,1.7676-1.1719,2.8281-1.1719s2.0781,0.4219,2.8281,1.1719
	l11.3135,11.3145c1.5625,1.5615,1.5625,4.0947,0,5.6562l-11.3135,11.3135C154.0523,177.0973,153.0279,177.488,152.0045,177.488z
	 M146.3473,162.1745l5.6572,5.6562l5.6572-5.6562l-5.6572-5.6572L146.3473,162.1745z"/>
</svg>
