<?xml version="1.0" encoding="utf-8"?>
<svg version="1.1" id="box" xmlns="http://www.w3.org/2000/svg" xmlns:xlink="http://www.w3.org/1999/xlink" x="0px" y="0px"
	 viewBox="0 0 214.1423 211.9854" width="100px" height="100px" enable-background="new 0 0 214.1423 211.9854" xml:space="preserve">
<g>
	<path fill="#1A6ACC" d="M175.3166,31.9854H51.2892c-8.8145,0-15.9863,7.1758-15.9863,16v28c0,2.2109,1.791,4,4,4h4v128
		c0,2.2109,1.791,4,4,4h132c2.209,0,4-1.7891,4-4v-128h4c2.209,0,4-1.7891,4-4v-28
		C191.3029,39.1611,184.131,31.9854,175.3166,31.9854z"/>
	<polygon fill="#D0E8FF" points="175.3029,203.9854 51.3029,203.9854 51.3029,79.9854 87.3029,79.9854 139.3029,79.9854 
		175.3029,79.9854 	"/>
	<rect x="91.3029" y="59.9854" fill="#D0E8FF" width="44" height="12"/>
	<path fill="#5CB0FF" d="M183.3029,71.9854h-4h-36v-16c0-2.2109-1.791-4-4-4h-52c-2.209,0-4,1.7891-4,4v16h-36h-4v-24
		c0-4.4102,3.582-8,7.9863-8h124.0273c4.4043,0,7.9863,3.5898,7.9863,8V71.9854z"/>
	<rect x="87.3029" y="175.9854" fill="#1A6ACC" width="52.1816" height="8"/>
	<rect x="87.3029" y="187.9854" fill="#1A6ACC" width="52.1816" height="8"/>
</g>
<path fill="#FF5D5D" d="M196.0001,140c-1.0239,0-2.0474-0.3906-2.8286-1.1719c-1.562-1.5615-1.562-4.0947,0-5.6562l14.1421-14.1416
	c1.563-1.5625,4.0952-1.5615,5.6572,0s1.562,4.0947,0,5.6562l-14.1421,14.1416C198.0475,139.6094,197.0236,140,196.0001,140z"/>
<path fill="#FF5D5D" d="M210.1422,140c-1.0239,0-2.0474-0.3906-2.8286-1.1719l-14.1421-14.1416c-1.562-1.5615-1.562-4.0947,0-5.6562
	c1.5625-1.5625,4.0947-1.5625,5.6572,0l14.1421,14.1416c1.562,1.5615,1.562,4.0947,0,5.6562
	C212.1896,139.6094,211.1661,140,210.1422,140z"/>
<path fill="#00D40B" d="M74.0001,28c-7.7197,0-14-6.2803-14-14s6.2803-14,14-14s14,6.2803,14,14S81.7198,28,74.0001,28z M74.0001,8
	c-3.3086,0-6,2.6914-6,6s2.6914,6,6,6s6-2.6914,6-6S77.3087,8,74.0001,8z"/>
<path fill="#FFC504" d="M15.3136,178.627c-1.0239,0-2.0474-0.3906-2.8286-1.1719L1.1715,166.1416
	c-1.562-1.5615-1.562-4.0947,0-5.6562l11.3135-11.3135c1.5625-1.5625,4.0952-1.5625,5.6567,0l11.314,11.3135
	c0.7505,0.75,1.1719,1.7676,1.1719,2.8281s-0.4214,2.0781-1.1719,2.8281l-11.314,11.3135
	C17.361,178.2363,16.337,178.627,15.3136,178.627z M9.6569,163.3135l5.6567,5.6562l5.6572-5.6562l-5.6572-5.6562L9.6569,163.3135z"
	/>
</svg>
