<?xml version="1.0" encoding="utf-8"?>
<svg version="1.1" id="businesscenter" xmlns="http://www.w3.org/2000/svg" xmlns:xlink="http://www.w3.org/1999/xlink" x="0px"
	 y="0px" viewBox="0 0 196 213.139" width="100px" height="100px" enable-background="new 0 0 196 213.139" xml:space="preserve">
<path fill="#1C71DA" d="M192,169.139h-24v-40.2375c16.1265-1.7942,24-14.8364,24-39.7625c0-25.1289-9.6172-72-28-72
	s-28,46.8711-28,72c0,24.926,7.8735,37.9683,24,39.7625v40.2375h-24v-56c0-1.75-1.1367-3.2969-2.8086-3.8164l-128-40
	c-1.2188-0.3906-2.5391-0.1602-3.5625,0.5938S0,71.8656,0,73.139v100v36c0,2.2109,1.7891,4,4,4h16h20h72h48h8h24
	c2.2109,0,4-1.7891,4-4v-36C196,170.9281,194.2109,169.139,192,169.139z"/>
<path fill="#D0E8FF" d="M144,89.139c0-30.9023,11.7383-64,20-64s20,33.0977,20,64c0,28.3633-10.6875,32-20,32
	S144,117.5023,144,89.139z"/>
<polygon fill="#D0E8FF" points="128,169.139 112,169.139 104,169.139 104,108.5804 128,116.0804 "/>
<polygon fill="#D0E8FF" points="40,169.139 40,88.5804 64,96.0804 64,169.139 "/>
<polygon fill="#D0E8FF" points="72,98.5804 96,106.0804 96,169.139 72,169.139 "/>
<polygon fill="#D0E8FF" points="8,78.5804 32,86.0804 32,169.139 8,169.139 "/>
<path fill="#5CB0FF" d="M8,177.139h100v28H44v-20c0-2.2109-1.7891-4-4-4H20c-2.2109,0-4,1.7891-4,4v20H8V177.139z"/>
<rect x="24" y="189.139" fill="#D0E8FF" width="12" height="16"/>
<polygon fill="#D0E8FF" points="116,205.139 116,177.139 132,177.139 160,177.139 160,205.139 "/>
<rect x="168" y="177.139" fill="#D0E8FF" width="20" height="28"/>
<path fill="#FF5D5D" d="M108.691,88c-1.0234,0-2.0479-0.3906-2.8281-1.1719c-1.5625-1.5615-1.5625-4.0947,0-5.6562l14.1426-14.1426
	c1.5605-1.5625,4.0957-1.5625,5.6562,0c1.5625,1.5615,1.5625,4.0947,0,5.6562l-14.1426,14.1426
	C110.7389,87.6094,109.7144,88,108.691,88z"/>
<path fill="#FF5D5D" d="M122.8336,88c-1.0234,0-2.0479-0.3906-2.8281-1.1719l-14.1426-14.1426
	c-1.5625-1.5615-1.5625-4.0947,0-5.6562c1.5605-1.5625,4.0957-1.5625,5.6562,0l14.1426,14.1426
	c1.5625,1.5615,1.5625,4.0947,0,5.6562C124.8814,87.6094,123.857,88,122.8336,88z"/>
<path fill="#00D40B" d="M162.691,112c-7.7197,0-14-6.2803-14-14s6.2803-14,14-14s14,6.2803,14,14S170.4107,112,162.691,112z
	 M162.691,92c-3.3086,0-6,2.6914-6,6s2.6914,6,6,6s6-2.6914,6-6S165.9996,92,162.691,92z"/>
<path fill="#FFC504" d="M20.0045,30.627c-1.0234,0-2.0479-0.3906-2.8281-1.1719L5.8629,18.1416
	c-1.5625-1.5615-1.5625-4.0947,0-5.6562L17.1764,1.1719c1.5605-1.5625,4.0957-1.5625,5.6562,0l11.3135,11.3135
	c1.5625,1.5615,1.5625,4.0947,0,5.6562L22.8326,29.4551C22.0523,30.2363,21.0279,30.627,20.0045,30.627z M14.3482,15.3135
	l5.6563,5.6562l5.6562-5.6562l-5.6562-5.6562L14.3482,15.3135z"/>
</svg>
