<?xml version="1.0" encoding="utf-8"?>
<!-- Generator: Adobe Illustrator 19.2.0, SVG Export Plug-In . SVG Version: 6.00 Build 0)  -->
<svg version="1.1" id="calendar" xmlns="http://www.w3.org/2000/svg" xmlns:xlink="http://www.w3.org/1999/xlink" x="0px" y="0px"
	 viewBox="0 0 205 214.1279" enable-background="new 0 0 205 214.1279" xml:space="preserve">
<g>
	<rect x="121" y="76" fill="#5CB0FF" width="12" height="12"/>
	<rect x="121" y="116" fill="#5CB0FF" width="12" height="12"/>
	<rect x="81" y="76" fill="#5CB0FF" width="12" height="12"/>
	<rect x="161" y="156" fill="#5CB0FF" width="12" height="12"/>
	<rect x="121" y="156" fill="#5CB0FF" width="12" height="12"/>
	<rect x="161" y="116" fill="#5CB0FF" width="12" height="12"/>
	<rect x="81" y="116" fill="#5CB0FF" width="12" height="12"/>
	<rect x="129" y="8" fill="#5CB0FF" width="12" height="12"/>
	<polygon fill="#D0E8FF" points="197,28 145,28 125,28 85,28 65,28 17,28 17,48 197,48 	"/>
	<rect x="69" y="8" fill="#5CB0FF" width="12" height="12"/>
	<rect x="161" y="76" fill="#5CB0FF" width="12" height="12"/>
	<rect x="41" y="76" fill="#5CB0FF" width="12" height="12"/>
	<path fill="#D0E8FF" d="M17,172.1641C17,185.3086,27.6953,196,40.8418,196h132.3164C186.3047,196,197,185.3086,197,172.1641V56H17
		V172.1641z M153,72c0-2.2109,1.791-4,4-4h20c2.209,0,4,1.7891,4,4v20c0,2.2109-1.791,4-4,4h-20c-2.209,0-4-1.7891-4-4V72z M153,112
		c0-2.2109,1.791-4,4-4h20c2.209,0,4,1.7891,4,4v20c0,2.2109-1.791,4-4,4h-20c-2.209,0-4-1.7891-4-4V112z M153,152
		c0-2.2109,1.791-4,4-4h20c2.209,0,4,1.7891,4,4v20c0,2.2109-1.791,4-4,4h-20c-2.209,0-4-1.7891-4-4V152z M113,72
		c0-2.2109,1.791-4,4-4h20c2.209,0,4,1.7891,4,4v20c0,2.2109-1.791,4-4,4h-20c-2.209,0-4-1.7891-4-4V72z M113,112
		c0-2.2109,1.791-4,4-4h20c2.209,0,4,1.7891,4,4v20c0,2.2109-1.791,4-4,4h-20c-2.209,0-4-1.7891-4-4V112z M113,152
		c0-2.2109,1.791-4,4-4h20c2.209,0,4,1.7891,4,4v20c0,2.2109-1.791,4-4,4h-20c-2.209,0-4-1.7891-4-4V152z M73,72
		c0-2.2109,1.791-4,4-4h20c2.209,0,4,1.7891,4,4v20c0,2.2109-1.791,4-4,4H77c-2.209,0-4-1.7891-4-4V72z M73,112
		c0-2.2109,1.791-4,4-4h20c2.209,0,4,1.7891,4,4v20c0,2.2109-1.791,4-4,4H77c-2.209,0-4-1.7891-4-4V112z M73,152
		c0-2.2109,1.791-4,4-4h20c2.209,0,4,1.7891,4,4v20c0,2.2109-1.791,4-4,4H77c-2.209,0-4-1.7891-4-4V152z M33,72
		c0-2.2109,1.791-4,4-4h20c2.209,0,4,1.7891,4,4v20c0,2.2109-1.791,4-4,4H37c-2.209,0-4-1.7891-4-4V72z M33,112
		c0-2.2109,1.791-4,4-4h20c2.209,0,4,1.7891,4,4v20c0,2.2109-1.791,4-4,4H37c-2.209,0-4-1.7891-4-4V112z M33,152
		c0-2.2109,1.791-4,4-4h20c2.209,0,4,1.7891,4,4v20c0,2.2109-1.791,4-4,4H37c-2.209,0-4-1.7891-4-4V152z"/>
	<rect x="41" y="156" fill="#5CB0FF" width="12" height="12"/>
	<rect x="81" y="156" fill="#5CB0FF" width="12" height="12"/>
	<rect x="41" y="116" fill="#5CB0FF" width="12" height="12"/>
	<path fill="#1A6ACC" d="M201,20h-52V4c0-2.2109-1.791-4-4-4h-20c-2.209,0-4,1.7891-4,4v16H89V4c0-2.2109-1.791-4-4-4H65
		c-2.209,0-4,1.7891-4,4v16H13c-2.209,0-4,1.7891-4,4v28v120.1641C9,189.7188,23.2832,204,40.8418,204h132.3164
		C190.7168,204,205,189.7188,205,172.1641V52V24C205,21.7891,203.209,20,201,20z M129,8h12v12h-12V8z M69,8h12v12H69V8z M17,28h48
		h20h40h20h52v20H17V28z M197,172.1641C197,185.3086,186.3047,196,173.1582,196H40.8418C27.6953,196,17,185.3086,17,172.1641V56h180
		V172.1641z"/>
	<path fill="#1A6ACC" d="M37,96h20c2.209,0,4-1.7891,4-4V72c0-2.2109-1.791-4-4-4H37c-2.209,0-4,1.7891-4,4v20
		C33,94.2109,34.791,96,37,96z M41,76h12v12H41V76z"/>
	<path fill="#1A6ACC" d="M37,136h20c2.209,0,4-1.7891,4-4v-20c0-2.2109-1.791-4-4-4H37c-2.209,0-4,1.7891-4,4v20
		C33,134.2109,34.791,136,37,136z M41,116h12v12H41V116z"/>
	<path fill="#1A6ACC" d="M37,176h20c2.209,0,4-1.7891,4-4v-20c0-2.2109-1.791-4-4-4H37c-2.209,0-4,1.7891-4,4v20
		C33,174.2109,34.791,176,37,176z M41,156h12v12H41V156z"/>
	<path fill="#1A6ACC" d="M77,96h20c2.209,0,4-1.7891,4-4V72c0-2.2109-1.791-4-4-4H77c-2.209,0-4,1.7891-4,4v20
		C73,94.2109,74.791,96,77,96z M81,76h12v12H81V76z"/>
	<path fill="#1A6ACC" d="M77,136h20c2.209,0,4-1.7891,4-4v-20c0-2.2109-1.791-4-4-4H77c-2.209,0-4,1.7891-4,4v20
		C73,134.2109,74.791,136,77,136z M81,116h12v12H81V116z"/>
	<path fill="#1A6ACC" d="M77,176h20c2.209,0,4-1.7891,4-4v-20c0-2.2109-1.791-4-4-4H77c-2.209,0-4,1.7891-4,4v20
		C73,174.2109,74.791,176,77,176z M81,156h12v12H81V156z"/>
	<path fill="#1A6ACC" d="M117,96h20c2.209,0,4-1.7891,4-4V72c0-2.2109-1.791-4-4-4h-20c-2.209,0-4,1.7891-4,4v20
		C113,94.2109,114.791,96,117,96z M121,76h12v12h-12V76z"/>
	<path fill="#1A6ACC" d="M117,136h20c2.209,0,4-1.7891,4-4v-20c0-2.2109-1.791-4-4-4h-20c-2.209,0-4,1.7891-4,4v20
		C113,134.2109,114.791,136,117,136z M121,116h12v12h-12V116z"/>
	<path fill="#1A6ACC" d="M117,176h20c2.209,0,4-1.7891,4-4v-20c0-2.2109-1.791-4-4-4h-20c-2.209,0-4,1.7891-4,4v20
		C113,174.2109,114.791,176,117,176z M121,156h12v12h-12V156z"/>
	<path fill="#1A6ACC" d="M157,96h20c2.209,0,4-1.7891,4-4V72c0-2.2109-1.791-4-4-4h-20c-2.209,0-4,1.7891-4,4v20
		C153,94.2109,154.791,96,157,96z M161,76h12v12h-12V76z"/>
	<path fill="#1A6ACC" d="M157,136h20c2.209,0,4-1.7891,4-4v-20c0-2.2109-1.791-4-4-4h-20c-2.209,0-4,1.7891-4,4v20
		C153,134.2109,154.791,136,157,136z M161,116h12v12h-12V116z"/>
	<path fill="#1A6ACC" d="M157,176h20c2.209,0,4-1.7891,4-4v-20c0-2.2109-1.791-4-4-4h-20c-2.209,0-4,1.7891-4,4v20
		C153,174.2109,154.791,176,157,176z M161,156h12v12h-12V156z"/>
</g>
<path fill="#FF5D5D" d="M168,47.501c-1.0239,0-2.0474-0.3906-2.8286-1.1719c-1.562-1.5615-1.562-4.0947,0-5.6562l14.1421-14.1426
	c1.5625-1.5625,4.0947-1.5625,5.6572,0c1.562,1.5615,1.562,4.0947,0,5.6562l-14.1421,14.1426
	C170.0474,47.1104,169.0239,47.501,168,47.501z"/>
<path fill="#FF5D5D" d="M182.1421,47.501c-1.0239,0-2.0474-0.3906-2.8286-1.1719l-14.1421-14.1426
	c-1.562-1.5615-1.562-4.0947,0-5.6562c1.5635-1.5625,4.0957-1.5615,5.6572,0l14.1421,14.1426c1.562,1.5615,1.562,4.0947,0,5.6562
	C184.1895,47.1104,183.1655,47.501,182.1421,47.501z"/>
<path fill="#00D40B" d="M14,123.501c-7.7197,0-14-6.2803-14-14s6.2803-14,14-14s14,6.2803,14,14S21.7197,123.501,14,123.501z
	 M14,103.501c-3.3086,0-6,2.6914-6,6s2.6914,6,6,6s6-2.6914,6-6S17.3086,103.501,14,103.501z"/>
<path fill="#FFC504" d="M167.3135,214.1279c-1.0239,0-2.0474-0.3906-2.8286-1.1719l-11.3135-11.3135
	c-1.562-1.5615-1.562-4.0947,0-5.6562l11.3135-11.3145c0.75-0.75,1.7676-1.1719,2.8286-1.1719s2.0781,0.4219,2.8286,1.1719
	l11.314,11.3145c0.75,0.75,1.1714,1.7676,1.1714,2.8281s-0.4214,2.0781-1.1719,2.8281l-11.314,11.3135
	C169.3608,213.7373,168.3369,214.1279,167.3135,214.1279z M161.6567,198.8145l5.6567,5.6562l5.6572-5.6562l-5.6572-5.6572
	L161.6567,198.8145z"/>
</svg>
