<?xml version="1.0" encoding="utf-8"?>
<!-- Generator: Adobe Illustrator 19.2.0, SVG Export Plug-In . SVG Version: 6.00 Build 0)  -->
<svg version="1.1" id="chatbubble" xmlns="http://www.w3.org/2000/svg" xmlns:xlink="http://www.w3.org/1999/xlink" x="0px" y="0px"
	 viewBox="0 0 202.6422 217.3271" enable-background="new 0 0 202.6422 217.3271" xml:space="preserve">
<g>
	<circle fill="#5CB0FF" cx="100" cy="104" r="4"/>
	<circle fill="#5CB0FF" cx="72" cy="104" r="4"/>
	<circle fill="#5CB0FF" cx="128" cy="104" r="4"/>
	<path fill="#D0E8FF" d="M100,8C49.2715,8,8,49.1875,8,99.8164c0,22.6562,8.334,44.4102,23.4688,61.2617
		c0.7812,0.8711,1.1426,2.0391,0.9883,3.2031l-4.8516,36.3086l30.4785-17.1094c1.1152-0.6289,2.459-0.6797,3.623-0.1484
		c12.0449,5.5117,24.9277,8.3047,38.293,8.3047c50.7285,0,92-41.1914,92-91.8203S150.7285,8,100,8z M72,116
		c-6.6172,0-12-5.3828-12-12s5.3828-12,12-12s12,5.3828,12,12S78.6172,116,72,116z M100,116c-6.6172,0-12-5.3828-12-12
		s5.3828-12,12-12s12,5.3828,12,12S106.6172,116,100,116z M128,116c-6.6172,0-12-5.3828-12-12s5.3828-12,12-12s12,5.3828,12,12
		S134.6172,116,128,116z"/>
	<path fill="#1A6ACC" d="M100,0C44.8594,0,0,44.7773,0,99.8164c0,24.0117,8.6113,47.0938,24.2852,65.2109l-5.6699,42.4414
		c-0.2012,1.5039,0.4648,2.9922,1.7188,3.8398C21.0098,211.7695,21.7949,212,22.5801,212c0.6738,0,1.3477-0.168,1.959-0.5117
		L60.25,191.4414c12.5567,5.4375,25.918,8.1953,39.75,8.1953c55.1406,0,100-44.7773,100-99.8203C200,44.7773,155.1406,0,100,0z
		 M100,191.6367c-13.3652,0-26.248-2.793-38.293-8.3047c-1.1641-0.5312-2.5078-0.4805-3.623,0.1484l-30.4785,17.1094l4.8516-36.3086
		c0.1543-1.1641-0.2071-2.332-0.9883-3.2031C16.334,144.2266,8,122.4727,8,99.8164C8,49.1875,49.2715,8,100,8s92,41.1875,92,91.8164
		S150.7285,191.6367,100,191.6367z"/>
	<path fill="#1A6ACC" d="M72,92c-6.6172,0-12,5.3828-12,12s5.3828,12,12,12s12-5.3828,12-12S78.6172,92,72,92z M72,108
		c-2.2051,0-4-1.793-4-4s1.7949-4,4-4s4,1.793,4,4S74.2051,108,72,108z"/>
	<path fill="#1A6ACC" d="M100,92c-6.6172,0-12,5.3828-12,12s5.3828,12,12,12s12-5.3828,12-12S106.6172,92,100,92z M100,108
		c-2.2051,0-4-1.793-4-4s1.7949-4,4-4s4,1.793,4,4S102.2051,108,100,108z"/>
	<path fill="#1A6ACC" d="M128,92c-6.6172,0-12,5.3828-12,12s5.3828,12,12,12s12-5.3828,12-12S134.6172,92,128,92z M128,108
		c-2.2051,0-4-1.793-4-4s1.7949-4,4-4s4,1.793,4,4S130.2051,108,128,108z"/>
</g>
<path fill="#FF5D5D" d="M120.0146,154.6992c-1.0239,0-2.0474-0.3906-2.8286-1.1719c-1.562-1.5615-1.562-4.0947,0-5.6562
	l14.1421-14.1416c1.5635-1.5625,4.0957-1.5605,5.6572,0c1.562,1.5615,1.562,4.0947,0,5.6562l-14.1421,14.1416
	C122.062,154.3086,121.0381,154.6992,120.0146,154.6992z"/>
<path fill="#FF5D5D" d="M134.1567,154.6992c-1.0239,0-2.0474-0.3906-2.8286-1.1719l-14.1421-14.1416
	c-1.562-1.5615-1.562-4.0947,0-5.6562c1.5625-1.5625,4.0947-1.5625,5.6572,0l14.1421,14.1416c1.562,1.5615,1.562,4.0947,0,5.6562
	C136.2041,154.3086,135.1807,154.6992,134.1567,154.6992z"/>
<path fill="#00D40B" d="M86.0146,62.6992c-7.7197,0-14-6.2803-14-14s6.2803-14,14-14s14,6.2803,14,14
	S93.7344,62.6992,86.0146,62.6992z M86.0146,42.6992c-3.3086,0-6,2.6914-6,6s2.6914,6,6,6s6-2.6914,6-6
	S89.3232,42.6992,86.0146,42.6992z"/>
<path fill="#FFC504" d="M187.3286,217.3271c-1.061,0-2.0781-0.4219-2.8286-1.1719l-11.314-11.3145
	c-0.75-0.75-1.1714-1.7676-1.1714-2.8281s0.4214-2.0781,1.1719-2.8281l11.314-11.3135c1.5625-1.5625,4.0952-1.5615,5.6567,0
	l11.3135,11.3135c1.562,1.5615,1.562,4.0947,0,5.6562l-11.3135,11.3145C189.4072,216.9053,188.3896,217.3271,187.3286,217.3271z
	 M181.6714,202.0127l5.6572,5.6572l5.6567-5.6572l-5.6567-5.6562L181.6714,202.0127z"/>
</svg>
