<?xml version="1.0" encoding="utf-8"?>
<!-- Generator: Adobe Illustrator 19.2.0, SVG Export Plug-In . SVG Version: 6.00 Build 0)  -->
<svg version="1.1" id="chefavatar" xmlns="http://www.w3.org/2000/svg" xmlns:xlink="http://www.w3.org/1999/xlink" x="0px" y="0px"
	 viewBox="0 0 196 231.998" enable-background="new 0 0 196 231.998" xml:space="preserve">
<g>
	<circle fill="#D0E8FF" cx="86.3975" cy="170" r="2"/>
	<circle fill="#D0E8FF" cx="126.3975" cy="170" r="2"/>
	<path fill="#5CB0FF" d="M118.1474,196.084H94.4482c-8.6523,10.25-19.7188,15.2383-33.7695,15.2383
		c-5.1172,0-10.1992-0.834-15.0156-2.4277c7.082,8.4277,17.0938,15.1035,28.2695,15.1035c14.8125,0,23.3438-3.0527,29.4492-10.5352
		c0.7578-0.9297,1.8945-1.4707,3.0977-1.4707s2.3398,0.541,3.0977,1.4707c5.8633,7.1875,15.9258,10.5352,31.6719,10.5352
		c11.3281,0,22.5664-6.916,30.3086-15.6875c-6.6055,2.043-13.582,3.0117-19.0469,3.0117
		C138.2842,211.3223,126.7295,206.1973,118.1474,196.084z"/>
	<path fill="#D0E8FF" d="M51.4443,82.2754c1.3672,0.5508,2.3203,1.8066,2.4844,3.2695L59.9795,140h92.8359l6.0508-54.4551
		c0.1641-1.4629,1.1172-2.7188,2.4844-3.2695c9.1406-3.6777,15.0469-12.4219,15.0469-22.2754c0-13.2344-10.7656-24-24-24
		c-1.6328,0-3.2656,0.166-4.8516,0.4902c-2.0312,0.4219-4.0469-0.7871-4.6367-2.7773C138.4014,18.5742,124.2099,8,108.3975,8
		C92.1357,8,77.8349,18.9551,73.624,34.6406c-0.2891,1.0781-1.0156,1.9863-2.0039,2.5039
		c-0.9844,0.5215-2.1484,0.6035-3.1992,0.2285C65.8584,36.4609,63.1553,36,60.3975,36c-13.2344,0-24,10.7656-24,24
		C36.3975,69.8535,42.3037,78.5977,51.4443,82.2754z M148.3975,44c2.2109,0,4,1.791,4,4s-1.7891,4-4,4c-4.4102,0-8,3.5879-8,8
		c0,2.209-1.7891,4-4,4s-4-1.791-4-4C132.3975,51.1777,139.5732,44,148.3975,44z M104.3975,20c2.2109,0,4,1.791,4,4s-1.7891,4-4,4
		c-4.4102,0-8,3.5879-8,8c0,2.209-1.7891,4-4,4s-4-1.791-4-4C88.3975,27.1777,95.5732,20,104.3975,20z M64.3975,44
		c2.2109,0,4,1.791,4,4s-1.7891,4-4,4c-4.4102,0-8,3.5879-8,8c0,2.209-1.7891,4-4,4s-4-1.791-4-4
		C48.3975,51.1777,55.5732,44,64.3975,44z"/>
	<path fill="#1A6ACC" d="M46.2295,88.7012l6.1914,55.7402C52.6474,146.4668,54.3584,148,56.3975,148h100
		c2.0391,0,3.7499-1.5332,3.9766-3.5586l6.1914-55.7402c10.9102-5.3691,17.832-16.3848,17.832-28.7012c0-17.6445-14.3555-32-32-32
		c-0.9844,0-1.9688,0.0449-2.9492,0.1348C142.9599,11.4082,126.5537,0,108.3975,0C89.8857,0,73.4521,11.6191,67.1279,28.709
		C64.9287,28.2383,62.6787,28,60.3975,28c-17.6445,0-32,14.3555-32,32C28.3975,72.3164,35.3193,83.332,46.2295,88.7012z M60.3975,36
		c2.7578,0,5.4609,0.4609,8.0234,1.373c1.0508,0.375,2.2148,0.293,3.1992-0.2285c0.9883-0.5176,1.7148-1.4258,2.0039-2.5039
		C77.8349,18.9551,92.1357,8,108.3975,8c15.8125,0,30.0039,10.5742,34.5117,25.7129c0.5898,1.9902,2.6055,3.1992,4.6367,2.7773
		C149.1318,36.166,150.7646,36,152.3975,36c13.2344,0,24,10.7656,24,24c0,9.8535-5.9062,18.5977-15.0469,22.2754
		c-1.3672,0.5508-2.3203,1.8066-2.4844,3.2695L152.8154,140H59.9795l-6.0508-54.4551c-0.1641-1.4629-1.1172-2.7188-2.4844-3.2695
		C42.3037,78.5977,36.3975,69.8535,36.3975,60C36.3975,46.7656,47.1631,36,60.3975,36z"/>
	<path fill="#1A6ACC" d="M52.3975,64c2.2109,0,4-1.791,4-4c0-4.4121,3.5898-8,8-8c2.2109,0,4-1.791,4-4s-1.7891-4-4-4
		c-8.8242,0-16,7.1777-16,16C48.3975,62.209,50.1865,64,52.3975,64z"/>
	<path fill="#1A6ACC" d="M92.3975,40c2.2109,0,4-1.791,4-4c0-4.4121,3.5898-8,8-8c2.2109,0,4-1.791,4-4s-1.7891-4-4-4
		c-8.8242,0-16,7.1777-16,16C88.3975,38.209,90.1865,40,92.3975,40z"/>
	<path fill="#1A6ACC" d="M136.3975,64c2.2109,0,4-1.791,4-4c0-4.4121,3.5898-8,8-8c2.2109,0,4-1.791,4-4s-1.7891-4-4-4
		c-8.8242,0-16,7.1777-16,16C132.3975,62.209,134.1865,64,136.3975,64z"/>
	<path fill="#1A6ACC" d="M76.3975,170c0,5.5137,4.4844,10,10,10s10-4.4863,10-10s-4.4844-10-10-10S76.3975,164.4863,76.3975,170z
		 M88.3975,170c0,1.1035-0.8984,2-2,2s-2-0.8965-2-2s0.8984-2,2-2S88.3975,168.8965,88.3975,170z"/>
	<path fill="#1A6ACC" d="M116.3975,170c0,5.5137,4.4844,10,10,10s10-4.4863,10-10s-4.4844-10-10-10S116.3975,164.4863,116.3975,170z
		 M128.3975,170c0,1.1035-0.8984,2-2,2s-2-0.8965-2-2s0.8984-2,2-2S128.3975,168.8965,128.3975,170z"/>
	<path fill="#1A6ACC" d="M185.249,195.4082c-1.4297-1.1445-3.457-1.1699-4.9102-0.0625
		c-6.0039,4.5469-17.9648,7.9766-27.8281,7.9766c-12.5195,0-22.1055-4.4824-29.3125-13.7012
		c-0.7578-0.9707-1.9219-1.5371-3.1523-1.5371h-27.5c-1.2305,0-2.3945,0.5664-3.1523,1.5352
		c-7.4102,9.4766-16.2656,13.7031-28.7148,13.7031c-8.6133,0-17.0938-2.834-23.8828-7.9766
		c-1.457-1.1055-3.4844-1.0801-4.9102,0.0625c-1.4297,1.1426-1.9023,3.1113-1.1445,4.7793
		c7.1875,15.834,23.3281,31.8105,43.1914,31.8105c10.9531,0,23.1836-1.293,32.582-10.1738
		c9.957,9.043,24.3477,10.1738,34.7344,10.1738c19.9453,0,38.1445-16.3906,45.1445-31.8105
		C187.1514,198.5195,186.6787,196.5508,185.249,195.4082z M141.249,223.998c-15.7461,0-25.8086-3.3477-31.6719-10.5352
		c-0.7578-0.9297-1.8945-1.4707-3.0977-1.4707s-2.3398,0.541-3.0977,1.4707c-6.1055,7.4824-14.6367,10.5352-29.4492,10.5352
		c-11.1758,0-21.1875-6.6758-28.2695-15.1035c4.8164,1.5938,9.8984,2.4277,15.0156,2.4277c14.0508,0,25.1172-4.9883,33.7695-15.2383
		h23.6992c8.5821,10.1133,20.1368,15.2383,34.3633,15.2383c5.4648,0,12.4414-0.9688,19.0469-3.0117
		C163.8154,217.082,152.5771,223.998,141.249,223.998z"/>
</g>
<path fill="#FF5D5D" d="M112,128.4414c-1.0234,0-2.0469-0.3906-2.8281-1.1714c-1.5625-1.562-1.5625-4.0947,0-5.6572l14.1416-14.1421
	c1.5605-1.5615,4.0938-1.5615,5.6562,0c1.5625,1.562,1.5625,4.0947,0,5.6572L114.8281,127.27
	C114.0479,128.0508,113.0234,128.4414,112,128.4414z"/>
<path fill="#FF5D5D" d="M126.1416,128.4399c-1.0234,0-2.0479-0.3906-2.8281-1.1719l-14.1416-14.1426
	c-1.5625-1.562-1.5625-4.0947,0-5.6567c1.5625-1.5615,4.0957-1.562,5.6562,0.0005l14.1416,14.1426
	c1.5625,1.562,1.5625,4.0947,0,5.6567C128.1885,128.0493,127.165,128.4399,126.1416,128.4399z"/>
<path fill="#00D40B" d="M182,180.4414c-7.7197,0-14-6.2803-14-14s6.2803-14,14-14s14,6.2803,14,14S189.7197,180.4414,182,180.4414z
	 M182,160.4414c-3.3086,0-6,2.6914-6,6s2.6914,6,6,6s6-2.6914,6-6S185.3086,160.4414,182,160.4414z"/>
<path fill="#FFC504" d="M15.3135,183.0669c-1.0234,0-2.0479-0.3906-2.8281-1.1714L1.1719,170.582
	c-1.5625-1.5625-1.5625-4.0947,0-5.6572l11.3135-11.3135c1.5605-1.5615,4.0957-1.5615,5.6562,0l11.3135,11.3135
	c1.5625,1.5625,1.5625,4.0947,0,5.6572l-11.3135,11.3135C17.3613,182.6763,16.3369,183.0669,15.3135,183.0669z M9.6572,167.7534
	l5.6562,5.6567l5.6562-5.6567l-5.6562-5.6567L9.6572,167.7534z"/>
</svg>
