<?xml version="1.0" encoding="utf-8"?>
<!-- Generator: Adobe Illustrator 19.2.0, SVG Export Plug-In . SVG Version: 6.00 Build 0)  -->
<svg version="1.1" id="handshake" xmlns="http://www.w3.org/2000/svg" xmlns:xlink="http://www.w3.org/1999/xlink" x="0px" y="0px"
	 viewBox="0 0 238.9788 217.6357" enable-background="new 0 0 238.9788 217.6357" xml:space="preserve">
<g>
	<path fill="#D0E8FF" d="M63.4519,156.5281l-6.1953,6.196l8.4863,8.4863l5.7092-5.7087
		C68.917,162.813,66.2236,159.782,63.4519,156.5281z"/>
	<path fill="#D0E8FF" d="M48.2849,137.7549l-7.9995,7.998l11.3149,11.3149l6.7109-6.7117
		C54.9107,146.2009,51.5164,141.9216,48.2849,137.7549z"/>
	<path fill="#5CB0FF" d="M99.6897,29.792L88.3655,18.4678c-0.7949-0.793-1.8145-1.1914-2.8301-1.1914
		c-1.0078,0-2.0156,0.3906-2.7969,1.1758c-0.002,0-0.002,0-0.002,0L9.1506,92.0381c-1.5469,1.5469-1.5391,4.0703,0.0176,5.6289
		l11.3242,11.3242c1.5859,1.582,4.0605,1.5938,5.627,0.0156l73.5879-73.5859C101.2542,33.874,101.2463,31.3506,99.6897,29.792z"/>
	<path fill="#D0E8FF" d="M77.1084,171.158l-5.7092,5.7087l11.3137,11.3137l6.4385-6.4412
		C84.752,178.0718,80.6257,174.4746,77.1084,171.158z"/>
	<path fill="#5CB0FF" d="M156.2288,18.4521c-0.7715-0.7695-1.7852-1.1562-2.8008-1.1562c-1.0215,0-2.0469,0.3906-2.8281,1.1719
		L139.2756,29.792c-0.7617,0.7617-1.1816,1.7656-1.1816,2.8281c0,1.0547,0.4121,2.0508,1.1641,2.8008l7.8572,7.8572
		c0.083,0.0872,0.1755,0.1558,0.251,0.251l65.4778,65.4778c1.5469,1.543,4.0703,1.543,5.6289-0.0156l11.3242-11.3242
		c0.7617-0.7617,1.1816-1.7656,1.1816-2.8281c0-1.0547-0.4121-2.0508-1.1641-2.8008L156.2288,18.4521z"/>
	<path fill="#D0E8FF" d="M100.01,77.417c-13.0977,13.0977-17.8145,19.1562-19.5,21.8828c2.5918,0.5117,6.7305,1.0703,10.4746,1.4531
		c4.9629-2.2695,23.6797-10.4805,32.8066-9.4297c6.6641,0.7422,19.7773-6.6406,25.3769-9.8086
		c0.9961-0.5625,1.8438-1.0391,2.502-1.3945c1.9453-1.0469,4.3711-0.3164,5.418,1.629c0.1411,0.2624,0.1704,0.5451,0.2483,0.8205
		c0.6345,0.1802,1.2441,0.4609,1.7439,0.9607c8.6445,8.6436,19.9893,22.8088,29.2214,34.8767l7.522-15.1079l-52.6926-52.6926
		C136.4766,52.9968,116.2473,61.1797,100.01,77.417z"/>
	<path fill="#D0E8FF" d="M88.3701,193.8376l14.1418,14.1418l8.7434-8.7419c-5.0342-3.8262-10.5085-8.0713-15.8855-12.4026
		L88.3701,193.8376z"/>
	<path fill="#D0E8FF" d="M152.9963,88.5425c-7.355,4.1494-20.9407,11.7568-30.1172,10.7261
		c-5.7793-0.6367-21.1797,5.2852-29.5,9.1914c-0.5332,0.25-1.1152,0.3789-1.7012,0.3789c-0.125,0-0.25-0.0039-0.375-0.0156
		c-15.6094-1.4688-17.2461-3.1055-18.125-3.9844c-3.7637-3.7578,0.1758-9.3125,1.8594-11.6836
		c3.4238-4.8242,9.7422-11.8242,19.3164-21.3945c6.2021-6.2026,12.8667-11.2593,19.2253-15.355
		c-5.959-4.5161-10.7065-8.0249-13.4851-10.0591l-63.0566,63.0586c2.7361,3.7666,8.0637,11.0271,14.342,19.2324
		c0.0684,0.0596,0.1553,0.0813,0.2205,0.1465c0.3179,0.3179,0.5269,0.6951,0.7153,1.0769
		c8.9238,11.6196,19.5806,24.873,27.5698,32.8645c13.9824,13.9805,44.0879,36.1406,53.3203,42.8438l14.5625-14.5625
		l-36.7695-36.7695c-1.5625-1.5625-1.5625-4.0938,0-5.6562s4.0938-1.5625,5.6562,0l36.7695,36.7695l11.3135-11.3135
		l-36.7685-36.7686c-1.5625-1.5625-1.5625-4.0938,0-5.6562c1.5625-1.5625,4.0937-1.5625,5.6562,0l36.7686,36.7686l11.3137-11.3137
		l-36.7678-36.7712c-1.5625-1.5625-1.5625-4.0938,0-5.6562s4.0938-1.5625,5.6562,0l36.7678,36.7712l8.908-8.908
		c-6.7051-9.2305-28.8711-39.3398-42.8477-53.3164C153.2339,88.9963,153.1401,88.7578,152.9963,88.5425z"/>
	<line fill="#1A6ACC" x1="77.0784" y1="12.7959" x2="77.0803" y2="12.7959"/>
	<path fill="#1A6ACC" d="M235.4709,86.3818L161.885,12.7959c-4.6641-4.668-12.2656-4.6602-16.9414,0.0156l-11.3262,11.3242
		c-2.2715,2.2734-3.5234,5.2852-3.5234,8.4844c-0.002,3.1914,1.2441,6.1953,3.5078,8.457l3.314,3.314
		c-3.9985,1.5779-9.6064,4.0574-15.946,7.584c-6.5564-4.9956-11.8901-8.9541-15.2053-11.3892
		c4.217-4.6914,4.1042-11.9275-0.4185-16.4502L94.0198,12.8076c-4.6797-4.668-12.2793-4.6719-16.9395-0.0117L3.4944,86.3818
		c-4.666,4.6641-4.6582,12.2656,0.0176,16.9414l11.3262,11.3281c2.3418,2.3359,5.4141,3.5078,8.4863,3.5078
		c2.8545,0,5.6846-1.0549,7.9446-3.0806c2.634,3.6243,6.958,9.5059,12.1038,16.2761L31.801,142.9248
		c-0.75,0.75-1.1719,1.7656-1.1719,2.8281s0.4219,2.0781,1.1719,2.8281l14.1436,14.1436l-0.001,0.001l5.6562,5.6562l0.001-0.001
		l8.4854,8.4854l5.6562,5.6562l11.3154,11.3154l-0.001,0.001l5.6582,5.6562l16.9688,16.9688
		c0.7812,0.7812,1.8047,1.1719,2.8281,1.1719s2.0469-0.3906,2.8281-1.1719l12.3662-12.3645
		c7.52,5.6143,13.0027,9.5405,13.5947,9.9622c0.6992,0.5,1.5137,0.7461,2.3223,0.7461c1.0312,0,2.0566-0.3984,2.8301-1.1719
		l53.7344-53.7344c0.0017-0.0017,0.0042-0.0022,0.0059-0.0039s0.0022-0.0042,0.0039-0.0059l14.1387-14.1387
		c1.3828-1.3828,1.5625-3.5625,0.4277-5.1523c-0.4504-0.6304-4.8669-6.7964-11.0725-15.075l8.0967-16.2622l5.3997,5.3997
		c2.3301,2.332,5.3926,3.4961,8.457,3.4961c3.0703,0,6.1445-1.1719,8.4844-3.5117l11.3262-11.3242
		c2.2715-2.2734,3.5234-5.2852,3.5234-8.4844C238.9807,91.6475,237.7346,88.6436,235.4709,86.3818z M20.4924,108.9912L9.1682,97.667
		c-1.5566-1.5586-1.5645-4.082-0.0176-5.6289l73.5859-73.5859c0,0,0,0,0.002,0c0.7812-0.7852,1.7891-1.1758,2.7969-1.1758
		c1.0156,0,2.0352,0.3984,2.8301,1.1914L99.6897,29.792c1.5566,1.5586,1.5645,4.082,0.0176,5.6289l-73.5879,73.5859
		C24.553,110.585,22.0784,110.5732,20.4924,108.9912z M40.2854,145.7529l7.9995-7.998c3.2314,4.1667,6.6257,8.446,10.0264,12.6013
		l-6.7109,6.7117L40.2854,145.7529z M57.2566,162.7241l6.1953-6.196c2.7717,3.2539,5.4651,6.2849,8.0002,8.9736l-5.7092,5.7087
		L57.2566,162.7241z M71.3992,176.8667l5.7092-5.7087c3.5173,3.3167,7.6436,6.9138,12.043,10.5813l-6.4385,6.4412L71.3992,176.8667z
		 M102.512,207.9795l-14.1418-14.1418l6.9998-7.0027c5.377,4.3313,10.8513,8.5764,15.8855,12.4026L102.512,207.9795z
		 M187.3638,151.4109l-36.7678-36.7712c-1.5625-1.5625-4.0938-1.5625-5.6562,0s-1.5625,4.0938,0,5.6562l36.7678,36.7712
		l-11.3137,11.3137l-36.7686-36.7686c-1.5625-1.5625-4.0938-1.5625-5.6562,0c-1.5625,1.5625-1.5625,4.0938,0,5.6562l36.7685,36.7686
		l-11.3135,11.3135l-36.7695-36.7695c-1.5625-1.5625-4.0938-1.5625-5.6562,0s-1.5625,4.0938,0,5.6562l36.7695,36.7695
		l-14.5625,14.5625c-9.2324-6.7031-39.3379-28.8633-53.3203-42.8438c-7.9893-7.9915-18.646-21.2449-27.5698-32.8645
		c-0.1885-0.3818-0.3975-0.759-0.7153-1.0769c-0.0652-0.0652-0.1521-0.0869-0.2205-0.1465
		c-6.2783-8.2053-11.606-15.4658-14.342-19.2324l63.0566-63.0586c2.7786,2.0342,7.5261,5.543,13.4851,10.0591
		c-6.3586,4.0957-13.0232,9.1523-19.2253,15.355c-9.5742,9.5703-15.8926,16.5703-19.3164,21.3945
		c-1.6836,2.3711-5.623,7.9258-1.8594,11.6836c0.8789,0.8789,2.5156,2.5156,18.125,3.9844c0.125,0.0117,0.25,0.0156,0.375,0.0156
		c0.5859,0,1.168-0.1289,1.7012-0.3789c8.3203-3.9062,23.7207-9.8281,29.5-9.1914c9.1765,1.0308,22.7622-6.5767,30.1172-10.7261
		c0.1438,0.2153,0.2375,0.4539,0.4277,0.644c13.9766,13.9766,36.1426,44.0859,42.8477,53.3164L187.3638,151.4109z M188.3018,118.407
		c-9.2322-12.0679-20.5769-26.2332-29.2214-34.8767c-0.4998-0.4998-1.1094-0.7805-1.7439-0.9607
		c-0.0779-0.2754-0.1072-0.5581-0.2483-0.8205c-1.0469-1.9454-3.4727-2.6758-5.418-1.629c-0.6582,0.3555-1.5059,0.832-2.502,1.3945
		c-5.5996,3.168-18.7129,10.5508-25.3769,9.8086c-9.127-1.0508-27.8438,7.1602-32.8066,9.4297
		c-3.7441-0.3828-7.8828-0.9414-10.4746-1.4531c1.6855-2.7266,6.4023-8.7852,19.5-21.8828
		c16.2373-16.2373,36.4665-24.4202,43.1211-26.8105l52.6926,52.6926L188.3018,118.407z M229.7971,97.667l-11.3242,11.3242
		c-1.5586,1.5586-4.082,1.5586-5.6289,0.0156l-65.4778-65.4778c-0.0754-0.0952-0.168-0.1638-0.251-0.251l-7.8572-7.8572
		c-0.752-0.75-1.1641-1.7461-1.1641-2.8008c0-1.0625,0.4199-2.0664,1.1816-2.8281l11.3242-11.3242
		c0.7812-0.7812,1.8066-1.1719,2.8281-1.1719c1.0156,0,2.0293,0.3867,2.8008,1.1562l73.5859,73.5859
		c0.752,0.75,1.1641,1.7461,1.1641,2.8008C230.9788,95.9014,230.5588,96.9053,229.7971,97.667z"/>
</g>
<path fill="#FF5D5D" d="M202.4827,28c-1.0239,0-2.0474-0.3906-2.8286-1.1719c-1.562-1.5615-1.562-4.0947,0-5.6562l14.1421-14.1426
	c1.5625-1.5625,4.0947-1.5625,5.6572,0c1.562,1.5615,1.562,4.0947,0,5.6562l-14.1421,14.1426
	C204.53,27.6094,203.5066,28,202.4827,28z"/>
<path fill="#FF5D5D" d="M216.6248,28c-1.0239,0-2.0474-0.3906-2.8286-1.1719l-14.1421-14.1426c-1.562-1.5615-1.562-4.0947,0-5.6562
	c1.5635-1.5625,4.0957-1.5615,5.6572,0l14.1421,14.1426c1.562,1.5615,1.562,4.0947,0,5.6562
	C218.6721,27.6094,217.6482,28,216.6248,28z"/>
<path fill="#00D40B" d="M28.4827,28c-7.7197,0-14-6.2803-14-14s6.2803-14,14-14s14,6.2803,14,14S36.2024,28,28.4827,28z M28.4827,8
	c-3.3086,0-6,2.6914-6,6s2.6914,6,6,6s6-2.6914,6-6S31.7913,8,28.4827,8z"/>
<path fill="#FFC504" d="M209.7961,210.627c-1.0239,0-2.0474-0.3906-2.8286-1.1719l-11.3135-11.3135
	c-1.562-1.5615-1.562-4.0947,0-5.6562l11.3135-11.3135c1.5625-1.5625,4.0952-1.5625,5.6567,0l11.314,11.3135
	c0.7505,0.75,1.1719,1.7676,1.1719,2.8281s-0.4214,2.0781-1.1719,2.8281l-11.314,11.3135
	C211.8435,210.2363,210.8196,210.627,209.7961,210.627z M204.1394,195.3135l5.6567,5.6562l5.6572-5.6562l-5.6572-5.6562
	L204.1394,195.3135z"/>
</svg>
