<?xml version="1.0" encoding="utf-8"?>
<svg version="1.1" id="heartenvelope" xmlns="http://www.w3.org/2000/svg" xmlns:xlink="http://www.w3.org/1999/xlink" x="0px"
	 y="0px" viewBox="0 0 211.275 218.0991" width="100px" height="100px" enable-background="new 0 0 211.275 218.0991" xml:space="preserve">
<g>
	<polygon fill="#D0E8FF" points="107.275,31.0991 87.2733,46.0991 127.2767,46.0991 	"/>
	<path fill="#5CB0FF" d="M106.3922,121.9448c0.2891-0.0645,0.5859-0.0977,0.8828-0.0977s0.5938,0.0332,0.8828,0.0977
		c6.4141-2.8398,28.9922-27.9102,28.9922-35.7715c0-8.8633-7.2109-16.0742-16.0742-16.0742c-4.1289,0-8.0547,1.5625-11.0508,4.4004
		c-1.539,1.4609-3.9609,1.4609-5.5,0c-2.996-2.8379-6.9218-4.4004-11.0507-4.4004c-8.8633,0-16.0742,7.2109-16.0742,16.0742
		C77.4,94.0347,99.9781,119.105,106.3922,121.9448z"/>
	<polygon fill="#D0E8FF" points="200.108,104.8823 179.275,85.438 179.275,114.0483 	"/>
	<path fill="#FFFFFF" d="M107.275,145.728l64-28.1592V54.0991h-128v63.4697L107.275,145.728z M93.4742,62.0991
		c4.9883,0,9.7773,1.5234,13.8008,4.3438c4.0234-2.8203,8.8125-4.3438,13.8008-4.3438c13.2734,0,24.0742,10.7988,24.0742,24.0742
		c0,12.0332-25.2578,39.4082-34.1641,43.2402c-1.1484,0.4941-2.1445,0.6836-3,0.6836c-0.25,0-0.4844-0.0156-0.7109-0.0449
		c-1,0.1289-2.2266,0-3.7109-0.6387C94.6578,125.5815,69.4,98.2065,69.4,86.1733C69.4,72.8979,80.2008,62.0991,93.4742,62.0991z"/>
	<polygon fill="#D0E8FF" points="20.9469,210.0991 193.6031,210.0991 107.275,154.8491 	"/>
	<polygon fill="#D0E8FF" points="115.7181,150.7534 203.275,206.79 203.275,112.23 	"/>
	<polygon fill="#D0E8FF" points="35.275,114.0483 35.275,85.562 14.5321,104.9219 	"/>
	<polygon fill="#D0E8FF" points="11.275,112.23 11.275,206.79 98.8319,150.7534 	"/>
	<path fill="#1A6ACC" d="M211.264,106.0122c-0.0015-0.064-0.019-0.1235-0.0234-0.1875c-0.0288-0.4102-0.1235-0.8027-0.2712-1.1777
		c-0.0356-0.0918-0.0627-0.1802-0.1052-0.2686c-0.1987-0.4146-0.4648-0.7881-0.7949-1.1143
		c-0.0269-0.0264-0.0359-0.0625-0.0637-0.0889l-30-28c-0.2185-0.2031-0.4839-0.3037-0.7305-0.4492v-24.627c0-2.209-1.7891-4-4-4
		h-34.6692l-30.9324-23.1992c-1.4219-1.0664-3.375-1.0664-4.7969,0L73.9442,46.0991H39.275c-2.2109,0-4,1.791-4,4v24.708
		c-0.198,0.1279-0.4189,0.2017-0.5977,0.3682L5.1842,102.7021c-0.031,0.019-0.0662,0.0273-0.0967,0.0474
		c-1.1289,0.7383-1.8125,1.998-1.8125,3.3496v112h4h4h192h4h4v-112C211.275,106.0698,211.2648,106.0415,211.264,106.0122z
		 M200.108,104.8823l-20.833,9.166V85.438L200.108,104.8823z M107.275,31.0991l20.0017,15H87.2733L107.275,31.0991z
		 M171.275,54.0991v63.4697l-64,28.1592l-64-28.1592V54.0991H171.275z M35.275,85.562v28.4863l-20.7429-9.1265L35.275,85.562z
		 M11.275,112.23l87.5569,38.5234L11.275,206.79V112.23z M20.9469,210.0991l86.3281-55.25l86.3281,55.25H20.9469z
		 M115.7181,150.7534L203.275,112.23V206.79L115.7181,150.7534z"/>
	<path fill="#1A6ACC" d="M103.5641,129.4136c1.4844,0.6387,2.7109,0.7676,3.7109,0.6387c0.2266,0.0293,0.4609,0.0449,0.7109,0.0449
		c0.8555,0,1.8516-0.1895,3-0.6836c8.9062-3.832,34.1641-31.207,34.1641-43.2402c0-13.2754-10.8008-24.0742-24.0742-24.0742
		c-4.9883,0-9.7773,1.5234-13.8008,4.3438c-4.0234-2.8203-8.8125-4.3438-13.8008-4.3438C80.2008,62.0991,69.4,72.8979,69.4,86.1733
		C69.4,98.2065,94.6578,125.5815,103.5641,129.4136z M93.4742,70.0991c4.1289,0,8.0547,1.5625,11.0507,4.4004
		c1.5391,1.4609,3.961,1.4609,5.5,0c2.9962-2.8379,6.9219-4.4004,11.0508-4.4004c8.8633,0,16.0742,7.2109,16.0742,16.0742
		c0,7.8613-22.5781,32.9316-28.9922,35.7715c-0.2891-0.0645-0.5859-0.0977-0.8828-0.0977s-0.5938,0.0332-0.8828,0.0977
		C99.9781,119.105,77.4,94.0347,77.4,86.1733C77.4,77.3101,84.611,70.0991,93.4742,70.0991z"/>
</g>
<path fill="#FF5D5D" d="M184,36c-1.0234,0-2.0469-0.3906-2.8281-1.1714c-1.5625-1.5625-1.5625-4.0952,0-5.6572l14.1426-14.1421
	c1.5605-1.5615,4.0938-1.5615,5.6562,0c1.5625,1.5625,1.5625,4.0952,0,5.6572l-14.1426,14.1421C186.0479,35.6094,185.0234,36,184,36
	z"/>
<path fill="#FF5D5D" d="M198.1426,35.9985c-1.0234,0-2.0479-0.3906-2.8281-1.1714l-14.1426-14.1426
	c-1.5625-1.5625-1.5625-4.0947,0-5.6572c1.5605-1.5615,4.0957-1.5615,5.6562,0l14.1426,14.1426
	c1.5625,1.5625,1.5625,4.0947,0,5.6572C200.1904,35.6079,199.166,35.9985,198.1426,35.9985z"/>
<path fill="#00D40B" d="M38,28c-7.7197,0-14-6.2803-14-14S30.2803,0,38,0s14,6.2803,14,14S45.7197,28,38,28z M38,8
	c-3.3086,0-6,2.6914-6,6s2.6914,6,6,6s6-2.6914,6-6S41.3086,8,38,8z"/>
<path fill="#FFC504" d="M15.3145,74.6255c-1.0234,0-2.0469-0.3906-2.8281-1.1714L1.1719,62.1406C0.4219,61.3906,0,60.373,0,59.312
	s0.4219-2.0786,1.1719-2.8286l11.3145-11.3135c1.5625-1.5615,4.0938-1.5615,5.6562,0l11.3135,11.3135
	c1.5625,1.5625,1.5625,4.0947,0,5.6572L18.1426,73.4541C17.3623,74.2349,16.3379,74.6255,15.3145,74.6255z M9.6572,59.312
	l5.6572,5.6567l5.6562-5.6567l-5.6562-5.6567L9.6572,59.312z"/>
</svg>
