<?xml version="1.0" encoding="utf-8"?>
<svg version="1.1" id="letter" xmlns="http://www.w3.org/2000/svg" xmlns:xlink="http://www.w3.org/1999/xlink" x="0px" y="0px"
	 viewBox="0 0 224 216" width="100px" height="100px" enable-background="new 0 0 224 216" xml:space="preserve">
<g>
	<path fill="#5CB0FF" d="M8,176.499h208v-128H8V176.499z M88,136.499H68v-8h20V136.499z M156,60.499c0-2.2109,1.7891-4,4-4h44
		c2.2109,0,4,1.7891,4,4v44c0,2.2109-1.7891,4-4,4h-44c-2.2109,0-4-1.7891-4-4V60.499z M24,112.499h88.1016v8H24V112.499z
		 M24,128.499h32v8H24V128.499z M24,144.499h56v8H24V144.499z"/>
	<rect x="164" y="64.499" fill="#D0E8FF" width="36" height="36"/>
	<path fill="#1A6ACC" d="M220,40.499H4c-2.2109,0-4,1.7891-4,4v136c0,2.2109,1.7891,4,4,4h216c2.2109,0,4-1.7891,4-4v-136
		C224,42.2881,222.2109,40.499,220,40.499z M216,176.499H8v-128h208V176.499z"/>
	<rect x="24" y="112.499" fill="#FFFFFF" width="88.1016" height="8"/>
	<rect x="24" y="144.499" fill="#FFFFFF" width="56" height="8"/>
	<rect x="24" y="128.499" fill="#FFFFFF" width="32" height="8"/>
	<rect x="68" y="128.499" fill="#FFFFFF" width="20" height="8"/>
	<path fill="#1A6ACC" d="M160,108.499h44c2.2109,0,4-1.7891,4-4v-44c0-2.2109-1.7891-4-4-4h-44c-2.2109,0-4,1.7891-4,4v44
		C156,106.71,157.7891,108.499,160,108.499z M164,64.499h36v36h-36V64.499z"/>
</g>
<path fill="#FF5D5D" d="M103,216c-1.0234,0-2.0479-0.3906-2.8281-1.1719c-1.5625-1.5615-1.5625-4.0947,0-5.6562l14.1426-14.1426
	c1.5605-1.5625,4.0957-1.5625,5.6562,0c1.5625,1.5615,1.5625,4.0947,0,5.6562l-14.1426,14.1426
	C105.0479,215.6094,104.0234,216,103,216z"/>
<path fill="#FF5D5D" d="M117.1426,216c-1.0234,0-2.0479-0.3906-2.8281-1.1719l-14.1426-14.1426
	c-1.5625-1.5615-1.5625-4.0947,0-5.6562c1.5605-1.5625,4.0957-1.5625,5.6562,0l14.1426,14.1426
	c1.5625,1.5615,1.5625,4.0947,0,5.6562C119.1904,215.6094,118.166,216,117.1426,216z"/>
<path fill="#00D40B" d="M45,28c-7.7197,0-14-6.2803-14-14S37.2803,0,45,0s14,6.2803,14,14S52.7197,28,45,28z M45,8
	c-3.3086,0-6,2.6914-6,6s2.6914,6,6,6s6-2.6914,6-6S48.3086,8,45,8z"/>
<path fill="#FFC504" d="M186.3135,162.627c-1.0234,0-2.0479-0.3906-2.8281-1.1719l-11.3135-11.3135
	c-1.5625-1.5615-1.5625-4.0947,0-5.6562l11.3135-11.3145c0.75-0.75,1.7676-1.1719,2.8281-1.1719s2.0781,0.4219,2.8281,1.1719
	l11.3135,11.3145c1.5625,1.5615,1.5625,4.0947,0,5.6562l-11.3135,11.3135C188.3613,162.2363,187.3369,162.627,186.3135,162.627z
	 M180.6562,147.3135l5.6572,5.6562l5.6572-5.6562l-5.6572-5.6572L180.6562,147.3135z"/>
</svg>
