<?xml version="1.0" encoding="utf-8"?>
<svg version="1.1" id="localstore" xmlns="http://www.w3.org/2000/svg" xmlns:xlink="http://www.w3.org/1999/xlink" x="0px" y="0px"
	 viewBox="0 0 200 216.4995" width="100px" height="100px" enable-background="new 0 0 200 216.4995" xml:space="preserve">
<g>
	<path fill="#5CB0FF" d="M32,16.4995v60c0,4.4121,3.5898,8,8,8s8-3.5879,8-8v-60H32z"/>
	<path fill="#5CB0FF" d="M8,16.4995v60c0,4.4121,3.5898,8,8,8s8-3.5879,8-8v-60H8z"/>
	<path fill="#D0E8FF" d="M16,208.4995h12v-76c0-2.209,1.7891-4,4-4h48c2.2109,0,4,1.791,4,4v76h100v-104H16V208.4995z M92,128.4995
		c0-2.209,1.7891-4,4-4h72c2.2109,0,4,1.791,4,4v60c0,2.209-1.7891,4-4,4H96c-2.2109,0-4-1.791-4-4V128.4995z"/>
	<rect x="136" y="132.4995" fill="#5CB0FF" width="28" height="52"/>
	<path fill="#5CB0FF" d="M36,136.4995v72h40v-72H36z M72,176.4995H56v-8h16V176.4995z"/>
	<rect x="100" y="132.4995" fill="#5CB0FF" width="28" height="52"/>
	<path fill="#5CB0FF" d="M56,16.4995v60c0,4.4121,3.5898,8,8,8s8-3.5879,8-8v-60H56z"/>
	<path fill="#5CB0FF" d="M152,16.4995v60c0,4.4121,3.5898,8,8,8s8-3.5879,8-8v-60H152z"/>
	<path fill="#5CB0FF" d="M80,16.4995v60c0,4.4121,3.5898,8,8,8s8-3.5879,8-8v-60H80z"/>
	<path fill="#5CB0FF" d="M176,76.4995c0,4.4121,3.5898,8,8,8s8-3.5879,8-8v-60h-16V76.4995z"/>
	<path fill="#5CB0FF" d="M128,16.4995v60c0,4.4121,3.5898,8,8,8s8-3.5879,8-8v-60H128z"/>
	<path fill="#5CB0FF" d="M104,16.4995v60c0,4.4121,3.5898,8,8,8s8-3.5879,8-8v-60H104z"/>
	<path fill="#1A6ACC" d="M196,8.4995h-24h-24h-24h-24H76H52H28H4c-2.2109,0-4,1.791-4,4v64c0,8.8223,7.1758,16,16,16
		c4.802,0,9.0652-2.1694,12-5.5288c2.9348,3.3594,7.198,5.5288,12,5.5288s9.0652-2.1694,12-5.5288
		c2.9348,3.3594,7.198,5.5288,12,5.5288s9.0652-2.1694,12-5.5288c2.9348,3.3594,7.198,5.5288,12,5.5288s9.0652-2.1694,12-5.5288
		c2.9348,3.3594,7.198,5.5288,12,5.5288s9.0652-2.1694,12-5.5288c2.9348,3.3594,7.198,5.5288,12,5.5288s9.0652-2.1694,12-5.5288
		c2.9348,3.3594,7.198,5.5288,12,5.5288s9.0652-2.1694,12-5.5288c2.9348,3.3594,7.198,5.5288,12,5.5288c8.8242,0,16-7.1777,16-16
		v-64C200,10.2905,198.2109,8.4995,196,8.4995z M16,84.4995c-4.4102,0-8-3.5879-8-8v-60h16v60
		C24,80.9116,20.4102,84.4995,16,84.4995z M40,84.4995c-4.4102,0-8-3.5879-8-8v-60h16v60C48,80.9116,44.4102,84.4995,40,84.4995z
		 M64,84.4995c-4.4102,0-8-3.5879-8-8v-60h16v60C72,80.9116,68.4102,84.4995,64,84.4995z M88,84.4995c-4.4102,0-8-3.5879-8-8v-60h16
		v60C96,80.9116,92.4102,84.4995,88,84.4995z M112,84.4995c-4.4102,0-8-3.5879-8-8v-60h16v60
		C120,80.9116,116.4102,84.4995,112,84.4995z M136,84.4995c-4.4102,0-8-3.5879-8-8v-60h16v60
		C144,80.9116,140.4102,84.4995,136,84.4995z M160,84.4995c-4.4102,0-8-3.5879-8-8v-60h16v60
		C168,80.9116,164.4102,84.4995,160,84.4995z M192,76.4995c0,4.4121-3.5898,8-8,8s-8-3.5879-8-8v-60h16V76.4995z"/>
	<path fill="#1A6ACC" d="M188,96.4995H12c-2.2109,0-4,1.791-4,4v112c0,2.209,1.7891,4,4,4h20h48h108c2.2109,0,4-1.791,4-4v-112
		C192,98.2905,190.2109,96.4995,188,96.4995z M36,208.4995v-72h40v72H36z M184,208.4995H84v-76c0-2.209-1.7891-4-4-4H32
		c-2.2109,0-4,1.791-4,4v76H16v-104h168V208.4995z"/>
	<path fill="#1A6ACC" d="M96,192.4995h72c2.2109,0,4-1.791,4-4v-60c0-2.209-1.7891-4-4-4H96c-2.2109,0-4,1.791-4,4v60
		C92,190.7085,93.7891,192.4995,96,192.4995z M164,184.4995h-28v-52h28V184.4995z M100,132.4995h28v52h-28V132.4995z"/>
	<rect x="56" y="168.4995" fill="#1A6ACC" width="16" height="8"/>
</g>
<path fill="#FF5D5D" d="M163,128c-1.0234,0-2.0469-0.3906-2.8281-1.1714c-1.5625-1.5625-1.5625-4.0952,0-5.6572l14.1426-14.1421
	c1.5605-1.5615,4.0938-1.5615,5.6562,0c1.5625,1.5625,1.5625,4.0952,0,5.6572l-14.1426,14.1421
	C165.0479,127.6094,164.0234,128,163,128z"/>
<path fill="#FF5D5D" d="M177.1426,128.0005c-1.0234,0-2.0479-0.3906-2.8281-1.1714l-14.1426-14.1426
	c-1.5625-1.5625-1.5625-4.0947,0-5.6572c1.5605-1.5615,4.0957-1.5615,5.6562,0l14.1426,14.1426
	c1.5625,1.5625,1.5625,4.0947,0,5.6572C179.1904,127.6099,178.166,128.0005,177.1426,128.0005z"/>
<path fill="#00D40B" d="M169,28c-7.7197,0-14-6.2803-14-14s6.2803-14,14-14s14,6.2803,14,14S176.7197,28,169,28z M169,8
	c-3.3086,0-6,2.6914-6,6s2.6914,6,6,6s6-2.6914,6-6S172.3086,8,169,8z"/>
<path fill="#FFC504" d="M34.3135,194.6274c-1.0234,0-2.0479-0.3906-2.8281-1.1714l-11.3135-11.3135
	c-1.5625-1.5625-1.5625-4.0947,0-5.6567l11.3135-11.314c0.75-0.7505,1.7676-1.1719,2.8281-1.1719s2.0781,0.4214,2.8281,1.1719
	l11.3135,11.314c1.5625,1.562,1.5625,4.0942,0,5.6567l-11.3135,11.3135C36.3613,194.2368,35.3369,194.6274,34.3135,194.6274z
	 M28.6572,179.314l5.6562,5.6567l5.6562-5.6567l-5.6562-5.6572L28.6572,179.314z"/>
</svg>
