<?xml version="1.0" encoding="utf-8"?>
<!-- Generator: Adobe Illustrator 19.2.0, SVG Export Plug-In . SVG Version: 6.00 Build 0)  -->
<svg version="1.1" id="login" xmlns="http://www.w3.org/2000/svg" xmlns:xlink="http://www.w3.org/1999/xlink" x="0px" y="0px"
	 viewBox="0 0 224 195.4424" enable-background="new 0 0 224 195.4424" xml:space="preserve">
<g>
	<rect x="88" y="135.4424" fill="#D0E8FF" width="48" height="8"/>
	<path fill="#5CB0FF" d="M176,67.4424H48v92h128V67.4424z M144,147.4424c0,2.2109-1.7891,4-4,4H84c-2.2109,0-4-1.7891-4-4v-16
		c0-2.2109,1.7891-4,4-4h56c2.2109,0,4,1.7891,4,4V147.4424z M168,115.4424c0,2.2109-1.7891,4-4,4H60c-2.2109,0-4-1.7891-4-4v-20
		c0-2.2109,1.7891-4,4-4h104c2.2109,0,4,1.7891,4,4V115.4424z M172,79.4424c0,2.2109-1.7891,4-4,4h-4c-2.2109,0-4-1.7891-4-4v-4
		c0-2.2109,1.7891-4,4-4h4c2.2109,0,4,1.7891,4,4V79.4424z"/>
	<rect x="64" y="99.4424" fill="#D0E8FF" width="96" height="12"/>
	<path fill="#D0E8FF" d="M8,187.4424h208v-152H8V187.4424z M40,63.4424c0-2.2109,1.7891-4,4-4h136c2.2109,0,4,1.7891,4,4v100
		c0,2.2109-1.7891,4-4,4H44c-2.2109,0-4-1.7891-4-4V63.4424z"/>
	<path fill="#1A6ACC" d="M220,27.4424H4c-2.2109,0-4,1.7891-4,4v160c0,2.2109,1.7891,4,4,4h216c2.2109,0,4-1.7891,4-4v-160
		C224,29.2314,222.2109,27.4424,220,27.4424z M216,187.4424H8v-152h208V187.4424z"/>
	<path fill="#1A6ACC" d="M44,167.4424h136c2.2109,0,4-1.7891,4-4v-100c0-2.2109-1.7891-4-4-4H44c-2.2109,0-4,1.7891-4,4v100
		C40,165.6533,41.7891,167.4424,44,167.4424z M48,67.4424h128v92H48V67.4424z"/>
	<path fill="#1A6ACC" d="M140,127.4424H84c-2.2109,0-4,1.7891-4,4v16c0,2.2109,1.7891,4,4,4h56c2.2109,0,4-1.7891,4-4v-16
		C144,129.2314,142.2109,127.4424,140,127.4424z M136,143.4424H88v-8h48V143.4424z"/>
	<path fill="#1A6ACC" d="M164,91.4424H60c-2.2109,0-4,1.7891-4,4v20c0,2.2109,1.7891,4,4,4h104c2.2109,0,4-1.7891,4-4v-20
		C168,93.2314,166.2109,91.4424,164,91.4424z M160,111.4424H64v-12h96V111.4424z"/>
	<path fill="#1A6ACC" d="M168,71.4424h-4c-2.2109,0-4,1.7891-4,4v4c0,2.2109,1.7891,4,4,4h4c2.2109,0,4-1.7891,4-4v-4
		C172,73.2314,170.2109,71.4424,168,71.4424z"/>
</g>
<path fill="#FF5D5D" d="M160.0146,22.1416c-1.0234,0-2.0479-0.3906-2.8281-1.1719c-1.5625-1.5615-1.5625-4.0947,0-5.6562
	l14.1426-14.1416c1.5625-1.5625,4.0957-1.5625,5.6562,0c1.5625,1.5615,1.5625,4.0947,0,5.6562l-14.1426,14.1416
	C162.0615,21.751,161.0381,22.1416,160.0146,22.1416z"/>
<path fill="#FF5D5D" d="M174.1572,22.1416c-1.0234,0-2.0469-0.3906-2.8281-1.1719L157.1865,6.8281
	c-1.5625-1.5615-1.5625-4.0947,0-5.6562c1.5605-1.5625,4.0938-1.5625,5.6562,0l14.1426,14.1416
	c1.5625,1.5615,1.5625,4.0947,0,5.6562C176.2051,21.751,175.1807,22.1416,174.1572,22.1416z"/>
<path fill="#00D40B" d="M22.0146,142.1416c-7.7197,0-14-6.2803-14-14s6.2803-14,14-14s14,6.2803,14,14
	S29.7344,142.1416,22.0146,142.1416z M22.0146,122.1416c-3.3086,0-6,2.6914-6,6s2.6914,6,6,6s6-2.6914,6-6
	S25.3232,122.1416,22.0146,122.1416z"/>
<path fill="#FFC504" d="M199.3281,164.7686c-1.0234,0-2.0469-0.3906-2.8281-1.1719l-11.3135-11.3135
	c-1.5625-1.5615-1.5625-4.0947,0-5.6562L196.5,135.3135c1.5605-1.5625,4.0938-1.5625,5.6562,0l11.3145,11.3135
	c0.75,0.75,1.1719,1.7676,1.1719,2.8281s-0.4219,2.0781-1.1719,2.8281l-11.3145,11.3135
	C201.375,164.3779,200.3516,164.7686,199.3281,164.7686z M193.6719,149.4551l5.6562,5.6572l5.6572-5.6572l-5.6572-5.6572
	L193.6719,149.4551z"/>
</svg>
