<?xml version="1.0" encoding="utf-8"?>
<svg version="1.1" id="markedcalendar" xmlns="http://www.w3.org/2000/svg" xmlns:xlink="http://www.w3.org/1999/xlink" x="0px"
	 y="0px" viewBox="0 0 216 196" width="100px" height="100px" enable-background="new 0 0 216 196" xml:space="preserve">
<g>
	<path fill="#5CB0FF" d="M8,188h200V72H8V188z M158.8281,154.8281l-14.1426,14.1406c-0.7812,0.7813-1.8047,1.1719-2.8281,1.1719
		s-2.0469-0.3906-2.8281-1.1719c-1.5625-1.5625-1.5625-4.0938,0-5.6562l14.1426-14.1406c1.5625-1.5625,4.0938-1.5625,5.6562,0
		S160.3906,153.2656,158.8281,154.8281z M179.0293,99.3125l14.1426-14.1406c1.5625-1.5625,4.0938-1.5625,5.6562,0
		s1.5625,4.0938,0,5.6562l-14.1426,14.1406c-0.7812,0.7813-1.8047,1.1719-2.8281,1.1719s-2.0469-0.3906-2.8281-1.1719
		C177.4668,103.4062,177.4668,100.875,179.0293,99.3125z M179.0293,131.3125l14.1426-14.1406c1.5625-1.5625,4.0938-1.5625,5.6562,0
		s1.5625,4.0938,0,5.6562l-14.1426,14.1406c-0.7812,0.7813-1.8047,1.1719-2.8281,1.1719s-2.0469-0.3906-2.8281-1.1719
		C177.4668,135.4062,177.4668,132.875,179.0293,131.3125z M179.0293,163.3125l14.1426-14.1406c1.5625-1.5625,4.0938-1.5625,5.6562,0
		s1.5625,4.0938,0,5.6562l-14.1426,14.1406c-0.7812,0.7813-1.8047,1.1719-2.8281,1.1719s-2.0469-0.3906-2.8281-1.1719
		C177.4668,167.4062,177.4668,164.875,179.0293,163.3125z M139.0293,99.3125l14.1426-14.1406c1.5625-1.5625,4.0938-1.5625,5.6562,0
		s1.5625,4.0938,0,5.6562l-14.1426,14.1406c-0.7812,0.7813-1.8047,1.1719-2.8281,1.1719s-2.0469-0.3906-2.8281-1.1719
		C137.4668,103.4062,137.4668,100.875,139.0293,99.3125z M137.1719,117.1719c1.5625-1.5625,4.0938-1.5625,5.6562,0L148,122.343
		l5.1719-5.1711c1.5625-1.5625,4.0938-1.5625,5.6562,0s1.5625,4.0938,0,5.6562l-5.1714,5.1707l3.314,3.3137
		c1.5625,1.5625,1.5625,4.0938,0,5.6562c-0.7812,0.7813-1.8047,1.1719-2.8281,1.1719s-2.0469-0.3906-2.8281-1.1719L148,133.6548
		l-3.3145,3.314c-0.7812,0.7813-1.8047,1.1719-2.8281,1.1719s-2.0469-0.3906-2.8281-1.1719c-1.5625-1.5625-1.5625-4.0938,0-5.6562
		l3.314-3.3137l-5.1714-5.1707C135.6094,121.2656,135.6094,118.7344,137.1719,117.1719z M99.0293,99.3125l14.1426-14.1406
		c1.5625-1.5625,4.0938-1.5625,5.6562,0s1.5625,4.0938,0,5.6562l-14.1426,14.1406c-0.7812,0.7813-1.8047,1.1719-2.8281,1.1719
		s-2.0469-0.3906-2.8281-1.1719C97.4668,103.4062,97.4668,100.875,99.0293,99.3125z M99.0293,131.3125l14.1426-14.1406
		c1.5625-1.5625,4.0938-1.5625,5.6562,0s1.5625,4.0938,0,5.6562l-14.1426,14.1406c-0.7812,0.7813-1.8047,1.1719-2.8281,1.1719
		s-2.0469-0.3906-2.8281-1.1719C97.4668,135.4062,97.4668,132.875,99.0293,131.3125z M97.1719,149.1719
		c1.5625-1.5625,4.0938-1.5625,5.6562,0L108,154.343l5.1719-5.1711c1.5625-1.5625,4.0938-1.5625,5.6562,0s1.5625,4.0938,0,5.6562
		l-5.1714,5.1707l3.314,3.3137c1.5625,1.5625,1.5625,4.0938,0,5.6562c-0.7812,0.7813-1.8047,1.1719-2.8281,1.1719
		s-2.0469-0.3906-2.8281-1.1719L108,165.6548l-3.3145,3.314c-0.7812,0.7813-1.8047,1.1719-2.8281,1.1719
		s-2.0469-0.3906-2.8281-1.1719c-1.5625-1.5625-1.5625-4.0938,0-5.6562l3.314-3.3137l-5.1714-5.1707
		C95.6094,153.2656,95.6094,150.7344,97.1719,149.1719z M59.0293,99.3125l14.1426-14.1406c1.5625-1.5625,4.0938-1.5625,5.6562,0
		s1.5625,4.0938,0,5.6562l-14.1426,14.1406c-0.7812,0.7813-1.8047,1.1719-2.8281,1.1719s-2.0469-0.3906-2.8281-1.1719
		C57.4668,103.4062,57.4668,100.875,59.0293,99.3125z M59.0293,131.3125l14.1426-14.1406c1.5625-1.5625,4.0938-1.5625,5.6562,0
		s1.5625,4.0938,0,5.6562l-14.1426,14.1406c-0.7812,0.7813-1.8047,1.1719-2.8281,1.1719s-2.0469-0.3906-2.8281-1.1719
		C57.4668,135.4062,57.4668,132.875,59.0293,131.3125z M59.0293,163.3125l14.1426-14.1406c1.5625-1.5625,4.0938-1.5625,5.6562,0
		s1.5625,4.0938,0,5.6562l-14.1426,14.1406c-0.7812,0.7813-1.8047,1.1719-2.8281,1.1719s-2.0469-0.3906-2.8281-1.1719
		C57.4668,167.4062,57.4668,164.875,59.0293,163.3125z M19.0293,99.3125l14.1426-14.1406c1.5625-1.5625,4.0938-1.5625,5.6562,0
		s1.5625,4.0938,0,5.6562l-14.1426,14.1406c-0.7812,0.7813-1.8047,1.1719-2.8281,1.1719s-2.0469-0.3906-2.8281-1.1719
		C17.4668,103.4062,17.4668,100.875,19.0293,99.3125z M19.0293,131.3125l14.1426-14.1406c1.5625-1.5625,4.0938-1.5625,5.6562,0
		s1.5625,4.0938,0,5.6562l-14.1426,14.1406c-0.7812,0.7813-1.8047,1.1719-2.8281,1.1719s-2.0469-0.3906-2.8281-1.1719
		C17.4668,135.4062,17.4668,132.875,19.0293,131.3125z M19.0293,163.3125l14.1426-14.1406c1.5625-1.5625,4.0938-1.5625,5.6562,0
		s1.5625,4.0938,0,5.6562l-14.1426,14.1406c-0.7812,0.7813-1.8047,1.1719-2.8281,1.1719s-2.0469-0.3906-2.8281-1.1719
		C17.4668,167.4062,17.4668,164.875,19.0293,163.3125z"/>
	<polygon fill="#D0E8FF" points="208,28 176,28 168,28 48,28 40,28 8,28 8,64 208,64 	"/>
	<path fill="#1A6ACC" d="M212,20h-36V0h-8v20H48V0h-8v20H4c-2.209,0-4,1.7891-4,4v44v124c0,2.2109,1.791,4,4,4h208
		c2.209,0,4-1.7891,4-4V68V24C216,21.7891,214.209,20,212,20z M8,28h32h8h120h8h32v36H8V28z M208,188H8V72h200V188z"/>
	<path fill="#1A6ACC" d="M21.8574,106.1406c1.0234,0,2.0469-0.3906,2.8281-1.1719l14.1426-14.1406
		c1.5625-1.5625,1.5625-4.0938,0-5.6562s-4.0938-1.5625-5.6562,0L19.0293,99.3125c-1.5625,1.5625-1.5625,4.0938,0,5.6562
		C19.8105,105.75,20.834,106.1406,21.8574,106.1406z"/>
	<path fill="#1A6ACC" d="M61.8574,106.1406c1.0234,0,2.0469-0.3906,2.8281-1.1719l14.1426-14.1406
		c1.5625-1.5625,1.5625-4.0938,0-5.6562s-4.0938-1.5625-5.6562,0L59.0293,99.3125c-1.5625,1.5625-1.5625,4.0938,0,5.6562
		C59.8105,105.75,60.834,106.1406,61.8574,106.1406z"/>
	<path fill="#1A6ACC" d="M101.8574,106.1406c1.0234,0,2.0469-0.3906,2.8281-1.1719l14.1426-14.1406
		c1.5625-1.5625,1.5625-4.0938,0-5.6562s-4.0938-1.5625-5.6562,0L99.0293,99.3125c-1.5625,1.5625-1.5625,4.0938,0,5.6562
		C99.8105,105.75,100.834,106.1406,101.8574,106.1406z"/>
	<path fill="#1A6ACC" d="M141.8574,106.1406c1.0234,0,2.0469-0.3906,2.8281-1.1719l14.1426-14.1406
		c1.5625-1.5625,1.5625-4.0938,0-5.6562s-4.0938-1.5625-5.6562,0l-14.1426,14.1406c-1.5625,1.5625-1.5625,4.0938,0,5.6562
		C139.8105,105.75,140.834,106.1406,141.8574,106.1406z"/>
	<path fill="#1A6ACC" d="M181.8574,106.1406c1.0234,0,2.0469-0.3906,2.8281-1.1719l14.1426-14.1406
		c1.5625-1.5625,1.5625-4.0938,0-5.6562s-4.0938-1.5625-5.6562,0l-14.1426,14.1406c-1.5625,1.5625-1.5625,4.0938,0,5.6562
		C179.8105,105.75,180.834,106.1406,181.8574,106.1406z"/>
	<path fill="#1A6ACC" d="M21.8574,138.1406c1.0234,0,2.0469-0.3906,2.8281-1.1719l14.1426-14.1406
		c1.5625-1.5625,1.5625-4.0938,0-5.6562s-4.0938-1.5625-5.6562,0l-14.1426,14.1406c-1.5625,1.5625-1.5625,4.0938,0,5.6562
		C19.8105,137.75,20.834,138.1406,21.8574,138.1406z"/>
	<path fill="#1A6ACC" d="M61.8574,138.1406c1.0234,0,2.0469-0.3906,2.8281-1.1719l14.1426-14.1406
		c1.5625-1.5625,1.5625-4.0938,0-5.6562s-4.0938-1.5625-5.6562,0l-14.1426,14.1406c-1.5625,1.5625-1.5625,4.0938,0,5.6562
		C59.8105,137.75,60.834,138.1406,61.8574,138.1406z"/>
	<path fill="#1A6ACC" d="M101.8574,138.1406c1.0234,0,2.0469-0.3906,2.8281-1.1719l14.1426-14.1406
		c1.5625-1.5625,1.5625-4.0938,0-5.6562s-4.0938-1.5625-5.6562,0l-14.1426,14.1406c-1.5625,1.5625-1.5625,4.0938,0,5.6562
		C99.8105,137.75,100.834,138.1406,101.8574,138.1406z"/>
	<path fill="#FFFFFF" d="M142.3433,127.9988l-3.314,3.3137c-1.5625,1.5625-1.5625,4.0938,0,5.6562
		c0.7812,0.7813,1.8047,1.1719,2.8281,1.1719s2.0469-0.3906,2.8281-1.1719l3.3145-3.314l3.3145,3.314
		c0.7812,0.7813,1.8047,1.1719,2.8281,1.1719s2.0469-0.3906,2.8281-1.1719c1.5625-1.5625,1.5625-4.0938,0-5.6562l-3.314-3.3137
		l5.1714-5.1707c1.5625-1.5625,1.5625-4.0938,0-5.6562s-4.0938-1.5625-5.6562,0L148,122.343l-5.1719-5.1711
		c-1.5625-1.5625-4.0938-1.5625-5.6562,0s-1.5625,4.0938,0,5.6562L142.3433,127.9988z"/>
	<path fill="#1A6ACC" d="M181.8574,138.1406c1.0234,0,2.0469-0.3906,2.8281-1.1719l14.1426-14.1406
		c1.5625-1.5625,1.5625-4.0938,0-5.6562s-4.0938-1.5625-5.6562,0l-14.1426,14.1406c-1.5625,1.5625-1.5625,4.0938,0,5.6562
		C179.8105,137.75,180.834,138.1406,181.8574,138.1406z"/>
	<path fill="#1A6ACC" d="M21.8574,170.1406c1.0234,0,2.0469-0.3906,2.8281-1.1719l14.1426-14.1406
		c1.5625-1.5625,1.5625-4.0938,0-5.6562s-4.0938-1.5625-5.6562,0l-14.1426,14.1406c-1.5625,1.5625-1.5625,4.0938,0,5.6562
		C19.8105,169.75,20.834,170.1406,21.8574,170.1406z"/>
	<path fill="#1A6ACC" d="M61.8574,170.1406c1.0234,0,2.0469-0.3906,2.8281-1.1719l14.1426-14.1406
		c1.5625-1.5625,1.5625-4.0938,0-5.6562s-4.0938-1.5625-5.6562,0l-14.1426,14.1406c-1.5625,1.5625-1.5625,4.0938,0,5.6562
		C59.8105,169.75,60.834,170.1406,61.8574,170.1406z"/>
	<path fill="#FFFFFF" d="M102.3433,159.9988l-3.314,3.3137c-1.5625,1.5625-1.5625,4.0938,0,5.6562
		c0.7812,0.7813,1.8047,1.1719,2.8281,1.1719s2.0469-0.3906,2.8281-1.1719l3.3145-3.314l3.3145,3.314
		c0.7812,0.7813,1.8047,1.1719,2.8281,1.1719s2.0469-0.3906,2.8281-1.1719c1.5625-1.5625,1.5625-4.0938,0-5.6562l-3.314-3.3137
		l5.1714-5.1707c1.5625-1.5625,1.5625-4.0938,0-5.6562s-4.0938-1.5625-5.6562,0L108,154.343l-5.1719-5.1711
		c-1.5625-1.5625-4.0938-1.5625-5.6562,0s-1.5625,4.0938,0,5.6562L102.3433,159.9988z"/>
	<path fill="#1A6ACC" d="M153.1719,149.1719l-14.1426,14.1406c-1.5625,1.5625-1.5625,4.0938,0,5.6562
		c0.7812,0.7813,1.8047,1.1719,2.8281,1.1719s2.0469-0.3906,2.8281-1.1719l14.1426-14.1406c1.5625-1.5625,1.5625-4.0938,0-5.6562
		S154.7344,147.6094,153.1719,149.1719z"/>
	<path fill="#1A6ACC" d="M181.8574,170.1406c1.0234,0,2.0469-0.3906,2.8281-1.1719l14.1426-14.1406
		c1.5625-1.5625,1.5625-4.0938,0-5.6562s-4.0938-1.5625-5.6562,0l-14.1426,14.1406c-1.5625,1.5625-1.5625,4.0938,0,5.6562
		C179.8105,169.75,180.834,170.1406,181.8574,170.1406z"/>
</g>
<path fill="#FF5D5D" d="M175,55.501c-1.0239,0-2.0474-0.3906-2.8286-1.1719c-1.562-1.5615-1.562-4.0947,0-5.6562l14.1421-14.1426
	c1.5625-1.5625,4.0947-1.5625,5.6572,0c1.562,1.5615,1.562,4.0947,0,5.6562l-14.1421,14.1426
	C177.0474,55.1104,176.0239,55.501,175,55.501z"/>
<path fill="#FF5D5D" d="M189.1421,55.501c-1.0239,0-2.0474-0.3906-2.8286-1.1719l-14.1421-14.1426
	c-1.562-1.5615-1.562-4.0947,0-5.6562c1.563-1.5625,4.0952-1.5615,5.6572,0l14.1421,14.1426c1.562,1.5615,1.562,4.0947,0,5.6562
	C191.1895,55.1104,190.1655,55.501,189.1421,55.501z"/>
<path fill="#00D40B" d="M109,59.501c-7.7197,0-14-6.2803-14-14s6.2803-14,14-14s14,6.2803,14,14S116.7197,59.501,109,59.501z
	 M109,39.501c-3.3086,0-6,2.6914-6,6s2.6914,6,6,6s6-2.6914,6-6S112.3086,39.501,109,39.501z"/>
<path fill="#FFC504" d="M31.686,62.1279c-1.0239,0-2.0474-0.3906-2.8286-1.1719L17.5439,49.6426
	c-1.562-1.5615-1.562-4.0947,0-5.6562l11.3135-11.3145c0.75-0.75,1.7676-1.1719,2.8286-1.1719s2.0781,0.4219,2.8286,1.1719
	l11.314,11.3145c0.75,0.75,1.1714,1.7676,1.1714,2.8281s-0.4214,2.0781-1.1719,2.8281l-11.314,11.3135
	C33.7334,61.7373,32.7095,62.1279,31.686,62.1279z M26.0293,46.8145l5.6567,5.6562l5.6572-5.6562l-5.6572-5.6572L26.0293,46.8145z"
	/>
</svg>
