<?xml version="1.0" encoding="utf-8"?>
<!-- Generator: Adobe Illustrator 19.2.0, SVG Export Plug-In . SVG Version: 6.00 Build 0)  -->
<svg version="1.1" id="megaphone" xmlns="http://www.w3.org/2000/svg" xmlns:xlink="http://www.w3.org/1999/xlink" x="0px" y="0px"
	 viewBox="0 0 216 207.9993" enable-background="new 0 0 216 207.9993" xml:space="preserve">
<g>
	<polygon fill="#5CB0FF" points="8,169.3 29.1172,169.3 42.4512,129.3 8,129.3 	"/>
	<polygon fill="#5CB0FF" points="8,121.3 48,121.3 52,121.3 52,89.3 8,89.3 	"/>
	<path fill="#D0E8FF" d="M198,93.3h-10v28h10c5.5137,0,10-4.4961,10-10.0234v-7.9531C208,97.7961,203.5137,93.3,198,93.3z"/>
	<path fill="#D0E8FF" d="M180,49.3079c0-0.7773-0.1953-1.3945-0.5078-1.6172c-0.1406-0.0977-0.3496-0.1484-0.6035-0.1484
		c-0.3047,0-0.6738,0.0703-1.0664,0.2109l-96.9531,34.625C78.2754,83.3079,76,86.5579,76,89.3352v31.9297
		c0,2.7305,2.3203,6.0469,4.8691,6.957l96.9531,34.625c0.7168,0.2578,1.3535,0.2734,1.666,0.0625
		c0.3145-0.2227,0.5117-0.8438,0.5117-1.6172V125.3v-36V49.3079z"/>
	<path fill="#1A6ACC" d="M198,85.3h-10V49.3079c0-3.4375-1.4219-6.4102-3.8984-8.1562c-2.4785-1.7422-5.7461-2.082-8.9707-0.9297
		l-96.9551,34.625C72.375,76.9211,68,83.1516,68,89.3352v31.9297c0,6.0859,4.4707,12.4531,10.1777,14.4883l96.9512,34.625
		c1.2598,0.4492,2.5254,0.6719,3.748,0.6719c1.9082,0,3.709-0.5391,5.2168-1.6016c2.4824-1.75,3.9062-4.7227,3.9062-8.1562V129.3h10
		c9.9258,0,18-8.0859,18-18.0234v-7.9531C216,93.386,207.9258,85.3,198,85.3z M180,161.2922c0,0.7734-0.1973,1.3945-0.5117,1.6172
		c-0.3125,0.2109-0.9492,0.1953-1.666-0.0625l-96.9531-34.625C78.3203,127.3118,76,123.9954,76,121.2649V89.3352
		c0-2.7773,2.2754-6.0273,4.8691-6.957l96.9531-34.625c0.3926-0.1406,0.7617-0.2109,1.0664-0.2109
		c0.2539,0,0.4629,0.0508,0.6035,0.1484C179.8047,47.9133,180,48.5305,180,49.3079V89.3v36V161.2922z M208,111.2766
		c0,5.5273-4.4863,10.0234-10,10.0234h-10v-28h10c5.5137,0,10,4.4961,10,10.0234V111.2766z"/>
	<path fill="#1A6ACC" d="M56,81.3H4c-2.209,0-4,1.7891-4,4v40v48c0,2.2109,1.791,4,4,4h28c1.7227,0,3.25-1.1016,3.7949-2.7344
		L50.8835,129.3H56c2.209,0,4-1.7891,4-4v-40C60,83.0891,58.209,81.3,56,81.3z M29.1172,169.3H8v-40h34.4512L29.1172,169.3z
		 M52,121.3h-4H8v-32h44V121.3z"/>
</g>
<path fill="#FF5D5D" d="M84.0146,207.9993c-1.0239,0-2.0474-0.3906-2.8286-1.1719c-1.562-1.5615-1.562-4.0947,0-5.6562
	l14.1421-14.1416c1.5635-1.5615,4.0957-1.5615,5.6572,0c1.562,1.5615,1.562,4.0947,0,5.6562l-14.1421,14.1416
	C86.062,207.6086,85.0381,207.9993,84.0146,207.9993z"/>
<path fill="#FF5D5D" d="M98.1567,207.9993c-1.0239,0-2.0474-0.3906-2.8286-1.1719L81.186,192.6858
	c-1.562-1.5615-1.562-4.0947,0-5.6562c1.5625-1.5625,4.0947-1.5625,5.6572,0l14.1421,14.1416c1.562,1.5615,1.562,4.0947,0,5.6562
	C100.2041,207.6086,99.1807,207.9993,98.1567,207.9993z"/>
<path fill="#00D40B" d="M22.0146,71.9993c-7.7197,0-14-6.2803-14-14s6.2803-14,14-14s14,6.2803,14,14
	S29.7344,71.9993,22.0146,71.9993z M22.0146,51.9993c-3.3086,0-6,2.6914-6,6s2.6914,6,6,6s6-2.6914,6-6
	S25.3232,51.9993,22.0146,51.9993z"/>
<path fill="#FFC504" d="M167.3286,30.6272c-1.061,0-2.0781-0.4219-2.8286-1.1719l-11.314-11.3145
	c-0.75-0.75-1.1714-1.7676-1.1714-2.8281s0.4214-2.0781,1.1719-2.8281l11.314-11.3135c1.5625-1.5615,4.0952-1.5615,5.6567,0
	l11.3135,11.3135c1.562,1.5615,1.562,4.0947,0,5.6562l-11.3135,11.3145C169.4072,30.2053,168.3896,30.6272,167.3286,30.6272z
	 M161.6714,15.3127l5.6572,5.6572l5.6567-5.6572l-5.6567-5.6562L161.6714,15.3127z"/>
</svg>
