<?xml version="1.0" encoding="utf-8"?>
<svg version="1.1" id="messegebox" xmlns="http://www.w3.org/2000/svg" xmlns:xlink="http://www.w3.org/1999/xlink" x="0px" y="0px"
	 viewBox="0 0 194.8799 195.8237" width="100px" height="100px" enable-background="new 0 0 194.8799 195.8237" xml:space="preserve">
<g>
	<path fill="#D0E8FF" d="M179.9746,8H12.0254C9.8066,8,8,9.7793,8,11.9668v104.0664C8,118.2207,9.8066,120,12.0254,120h81.5625
		c2.209,0,4,1.791,4,4v35.9707l45.7402-39.0137c0.7246-0.6172,1.6445-0.957,2.5957-0.957h34.0508
		c2.2188,0,4.0254-1.7793,4.0254-3.9668V11.9668C184,9.7793,182.1934,8,179.9746,8z M26,20h122v8H26V20z M26,40h96v8H26V40z
		 M122,108H26v-8h96V108z M122,88H26v-8h96V88z M168,68H26v-8h142V68z"/>
	<path fill="#1C71DA" d="M179.9746,0H12.0254C5.3945,0,0,5.3691,0,11.9668v104.0664C0,122.6309,5.3945,128,12.0254,128h77.5625
		v40.6406c0,1.5605,0.9082,2.9785,2.3242,3.6328c0.5352,0.2461,1.1074,0.3672,1.6758,0.3672c0.9336,0,1.8574-0.3262,2.5957-0.957
		L147.3984,128h32.5762C186.6055,128,192,122.6309,192,116.0332V11.9668C192,5.3691,186.6055,0,179.9746,0z M184,116.0332
		c0,2.1875-1.8066,3.9668-4.0254,3.9668h-34.0508c-0.9512,0-1.8711,0.3398-2.5957,0.957l-45.7402,39.0137V124c0-2.209-1.791-4-4-4
		H12.0254C9.8066,120,8,118.2207,8,116.0332V11.9668C8,9.7793,9.8066,8,12.0254,8h167.9492C182.1934,8,184,9.7793,184,11.9668
		V116.0332z"/>
	<rect x="26" y="20" fill="#1C71DA" width="122" height="8"/>
	<rect x="26" y="40" fill="#1C71DA" width="96" height="8"/>
	<rect x="26" y="60" fill="#1C71DA" width="142" height="8"/>
	<rect x="26" y="80" fill="#1C71DA" width="96" height="8"/>
	<rect x="26" y="100" fill="#1C71DA" width="96" height="8"/>
</g>
<path fill="#FF5D5D" d="M136.2524,195.8237c-1.0239,0-2.0474-0.3906-2.8286-1.1714c-1.562-1.5625-1.562-4.0947,0-5.6572
	l14.1421-14.1421c1.5625-1.5615,4.0947-1.5615,5.6572,0c1.562,1.5625,1.562,4.0947,0,5.6572l-14.1421,14.1421
	C138.2998,195.4331,137.2764,195.8237,136.2524,195.8237z"/>
<path fill="#FF5D5D" d="M150.3945,195.8223c-1.0239,0-2.0474-0.3906-2.8286-1.1714l-14.1421-14.1426
	c-1.562-1.5625-1.562-4.0952,0-5.6572c1.563-1.562,4.0952-1.561,5.6572,0l14.1421,14.1426c1.562,1.5625,1.562,4.0952,0,5.6572
	C152.4419,195.4316,151.418,195.8223,150.3945,195.8223z"/>
<path fill="#00D40B" d="M42.2524,187.8237c-7.7197,0-14-6.2803-14-14s6.2803-14,14-14s14,6.2803,14,14
	S49.9722,187.8237,42.2524,187.8237z M42.2524,167.8237c-3.3086,0-6,2.6914-6,6s2.6914,6,6,6s6-2.6914,6-6
	S45.561,167.8237,42.2524,167.8237z"/>
<path fill="#FFC504" d="M179.5659,166.4492c-1.0239,0-2.0474-0.3906-2.8286-1.1714l-11.3135-11.3135
	c-1.562-1.5625-1.562-4.0947,0-5.6572l11.3135-11.3135c1.5625-1.5615,4.0952-1.5615,5.6567,0l11.314,11.3135
	c0.7505,0.7505,1.1719,1.7676,1.1719,2.8286s-0.4214,2.0781-1.1719,2.8286l-11.314,11.3135
	C181.6133,166.0586,180.5894,166.4492,179.5659,166.4492z M173.9092,151.1357l5.6567,5.6567l5.6572-5.6567l-5.6572-5.6567
	L173.9092,151.1357z"/>
</svg>
