<?xml version="1.0" encoding="utf-8"?>
<svg version="1.1" id="moviecut" xmlns="http://www.w3.org/2000/svg" xmlns:xlink="http://www.w3.org/1999/xlink" x="0px" y="0px"
	 viewBox="0 0 210.7575 219.4995" width="100px" height="100px" enable-background="new 0 0 210.7575 219.4995" xml:space="preserve">
<g>
	<polygon fill="#5CB0FF" points="59.8183,95.4995 28.197,95.4995 35.697,119.4995 67.3183,119.4995 	"/>
	<polygon fill="#5CB0FF" points="99.8183,95.4995 68.197,95.4995 75.697,119.4995 107.3183,119.4995 	"/>
	<polygon fill="#5CB0FF" points="195.697,119.4995 202.7575,119.4995 202.7575,95.4995 188.197,95.4995 	"/>
	<polygon fill="#D0E8FF" points="154.8146,59.2632 186.3129,56.5073 176.7509,33.2524 145.2519,36.0083 	"/>
	<polygon fill="#5CB0FF" points="139.8183,95.4995 108.197,95.4995 115.697,119.4995 147.3183,119.4995 	"/>
	<polygon fill="#D0E8FF" points="114.9677,62.7495 146.4653,59.9937 136.9025,36.7388 105.405,39.4946 	"/>
	<polygon fill="#D0E8FF" points="26.9216,70.4526 17.3596,47.1978 8.3317,47.9878 10.4255,71.896 	"/>
	<polygon fill="#D0E8FF" points="194.6623,55.7769 201.695,55.1616 199.6013,31.2534 185.1003,32.522 	"/>
	<path fill="#D0E8FF" d="M192.7702,127.4995c-0.0042,0-0.0085,0.002-0.0127,0.002s-0.0081-0.002-0.0122-0.002h-39.9751
		c-0.0042,0-0.0085,0.002-0.0127,0.002s-0.0081-0.002-0.0122-0.002h-39.9751c-0.0042,0-0.0085,0.002-0.0127,0.002
		s-0.0081-0.002-0.0122-0.002H72.7702c-0.0042,0-0.0085,0.002-0.0127,0.002s-0.0081-0.002-0.0122-0.002H32.7702
		c-0.0042,0-0.0085,0.002-0.0127,0.002s-0.0081-0.002-0.0122-0.002H10.7575v84h192v-84H192.7702z M18.7575,135.4995h84v8h-84
		V135.4995z M18.7575,147.4995h84v8h-84V147.4995z M194.7575,187.4995h-24v16h-8v-16h-32v16h-8v-16h-32v16h-8v-16h-32v16h-8v-16h-24
		v-8h24h8h32h8h32h8h32h8h24V187.4995z"/>
	<polygon fill="#5CB0FF" points="19.8183,95.4995 10.7575,95.4995 10.7575,119.4995 27.3183,119.4995 	"/>
	<polygon fill="#D0E8FF" points="35.2709,69.7222 66.77,66.9663 57.2072,43.7114 25.7087,46.4673 	"/>
	<polygon fill="#5CB0FF" points="179.8183,95.4995 148.197,95.4995 155.697,119.4995 187.3183,119.4995 	"/>
	<polygon fill="#D0E8FF" points="75.1193,66.2358 106.6183,63.48 97.0556,40.2251 65.5566,42.981 	"/>
	<path fill="#1C71DA" d="M206.7575,87.4995h-200c-2.2109,0-4,1.791-4,4v32v92c0,2.209,1.7891,4,4,4h200c2.2109,0,4-1.791,4-4v-92
		v-32C210.7575,89.2905,208.9684,87.4995,206.7575,87.4995z M202.7575,119.4995h-7.0605l-7.5-24h14.5605V119.4995z M35.697,119.4995
		l-7.5-24h31.6213l7.5,24H35.697z M75.697,119.4995l-7.5-24h31.6213l7.5,24H75.697z M115.697,119.4995l-7.5-24h31.6213l7.5,24
		H115.697z M155.697,119.4995l-7.5-24h31.6213l7.5,24H155.697z M10.7575,95.4995h9.0608l7.5,24H10.7575V95.4995z M10.7575,211.4995
		v-84h21.9878c0.0042,0,0.0081,0.002,0.0122,0.002s0.0085-0.002,0.0127-0.002h39.9751c0.0042,0,0.0081,0.002,0.0122,0.002
		s0.0085-0.002,0.0127-0.002h39.9751c0.0042,0,0.0081,0.002,0.0122,0.002s0.0085-0.002,0.0127-0.002h39.9751
		c0.0042,0,0.0081,0.002,0.0122,0.002s0.0085-0.002,0.0127-0.002h39.9751c0.0042,0,0.0081,0.002,0.0122,0.002
		s0.0085-0.002,0.0127-0.002h9.9873v84H10.7575z"/>
	<path fill="#1C71DA" d="M4.2184,79.2944C4.9411,79.9019,5.8513,80.23,6.7888,80.23c0.1172,0,0.2305-0.0059,0.3477-0.0156
		l199.2383-17.4316c2.2031-0.1914,3.8281-2.1328,3.6367-4.332l-2.7891-31.8789c-0.0938-1.0586-0.6016-2.0352-1.4141-2.7168
		c-0.8125-0.6836-1.8594-1.0156-2.918-0.9199L3.652,40.3667c-2.2031,0.1914-3.8281,2.1328-3.6367,4.332l2.7891,31.8789
		C2.8981,77.6362,3.4059,78.6128,4.2184,79.2944z M57.2072,43.7114L66.77,66.9663l-31.499,2.7559l-9.5623-23.2549L57.2072,43.7114z
		 M97.0556,40.2251l9.5627,23.2549l-31.499,2.7559L65.5566,42.981L97.0556,40.2251z M136.9025,36.7388l9.5627,23.2549
		l-31.4976,2.7559l-9.5627-23.2549L136.9025,36.7388z M176.7509,33.2524l9.562,23.2549l-31.4983,2.7559l-9.5627-23.2549
		L176.7509,33.2524z M201.695,55.1616l-7.0327,0.6152l-9.562-23.2549l14.501-1.2686L201.695,55.1616z M17.3596,47.1978
		l9.562,23.2549L10.4255,71.896L8.3317,47.9878L17.3596,47.1978z"/>
	<rect x="18.7575" y="135.4995" fill="#1C71DA" width="84" height="8"/>
	<rect x="18.7575" y="147.4995" fill="#1C71DA" width="84" height="8"/>
	<polygon fill="#1C71DA" points="162.7575,179.4995 130.7575,179.4995 122.7575,179.4995 90.7575,179.4995 82.7575,179.4995 
		50.7575,179.4995 42.7575,179.4995 18.7575,179.4995 18.7575,187.4995 42.7575,187.4995 42.7575,203.4995 50.7575,203.4995 
		50.7575,187.4995 82.7575,187.4995 82.7575,203.4995 90.7575,203.4995 90.7575,187.4995 122.7575,187.4995 122.7575,203.4995 
		130.7575,203.4995 130.7575,187.4995 162.7575,187.4995 162.7575,203.4995 170.7575,203.4995 170.7575,187.4995 194.7575,187.4995 
		194.7575,179.4995 170.7575,179.4995 	"/>
</g>
<path fill="#FF5D5D" d="M160.2722,172c-1.0234,0-2.0469-0.3906-2.8281-1.1714c-1.5625-1.5625-1.5625-4.0952,0-5.6572
	l14.1426-14.1421c1.5605-1.5615,4.0938-1.5615,5.6562,0c1.5625,1.5625,1.5625,4.0952,0,5.6572l-14.1426,14.1421
	C162.32,171.6094,161.2956,172,160.2722,172z"/>
<path fill="#FF5D5D" d="M174.4147,171.9985c-1.0234,0-2.0479-0.3906-2.8281-1.1714l-14.1426-14.1426
	c-1.5625-1.5625-1.5625-4.0947,0-5.6572c1.5605-1.5615,4.0957-1.5615,5.6562,0l14.1426,14.1426
	c1.5625,1.5625,1.5625,4.0947,0,5.6572C176.4626,171.6079,175.4382,171.9985,174.4147,171.9985z"/>
<path fill="#00D40B" d="M18.2722,28c-7.7197,0-14-6.2803-14-14s6.2803-14,14-14s14,6.2803,14,14S25.9919,28,18.2722,28z M18.2722,8
	c-3.3086,0-6,2.6914-6,6s2.6914,6,6,6s6-2.6914,6-6S21.5807,8,18.2722,8z"/>
<path fill="#FFC504" d="M55.5856,174.6255c-1.0234,0-2.0469-0.3906-2.8281-1.1714L41.444,162.1406
	c-1.5625-1.5625-1.5625-4.0947,0-5.6572l11.3135-11.3135c1.5605-1.5615,4.0938-1.5615,5.6562,0l11.3145,11.3135
	c0.75,0.75,1.1719,1.7676,1.1719,2.8286s-0.4219,2.0786-1.1719,2.8286l-11.3145,11.3135
	C57.6325,174.2349,56.6091,174.6255,55.5856,174.6255z M49.9294,159.312l5.6562,5.6567l5.6572-5.6567l-5.6572-5.6567
	L49.9294,159.312z"/>
</svg>
