<?xml version="1.0" encoding="utf-8"?>
<svg version="1.1" xmlns="http://www.w3.org/2000/svg" xmlns:xlink="http://www.w3.org/1999/xlink" x="0px" y="0px"
	 viewBox="0 0 68.8 68.8" width="100px" height="100px" style="enable-background:new 0 0 68.8 68.8;" xml:space="preserve">
<style type="text/css">
	.st0{display:none;}
	.st1{display:inline;}
	.st2{clip-path:url(#SVGID_2_);fill:#4285F4;}
	.st3{clip-path:url(#SVGID_8_);}
	.st4{fill:#4285F4;}
	.st5{opacity:0.2;clip-path:url(#SVGID_10_);}
	.st6{fill:#FFFFFF;}
	.st7{opacity:0.2;clip-path:url(#SVGID_12_);}
	.st8{fill:#1A237E;}
	.st9{opacity:0.2;clip-path:url(#SVGID_14_);fill:#FFFFFF;enable-background:new    ;}
	.st10{opacity:0.2;clip-path:url(#SVGID_16_);fill:#1A237E;enable-background:new    ;}
	.st11{fill:none;}
	.st12{clip-path:url(#SVGID_18_);fill:#1C71DA;}
	.st13{clip-path:url(#SVGID_24_);}
	.st14{fill:#1C71DA;}
	.st15{opacity:0.2;clip-path:url(#SVGID_26_);}
	.st16{opacity:0.2;clip-path:url(#SVGID_28_);}
	.st17{opacity:0.2;clip-path:url(#SVGID_30_);fill:#FFFFFF;enable-background:new    ;}
	.st18{opacity:0.2;clip-path:url(#SVGID_32_);fill:#1A237E;enable-background:new    ;}
	.st19{fill:#FF5D5D;}
	.st20{fill:#00D40B;}
	.st21{fill:#FFC504;}
</style>
<g id="logo_x5F_google_x5F_nearby_x5F_192px_x5F_clr" class="st0">
	<g id="XMLID_19_" class="st1">
		<g id="XMLID_16_">
			<g id="XMLID_1_">
				<g>
					<defs>
						<path id="SVGID_1_" d="M64.7,31.4L37.5,4.1c-1.7-1.7-4.4-1.7-6.1,0L4.1,31.4c-1.7,1.7-1.7,4.4,0,6.1l27.3,27.3
							c1.7,1.7,4.4,1.7,6.1,0l27.3-27.3C66.4,35.8,66.4,33.1,64.7,31.4z"/>
					</defs>
					<clipPath id="SVGID_2_">
						<use xlink:href="#SVGID_1_"  style="overflow:visible;"/>
					</clipPath>
					<path id="XMLID_9_" class="st2" d="M64.7,31.4L37.5,4.1c-1.7-1.7-4.4-1.7-6.1,0L4.1,31.4c-1.7,1.7-1.7,4.4,0,6.1l27.3,27.3
						c1.7,1.7,4.4,1.7,6.1,0l27.3-27.3C66.4,35.8,66.4,33.1,64.7,31.4z M34.4,57.4L11.5,34.4l22.9-22.9l22.9,22.9L34.4,57.4z"/>
				</g>
				<g>
					<defs>
						<path id="SVGID_3_" d="M64.7,31.4L37.5,4.1c-1.7-1.7-4.4-1.7-6.1,0L4.1,31.4c-1.7,1.7-1.7,4.4,0,6.1l27.3,27.3
							c1.7,1.7,4.4,1.7,6.1,0l27.3-27.3C66.4,35.8,66.4,33.1,64.7,31.4z"/>
					</defs>
					<clipPath id="SVGID_4_">
						<use xlink:href="#SVGID_3_"  style="overflow:visible;"/>
					</clipPath>
				</g>
				<g>
					<defs>
						<path id="SVGID_5_" d="M64.7,31.4L37.5,4.1c-1.7-1.7-4.4-1.7-6.1,0L4.1,31.4c-1.7,1.7-1.7,4.4,0,6.1l27.3,27.3
							c1.7,1.7,4.4,1.7,6.1,0l27.3-27.3C66.4,35.8,66.4,33.1,64.7,31.4z"/>
					</defs>
					<clipPath id="SVGID_6_">
						<use xlink:href="#SVGID_5_"  style="overflow:visible;"/>
					</clipPath>
				</g>
				<g>
					<defs>
						<path id="SVGID_7_" d="M64.7,31.4L37.5,4.1c-1.7-1.7-4.4-1.7-6.1,0L4.1,31.4c-1.7,1.7-1.7,4.4,0,6.1l27.3,27.3
							c1.7,1.7,4.4,1.7,6.1,0l27.3-27.3C66.4,35.8,66.4,33.1,64.7,31.4z"/>
					</defs>
					<clipPath id="SVGID_8_">
						<use xlink:href="#SVGID_7_"  style="overflow:visible;"/>
					</clipPath>
					<g id="XMLID_6_" class="st3">
						<g id="XMLID_26_">
							
								<rect id="XMLID_32_" x="24.3" y="24.3" transform="matrix(0.7071 -0.7071 0.7071 0.7071 -14.2552 34.4181)" class="st4" width="20.3" height="20.3"/>
						</g>
					</g>
				</g>
				<g>
					<defs>
						<path id="SVGID_9_" d="M64.7,31.4L37.5,4.1c-1.7-1.7-4.4-1.7-6.1,0L4.1,31.4c-1.7,1.7-1.7,4.4,0,6.1l27.3,27.3
							c1.7,1.7,4.4,1.7,6.1,0l27.3-27.3C66.4,35.8,66.4,33.1,64.7,31.4z"/>
					</defs>
					<clipPath id="SVGID_10_">
						<use xlink:href="#SVGID_9_"  style="overflow:visible;"/>
					</clipPath>
					<g id="XMLID_13_" class="st5">
						<path id="XMLID_14_" class="st6" d="M4.1,31.7L31.4,4.5c1.7-1.7,4.4-1.7,6.1,0l27.3,27.3c0.8,0.8,1.2,1.8,1.2,2.9
							c0-1.2-0.4-2.3-1.2-3.2L37.5,4.1c-1.7-1.7-4.4-1.7-6.1,0L4.1,31.4c-0.9,0.9-1.3,2.1-1.2,3.2C2.9,33.6,3.3,32.5,4.1,31.7z"/>
					</g>
				</g>
				<g>
					<defs>
						<path id="SVGID_11_" d="M64.7,31.4L37.5,4.1c-1.7-1.7-4.4-1.7-6.1,0L4.1,31.4c-1.7,1.7-1.7,4.4,0,6.1l27.3,27.3
							c1.7,1.7,4.4,1.7,6.1,0l27.3-27.3C66.4,35.8,66.4,33.1,64.7,31.4z"/>
					</defs>
					<clipPath id="SVGID_12_">
						<use xlink:href="#SVGID_11_"  style="overflow:visible;"/>
					</clipPath>
					<g id="XMLID_15_" class="st7">
						<path id="XMLID_17_" class="st8" d="M64.7,37.1L37.4,64.4c-1.7,1.7-4.4,1.7-6.1,0L4.1,37.1c-0.8-0.8-1.2-1.8-1.2-2.9
							c0,1.2,0.4,2.3,1.2,3.2l27.3,27.3c1.7,1.7,4.4,1.7,6.1,0l27.3-27.3c0.9-0.9,1.3-2.1,1.2-3.2C65.9,35.3,65.5,36.3,64.7,37.1z"
							/>
					</g>
				</g>
				<g>
					<defs>
						<path id="SVGID_13_" d="M64.7,31.4L37.5,4.1c-1.7-1.7-4.4-1.7-6.1,0L4.1,31.4c-1.7,1.7-1.7,4.4,0,6.1l27.3,27.3
							c1.7,1.7,4.4,1.7,6.1,0l27.3-27.3C66.4,35.8,66.4,33.1,64.7,31.4z"/>
					</defs>
					<clipPath id="SVGID_14_">
						<use xlink:href="#SVGID_13_"  style="overflow:visible;"/>
					</clipPath>
					<polygon id="XMLID_10_" class="st9" points="34.4,20.4 48.6,34.6 48.8,34.4 34.4,20.1 20.1,34.4 20.3,34.6 					"/>
				</g>
				<g>
					<defs>
						<path id="SVGID_15_" d="M64.7,31.4L37.5,4.1c-1.7-1.7-4.4-1.7-6.1,0L4.1,31.4c-1.7,1.7-1.7,4.4,0,6.1l27.3,27.3
							c1.7,1.7,4.4,1.7,6.1,0l27.3-27.3C66.4,35.8,66.4,33.1,64.7,31.4z"/>
					</defs>
					<clipPath id="SVGID_16_">
						<use xlink:href="#SVGID_15_"  style="overflow:visible;"/>
					</clipPath>
					<polygon id="XMLID_11_" class="st10" points="34.4,48.8 20.1,34.4 19.9,34.6 34.4,49.1 48.9,34.6 48.8,34.4 					"/>
				</g>
			</g>
		</g>
		<rect id="XMLID_18_" class="st11" width="68.8" height="68.8"/>
	</g>
</g>
<g id="Laag_3">
	<g id="XMLID_2_">
		<g id="XMLID_4_">
			<g id="XMLID_5_">
				<g>
					<defs>
						<path id="SVGID_17_" d="M64.7,31.4L37.5,4.1c-1.7-1.7-4.4-1.7-6.1,0L4.1,31.4c-1.7,1.7-1.7,4.4,0,6.1l27.3,27.3
							c1.7,1.7,4.4,1.7,6.1,0l27.3-27.3C66.4,35.8,66.4,33.1,64.7,31.4z"/>
					</defs>
					<clipPath id="SVGID_18_">
						<use xlink:href="#SVGID_17_"  style="overflow:visible;"/>
					</clipPath>
					<path id="XMLID_27_" class="st12" d="M64.7,31.4L37.5,4.1c-1.7-1.7-4.4-1.7-6.1,0L4.1,31.4c-1.7,1.7-1.7,4.4,0,6.1l27.3,27.3
						c1.7,1.7,4.4,1.7,6.1,0l27.3-27.3C66.4,35.8,66.4,33.1,64.7,31.4z M34.4,57.4L11.5,34.4l22.9-22.9l22.9,22.9L34.4,57.4z"/>
				</g>
				<g>
					<defs>
						<path id="SVGID_19_" d="M64.7,31.4L37.5,4.1c-1.7-1.7-4.4-1.7-6.1,0L4.1,31.4c-1.7,1.7-1.7,4.4,0,6.1l27.3,27.3
							c1.7,1.7,4.4,1.7,6.1,0l27.3-27.3C66.4,35.8,66.4,33.1,64.7,31.4z"/>
					</defs>
					<clipPath id="SVGID_20_">
						<use xlink:href="#SVGID_19_"  style="overflow:visible;"/>
					</clipPath>
				</g>
				<g>
					<defs>
						<path id="SVGID_21_" d="M64.7,31.4L37.5,4.1c-1.7-1.7-4.4-1.7-6.1,0L4.1,31.4c-1.7,1.7-1.7,4.4,0,6.1l27.3,27.3
							c1.7,1.7,4.4,1.7,6.1,0l27.3-27.3C66.4,35.8,66.4,33.1,64.7,31.4z"/>
					</defs>
					<clipPath id="SVGID_22_">
						<use xlink:href="#SVGID_21_"  style="overflow:visible;"/>
					</clipPath>
				</g>
				<g>
					<defs>
						<path id="SVGID_23_" d="M64.7,31.4L37.5,4.1c-1.7-1.7-4.4-1.7-6.1,0L4.1,31.4c-1.7,1.7-1.7,4.4,0,6.1l27.3,27.3
							c1.7,1.7,4.4,1.7,6.1,0l27.3-27.3C66.4,35.8,66.4,33.1,64.7,31.4z"/>
					</defs>
					<clipPath id="SVGID_24_">
						<use xlink:href="#SVGID_23_"  style="overflow:visible;"/>
					</clipPath>
					<g id="XMLID_23_" class="st13">
						<g id="XMLID_24_">
							
								<rect id="XMLID_25_" x="24.3" y="24.3" transform="matrix(0.7071 -0.7071 0.7071 0.7071 -14.2552 34.4181)" class="st14" width="20.3" height="20.3"/>
						</g>
					</g>
				</g>
				<g>
					<defs>
						<path id="SVGID_25_" d="M64.7,31.4L37.5,4.1c-1.7-1.7-4.4-1.7-6.1,0L4.1,31.4c-1.7,1.7-1.7,4.4,0,6.1l27.3,27.3
							c1.7,1.7,4.4,1.7,6.1,0l27.3-27.3C66.4,35.8,66.4,33.1,64.7,31.4z"/>
					</defs>
					<clipPath id="SVGID_26_">
						<use xlink:href="#SVGID_25_"  style="overflow:visible;"/>
					</clipPath>
					<g id="XMLID_21_" class="st15">
						<path id="XMLID_22_" class="st6" d="M4.1,31.7L31.4,4.5c1.7-1.7,4.4-1.7,6.1,0l27.3,27.3c0.8,0.8,1.2,1.8,1.2,2.9
							c0-1.2-0.4-2.3-1.2-3.2L37.5,4.1c-1.7-1.7-4.4-1.7-6.1,0L4.1,31.4c-0.9,0.9-1.3,2.1-1.2,3.2C2.9,33.6,3.3,32.5,4.1,31.7z"/>
					</g>
				</g>
				<g>
					<defs>
						<path id="SVGID_27_" d="M64.7,31.4L37.5,4.1c-1.7-1.7-4.4-1.7-6.1,0L4.1,31.4c-1.7,1.7-1.7,4.4,0,6.1l27.3,27.3
							c1.7,1.7,4.4,1.7,6.1,0l27.3-27.3C66.4,35.8,66.4,33.1,64.7,31.4z"/>
					</defs>
					<clipPath id="SVGID_28_">
						<use xlink:href="#SVGID_27_"  style="overflow:visible;"/>
					</clipPath>
					<g id="XMLID_12_" class="st16">
						<path id="XMLID_20_" class="st8" d="M64.7,37.1L37.4,64.4c-1.7,1.7-4.4,1.7-6.1,0L4.1,37.1c-0.8-0.8-1.2-1.8-1.2-2.9
							c0,1.2,0.4,2.3,1.2,3.2l27.3,27.3c1.7,1.7,4.4,1.7,6.1,0l27.3-27.3c0.9-0.9,1.3-2.1,1.2-3.2C65.9,35.3,65.5,36.3,64.7,37.1z"
							/>
					</g>
				</g>
				<g>
					<defs>
						<path id="SVGID_29_" d="M64.7,31.4L37.5,4.1c-1.7-1.7-4.4-1.7-6.1,0L4.1,31.4c-1.7,1.7-1.7,4.4,0,6.1l27.3,27.3
							c1.7,1.7,4.4,1.7,6.1,0l27.3-27.3C66.4,35.8,66.4,33.1,64.7,31.4z"/>
					</defs>
					<clipPath id="SVGID_30_">
						<use xlink:href="#SVGID_29_"  style="overflow:visible;"/>
					</clipPath>
					<polygon id="XMLID_8_" class="st17" points="34.4,20.4 48.6,34.6 48.8,34.4 34.4,20.1 20.1,34.4 20.3,34.6 					"/>
				</g>
				<g>
					<defs>
						<path id="SVGID_31_" d="M64.7,31.4L37.5,4.1c-1.7-1.7-4.4-1.7-6.1,0L4.1,31.4c-1.7,1.7-1.7,4.4,0,6.1l27.3,27.3
							c1.7,1.7,4.4,1.7,6.1,0l27.3-27.3C66.4,35.8,66.4,33.1,64.7,31.4z"/>
					</defs>
					<clipPath id="SVGID_32_">
						<use xlink:href="#SVGID_31_"  style="overflow:visible;"/>
					</clipPath>
					<polygon id="XMLID_7_" class="st18" points="34.4,48.8 20.1,34.4 19.9,34.6 34.4,49.1 48.9,34.6 48.8,34.4 					"/>
				</g>
			</g>
		</g>
		<rect id="XMLID_3_" class="st11" width="68.8" height="68.8"/>
	</g>
</g>
<g id="Laag_2">
	<path class="st19" d="M53.8,66c-0.3,0-0.6-0.1-0.9-0.4c-0.5-0.5-0.5-1.3,0-1.8l4.4-4.4c0.5-0.5,1.3-0.5,1.8,0
		c0.5,0.5,0.5,1.3,0,1.8l-4.4,4.4C54.5,65.8,54.2,66,53.8,66z"/>
	<path class="st19" d="M58.2,66c-0.3,0-0.6-0.1-0.9-0.4L53,61.2c-0.5-0.5-0.5-1.3,0-1.8c0.5-0.5,1.3-0.5,1.8,0l4.4,4.4
		c0.5,0.5,0.5,1.3,0,1.8C58.9,65.8,58.6,66,58.2,66z"/>
	<path class="st20" d="M13.7,12.7c-2.4,0-4.4-2-4.4-4.4s2-4.4,4.4-4.4s4.4,2,4.4,4.4S16.1,12.7,13.7,12.7z M13.7,6.5
		c-1,0-1.9,0.8-1.9,1.9s0.8,1.9,1.9,1.9s1.9-0.8,1.9-1.9S14.8,6.5,13.7,6.5z"/>
	<path class="st21" d="M55.1,15.9c-0.3,0-0.6-0.1-0.9-0.4L50.7,12c-0.5-0.5-0.5-1.3,0-1.8l3.5-3.5c0.5-0.5,1.3-0.5,1.8,0l3.5,3.5
		c0.2,0.2,0.4,0.5,0.4,0.9c0,0.3-0.1,0.6-0.4,0.9L56,15.6C55.8,15.8,55.5,15.9,55.1,15.9z M53.4,11.2l1.8,1.8l1.8-1.8l-1.8-1.8
		L53.4,11.2z"/>
</g>
</svg>
