<?xml version="1.0" encoding="utf-8"?>
<!-- Generator: Adobe Illustrator 19.2.0, SVG Export Plug-In . SVG Version: 6.00 Build 0)  -->
<svg version="1.1" id="newsletter" xmlns="http://www.w3.org/2000/svg" xmlns:xlink="http://www.w3.org/1999/xlink" x="0px" y="0px"
	 viewBox="0 0 211 202.6416" enable-background="new 0 0 211 202.6416" xml:space="preserve">
<g>
	<polygon fill="#D0E8FF" points="180,128.3928 180,96.8213 148,76.2021 148,147.8215 	"/>
	<polygon fill="#D0E8FF" points="180,190.0859 180,137.7476 134.5911,165.3174 	"/>
	<polygon fill="#D0E8FF" points="92.0469,151.2236 16.0618,194.6416 171.6477,194.6416 	"/>
	<polygon fill="#D0E8FF" points="8,190.0349 52.3652,164.6836 8,137.7476 	"/>
	<rect x="68" y="78.6416" fill="#D0E8FF" width="40" height="16"/>
	<polygon fill="#D0E8FF" points="96,43.3604 77.9478,54.6416 114.0522,54.6416 	"/>
	<path fill="#D0E8FF" d="M60.3025,160.1479l29.7131-16.979c1.207-0.6914,2.6836-0.6953,3.8984-0.0391l32.5608,17.7605
		l13.5317-8.2158c0-0.0117-0.0066-0.0212-0.0066-0.033v-90H48v90c0,0.0117-0.0066,0.0212-0.0066,0.033L60.3025,160.1479z
		 M60,74.6416c0-2.2109,1.7891-4,4-4h48c2.2109,0,4,1.7891,4,4v24c0,2.2109-1.7891,4-4,4H64c-2.2109,0-4-1.7891-4-4V74.6416z
		 M60,110.6416h64v8H60V110.6416z M60,126.6416h64v8H60V126.6416z"/>
	<polygon fill="#D0E8FF" points="40,147.8215 40,76.2021 8,96.8213 8,128.3928 	"/>
	<path fill="#1A6ACC" d="M186.168,91.2783l-37.2422-24c-0.291-0.1855-0.6123-0.2561-0.9258-0.3596v-8.2771c0-2.2109-1.7891-4-4-4
		h-14.854L98.1211,35.251c-1.2969-0.8125-2.9453-0.8125-4.2422,0L62.854,54.6416H44c-2.2109,0-4,1.7891-4,4v8.2751
		c-0.3137,0.1038-0.6353,0.175-0.9258,0.3616l-37.2422,24C0.6914,92.0166,0,93.2822,0,94.6416v104c0,2.2109,1.7891,4,4,4h180
		c2.2109,0,4-1.7891,4-4v-104C188,93.2822,187.3086,92.0166,186.168,91.2783z M52.3652,164.6836L8,190.0349v-52.2874
		L52.3652,164.6836z M92.0469,151.2236l79.6008,43.418H16.0618L92.0469,151.2236z M180,190.0859l-45.4089-24.7686L180,137.7476
		V190.0859z M180,96.8213v31.5715l-32,19.4287V76.2021L180,96.8213z M96,43.3604l18.0522,11.2812H77.9478L96,43.3604z M40,76.2021
		v71.6194L8,128.3928V96.8213L40,76.2021z"/>
	<path fill="#5CB0FF" d="M48,62.6416h92v90c0,0.0117,0.0066,0.0212,0.0066,0.033l-13.5317,8.2158l-32.5608-17.7605
		c-1.2148-0.6562-2.6914-0.6523-3.8984,0.0391l-29.7131,16.979l-12.3091-7.4734c0-0.0117,0.0066-0.0212,0.0066-0.033V62.6416z"/>
	<path fill="#1A6ACC" d="M64,102.6416h48c2.2109,0,4-1.7891,4-4v-24c0-2.2109-1.7891-4-4-4H64c-2.2109,0-4,1.7891-4,4v24
		C60,100.8525,61.7891,102.6416,64,102.6416z"/>
	<rect x="68" y="78.6416" fill="#D0E8FF" width="40" height="16"/>
	<rect x="60" y="110.6416" fill="#1A6ACC" width="64" height="8"/>
	<rect x="60" y="126.6416" fill="#1A6ACC" width="64" height="8"/>
	<path fill="#1A6ACC" d="M168,58.6416c1.0234,0,2.0469-0.3906,2.8281-1.1719l14.1406-14.1406c1.5625-1.5625,1.5625-4.0938,0-5.6562
		s-4.0938-1.5625-5.6562,0l-14.1406,14.1406c-1.5625,1.5625-1.5625,4.0938,0,5.6562C165.9531,58.251,166.9766,58.6416,168,58.6416z"
		/>
	<path fill="#1A6ACC" d="M17.1719,57.4697c0.7812,0.7812,1.8047,1.1719,2.8281,1.1719s2.0469-0.3906,2.8281-1.1719
		c1.5625-1.5625,1.5625-4.0938,0-5.6562L8.6875,37.6729c-1.5625-1.5625-4.0938-1.5625-5.6562,0s-1.5625,4.0938,0,5.6562
		L17.1719,57.4697z"/>
	<path fill="#1A6ACC" d="M134.5156,38.3564C135,38.5518,135.5039,38.6416,136,38.6416c1.5859,0,3.0898-0.9492,3.7148-2.5156l8-20
		c0.8203-2.0508-0.1797-4.3789-2.2305-5.1992c-2.0312-0.8164-4.3789,0.1719-5.1992,2.2305l-8,20
		C131.4648,35.208,132.4648,37.5361,134.5156,38.3564z"/>
	<path fill="#1A6ACC" d="M52.2852,36.126c0.625,1.5664,2.1289,2.5156,3.7148,2.5156c0.4961,0,1-0.0898,1.4844-0.2852
		c2.0508-0.8203,3.0508-3.1484,2.2305-5.1992l-8-20c-0.8203-2.0586-3.1641-3.0469-5.1992-2.2305
		c-2.0508,0.8203-3.0508,3.1484-2.2305,5.1992L52.2852,36.126z"/>
</g>
<path fill="#FF5D5D" d="M87,22.1426c-1.0234,0-2.0479-0.3906-2.8281-1.1719c-1.5625-1.5615-1.5625-4.0947,0-5.6562L98.3145,1.1719
	c1.5605-1.5625,4.0957-1.5625,5.6562,0c1.5625,1.5615,1.5625,4.0947,0,5.6562L89.8281,20.9707
	C89.0479,21.752,88.0234,22.1426,87,22.1426z"/>
<path fill="#FF5D5D" d="M101.1426,22.1426c-1.0234,0-2.0479-0.3906-2.8281-1.1719L84.1719,6.8281
	c-1.5625-1.5615-1.5625-4.0947,0-5.6562c1.5605-1.5625,4.0957-1.5625,5.6562,0l14.1426,14.1426
	c1.5625,1.5615,1.5625,4.0947,0,5.6562C103.1904,21.752,102.166,22.1426,101.1426,22.1426z"/>
<path fill="#00D40B" d="M197,82.1426c-7.7197,0-14-6.2803-14-14s6.2803-14,14-14s14,6.2803,14,14S204.7197,82.1426,197,82.1426z
	 M197,62.1426c-3.3086,0-6,2.6914-6,6s2.6914,6,6,6s6-2.6914,6-6S200.3086,62.1426,197,62.1426z"/>
<path fill="#FFC504" d="M90.3135,192.7695c-1.0234,0-2.0479-0.3906-2.8281-1.1719l-11.3135-11.3135
	c-1.5625-1.5615-1.5625-4.0947,0-5.6562l11.3135-11.3135c1.5605-1.5625,4.0957-1.5625,5.6562,0l11.3135,11.3135
	c1.5625,1.5615,1.5625,4.0947,0,5.6562l-11.3135,11.3135C92.3613,192.3789,91.3369,192.7695,90.3135,192.7695z M84.6572,177.4561
	l5.6562,5.6562l5.6562-5.6562l-5.6562-5.6562L84.6572,177.4561z"/>
</svg>
