<?xml version="1.0" encoding="utf-8"?>
<!-- Generator: Adobe Illustrator 19.2.0, SVG Export Plug-In . SVG Version: 6.00 Build 0)  -->
<svg version="1.1" id="onepagelayout" xmlns="http://www.w3.org/2000/svg" xmlns:xlink="http://www.w3.org/1999/xlink" x="0px"
	 y="0px" viewBox="0 0 224 228" enable-background="new 0 0 224 228" xml:space="preserve">
<g>
	<rect x="136" y="65.3008" fill="#D0E8FF" width="20" height="124"/>
	<rect x="52" y="145.3008" fill="#D0E8FF" width="60" height="32"/>
	<rect x="8" y="65.3008" fill="#D0E8FF" width="20" height="124"/>
	<polygon fill="#D0E8FF" points="132,57.3008 160,57.3008 216,57.3008 216,37.3008 8,37.3008 8,57.3008 32,57.3008 	"/>
	<rect x="164" y="65.3008" fill="#5CB0FF" width="52" height="124"/>
	<rect x="52" y="81.3008" fill="#D0E8FF" width="60" height="32"/>
	<path fill="#5CB0FF" d="M36,65.3008v124h92v-124H36z M120,181.3008c0,2.2109-1.7891,4-4,4H48c-2.2109,0-4-1.7891-4-4v-40
		c0-2.2109,1.7891-4,4-4h68c2.2109,0,4,1.7891,4,4V181.3008z M48,133.3008v-8h68v8H48z M120,117.3008c0,2.2109-1.7891,4-4,4H48
		c-2.2109,0-4-1.7891-4-4v-40c0-2.2109,1.7891-4,4-4h68c2.2109,0,4,1.7891,4,4V117.3008z"/>
	<path fill="#1A6ACC" d="M220,29.3008H4c-2.2109,0-4,1.7891-4,4v28v132c0,2.2109,1.7891,4,4,4h28h100h28h60c2.2109,0,4-1.7891,4-4
		v-132v-28C224,31.0898,222.2109,29.3008,220,29.3008z M8,37.3008h208v20h-56h-28H32H8V37.3008z M156,65.3008v124h-20v-124H156z
		 M8,65.3008h20v124H8V65.3008z M36,189.3008v-124h92v124H36z M216,189.3008h-52v-124h52V189.3008z"/>
	<path fill="#1A6ACC" d="M116,73.3008H48c-2.2109,0-4,1.7891-4,4v40c0,2.2109,1.7891,4,4,4h68c2.2109,0,4-1.7891,4-4v-40
		C120,75.0898,118.2109,73.3008,116,73.3008z M112,113.3008H52v-32h60V113.3008z"/>
	<path fill="#1A6ACC" d="M116,137.3008H48c-2.2109,0-4,1.7891-4,4v40c0,2.2109,1.7891,4,4,4h68c2.2109,0,4-1.7891,4-4v-40
		C120,139.0898,118.2109,137.3008,116,137.3008z M112,177.3008H52v-32h60V177.3008z"/>
	<rect x="48" y="125.3008" fill="#1A6ACC" width="68" height="8"/>
</g>
<path fill="#FF5D5D" d="M80.0146,228c-1.0234,0-2.0479-0.3906-2.8281-1.1719c-1.5625-1.5615-1.5625-4.0947,0-5.6562l14.1426-14.1416
	c1.5625-1.5625,4.0957-1.5625,5.6562,0c1.5625,1.5615,1.5625,4.0947,0,5.6562l-14.1426,14.1416
	C82.0615,227.6094,81.0381,228,80.0146,228z"/>
<path fill="#FF5D5D" d="M94.1572,228c-1.0234,0-2.0469-0.3906-2.8281-1.1719l-14.1426-14.1416
	c-1.5625-1.5615-1.5625-4.0947,0-5.6562c1.5605-1.5625,4.0938-1.5625,5.6562,0l14.1426,14.1416
	c1.5625,1.5615,1.5625,4.0947,0,5.6562C96.2051,227.6094,95.1807,228,94.1572,228z"/>
<path fill="#00D40B" d="M14.0146,28c-7.7197,0-14-6.2803-14-14s6.2803-14,14-14s14,6.2803,14,14S21.7344,28,14.0146,28z M14.0146,8
	c-3.3086,0-6,2.6914-6,6s2.6914,6,6,6s6-2.6914,6-6S17.3232,8,14.0146,8z"/>
<path fill="#FFC504" d="M191.3281,158.627c-1.0234,0-2.0469-0.3906-2.8281-1.1719l-11.3135-11.3135
	c-1.5625-1.5615-1.5625-4.0947,0-5.6562L188.5,129.1719c1.5605-1.5625,4.0938-1.5625,5.6562,0l11.3145,11.3135
	c0.75,0.75,1.1719,1.7676,1.1719,2.8281s-0.4219,2.0781-1.1719,2.8281l-11.3145,11.3135
	C193.375,158.2363,192.3516,158.627,191.3281,158.627z M185.6719,143.3135l5.6562,5.6572l5.6572-5.6572l-5.6572-5.6572
	L185.6719,143.3135z"/>
</svg>
