<?xml version="1.0" encoding="utf-8"?>
<svg version="1.1" id="pictureprofile" xmlns="http://www.w3.org/2000/svg" xmlns:xlink="http://www.w3.org/1999/xlink" x="0px"
	 y="0px" viewBox="0 0 207.9854 213.3262" width="100px" height="100px" enable-background="new 0 0 207.9854 213.3262" xml:space="preserve">
<g>
	<path fill="#5CB0FF" d="M124.2979,135.0156c3.7383-4.2969,6.8438-9.8555,8.9844-16.0664c0.3555-1.0273,1.1133-1.8711,2.1055-2.3281
		c0.9883-0.4492,2.1172-0.4922,3.1367-0.0898c0.9922,0.168,1.6094-0.293,1.7031-0.957l1.8203-12.9414
		c0.0938-0.6719-0.375-1.2773-1.0703-1.375c-2.2031,0-4.1992-1.7969-4.2031-4.0039c-0.0117-5.5156-0.6562-10.918-1.918-16.0625
		c-0.1172-0.4922-0.1445-1-0.0742-1.5c0.1641-1.1953,0.2461-2.4102,0.2461-3.6172c0-9.7422-5.3203-18.6367-14.2305-23.7891
		c-1.4141-0.8164-2.1875-2.4141-1.957-4.0312c0.3633-2.5039,0.1797-3.7344,0.0391-4.2461
		c-3.8633,0.082-10.2617,1.6172-17.7578,4.2422c-0.2461,0.0859-0.5,0.1484-0.7539,0.1875
		C85.8799,50.5195,74.958,62.3984,74.958,76.0742c0,1.2305,0.082,2.4453,0.2461,3.6094c0.0703,0.5,0.0469,1.0156-0.0742,1.5078
		c-1.2695,5.168-1.9141,10.6055-1.918,16.1602c0,2.207-1.793,3.9961-4,3.9961c-0.8594,0.1055-1.3125,0.6914-1.2227,1.3438
		l1.8047,12.8242c0.0547,0.3906,0.2773,0.6289,0.4531,0.7617c0.1484,0.1133,0.4766,0.2812,0.9023,0.2305
		c1.0117-0.3984,2.2891-0.3984,3.2773,0.0625c0.9883,0.457,1.8906,1.2617,2.2461,2.293c2.1445,6.2578,5.2617,11.8438,9.0117,16.1523
		c0.6328,0.7266,0.9805,1.6602,0.9805,2.625V152h36.6523v-14.3594C123.3174,136.6758,123.665,135.7461,124.2979,135.0156z"/>
	<path fill="#1A6ACC" d="M130.5088,196.2891c-9.9727,2.8594-20.5039,4.0547-30.9141,3.6133
		c-2.1758-0.1875-4.0742,1.6172-4.1719,3.8203c-0.0977,2.207,1.6133,4.0742,3.8203,4.1719
		c1.5742,0.0703,3.1562,0.1055,4.7422,0.1055c9.7695,0,19.4375-1.3516,28.7344-4.0234c2.1211-0.6094,3.3477-2.8242,2.7383-4.9492
		C134.8486,196.9062,132.665,195.6836,130.5088,196.2891z"/>
	<path fill="#1A6ACC" d="M170.0947,173.6055c-1.803,1.7153-3.6829,3.3394-5.6079,4.9053c-1.8545-0.8345-4.1013-1.9915-6.6108-3.2881
		c-6.0156-3.1133-13.3906-6.9297-21.1367-9.2578l-4.8125-11.5078c-0.1553-0.3696-0.3623-0.7063-0.6094-1.0049v-14.3545
		c3.3477-4.1211,6.2109-9.0664,8.3945-14.5039c4.2305-0.3242,7.8242-3.5469,8.4375-7.9023l1.8203-12.9453
		c0.5742-4.1016-1.6719-7.9648-5.2617-9.6367c-0.1992-4.8125-0.8398-9.5352-1.9062-14.0938
		c0.1523-1.3086,0.2266-2.6289,0.2266-3.9414c0-11.793-5.9336-22.5781-16.0039-29.3281c0.1758-3.6406-0.543-6.3516-2.1797-8.2344
		C123.8525,37.3672,122.0518,36,119.0986,36c-6.1172,0-15.1719,2.8086-20.2617,4.5742c-18.2031,2.8047-31.8789,18-31.8789,35.5
		c0,1.332,0.0742,2.6562,0.2266,3.9453c-1.0742,4.5859-1.7148,9.3477-1.9102,14.1992c-3.5547,1.668-5.7773,5.5039-5.207,9.582
		l1.8047,12.8281c0.3398,2.4258,1.6094,4.5781,3.582,6.0508c1.4102,1.0586,3.0586,1.6758,4.7773,1.8125
		c2.1914,5.4844,5.0664,10.4648,8.4336,14.6055v13.2676c-0.9841,0.4268-1.7981,1.2061-2.1836,2.2559L72.2979,166
		c-7.7031,2.3281-15.0352,6.1211-21.0234,9.2188c-3.5039,1.8125-6.5273,3.3789-8.6289,4.125
		c-0.4622,0.1638-0.8542,0.4277-1.2092,0.7253c0.4817-1.4688,0.0906-3.1467-1.1423-4.2371
		c-6.7188-5.9609-12.5664-12.8203-17.3789-20.3906c-1.1836-1.8633-3.6602-2.4141-5.5195-1.2305
		c-1.8672,1.1836-2.418,3.6562-1.2305,5.5195c5.2109,8.2031,11.5469,15.6328,18.8242,22.0859
		c0.7617,0.6758,1.707,1.0078,2.6523,1.0078c0.9629,0,1.8909-0.4089,2.645-1.0935c-0.3179,0.8516-0.3982,1.7991-0.0708,2.7224
		c0.7383,2.0781,3.0352,3.1562,5.1094,2.4297c2.6133-0.9297,5.8633-2.6094,9.625-4.5586c6.1641-3.1875,13.832-7.1562,21.4219-9.168
		c1.2617-0.3359,2.2812-1.2617,2.7305-2.4883L83.0244,160h42.5469l4.5312,10.832c0.4805,1.1484,1.4648,2.0039,2.668,2.3242
		c7.5938,2.0117,15.2656,5.9805,21.4297,9.1719c1.0366,0.5354,2.0249,1.0437,2.9812,1.5293
		c-2.8696,1.915-5.8108,3.7241-8.8757,5.3223c-1.9609,1.0195-2.7188,3.4375-1.6992,5.3945
		c0.7148,1.3711,2.1055,2.1523,3.5508,2.1523c0.6211,0,1.2539-0.1445,1.8438-0.4531c5.3335-2.7793,10.3718-6.0647,15.1389-9.7175
		c0.2966-0.1692,0.5593-0.3784,0.8057-0.6194c2.6431-2.0667,5.2249-4.2146,7.6648-6.5342c1.5977-1.5234,1.6641-4.0547,0.1406-5.6562
		C174.2275,172.1484,171.7041,172.0859,170.0947,173.6055z M86.665,152v-14.3594c0-0.9648-0.3477-1.8984-0.9805-2.625
		c-3.75-4.3086-6.8672-9.8945-9.0117-16.1523c-0.3555-1.0312-1.2578-1.8359-2.2461-2.293
		c-0.9883-0.4609-2.2656-0.4609-3.2773-0.0625c-0.4258,0.0508-0.7539-0.1172-0.9023-0.2305
		c-0.1758-0.1328-0.3984-0.3711-0.4531-0.7617l-1.8047-12.8242c-0.0898-0.6523,0.3633-1.2383,1.2227-1.3438
		c2.207,0,4-1.7891,4-3.9961c0.0039-5.5547,0.6484-10.9922,1.918-16.1602c0.1211-0.4922,0.1445-1.0078,0.0742-1.5078
		c-0.1641-1.1641-0.2461-2.3789-0.2461-3.6094c0-13.6758,10.9219-25.5547,25.4102-27.6367
		c0.2539-0.0391,0.5078-0.1016,0.7539-0.1875c7.4961-2.625,13.8945-4.1602,17.7578-4.2422
		c0.1406,0.5117,0.3242,1.7422-0.0391,4.2461c-0.2305,1.6172,0.543,3.2148,1.957,4.0312
		c8.9102,5.1523,14.2305,14.0469,14.2305,23.7891c0,1.207-0.082,2.4219-0.2461,3.6172c-0.0703,0.5-0.043,1.0078,0.0742,1.5
		c1.2617,5.1445,1.9062,10.5469,1.918,16.0625c0.0039,2.207,2,4.0039,4.2031,4.0039c0.6953,0.0977,1.1641,0.7031,1.0703,1.375
		l-1.8203,12.9414c-0.0938,0.6641-0.7109,1.125-1.7031,0.957c-1.0195-0.4023-2.1484-0.3594-3.1367,0.0898
		c-0.9922,0.457-1.75,1.3008-2.1055,2.3281c-2.1406,6.2109-5.2461,11.7695-8.9844,16.0664
		c-0.6328,0.7305-0.9805,1.6602-0.9805,2.625V152H86.665z"/>
	<path fill="#1A6ACC" d="M80.6338,197.1406c-8.6914-2.1719-17.0352-5.5625-24.8086-10.0742
		c-1.8984-1.1094-4.3555-0.4688-5.4648,1.4492c-1.1133,1.9102-0.4609,4.3555,1.4492,5.4648
		c8.418,4.8945,17.4648,8.5664,26.8867,10.9219c0.3242,0.0781,0.6523,0.1172,0.9727,0.1172c1.793,0,3.4219-1.2148,3.8789-3.0312
		C84.0791,199.8438,82.7783,197.6758,80.6338,197.1406z"/>
	<path fill="#1A6ACC" d="M13.1572,61.9062c-2.0156-0.8516-4.3789,0.1133-5.2266,2.1562C4.2002,73.0234,1.751,82.4727,0.6494,92.1523
		c-0.25,2.1953,1.3242,4.1758,3.5195,4.4258c0.1523,0.0195,0.3086,0.0273,0.457,0.0273c2.0078,0,3.7383-1.5078,3.9688-3.5469
		c1.0195-8.9336,3.2812-17.6562,6.7188-25.9258C16.165,65.0938,15.2002,62.7539,13.1572,61.9062z"/>
	<path fill="#1A6ACC" d="M199.8721,132.7578c-2.0938-0.7266-4.3633,0.3945-5.082,2.4805
		c-2.9141,8.4727-7.0078,16.4961-12.1719,23.8516c-1.2695,1.8047-0.832,4.3008,0.9766,5.5703c0.6992,0.4922,1.5,0.7266,2.293,0.7266
		c1.2578,0,2.5-0.5938,3.2773-1.7031c5.5938-7.9688,10.0312-16.6641,13.1875-25.8438
		C203.0713,135.75,201.9619,133.4766,199.8721,132.7578z"/>
	<path fill="#1A6ACC" d="M206.8564,88.6211c-0.3203-2.1875-2.3555-3.668-4.543-3.3711c-2.1875,0.3242-3.6953,2.3594-3.3711,4.5429
		c0.6914,4.668,1.043,9.4492,1.043,14.207c0,4.2148-0.2734,8.4492-0.8164,12.5859c-0.2891,2.1914,1.2539,4.1992,3.4453,4.4844
		c0.1758,0.0234,0.3516,0.0352,0.5234,0.0352c1.9805,0,3.6992-1.4648,3.9609-3.4805c0.5898-4.4805,0.8867-9.0625,0.8867-13.625
		C207.9854,98.8516,207.6064,93.6758,206.8564,88.6211z"/>
	<path fill="#1A6ACC" d="M198.0049,73.8555c0.4531,0,0.9141-0.0781,1.3672-0.2383c2.0742-0.7578,3.1484-3.0508,2.3906-5.1289
		c-3.3125-9.1211-7.8984-17.7422-13.6328-25.6172c-1.3086-1.7852-3.8047-2.1758-5.5898-0.8789
		c-1.7852,1.3008-2.1797,3.8047-0.8789,5.5898c5.293,7.2656,9.5273,15.2188,12.5859,23.6406
		C194.8369,72.8477,196.3721,73.8555,198.0049,73.8555z"/>
	<path fill="#1A6ACC" d="M146.8447,18.0742c8.0039,3.9961,15.4219,9.1094,22.0508,15.1953c0.7695,0.707,1.7383,1.0547,2.707,1.0547
		c1.0781,0,2.1562-0.4336,2.9453-1.293c1.4961-1.6289,1.3867-4.1602-0.2383-5.6523c-7.1797-6.5938-15.2188-12.1328-23.8945-16.4609
		c-1.9805-0.9922-4.3789-0.1758-5.3633,1.793C144.0635,14.6875,144.8682,17.0898,146.8447,18.0742z"/>
	<path fill="#1A6ACC" d="M102.3525,8.0156L103.9854,8c8.4609,0,16.8516,1.1016,24.9414,3.2695
		c0.3477,0.0938,0.6953,0.1367,1.0391,0.1367c1.7656,0,3.3789-1.1758,3.8594-2.9648c0.5742-2.1328-0.6914-4.3242-2.8281-4.8984
		C122.2353,1.1914,113.1455,0,103.9854,0l-1.7969,0.0156c-2.207,0.0469-3.9609,1.875-3.918,4.082
		C98.3174,6.3047,100.2666,8.1172,102.3525,8.0156z"/>
	<path fill="#1A6ACC" d="M56.3057,20.0781c0.6445,0,1.3008-0.1562,1.9062-0.4844c7.8867-4.293,16.3281-7.4414,25.0898-9.3633
		c2.1602-0.4727,3.5234-2.6055,3.0508-4.7617c-0.4727-2.1602-2.6094-3.5234-4.7617-3.0508
		c-9.5,2.082-18.6484,5.4961-27.1992,10.1445c-1.9414,1.0586-2.6602,3.4844-1.6055,5.4258
		C53.5127,19.3242,54.8877,20.0781,56.3057,20.0781z"/>
	<path fill="#1A6ACC" d="M21.0986,52.0273c1.2812,0,2.543-0.6172,3.3164-1.7578c5.0312-7.4297,11.0703-14.125,17.957-19.8906
		c1.6914-1.418,1.9141-3.9414,0.4961-5.6367c-1.418-1.6875-3.9375-1.918-5.6367-0.4961
		C29.7783,30.4922,23.2353,37.7383,17.79,45.7852c-1.2383,1.8281-0.7578,4.3164,1.0703,5.5547
		C19.5479,51.8047,20.3291,52.0273,21.0986,52.0273z"/>
	<path fill="#1A6ACC" d="M8.333,112.2227c-0.1836-2.2031-2.1367-3.8945-4.3203-3.6484c-2.2031,0.1836-3.8359,2.1211-3.6484,4.3203
		c0.8203,9.707,2.9961,19.2266,6.4688,28.2891c0.6094,1.5938,2.125,2.5703,3.7344,2.5703c0.4766,0,0.9609-0.0859,1.4297-0.2656
		c2.0625-0.7891,3.0977-3.1016,2.3047-5.1641C11.1025,129.9609,9.0908,121.1797,8.333,112.2227z"/>
</g>
<path fill="#FF5D5D" d="M164,126.6992c-1.0234,0-2.0479-0.3906-2.8281-1.1719c-1.5625-1.5615-1.5625-4.0947,0-5.6562
	l14.1426-14.1416c1.5625-1.5625,4.0957-1.5625,5.6562,0c1.5625,1.5615,1.5625,4.0947,0,5.6562l-14.1426,14.1416
	C166.0469,126.3086,165.0234,126.6992,164,126.6992z"/>
<path fill="#FF5D5D" d="M178.1426,126.6992c-1.0234,0-2.0469-0.3906-2.8281-1.1719l-14.1426-14.1416
	c-1.5625-1.5615-1.5625-4.0947,0-5.6562c1.5605-1.5625,4.0938-1.5625,5.6562,0l14.1426,14.1416
	c1.5625,1.5615,1.5625,4.0947,0,5.6562C180.1904,126.3086,179.166,126.6992,178.1426,126.6992z"/>
<path fill="#00D40B" d="M38,110.6992c-7.7197,0-14-6.2803-14-14s6.2803-14,14-14s14,6.2803,14,14S45.7197,110.6992,38,110.6992z
	 M38,90.6992c-3.3086,0-6,2.6914-6,6s2.6914,6,6,6s6-2.6914,6-6S41.3086,90.6992,38,90.6992z"/>
<path fill="#FFC504" d="M15.3135,213.3262c-1.0234,0-2.0469-0.3906-2.8281-1.1719L1.1719,200.8408
	c-1.5625-1.5615-1.5625-4.0947,0-5.6562l11.3135-11.3135c1.5605-1.5625,4.0938-1.5625,5.6562,0l11.3145,11.3135
	c0.75,0.75,1.1719,1.7676,1.1719,2.8281s-0.4219,2.0781-1.1719,2.8281l-11.3145,11.3135
	C17.3604,212.9355,16.3369,213.3262,15.3135,213.3262z M9.6572,198.0127l5.6562,5.6572l5.6572-5.6572l-5.6572-5.6572
	L9.6572,198.0127z"/>
</svg>
