<?xml version="1.0" encoding="utf-8"?>
<svg version="1.1" id="pinpointlocation" xmlns="http://www.w3.org/2000/svg" xmlns:xlink="http://www.w3.org/1999/xlink" x="0px"
	 y="0px" viewBox="0 0 206.6279 216" width="100px" height="100px" enable-background="new 0 0 206.6279 216" xml:space="preserve">
<g>
	<path fill="#FFFFFF" d="M119.4854,56c0-8.8223-7.1758-16-16-16s-16,7.1777-16,16s7.1758,16,16,16S119.4854,64.8223,119.4854,56z"/>
	<path fill="#FFFFFF" d="M103.4854,176c-1.1094,0-2.168-0.4609-2.9258-1.2734c-0.8081-0.8672-7.1597-7.7256-15.5886-17.8486
		C56.6938,159.6025,43.4854,167.4727,43.4854,172c0,6.5234,23.375,16,60,16s60-9.4766,60-16
		c0-4.4824-13.1602-12.3887-41.4141-15.127c-0.0195-0.002-0.0344-0.0142-0.0537-0.0166
		c-8.438,10.1357-14.7979,17.0029-15.6064,17.8701C105.6533,175.5391,104.5947,176,103.4854,176z"/>
	<path fill="#D0E8FF" d="M163.4854,68c0-33.084-26.9141-60-60-60s-60,26.916-60,60c0,29.1641,47.5898,84.1953,60,98.0488
		C115.8955,152.1953,163.4854,97.1641,163.4854,68z M79.4854,56c0-13.2344,10.7656-24,24-24s24,10.7656,24,24s-10.7656,24-24,24
		S79.4854,69.2344,79.4854,56z"/>
	<path fill="#FFFFFF" d="M130.126,148.5332c-0.3828-0.0449-0.7151-0.2017-1.0535-0.3438c-0.3479,0.437-0.6995,0.8833-1.0437,1.3125
		c21.8779,2.7939,43.4565,9.9424,43.4565,22.498c0,15.7559-34.207,24-68,24s-68-8.2441-68-24
		c0-12.5693,21.4402-19.6875,43.4602-22.4932c-0.291-0.3633-0.5884-0.7402-0.8821-1.1084
		c-35.9392,3.9902-62.0078,16.2217-62.0078,29.1113c0,14.4219,35.9062,30.4902,87.4297,30.4902s87.4297-16.0684,87.4297-30.4902
		C190.915,164.8379,165.3486,152.6523,130.126,148.5332z"/>
	<path fill="#1C71DA" d="M134.6321,141.0684C152.2148,118.0879,171.4854,88.2832,171.4854,68c0-37.4961-30.5039-68-68-68
		s-68,30.5039-68,68c0,20.2822,19.2683,50.0845,36.8501,73.0645c-39.2036,5.2153-64.2798,19.2842-64.2798,36.4453
		c0,21.584,41.918,38.4902,95.4297,38.4902s95.4297-16.9062,95.4297-38.4902C198.915,160.4214,173.7876,146.2959,134.6321,141.0684z
		 M122.0713,156.873c28.2539,2.7383,41.4141,10.6445,41.4141,15.127c0,6.5234-23.375,16-60,16s-60-9.4766-60-16
		c0-4.5273,13.2085-12.3975,41.4856-15.1221c8.429,10.123,14.7805,16.9814,15.5886,17.8486
		c0.7578,0.8125,1.8164,1.2734,2.9258,1.2734s2.168-0.4609,2.9258-1.2734c0.8086-0.8672,7.1685-7.7344,15.6064-17.8701
		C122.0369,156.8589,122.0518,156.8711,122.0713,156.873z M103.4854,8c33.0859,0,60,26.916,60,60
		c0,29.1641-47.5898,84.1953-60,98.0488c-12.4102-13.8535-60-68.8848-60-98.0488C43.4854,34.916,70.3994,8,103.4854,8z
		 M103.4854,208c-51.5234,0-87.4297-16.0684-87.4297-30.4902c0-12.8896,26.0686-25.1211,62.0078-29.1113
		c0.2937,0.3682,0.5911,0.7451,0.8821,1.1084c-22.02,2.8057-43.4602,9.9238-43.4602,22.4932c0,15.7559,34.207,24,68,24
		s68-8.2441,68-24c0-12.5557-21.5786-19.7041-43.4565-22.498c0.3442-0.4292,0.6958-0.8755,1.0437-1.3125
		c0.3384,0.1421,0.6707,0.2988,1.0535,0.3438c35.2227,4.1191,60.7891,16.3047,60.7891,28.9766
		C190.915,191.9316,155.0088,208,103.4854,208z"/>
	<path fill="#1C71DA" d="M127.4854,56c0-13.2344-10.7656-24-24-24s-24,10.7656-24,24s10.7656,24,24,24S127.4854,69.2344,127.4854,56
		z M87.4854,56c0-8.8223,7.1758-16,16-16s16,7.1777,16,16s-7.1758,16-16,16S87.4854,64.8223,87.4854,56z"/>
</g>
<path fill="#FF5D5D" d="M4,27c-1.0234,0-2.0469-0.3906-2.8281-1.1714c-1.5625-1.5625-1.5625-4.0952,0-5.6572L15.3145,6.0293
	c1.5605-1.5615,4.0938-1.5615,5.6562,0c1.5625,1.5625,1.5625,4.0952,0,5.6572L6.8281,25.8286C6.0478,26.6094,5.0234,27,4,27z"/>
<path fill="#FF5D5D" d="M18.1426,26.9985c-1.0234,0-2.0479-0.3906-2.8281-1.1714L1.1719,11.6846
	c-1.5625-1.5625-1.5625-4.0947,0-5.6572c1.5605-1.5615,4.0957-1.5615,5.6562,0l14.1426,14.1426
	c1.5625,1.5625,1.5625,4.0947,0,5.6572C20.1904,26.6079,19.166,26.9985,18.1426,26.9985z"/>
<path fill="#00D40B" d="M102,143c-7.7197,0-14-6.2803-14-14s6.2803-14,14-14s14,6.2803,14,14S109.7197,143,102,143z M102,123
	c-3.3086,0-6,2.6914-6,6s2.6914,6,6,6s6-2.6914,6-6S105.3086,123,102,123z"/>
<path fill="#FFC504" d="M191.3135,133.6255c-1.0234,0-2.0469-0.3906-2.8281-1.1714l-11.3135-11.3135
	c-1.5625-1.5625-1.5625-4.0947,0-5.6572l11.3135-11.3135c1.5605-1.5615,4.0938-1.5615,5.6562,0l11.3145,11.3135
	c0.75,0.75,1.1719,1.7676,1.1719,2.8286s-0.4219,2.0786-1.1719,2.8286l-11.3145,11.3135
	C193.3604,133.2349,192.3369,133.6255,191.3135,133.6255z M185.6572,118.312l5.6562,5.6567l5.6572-5.6567l-5.6572-5.6567
	L185.6572,118.312z"/>
</svg>
