<?xml version="1.0" encoding="utf-8"?>
<svg version="1.1" id="plan" xmlns="http://www.w3.org/2000/svg" xmlns:xlink="http://www.w3.org/1999/xlink" x="0px" y="0px"
	 viewBox="0 0 208 220.002" width="100px" height="100px" enable-background="new 0 0 208 220.002" xml:space="preserve">
<g>
	<path fill="#1C71DA" d="M194,20.002h-10c-2.2088,0-4,1.7912-4,4v16H4c-2.2088,0-4,1.7912-4,4v146.0392v1.9608v1.9608
		c0,7.7404,6.2812,14.0392,14,14.0392h10c2.2088,0,4-1.7912,4-4v-20h156h8.0156H194c6.2608,0,11.5128-4.172,13.2972-9.8672
		c0.4068-0.626,0.7028-1.33,0.7028-2.1328v-2.0392v-3.9216V34.0136C208,26.2872,201.7188,20.002,194,20.002z"/>
	<path fill="#D0E8FF" d="M188,28.002h6c3.3084,0,6,2.6972,6,6.0116v119.3968c-1.8256-0.8772-3.8448-1.4084-6-1.4084h-6V28.002z"/>
	<path fill="#D0E8FF" d="M20,200.002h-6c-3.3084,0-6-2.7088-6-6.0392v-1.9608v-1.9608c0-3.3304,2.6916-6.0392,6-6.0392h6V200.002z"
		/>
	<path fill="#5CB0FF" d="M184,176.002H24h-4h-6c-2.1552,0-4.1744,0.5312-6,1.4084V48.002h172v108c0,2.2088,1.7912,4,4,4h10
		c3.3084,0,6,2.7088,6,6.0392v1.9512c0,4.416-3.582,8.0096-7.9844,8.0096H184z"/>
	<polygon fill="#FFFFFF" points="148,136.002 148,120.002 148,112.002 148,88.002 140,88.002 140,112.002 104,112.002 104,120.002 
		140,120.002 140,136.002 140,152.002 92,152.002 92,112.002 84,112.002 84,152.002 48,152.002 48,76.002 84,76.002 84,100.002 
		92,100.002 92,76.002 148,76.002 148,68.002 92,68.002 84,68.002 48,68.002 40,68.002 40,76.002 40,152.002 40,160.002 48,160.002 
		140,160.002 148,160.002 148.08,160.002 148.08,152.002 148,152.002 	"/>
</g>
<path fill="#FF5D5D" d="M68,216.002c-1.0236,0-2.0468-0.3908-2.828-1.172c-1.5628-1.5624-1.5628-4.0956,0-5.656l14.1424-14.1408
	c1.5624-1.5624,4.094-1.5624,5.6564,0c1.5624,1.5624,1.5624,4.0956,0,5.6564L70.828,214.83
	C70.0468,215.6112,69.0236,216.002,68,216.002z"/>
<path fill="#FF5D5D" d="M82.1424,216.002c-1.0232,0-2.0468-0.3908-2.828-1.172L65.172,200.6856
	c-1.5628-1.5624-1.5628-4.0956,0-5.6564c1.5624-1.5624,4.0936-1.5624,5.656,0l14.1428,14.1448c1.5624,1.5624,1.5624,4.0956,0,5.656
	C84.1896,215.6112,83.166,216.002,82.1424,216.002z"/>
<path fill="#00D40B" d="M190,220.002c-7.7188,0-14-6.2812-14-14s6.2812-14,14-14c7.7188,0,14,6.2812,14,14
	S197.7188,220.002,190,220.002z M190,200.002c-3.3084,0-6,2.6916-6,6s2.6916,6,6,6c3.3084,0,6-2.6916,6-6
	S193.3084,200.002,190,200.002z"/>
<path fill="#FFC504" d="M63.3144,30.6268c-1.0232,0-2.0468-0.3904-2.828-1.1716L49.172,18.1428
	c-0.75-0.75-1.172-1.7676-1.172-2.8284c0-1.0604,0.422-2.078,1.172-2.828L60.4864,1.172C61.2364,0.422,62.254,0,63.3144,0l0,0
	c1.0608,0,2.078,0.422,2.828,1.172l11.3128,11.3144c1.5624,1.5624,1.5624,4.0936,0,5.6564L66.1424,29.4552
	C65.3612,30.2364,64.338,30.6268,63.3144,30.6268z M57.6564,15.3144l5.658,5.6564l5.6564-5.6564l-5.6564-5.658L57.6564,15.3144z"/>
</svg>
