<?xml version="1.0" encoding="utf-8"?>
<svg version="1.1" id="presentation" xmlns="http://www.w3.org/2000/svg" xmlns:xlink="http://www.w3.org/1999/xlink" x="0px"
	 y="0px" viewBox="0 0 225 204" width="100px" height="100px" enable-background="new 0 0 225 204" xml:space="preserve">
<g>
	<path fill="#D0E8FF" d="M49.1797,196h143.6406l-7.25-164H56.4297L49.1797,196z M145,68h32v8h-32V68z M145,92h32v8h-32V92z M145,176
		h32v8h-32V176z M61,48c0-2.209,1.7891-4,4-4h68c2.2109,0,4,1.791,4,4v52c0,2.209-1.7891,4-4,4H65c-2.2109,0-4-1.791-4-4V48z
		 M61,176h68v8H61V176z"/>
	<rect x="69" y="52" fill="#5CB0FF" width="60" height="44"/>
	<rect x="97" y="124" fill="#1A6ACC" width="8" height="8"/>
	<rect x="97" y="152" fill="#1A6ACC" width="8" height="8"/>
	<rect x="69" y="124" fill="#1A6ACC" width="8" height="8"/>
	<rect x="125" y="124" fill="#1A6ACC" width="8" height="8"/>
	<rect x="125" y="152" fill="#1A6ACC" width="8" height="8"/>
	<path fill="#D0E8FF" d="M209,8H29c-4.4102,0-8,3.5879-8,8s3.5898,8,8,8h23.6016h136.7969H209c4.4102,0,8-3.5879,8-8
		S213.4102,8,209,8z"/>
	<rect x="69" y="152" fill="#1A6ACC" width="8" height="8"/>
	<path fill="#1A6ACC" d="M209,0H29c-8.8242,0-16,7.1777-16,16s7.1758,16,16,16h19.4209l-7.417,167.8242
		c-0.0469,1.0898,0.3516,2.1523,1.1055,2.9414S43.9102,204,45,204h152c1.0898,0,2.1367-0.4453,2.8906-1.2344
		s1.1523-1.8516,1.1055-2.9414L193.5791,32H209c8.8242,0,16-7.1777,16-16S217.8242,0,209,0z M192.8203,196H49.1797l7.25-164
		h129.1406L192.8203,196z M209,24h-19.6016H52.6016H29c-4.4102,0-8-3.5879-8-8s3.5898-8,8-8h180c4.4102,0,8,3.5879,8,8
		S213.4102,24,209,24z"/>
	<path fill="#1A6ACC" d="M65,104h68c2.2109,0,4-1.791,4-4V48c0-2.209-1.7891-4-4-4H65c-2.2109,0-4,1.791-4,4v52
		C61,102.209,62.7891,104,65,104z M69,52h60v44H69V52z"/>
	<rect x="145" y="92" fill="#1A6ACC" width="32" height="8"/>
	<rect x="145" y="68" fill="#1A6ACC" width="32" height="8"/>
	<rect x="145" y="176" fill="#1A6ACC" width="32" height="8"/>
	<rect x="61" y="176" fill="#1A6ACC" width="68" height="8"/>
</g>
<path fill="#FF5D5D" d="M200,55.5005c-1.0234,0-2.0469-0.3906-2.8281-1.1714c-1.5625-1.5625-1.5625-4.0952,0-5.6572l14.1426-14.1421
	c1.5605-1.5615,4.0938-1.5615,5.6562,0c1.5625,1.5625,1.5625,4.0952,0,5.6572l-14.1426,14.1421
	C202.0479,55.1099,201.0234,55.5005,200,55.5005z"/>
<path fill="#FF5D5D" d="M214.1426,55.501c-1.0234,0-2.0479-0.3906-2.8281-1.1714L197.1719,40.187
	c-1.5625-1.5625-1.5625-4.0947,0-5.6572c1.5605-1.5615,4.0957-1.5615,5.6562,0l14.1426,14.1426
	c1.5625,1.5625,1.5625,4.0947,0,5.6572C216.1904,55.1104,215.166,55.501,214.1426,55.501z"/>
<path fill="#00D40B" d="M154,147.5005c-7.7197,0-14-6.2803-14-14s6.2803-14,14-14s14,6.2803,14,14S161.7197,147.5005,154,147.5005z
	 M154,127.5005c-3.3086,0-6,2.6914-6,6s2.6914,6,6,6s6-2.6914,6-6S157.3086,127.5005,154,127.5005z"/>
<path fill="#FFC504" d="M15.3135,158.1279c-1.0234,0-2.0479-0.3906-2.8281-1.1714L1.1719,145.6431
	c-1.5625-1.5625-1.5625-4.0947,0-5.6567l11.3135-11.314c0.75-0.7505,1.7676-1.1719,2.8281-1.1719s2.0781,0.4214,2.8281,1.1719
	l11.3135,11.314c1.5625,1.562,1.5625,4.0942,0,5.6567l-11.3135,11.3135C17.3613,157.7373,16.3369,158.1279,15.3135,158.1279z
	 M9.6572,142.8145l5.6562,5.6567l5.6562-5.6567l-5.6562-5.6572L9.6572,142.8145z"/>
</svg>
