<?xml version="1.0" encoding="utf-8"?>
<svg version="1.1" id="refresh1" xmlns="http://www.w3.org/2000/svg" xmlns:xlink="http://www.w3.org/1999/xlink" x="0px" y="0px"
	 viewBox="0 0 207.2291 209.79" width="100px" height="100px" enable-background="new 0 0 207.2291 209.79" xml:space="preserve">
<g>
	<path fill="#1A6ACC" d="M195.5228,109.79c-2.2109,0-4,1.7891-4,4c0,48.5234-39.4766,88-88,88
		c-34.4438,0-65.2161-19.7759-79.676-50.7092l20.7776,9.2483c2.0195,0.918,4.3867-0.0039,5.2773-2.0273
		c0.8984-2.0157-0.0078-4.379-2.0273-5.2774l-29.2344-13.0156c-2.0195-0.9102-4.3828,0.0078-5.2773,2.0273L0.347,171.2705
		c-0.8984,2.0156,0.0078,4.3789,2.0273,5.2774c0.5273,0.2383,1.0781,0.3476,1.6211,0.3476c1.5352,0,2.9961-0.8828,3.6563-2.375
		l8.9417-20.0789c15.7681,33.7588,49.3442,55.3484,86.9294,55.3484c52.9336,0,96-43.0664,96-96
		C199.5228,111.5791,197.7337,109.79,195.5228,109.79z"/>
	<path fill="#1A6ACC" d="M204.8548,50.8643c-2.0156-0.9102-4.3828,0.0078-5.2773,2.0273l-9.0645,20.3545
		C174.772,39.4004,141.2225,17.79,103.5227,17.79c-52.9336,0-96,43.0664-96,96c0,2.2109,1.7891,4,4,4s4-1.7891,4-4
		c0-48.5234,39.4766-88,88-88c34.3987,0,65.042,19.625,79.5513,50.4033l-20.4614-9.1104c-2.0273-0.9141-4.3867,0.0078-5.2812,2.0234
		c-0.8984,2.0195,0.0078,4.3828,2.0234,5.2812l29.2305,13.0156c0.5195,0.2305,1.0742,0.3477,1.6289,0.3477
		c0.4844,0,0.9727-0.0898,1.4336-0.2656c0.9922-0.3789,1.7891-1.1367,2.2188-2.1094l13.0156-29.2344
		C207.7806,54.126,206.8743,51.7627,204.8548,50.8643z"/>
	<path fill="#1A6ACC" d="M143.5228,113.79c0-22.0547-17.9453-40-40-40s-40,17.9453-40,40s17.9453,40,40,40
		S143.5228,135.8447,143.5228,113.79z"/>
	<path fill="#5CB0FF" d="M71.5227,113.79c0-17.6445,14.3555-32,32-32s32,14.3555,32,32s-14.3555,32-32,32
		S71.5227,131.4346,71.5227,113.79z"/>
	<path fill="#FFFFFF" d="M103.5227,130.0518c0,2.2109,1.7891,4,4,4s4-1.7891,4-4v-32c0-1.3281-0.6602-2.5664-1.7578-3.3125
		c-1.1055-0.7461-2.5078-0.8984-3.7266-0.4023l-10,4c-2.0508,0.8203-3.0508,3.1484-2.2305,5.1992
		c0.8203,2.0586,3.1641,3.0469,5.1992,2.2305l4.5156-1.8086V130.0518z"/>
</g>
<path fill="#FF5D5D" d="M178.4695,24c-1.0234,0-2.0479-0.3906-2.8281-1.1719c-1.5625-1.5615-1.5625-4.0947,0-5.6562L189.784,3.0303
	c1.5625-1.5625,4.0957-1.5625,5.6562,0c1.5625,1.5615,1.5625,4.0947,0,5.6562l-14.1426,14.1416
	C180.5164,23.6094,179.493,24,178.4695,24z"/>
<path fill="#FF5D5D" d="M192.6121,24c-1.0234,0-2.0469-0.3906-2.8281-1.1719L175.6414,8.6865c-1.5625-1.5615-1.5625-4.0947,0-5.6562
	c1.5605-1.5625,4.0938-1.5625,5.6562,0l14.1426,14.1416c1.5625,1.5615,1.5625,4.0947,0,5.6562
	C194.6599,23.6094,193.6355,24,192.6121,24z"/>
<path fill="#00D40B" d="M16.4695,28c-7.7197,0-14-6.2803-14-14s6.2803-14,14-14s14,6.2803,14,14S24.1892,28,16.4695,28z M16.4695,8
	c-3.3086,0-6,2.6914-6,6s2.6914,6,6,6s6-2.6914,6-6S19.7781,8,16.4695,8z"/>
<path fill="#FFC504" d="M37.784,118.6279c-1.0605,0-2.0781-0.4219-2.8281-1.1719l-11.3145-11.3145
	c-0.75-0.75-1.1719-1.7676-1.1719-2.8281s0.4219-2.0781,1.1719-2.8281l11.3145-11.3135c1.5625-1.5625,4.0938-1.5625,5.6562,0
	l11.3135,11.3135c1.5625,1.5615,1.5625,4.0947,0,5.6562l-11.3135,11.3145C39.8621,118.2061,38.8445,118.6279,37.784,118.6279z
	 M32.1267,103.3135l5.6572,5.6572l5.6572-5.6572l-5.6572-5.6572L32.1267,103.3135z"/>
</svg>
