<?xml version="1.0" encoding="utf-8"?>
<svg version="1.1" id="skewdriverandkey" xmlns="http://www.w3.org/2000/svg" xmlns:xlink="http://www.w3.org/1999/xlink" x="0px"
	 y="0px" viewBox="0 0 194.1405 216" width="100px" height="100px" enable-background="new 0 0 194.1405 216" xml:space="preserve">
<g>
	<path fill="#1C71DA" d="M61.6015,7.662c-1.2344-0.5352-2.668-0.4216-3.7932,0.3184C56.6795,8.7208,56,9.9784,56,11.328V44H32
		V11.328c0-1.3496-0.6797-2.6072-1.8085-3.3476c-1.1332-0.7364-2.5548-0.8516-3.7932-0.3184C10.3631,14.668,0,30.502,0,48
		c0,17.1192,9.8487,31.9488,24.1575,39.2188C24.104,87.48,24,87.7228,24,88v107.9804C24,207.0196,32.9727,216,44,216
		c11.0271,0,20-8.9804,20-20.0196V88c0-0.2772-0.1037-0.52-0.1577-0.7812C78.1515,79.9488,88,65.1192,88,48
		C88,30.502,77.6367,14.668,61.6015,7.662z"/>
	<path fill="#D0E8FF" d="M56,195.9804C56,202.6076,50.6171,208,44,208c-6.6173,0-12-5.3924-12-12.0196V90.294
		C35.8203,91.38,39.836,92,44,92s8.1795-0.62,12-1.706V195.9804z"/>
	<path fill="#5CB0FF" d="M44,84C24.1483,84,8,67.8496,8,48c0-12.162,6.1171-23.34,16-29.9432V48c0,2.2088,1.7891,4,4,4h32
		c2.2107,0,4-1.7912,4-4V18.0568C73.8827,24.66,80,35.838,80,48C80,67.8496,63.8515,84,44,84z"/>
	<path fill="#1C71DA" d="M41.16,193.16C40.4375,193.92,40,194.92,40,196c0,1.0392,0.4375,2.08,1.16,2.84
		c0.7579,0.7184,1.8007,1.16,2.84,1.16c1.0391,0,2.0779-0.4416,2.84-1.16c0.7183-0.76,1.16-1.8008,1.16-2.84
		c0-1.08-0.4417-2.08-1.16-2.84C45.3591,191.6796,42.6407,191.6796,41.16,193.16z"/>
	<path fill="#1C71DA" d="M172,100h-16V29.6564l6.828-6.8284C163.5779,22.078,164,21.0604,164,20V4c0-2.2088-1.7893-4-4-4h-16
		c-2.2109,0-4,1.7912-4,4v16c0,1.0604,0.4219,2.078,1.172,2.828L148,29.6564V100h-16c-2.2109,0-4,1.7912-4,4v12
		c0,2.2088,1.7891,4,4,4h4.5259l-3.8539,5.7812C132.2343,126.4376,132,127.2108,132,128v68.002c0,11.0272,8.9727,19.998,20,19.998
		c11.0271,0,20-8.9708,20-19.998V128c0-0.7892-0.2345-1.5624-0.672-2.2188L167.4739,120H172c2.2107,0,4-1.7912,4-4v-12
		C176,101.7912,174.2107,100,172,100z"/>
	<polygon fill="#5CB0FF" points="148,8 156,8 156,18.3436 152,22.3436 148,18.3436 	"/>
	<path fill="#D0E8FF" d="M164,196.002c0,6.6152-5.3829,11.998-12,11.998c-6.6173,0-12-5.3828-12-11.998v-66.7912L146.1407,120
		h11.7184L164,129.2108V196.002z"/>
	<polygon fill="#D0E8FF" points="168,112 160,112 144,112 136,112 136,108 168,108 	"/>
</g>
<path fill="#FF5D5D" d="M176,84c-1.0237,0-2.0469-0.3908-2.828-1.172c-1.5629-1.5604-1.5629-4.0936,0-5.656l14.1404-14.1428
	c1.5628-1.5624,4.094-1.5624,5.6564,0c1.5624,1.5608,1.5624,4.094,0,5.6564L178.828,82.828C178.0467,83.6092,177.0235,84,176,84z"/>
<path fill="#FF5D5D" d="M190.1407,83.998c-1.0236,0-2.0472-0.3904-2.8284-1.172L173.172,68.6836
	c-1.5629-1.5624-1.5629-4.0956,0-5.6564c1.5623-1.5624,4.0935-1.5624,5.656,0L192.9687,77.17c1.5624,1.5624,1.5624,4.0956,0,5.656
	C192.1875,83.6076,191.164,83.998,190.1407,83.998z"/>
<path fill="#00D40B" d="M98,96c-7.7189,0-14-6.2812-14-14s6.2811-14,14-14c7.7187,0,14,6.2812,14,14S105.7187,96,98,96z M98,76
	c-3.3085,0-6,2.6916-6,6s2.6915,6,6,6c3.3083,0,6-2.6916,6-6S101.3083,76,98,76z"/>
<path fill="#FFC504" d="M107.3123,182.6248c-1.0232,0-2.0468-0.3904-2.828-1.1716L93.172,170.1408
	c-1.5629-1.5628-1.5629-4.094,0-5.6564l11.3123-11.3144c1.496-1.498,4.1524-1.502,5.6564,0l11.3164,11.3144
	c0.75,0.75,1.1716,1.7676,1.1716,2.828c0,1.0608-0.4216,2.0784-1.1716,2.8284l-11.3164,11.3124
	C109.3591,182.2344,108.336,182.6248,107.3123,182.6248z M101.6563,167.3124l5.656,5.6564l5.6604-5.6564l-5.6604-5.658
	L101.6563,167.3124z"/>
</svg>
