<?xml version="1.0" encoding="utf-8"?>
<svg version="1.1" id="stopwatch" xmlns="http://www.w3.org/2000/svg" xmlns:xlink="http://www.w3.org/1999/xlink" x="0px" y="0px"
	 viewBox="0 0 199.9854 208" width="100px" height="100px" enable-background="new 0 0 199.9854 208" xml:space="preserve">
<g>
	<circle fill="#1A6ACC" cx="103.9854" cy="112" r="4"/>
	<polygon fill="#D0E8FF" points="115.001,8 92.9697,8 94.7471,16 113.2236,16 	"/>
	<path fill="#5CB0FF" d="M103.9854,24c-48.5234,0-88,39.4766-88,88s39.4766,88,88,88s88-39.4766,88-88S152.5088,24,103.9854,24z
		 M130.876,161.5469l-25.1487-37.7229c-0.5735,0.0845-1.1455,0.176-1.7419,0.176c-6.6172,0-12-5.3828-12-12
		c0-5.2078,3.354-9.6064,8-11.2629V40h8v60.7371c4.646,1.6565,8,6.0552,8,11.2629c0,3.1067-1.2168,5.9146-3.1606,8.0479
		l24.7075,37.0615L130.876,161.5469z"/>
	<path fill="#1A6ACC" d="M121.073,17.5537l2.8186-12.6865c0.2617-1.1836-0.0273-2.4219-0.7852-3.3711
		C122.3447,0.5508,121.2002,0,119.9854,0h-32c-1.2148,0-2.3594,0.5508-3.1211,1.4961c-0.7578,0.9492-1.0469,2.1875-0.7852,3.3711
		l2.8186,12.6865C42.092,25.6414,7.9854,64.9001,7.9854,112c0,52.9336,43.0664,96,96,96s96-43.0664,96-96
		C199.9854,64.9001,165.8787,25.6414,121.073,17.5537z M94.7471,16l-1.7773-8h22.0312l-1.7773,8H94.7471z M103.9854,200
		c-48.5234,0-88-39.4766-88-88s39.4766-88,88-88s88,39.4766,88,88S152.5088,200,103.9854,200z"/>
	<path fill="#1A6ACC" d="M115.9854,112c0-5.2078-3.354-9.6064-8-11.2629V40h-8v60.7371c-4.646,1.6565-8,6.0552-8,11.2629
		c0,6.6172,5.3828,12,12,12c0.5964,0,1.1685-0.0916,1.7419-0.176l25.1487,37.7229l6.6562-4.4375l-24.7075-37.0615
		C114.7686,117.9146,115.9854,115.1067,115.9854,112z M99.9854,112c0-2.207,1.793-4,4-4s4,1.793,4,4s-1.793,4-4,4
		S99.9854,114.207,99.9854,112z"/>
</g>
<path fill="#FF5D5D" d="M40,126.6992c-1.0234,0-2.0479-0.3906-2.8281-1.1719c-1.5625-1.5615-1.5625-4.0947,0-5.6562l14.1426-14.1416
	c1.5625-1.5625,4.0957-1.5625,5.6562,0c1.5625,1.5615,1.5625,4.0947,0,5.6562l-14.1426,14.1416
	C42.0469,126.3086,41.0234,126.6992,40,126.6992z"/>
<path fill="#FF5D5D" d="M54.1426,126.6992c-1.0234,0-2.0469-0.3906-2.8281-1.1719l-14.1426-14.1416
	c-1.5625-1.5615-1.5625-4.0947,0-5.6562c1.5605-1.5625,4.0938-1.5625,5.6562,0l14.1426,14.1416
	c1.5625,1.5615,1.5625,4.0947,0,5.6562C56.1904,126.3086,55.166,126.6992,54.1426,126.6992z"/>
<path fill="#00D40B" d="M14,34.6992c-7.7197,0-14-6.2803-14-14s6.2803-14,14-14s14,6.2803,14,14S21.7197,34.6992,14,34.6992z
	 M14,14.6992c-3.3086,0-6,2.6914-6,6s2.6914,6,6,6s6-2.6914,6-6S17.3086,14.6992,14,14.6992z"/>
<path fill="#FFC504" d="M159.3135,125.3271L159.3135,125.3271c-1.0605,0-2.0781-0.4219-2.8281-1.1719l-11.3135-11.3145
	c-1.5625-1.5615-1.5625-4.0947,0-5.6562l11.3135-11.3135c1.5605-1.5625,4.0938-1.5625,5.6562,0l11.3145,11.3135
	c0.75,0.75,1.1719,1.7676,1.1719,2.8281s-0.4219,2.0781-1.1719,2.8281l-11.3145,11.3145
	C161.3916,124.9053,160.374,125.3271,159.3135,125.3271z M153.6562,110.0127l5.6572,5.6572l5.6572-5.6572l-5.6572-5.6572
	L153.6562,110.0127z"/>
</svg>
