<?xml version="1.0" encoding="utf-8"?>
<!-- Generator: Adobe Illustrator 19.2.0, SVG Export Plug-In . SVG Version: 6.00 Build 0)  -->
<svg version="1.1" id="ticket" xmlns="http://www.w3.org/2000/svg" xmlns:xlink="http://www.w3.org/1999/xlink" x="0px" y="0px"
	 viewBox="0 0 228 197.7422" enable-background="new 0 0 228 197.7422" xml:space="preserve">
<g>
	<path fill="#1C71DA" d="M224,119.5625h-12v-13.8203c0-2.2109-1.7891-4-4-4h-30.2344L77.1914,1.1719
		c-1.5625-1.5625-4.0938-1.5625-5.6562,0l-11.25,11.25l-8.4844-8.4883c-0.75-0.75-1.7656-1.1719-2.8281-1.1719
		s-2.0781,0.4219-2.8281,1.1719L12.3594,37.7188c-1.5625,1.5625-1.5625,4.0938,0,5.6562l8.4844,8.4883l-11.25,11.25
		c-0.75,0.75-1.1719,1.7656-1.1719,2.8281s0.4219,2.0781,1.1719,2.8281l32.9758,32.9727H20c-2.2109,0-4,1.7891-4,4v13.8203H4
		c-2.2109,0-4,1.7891-4,4v52.3633c0,2.2109,1.7891,4,4,4h12v13.8164c0,2.2109,1.7891,4,4,4h188c2.2109,0,4-1.7891,4-4v-13.8164h12
		c2.2109,0,4-1.7891,4-4v-52.3633C228,121.3516,226.2109,119.5625,224,119.5625z"/>
	<path fill="#D0E8FF" d="M29.3281,54.6914c1.5625-1.5625,1.5625-4.0938,0-5.6562l-8.4844-8.4883L48.9727,12.418l8.4844,8.4883
		c0.75,0.75,1.7656,1.1719,2.8281,1.1719s2.0781-0.4219,2.8281-1.1719l11.25-11.25l23.4966,23.4956L42.0195,88.9923
		c-0.1575,0.1574-0.2288,0.3583-0.3545,0.5336L18.0781,65.9414L29.3281,54.6914z"/>
	<path fill="#D0E8FF" d="M47.1426,95.0027c0.175-0.1257,0.3757-0.1968,0.5332-0.3542l55.8406-55.8406l62.9368,62.9343H53.8828
		L47.1426,95.0027z"/>
	<path fill="#5DB0FF" d="M20,171.9258H8v-44.3633h12c2.2109,0,4-1.7891,4-4v-13.8203h28.2266H56v80H24v-13.8164
		C24,173.7148,22.2109,171.9258,20,171.9258z"/>
	<path fill="#5DB0FF" d="M220,171.9258h-12c-2.2109,0-4,1.7891-4,4v13.8164H64v-80h112.1094H204v13.8203c0,2.2109,1.7891,4,4,4h12
		V171.9258z"/>
	<path fill="#1C71DA" d="M92,129.7422h60c2.2109,0,4-1.7891,4-4s-1.7891-4-4-4H92c-2.2109,0-4,1.7891-4,4
		S89.7891,129.7422,92,129.7422z"/>
	<path fill="#1C71DA" d="M172,137.7422H92c-2.2109,0-4,1.7891-4,4s1.7891,4,4,4h80c2.2109,0,4-1.7891,4-4
		S174.2109,137.7422,172,137.7422z"/>
	<path fill="#1C71DA" d="M108,153.7422H92c-2.2109,0-4,1.7891-4,4s1.7891,4,4,4h16c2.2109,0,4-1.7891,4-4
		S110.2109,153.7422,108,153.7422z"/>
	<path fill="#1C71DA" d="M140,153.7422h-16c-2.2109,0-4,1.7891-4,4s1.7891,4,4,4h16c2.2109,0,4-1.7891,4-4
		S142.2109,153.7422,140,153.7422z"/>
</g>
<path fill="#FF5D5D" d="M196.126,82.4659c-1.0234,0-2.0479-0.3906-2.8281-1.1719c-1.5625-1.5615-1.5625-4.0947,0-5.6562
	l14.1426-14.1426c1.5605-1.5625,4.0957-1.5625,5.6562,0c1.5625,1.5615,1.5625,4.0947,0,5.6562L198.9541,81.294
	C198.1738,82.0753,197.1494,82.4659,196.126,82.4659z"/>
<path fill="#FF5D5D" d="M210.2686,82.4659c-1.0234,0-2.0479-0.3906-2.8281-1.1719l-14.1426-14.1426
	c-1.5625-1.5615-1.5625-4.0947,0-5.6562c1.5605-1.5625,4.0957-1.5625,5.6562,0l14.1426,14.1426
	c1.5625,1.5615,1.5625,4.0947,0,5.6562C212.3164,82.0753,211.292,82.4659,210.2686,82.4659z"/>
<path fill="#00D40B" d="M102.126,94.4659c-7.7197,0-14-6.2803-14-14s6.2803-14,14-14s14,6.2803,14,14
	S109.8457,94.4659,102.126,94.4659z M102.126,74.4659c-3.3086,0-6,2.6914-6,6s2.6914,6,6,6s6-2.6914,6-6
	S105.4346,74.4659,102.126,74.4659z"/>
<path fill="#FFC504" d="M159.4404,37.0929c-1.0234,0-2.0469-0.3906-2.8281-1.1719l-11.3145-11.3135
	c-0.75-0.75-1.1719-1.7676-1.1719-2.8281s0.4219-2.0781,1.1719-2.8281l11.3145-11.3135c1.5625-1.5625,4.0938-1.5625,5.6562,0
	l11.3135,11.3135c1.5625,1.5615,1.5625,4.0947,0,5.6562L162.2686,35.921C161.4883,36.7023,160.4639,37.0929,159.4404,37.0929z
	 M153.7832,21.7794l5.6572,5.6572l5.6562-5.6572l-5.6562-5.6572L153.7832,21.7794z"/>
</svg>
