<?xml version="1.0" encoding="utf-8"?>
<svg version="1.1" id="website" xmlns="http://www.w3.org/2000/svg" xmlns:xlink="http://www.w3.org/1999/xlink" x="0px" y="0px"
	 viewBox="0 0 224 197.3008" width="100px" height="100px" enable-background="new 0 0 224 197.3008" xml:space="preserve">
<g>
	<rect x="112" y="121.3008" fill="#5CB0FF" width="84" height="68"/>
	<rect x="24" y="121.3008" fill="#5CB0FF" width="68" height="68"/>
	<rect x="24" y="57.3008" fill="#5CB0FF" width="56" height="24"/>
	<path fill="#D0E8FF" d="M8,189.3008h8v-72c0-2.2109,1.7891-4,4-4h76c2.2109,0,4,1.7891,4,4v72h4v-72c0-2.2109,1.7891-4,4-4h92
		c2.2109,0,4,1.7891,4,4v72h12v-152H8V189.3008z M200,105.3008h-68v-8h68V105.3008z M200,89.3008h-40v-8h40V89.3008z M200,73.3008
		h-56v-8h56V73.3008z M96,49.3008h104v8H96V49.3008z M96,65.3008h40v8H96V65.3008z M96,81.3008h56v8H96V81.3008z M16,53.3008
		c0-2.2109,1.7891-4,4-4h64c2.2109,0,4,1.7891,4,4v32c0,2.2109-1.7891,4-4,4H20c-2.2109,0-4-1.7891-4-4V53.3008z M16,97.3008h108v8
		H16V97.3008z"/>
	<path fill="#1A6ACC" d="M220,29.3008H4c-2.2109,0-4,1.7891-4,4v160c0,2.2109,1.7891,4,4,4h16h76h12h92h20c2.2109,0,4-1.7891,4-4
		v-160C224,31.0898,222.2109,29.3008,220,29.3008z M24,189.3008v-68h68v68H24z M112,189.3008v-68h84v68H112z M216,189.3008h-12v-72
		c0-2.2109-1.7891-4-4-4h-92c-2.2109,0-4,1.7891-4,4v72h-4v-72c0-2.2109-1.7891-4-4-4H20c-2.2109,0-4,1.7891-4,4v72H8v-152h208
		V189.3008z"/>
	<path fill="#1A6ACC" d="M20,89.3008h64c2.2109,0,4-1.7891,4-4v-32c0-2.2109-1.7891-4-4-4H20c-2.2109,0-4,1.7891-4,4v32
		C16,87.5117,17.7891,89.3008,20,89.3008z M24,57.3008h56v24H24V57.3008z"/>
	<rect x="96" y="49.3008" fill="#1A6ACC" width="104" height="8"/>
	<rect x="16" y="97.3008" fill="#1A6ACC" width="108" height="8"/>
	<rect x="132" y="97.3008" fill="#1A6ACC" width="68" height="8"/>
	<rect x="96" y="65.3008" fill="#1A6ACC" width="40" height="8"/>
	<rect x="160" y="81.3008" fill="#1A6ACC" width="40" height="8"/>
	<rect x="144" y="65.3008" fill="#1A6ACC" width="56" height="8"/>
	<rect x="96" y="81.3008" fill="#1A6ACC" width="56" height="8"/>
</g>
<path fill="#FF5D5D" d="M148.0146,168c-1.0234,0-2.0479-0.3906-2.8281-1.1719c-1.5625-1.5615-1.5625-4.0947,0-5.6562
	l14.1426-14.1416c1.5625-1.5625,4.0957-1.5625,5.6562,0c1.5625,1.5615,1.5625,4.0947,0,5.6562l-14.1426,14.1416
	C150.0615,167.6094,149.0381,168,148.0146,168z"/>
<path fill="#FF5D5D" d="M162.1572,168c-1.0234,0-2.0469-0.3906-2.8281-1.1719l-14.1426-14.1416
	c-1.5625-1.5615-1.5625-4.0947,0-5.6562c1.5605-1.5625,4.0938-1.5625,5.6562,0l14.1426,14.1416
	c1.5625,1.5615,1.5625,4.0947,0,5.6562C164.2051,167.6094,163.1807,168,162.1572,168z"/>
<path fill="#00D40B" d="M134.0146,28c-7.7197,0-14-6.2803-14-14s6.2803-14,14-14s14,6.2803,14,14S141.7344,28,134.0146,28z
	 M134.0146,8c-3.3086,0-6,2.6914-6,6s2.6914,6,6,6s6-2.6914,6-6S137.3232,8,134.0146,8z"/>
<path fill="#FFC504" d="M55.3281,174.627c-1.0234,0-2.0469-0.3906-2.8281-1.1719l-11.3135-11.3135
	c-1.5625-1.5615-1.5625-4.0947,0-5.6562L52.5,145.1719c1.5605-1.5625,4.0938-1.5625,5.6562,0l11.3145,11.3135
	c0.75,0.75,1.1719,1.7676,1.1719,2.8281s-0.4219,2.0781-1.1719,2.8281l-11.3145,11.3135
	C57.375,174.2363,56.3516,174.627,55.3281,174.627z M49.6719,159.3135l5.6562,5.6572l5.6572-5.6572l-5.6572-5.6572L49.6719,159.3135
	z"/>
</svg>
