<?xml version="1.0" encoding="utf-8"?>
<!-- Generator: Adobe Illustrator 19.2.0, SVG Export Plug-In . SVG Version: 6.00 Build 0)  -->
<svg version="1.1" id="topbarlayout" xmlns="http://www.w3.org/2000/svg" xmlns:xlink="http://www.w3.org/1999/xlink" x="0px"
	 y="0px" viewBox="0 0 208 208" enable-background="new 0 0 208 208" xml:space="preserve">
<g>
	<rect x="108" y="8" fill="none" width="92" height="28"/>
	<rect x="8" y="44" fill="none" width="92" height="156"/>
	<rect x="8" y="8" fill="none" width="92" height="28"/>
	<rect x="108" y="44" fill="none" width="92" height="156"/>
	<path d="M204,0H104H4C1.7912,0,0,1.7912,0,4v36v164c0,2.2088,1.7912,4,4,4h100h100c2.2088,0,4-1.7912,4-4V40V4
		C208,1.7912,206.2088,0,204,0z M200,36h-92V8h92V36z M8,8h92v28H8V8z M8,44h92v156H8V44z M108,200V44h92v156H108z"/>
</g>
</svg>
