<?xml version="1.0" encoding="utf-8"?>
<!-- Generator: Adobe Illustrator 19.2.0, SVG Export Plug-In . SVG Version: 6.00 Build 0)  -->
<svg version="1.1" id="video" xmlns="http://www.w3.org/2000/svg" xmlns:xlink="http://www.w3.org/1999/xlink" x="0px" y="0px"
	 viewBox="0 0 224 168" enable-background="new 0 0 224 168" xml:space="preserve">
<g>
	<path fill="none" d="M216,128V8H8v120H216z M92,52c0-1.3868,0.7188-2.672,1.8964-3.4024c1.1796-0.7344,2.6544-0.7928,3.8928-0.1756
		l36,18C135.1444,67.1016,136,68.4844,136,70s-0.8556,2.8984-2.2108,3.578l-36,18C97.2248,91.8592,96.6112,92,96,92
		c-0.7304,0-1.4608-0.1992-2.1036-0.5976C92.7188,90.672,92,89.3868,92,88V52z"/>
	<polygon fill="none" points="100,58.4728 100,81.5272 123.0568,70 	"/>
	<path fill="none" d="M8,160h208v-24H8V160z M12,144h140v8H12V144z"/>
	<path d="M220,0H4C1.7912,0,0,1.7892,0,4v128v32c0,2.2108,1.7912,4,4,4h216c2.2088,0,4-1.7892,4-4v-32V4
		C224,1.7892,222.2088,0,220,0z M216,8v120H8V8H216z M216,160H8v-24h208V160z"/>
	<rect x="12" y="144" width="140" height="8"/>
	<path d="M93.8964,91.4024C94.5392,91.8008,95.2696,92,96,92c0.6112,0,1.2248-0.1408,1.7892-0.422l36-18
		C135.1444,72.8984,136,71.5156,136,70s-0.8556-2.8984-2.2108-3.578l-36-18c-1.2384-0.6172-2.7132-0.5588-3.8928,0.1756
		C92.7188,49.328,92,50.6132,92,52v36C92,89.3868,92.7188,90.672,93.8964,91.4024z M100,58.4728L123.0568,70L100,81.5272V58.4728z"
		/>
</g>
</svg>
